<svg width="206" height="208" viewBox="0 0 206 208" fill="none" xmlns="http://www.w3.org/2000/svg">
<path d="M2.30263 67.84L3.06788 65.9922L0.608786 64.9738L0.314858 67.6191L2.30263 67.84ZM30.2386 68.896L29.0894 67.2592L29.0734 67.2704L29.0576 67.2819L30.2386 68.896ZM11.5186 48.064H9.51863V50.064H11.5186V48.064ZM11.5186 38.464V36.464H9.51863V38.464H11.5186ZM27.8386 36.736L28.5539 38.6037L28.5724 38.5967L28.5907 38.5892L27.8386 36.736ZM33.4066 23.008L31.6828 24.022L31.7044 24.0587L31.7275 24.0945L33.4066 23.008ZM30.7186 20.224L31.828 18.5599L31.828 18.5599L30.7186 20.224ZM26.5906 18.4L26.0306 20.32L26.041 20.323L26.0514 20.3259L26.5906 18.4ZM5.56663 21.856L3.57514 22.0404L3.83618 24.8595L6.40598 23.6713L5.56663 21.856ZM4.60663 11.488L3.90217 9.61616L2.4745 10.1535L2.61514 11.6724L4.60663 11.488ZM37.5346 11.968L36.4379 13.6405L36.4444 13.6447L36.4509 13.6489L37.5346 11.968ZM33.7906 42.976L32.9024 41.184L28.7788 43.2279L33.0866 44.848L33.7906 42.976ZM37.4386 75.904L38.6421 77.5014L38.6516 77.4942L38.661 77.487L37.4386 75.904ZM1.15063 78.208L-0.837142 77.9871L-1.00322 79.4819L0.386647 80.0563L1.15063 78.208ZM1.53737 69.6878C8.05183 72.3857 14.1705 73.776 19.8706 73.776V69.776C14.8187 69.776 9.22542 68.5423 3.06788 65.9922L1.53737 69.6878ZM19.8706 73.776C24.4487 73.776 28.3583 72.7501 31.4196 70.5101L29.0576 67.2819C26.871 68.8819 23.8685 69.776 19.8706 69.776V73.776ZM31.3879 70.5328C34.9965 67.9991 36.7506 64.2448 36.7506 59.584H32.7506C32.7506 63.1152 31.4968 65.5689 29.0894 67.2592L31.3879 70.5328ZM36.7506 59.584C36.7506 55.2183 35.1854 51.6768 31.8811 49.3165C28.7008 47.0449 24.1763 46.064 18.6226 46.064V50.064C23.8209 50.064 27.3605 51.0031 29.5562 52.5715C31.6278 54.0512 32.7506 56.2697 32.7506 59.584H36.7506ZM18.6226 46.064H11.5186V50.064H18.6226V46.064ZM13.5186 48.064V38.464H9.51863V48.064H13.5186ZM11.5186 40.464H14.3986V36.464H11.5186V40.464ZM14.3986 40.464C20.4239 40.464 25.1991 39.8886 28.5539 38.6037L27.1233 34.8683C24.4622 35.8874 20.2774 36.464 14.3986 36.464V40.464ZM28.5907 38.5892C31.1084 37.5675 33.1184 36.0351 34.4828 33.9391C35.8427 31.8499 36.4626 29.3526 36.4626 26.56H32.4626C32.4626 28.7594 31.9785 30.4541 31.1305 31.7569C30.2868 33.0529 28.9849 34.1125 27.0866 34.8828L28.5907 38.5892ZM36.4626 26.56C36.4626 24.8894 35.9964 23.3289 35.0858 21.9215L31.7275 24.0945C32.2248 24.8631 32.4626 25.6706 32.4626 26.56H36.4626ZM35.1305 21.994C34.323 20.6212 33.2066 19.479 31.828 18.5599L29.6092 21.8881C30.5346 22.505 31.2102 23.2188 31.6828 24.022L35.1305 21.994ZM31.828 18.5599C30.47 17.6545 28.8933 16.9678 27.1299 16.4741L26.0514 20.3259C27.488 20.7282 28.6633 21.2575 29.6092 21.8881L31.828 18.5599ZM27.1506 16.48C25.4124 15.973 23.5577 15.728 21.5986 15.728V19.728C23.2235 19.728 24.6969 19.931 26.0306 20.32L27.1506 16.48ZM21.5986 15.728C16.4838 15.728 10.8474 17.2109 4.72727 20.0407L6.40598 23.6713C12.1898 20.9971 17.2415 19.728 21.5986 19.728V15.728ZM7.55811 21.6716L6.59811 11.3036L2.61514 11.6724L3.57514 22.0404L7.55811 21.6716ZM5.31108 13.3598C11.0613 11.1958 16.679 10.128 22.1746 10.128V6.128C16.1502 6.128 10.056 7.30022 3.90217 9.61616L5.31108 13.3598ZM22.1746 10.128C28.2563 10.128 32.957 11.3579 36.4379 13.6405L38.6313 10.2955C34.3042 7.45807 28.765 6.128 22.1746 6.128V10.128ZM36.4509 13.6489C40.6822 16.377 42.8306 20.443 42.8306 26.176H46.8306C46.8306 19.237 44.1151 13.831 38.6184 10.2871L36.4509 13.6489ZM42.8306 26.176C42.8306 29.6129 41.9984 32.5082 40.3992 34.9416C38.7937 37.3848 36.3359 39.4822 32.9024 41.184L34.6788 44.768C38.6053 42.8218 41.6675 40.2952 43.742 37.1384C45.8229 33.9718 46.8306 30.2911 46.8306 26.176H42.8306ZM33.0866 44.848C36.5024 46.1326 38.9386 48.0275 40.5405 50.4782C42.1503 52.9411 43.0226 56.127 43.0226 60.16H47.0226C47.0226 55.553 46.0229 51.5549 43.8887 48.2898C41.7466 45.0125 38.5669 42.6354 34.4946 41.104L33.0866 44.848ZM43.0226 60.16C43.0226 66.1555 40.7638 70.8096 36.2163 74.321L38.661 77.487C44.2254 73.1904 47.0226 67.3485 47.0226 60.16H43.0226ZM36.2351 74.3066C31.988 77.5065 26.4575 79.184 19.4866 79.184V83.184C27.1077 83.184 33.5452 81.3415 38.6421 77.5014L36.2351 74.3066ZM19.4866 79.184C12.221 79.184 6.39202 78.2103 1.9146 76.3597L0.386647 80.0563C5.50923 82.1737 11.9042 83.184 19.4866 83.184V79.184ZM3.13839 78.4289L4.29039 68.0609L0.314858 67.6191L-0.837142 77.9871L3.13839 78.4289Z" fill="#565555"/>
<circle cx="104" cy="115" r="92.5" fill="white" stroke="black"/>
<g clip-path="url(#clip0_347_1359)">
<path d="M119.011 77.0912C117.257 79.4088 111.902 87.1033 109.825 93.9172C113.287 93.2219 117.857 89.3283 122.289 84.3222C128.29 76.7667 136.554 64.6223 136 63.4172C135.861 63.0927 135.123 63 134.015 63C133.045 63.0464 132.076 63.4635 131.43 64.1588L128.891 66.8473L130.091 64.0661C130.137 63.9271 130.137 63.8343 130.045 63.6953C129.952 63.6026 129.814 63.5562 129.722 63.6026C125.336 64.576 119.611 66.7082 115.318 70.0456C114.441 70.7409 113.887 71.807 113.887 72.9658L113.841 77.462L112.456 73.4293C112.41 73.3366 112.317 73.2439 112.225 73.1976C112.087 73.1512 111.994 73.1976 111.902 73.2903C111.209 74.0783 110.563 74.9126 109.963 75.7006C109.363 76.5813 109.132 77.6474 109.317 78.6672L110.425 83.9514L107.932 79.965C107.886 79.8723 107.747 79.7796 107.609 79.826C107.47 79.826 107.378 79.9187 107.332 80.0114C105.162 84.4612 104.469 88.8184 105.485 91.4141C102.623 97.44 100.822 104.764 100.592 119.04C100.592 119.226 100.592 119.921 100.73 119.967C100.915 119.967 101.238 119.318 101.238 119.133C102.53 106.062 103.685 101.565 106.962 94.9369C109.271 90.3017 113.056 84.2758 119.011 77.0912Z" fill="#5C5F63"/>
<path d="M72.5234 122.748C76.9552 120.06 82.1257 118.669 87.2961 118.669C88.1733 118.669 89.0504 118.716 89.9275 118.809C89.9737 118.809 90.0199 118.855 90.066 118.855C90.1122 118.901 90.1122 118.901 90.1584 118.901L90.2507 118.855H90.1584V118.901L90.2507 118.855H90.1584H90.2507H90.1584H90.2507H90.1584H90.2045H90.1584H90.2045H90.1584C90.1584 118.855 90.1584 118.901 90.066 118.994C90.0199 119.087 89.9275 119.179 89.789 119.318C89.0966 120.106 88.4041 120.894 87.7116 121.636C87.4808 121.914 87.3423 122.239 87.3423 122.563C87.3423 122.934 87.4808 123.258 87.7116 123.536C87.8501 123.676 87.9886 123.768 88.1733 123.861C88.3579 123.954 88.5426 124 88.7272 124V123.49V124V123.49V124H88.7734L100.13 123.305C100.176 123.305 100.222 123.305 100.315 123.305C100.453 123.305 100.545 123.305 100.684 123.305C100.822 123.305 101.007 123.351 101.284 123.351C101.838 123.351 102.3 122.888 102.3 122.331C102.3 121.775 101.838 121.312 101.284 121.312C101.146 121.312 101.053 121.312 100.869 121.265C100.73 121.265 100.545 121.219 100.315 121.219C100.222 121.219 100.13 121.219 100.038 121.219L88.7272 121.914L88.7734 122.934L88.8196 121.914H88.7734V122.517L89.0042 121.96C88.9119 121.914 88.8196 121.914 88.7734 121.914V122.517L89.0042 121.96L88.7734 122.517L89.2812 122.192C89.2351 122.1 89.1427 122.007 89.0042 121.96L88.7734 122.517L89.2812 122.192L88.7734 122.517H89.3736C89.3736 122.378 89.3274 122.285 89.2812 122.192L88.7734 122.517H89.3736H88.7734L89.2351 122.934C89.3274 122.841 89.3736 122.656 89.3736 122.517H88.7734L89.2351 122.934C89.9275 122.146 90.62 121.358 91.3125 120.616C91.451 120.431 91.6356 120.245 91.8203 119.967C91.9126 119.828 92.0049 119.643 92.0511 119.457C92.0973 119.272 92.1434 119.04 92.1434 118.855C92.1434 118.484 92.0049 118.113 91.8203 117.789C91.6356 117.464 91.3586 117.233 91.0355 117.047C90.7123 116.862 90.3892 116.769 90.066 116.723C89.1427 116.63 88.1733 116.584 87.25 116.584C81.7102 116.584 76.2166 118.113 71.4616 120.941C71 121.219 70.8153 121.868 71.0923 122.331C71.4155 122.841 72.0618 123.027 72.5234 122.748Z" fill="#5C5F63"/>
</g>
<path d="M43.968 143.792V144.864H52.048V143.792H43.968ZM43.68 151.568V152.64H52.256V151.568H43.68ZM43.136 146.88V153.296H44.304V147.968H51.712V153.296H52.928V146.88H43.136ZM47.952 139.792C49.456 141.84 52.272 144.096 54.784 145.408C54.992 145.056 55.28 144.64 55.584 144.352C53.024 143.216 50.224 140.992 48.496 138.608H47.28C46.016 140.672 43.344 143.12 40.528 144.544C40.8 144.8 41.12 145.232 41.28 145.504C44.016 144.016 46.64 141.744 47.952 139.792ZM64.176 145.44C65.072 146.592 66 148.176 66.352 149.184L67.408 148.624C67.024 147.6 66.064 146.064 65.152 144.944L64.176 145.44ZM64.272 141.456V142.592H70.352V141.456H64.272ZM69.872 141.456V141.728C69.616 148.64 69.344 151.296 68.784 151.872C68.624 152.08 68.416 152.112 68.096 152.112C67.696 152.112 66.704 152.112 65.648 152.016C65.856 152.352 66 152.864 66.032 153.216C66.992 153.28 67.968 153.296 68.512 153.248C69.12 153.184 69.472 153.056 69.84 152.592C70.496 151.792 70.752 149.296 71.024 142.08C71.024 141.92 71.024 141.456 71.024 141.456H69.872ZM64.864 138.56C64.272 140.688 63.248 142.8 62 144.144C62.304 144.304 62.832 144.656 63.072 144.848C64.288 143.392 65.392 141.152 66.096 138.832L64.864 138.56ZM59.12 138.576C58.704 139.632 57.968 141.168 57.36 142.096L58.192 142.448C58.816 141.584 59.584 140.16 60.192 138.976L59.12 138.576ZM61.056 140.4C60.176 142.096 58.656 144.496 57.424 145.92L58.192 146.32C59.408 144.944 60.976 142.64 62.096 140.848L61.056 140.4ZM56.592 141.936C57.456 142.704 58.464 143.808 58.896 144.56L59.536 143.648C59.104 142.944 58.096 141.888 57.2 141.136L56.592 141.936ZM60.544 144.112C61.2 145.168 61.84 146.56 62.08 147.456L63.04 147.008C62.8 146.128 62.112 144.752 61.44 143.728L60.544 144.112ZM56.56 145.728L56.656 146.8C58.176 146.72 60.208 146.608 62.24 146.48V145.504C60.128 145.6 58 145.68 56.56 145.728ZM60.944 147.936C61.392 148.928 61.824 150.224 61.968 151.056L62.944 150.72C62.768 149.888 62.32 148.624 61.856 147.648L60.944 147.936ZM57.44 147.712C57.248 149.12 56.928 150.544 56.4 151.52C56.656 151.632 57.136 151.856 57.344 151.984C57.856 150.96 58.256 149.408 58.48 147.904L57.44 147.712ZM59.28 146.192V153.328H60.368V146.192H59.28ZM77.568 144.592V145.472H82.576V144.592H77.568ZM76.528 149.472C75.84 150.832 74.336 151.856 72.656 152.464C72.912 152.672 73.296 153.104 73.456 153.328C75.184 152.576 76.832 151.392 77.648 149.728L76.528 149.472ZM80 142.736C81.632 144.288 84.528 145.856 86.896 146.64C87.056 146.336 87.328 145.92 87.568 145.664C85.088 144.944 82.288 143.52 80.48 141.808H79.376C78.032 143.344 75.328 144.928 72.592 145.84C72.816 146.08 73.072 146.496 73.216 146.752C75.872 145.792 78.56 144.176 80 142.736ZM75.824 147.232H78.24V148.816H75.824V147.232ZM74.672 146.352V149.68H79.424V146.352H74.672ZM81.664 147.232H84.16V148.816H81.664V147.232ZM80.528 146.352V149.68H85.36V146.352H80.528ZM75.888 151.264C76.72 151.648 77.776 152.288 78.32 152.752L79.04 151.888C78.48 151.456 77.44 150.848 76.592 150.496L75.888 151.264ZM82.08 149.472C81.568 150.912 80.256 151.92 78.64 152.496C78.88 152.688 79.28 153.12 79.424 153.328C81.12 152.592 82.592 151.408 83.216 149.664L82.08 149.472ZM81.568 151.328C83.184 151.824 85.2 152.672 86.288 153.296L87.088 152.4C85.952 151.824 83.952 150.992 82.352 150.512L81.568 151.328ZM74.608 139.952V140.896H79.568V139.952H74.608ZM80.656 139.952V140.896H87.328V139.952H80.656ZM74.944 138.496C74.432 139.904 73.568 141.312 72.576 142.24C72.864 142.4 73.344 142.72 73.568 142.896C74.512 141.888 75.472 140.352 76.064 138.784L74.944 138.496ZM81.184 138.496C80.656 139.664 79.76 140.8 78.752 141.552C79.024 141.712 79.52 142.032 79.728 142.224C80.72 141.408 81.728 140.112 82.32 138.784L81.184 138.496ZM75.52 140.656C75.904 141.36 76.288 142.32 76.416 142.912L77.504 142.592C77.36 142 76.928 141.056 76.56 140.368L75.52 140.656ZM82.192 140.656C82.784 141.328 83.424 142.272 83.68 142.88L84.8 142.528C84.512 141.904 83.856 140.992 83.264 140.336L82.192 140.656ZM95.168 139.984V141.136H103.376V139.984H95.168ZM99.12 140.464V151.712C99.12 152 99.024 152.096 98.72 152.096C98.416 152.112 97.408 152.112 96.32 152.064C96.496 152.432 96.704 152.96 96.752 153.296C98.16 153.296 99.072 153.28 99.6 153.072C100.128 152.88 100.32 152.528 100.32 151.712V140.464H99.12ZM89.36 143.408V144.368H94.352V143.408H89.36ZM89.456 139.136V140.096H94.368V139.136H89.456ZM89.36 145.552V146.512H94.352V145.552H89.36ZM88.608 141.232V142.224H94.976V141.232H88.608ZM89.92 147.712V148.704H93.232V151.376H89.92V152.384H94.304V147.712H89.92ZM89.344 147.712V153.12H90.416V147.712H89.344ZM108.64 145.792L107.536 146.192C109.536 150.208 113.264 152.512 118.608 153.328C118.784 152.992 119.104 152.464 119.376 152.192C114.128 151.488 110.384 149.344 108.64 145.792ZM105.952 144.672V145.84H116.384V144.672H105.952ZM105.216 141.008V142.208H118.72V141.008H105.216ZM111.344 138.576V145.216H112.576V138.576H111.344ZM116 144.672V144.912C114.336 149.296 109.824 151.328 104.624 152.144C104.848 152.416 105.168 152.976 105.28 153.28C110.592 152.32 115.344 150.048 117.328 145.12L116.512 144.624L116.272 144.672H116ZM125.504 142.128V143.344H135.264V142.128H125.504ZM132.016 138.752V151.648C132.016 152.016 131.872 152.112 131.488 152.144C131.12 152.16 129.792 152.16 128.432 152.112C128.624 152.448 128.848 152.992 128.912 153.312C130.656 153.328 131.744 153.312 132.368 153.104C132.976 152.928 133.232 152.56 133.232 151.648V138.752H132.016ZM126.512 145.52C127.328 146.8 128.368 148.528 128.848 149.52L129.968 148.912C129.456 147.936 128.384 146.272 127.552 145.024L126.512 145.52ZM122.96 142.928V153.248H124.176V141.744L124.16 141.712L122.96 142.928ZM124.704 138.672C123.776 141.168 122.24 143.616 120.592 145.184C120.816 145.472 121.2 146.08 121.344 146.368C123.12 144.56 124.8 141.808 125.872 139.024L124.704 138.672ZM143.168 139.984V141.136H151.376V139.984H143.168ZM147.12 140.464V151.712C147.12 152 147.024 152.096 146.72 152.096C146.416 152.112 145.408 152.112 144.32 152.064C144.496 152.432 144.704 152.96 144.752 153.296C146.16 153.296 147.072 153.28 147.6 153.072C148.128 152.88 148.32 152.528 148.32 151.712V140.464H147.12ZM137.36 143.408V144.368H142.352V143.408H137.36ZM137.456 139.136V140.096H142.368V139.136H137.456ZM137.36 145.552V146.512H142.352V145.552H137.36ZM136.608 141.232V142.224H142.976V141.232H136.608ZM137.92 147.712V148.704H141.232V151.376H137.92V152.384H142.304V147.712H137.92ZM137.344 147.712V153.12H138.416V147.712H137.344ZM159.936 139.728C161.408 141.712 164.192 143.904 166.672 145.184C166.88 144.832 167.168 144.416 167.456 144.128C164.944 143.008 162.176 140.864 160.48 138.544H159.248C158.016 140.56 155.36 142.928 152.592 144.32C152.848 144.576 153.184 144.992 153.328 145.28C156.032 143.84 158.608 141.632 159.936 139.728ZM155.968 143.44V144.528H164V143.44H155.968ZM153.904 146.656V147.728H166.08V146.656H153.904ZM153.168 151.712V152.768H166.848V151.712H153.168ZM159.296 143.856V152.272H160.56V143.856H159.296ZM155.232 148.544C155.872 149.44 156.496 150.688 156.704 151.488L157.744 151.04C157.52 150.24 156.864 149.024 156.208 148.144L155.232 148.544ZM163.6 148.112C163.2 149.024 162.448 150.304 161.872 151.088L162.784 151.488C163.376 150.736 164.128 149.584 164.736 148.576L163.6 148.112Z" fill="#5C5F63"/>
<path d="M81.2241 164H80.1673C80.1048 163.696 79.9954 163.429 79.8391 163.199C79.6857 162.969 79.4982 162.776 79.2766 162.619C79.0579 162.46 78.815 162.341 78.5479 162.261C78.2809 162.182 78.0025 162.142 77.7127 162.142C77.1843 162.142 76.7056 162.276 76.2766 162.543C75.8505 162.81 75.511 163.203 75.2582 163.723C75.0082 164.243 74.8832 164.881 74.8832 165.636C74.8832 166.392 75.0082 167.03 75.2582 167.55C75.511 168.07 75.8505 168.463 76.2766 168.73C76.7056 168.997 77.1843 169.131 77.7127 169.131C78.0025 169.131 78.2809 169.091 78.5479 169.011C78.815 168.932 79.0579 168.814 79.2766 168.658C79.4982 168.499 79.6857 168.304 79.8391 168.074C79.9954 167.841 80.1048 167.574 80.1673 167.273H81.2241C81.1445 167.719 80.9996 168.118 80.7894 168.47C80.5792 168.822 80.3178 169.122 80.0053 169.369C79.6928 169.614 79.342 169.8 78.9528 169.928C78.5664 170.055 78.1531 170.119 77.7127 170.119C76.9684 170.119 76.3065 169.938 75.7269 169.574C75.1474 169.21 74.6914 168.693 74.359 168.023C74.0266 167.352 73.8604 166.557 73.8604 165.636C73.8604 164.716 74.0266 163.92 74.359 163.25C74.6914 162.58 75.1474 162.062 75.7269 161.699C76.3065 161.335 76.9684 161.153 77.7127 161.153C78.1531 161.153 78.5664 161.217 78.9528 161.345C79.342 161.473 79.6928 161.661 80.0053 161.908C80.3178 162.152 80.5792 162.45 80.7894 162.803C80.9996 163.152 81.1445 163.551 81.2241 164ZM85.4545 170.136C84.8636 170.136 84.3452 169.996 83.8991 169.714C83.456 169.433 83.1094 169.04 82.8594 168.534C82.6122 168.028 82.4886 167.437 82.4886 166.761C82.4886 166.08 82.6122 165.484 82.8594 164.976C83.1094 164.467 83.456 164.072 83.8991 163.791C84.3452 163.51 84.8636 163.369 85.4545 163.369C86.0455 163.369 86.5625 163.51 87.0057 163.791C87.4517 164.072 87.7983 164.467 88.0455 164.976C88.2955 165.484 88.4205 166.08 88.4205 166.761C88.4205 167.437 88.2955 168.028 88.0455 168.534C87.7983 169.04 87.4517 169.433 87.0057 169.714C86.5625 169.996 86.0455 170.136 85.4545 170.136ZM85.4545 169.233C85.9034 169.233 86.2727 169.118 86.5625 168.888C86.8523 168.658 87.0668 168.355 87.206 167.98C87.3452 167.605 87.4148 167.199 87.4148 166.761C87.4148 166.324 87.3452 165.916 87.206 165.538C87.0668 165.161 86.8523 164.855 86.5625 164.622C86.2727 164.389 85.9034 164.273 85.4545 164.273C85.0057 164.273 84.6364 164.389 84.3466 164.622C84.0568 164.855 83.8423 165.161 83.7031 165.538C83.5639 165.916 83.4943 166.324 83.4943 166.761C83.4943 167.199 83.5639 167.605 83.7031 167.98C83.8423 168.355 84.0568 168.658 84.3466 168.888C84.6364 169.118 85.0057 169.233 85.4545 169.233ZM90.9613 166.062V170H89.9556V163.455H90.9272V164.477H91.0124C91.1658 164.145 91.3988 163.878 91.7113 163.676C92.0238 163.472 92.4272 163.369 92.9215 163.369C93.3647 163.369 93.7525 163.46 94.0849 163.642C94.4173 163.821 94.6758 164.094 94.8604 164.46C95.0451 164.824 95.1374 165.284 95.1374 165.841V170H94.1317V165.909C94.1317 165.395 93.9982 164.994 93.7312 164.707C93.4641 164.418 93.0977 164.273 92.6317 164.273C92.3107 164.273 92.0238 164.342 91.771 164.482C91.521 164.621 91.3235 164.824 91.1786 165.091C91.0337 165.358 90.9613 165.682 90.9613 166.062ZM99.8217 163.455V164.307H96.4297V163.455H99.8217ZM97.4183 161.886H98.424V168.125C98.424 168.409 98.4652 168.622 98.5476 168.764C98.6328 168.903 98.7408 168.997 98.8714 169.045C99.005 169.091 99.1456 169.114 99.2933 169.114C99.4041 169.114 99.495 169.108 99.5661 169.097C99.6371 169.082 99.6939 169.071 99.7365 169.062L99.9411 169.966C99.8729 169.991 99.7777 170.017 99.6555 170.043C99.5334 170.071 99.3786 170.085 99.1911 170.085C98.907 170.085 98.6286 170.024 98.3558 169.902C98.0859 169.78 97.8615 169.594 97.6825 169.344C97.5064 169.094 97.4183 168.778 97.4183 168.398V161.886ZM101.335 170V163.455H102.306V164.443H102.374C102.494 164.119 102.71 163.857 103.022 163.655C103.335 163.453 103.687 163.352 104.079 163.352C104.153 163.352 104.245 163.354 104.356 163.357C104.467 163.359 104.55 163.364 104.607 163.369V164.392C104.573 164.384 104.495 164.371 104.373 164.354C104.254 164.334 104.127 164.324 103.994 164.324C103.675 164.324 103.391 164.391 103.141 164.524C102.894 164.655 102.698 164.837 102.553 165.07C102.411 165.3 102.34 165.562 102.34 165.858V170H101.335ZM107.725 170.153C107.311 170.153 106.934 170.075 106.596 169.919C106.258 169.76 105.99 169.531 105.791 169.233C105.592 168.932 105.493 168.568 105.493 168.142C105.493 167.767 105.566 167.463 105.714 167.23C105.862 166.994 106.059 166.81 106.306 166.676C106.554 166.543 106.826 166.443 107.125 166.378C107.426 166.31 107.728 166.256 108.032 166.216C108.43 166.165 108.752 166.126 109 166.101C109.25 166.072 109.431 166.026 109.545 165.96C109.662 165.895 109.72 165.781 109.72 165.619V165.585C109.72 165.165 109.605 164.838 109.375 164.605C109.147 164.372 108.802 164.256 108.339 164.256C107.859 164.256 107.483 164.361 107.21 164.571C106.937 164.781 106.745 165.006 106.635 165.244L105.68 164.903C105.85 164.506 106.078 164.196 106.362 163.974C106.649 163.75 106.961 163.594 107.299 163.506C107.64 163.415 107.975 163.369 108.305 163.369C108.515 163.369 108.757 163.395 109.029 163.446C109.305 163.494 109.571 163.595 109.826 163.749C110.085 163.902 110.299 164.134 110.47 164.443C110.64 164.753 110.725 165.168 110.725 165.688V170H109.72V169.114H109.669C109.6 169.256 109.487 169.408 109.328 169.57C109.169 169.732 108.957 169.869 108.693 169.983C108.429 170.097 108.106 170.153 107.725 170.153ZM107.879 169.25C108.277 169.25 108.612 169.172 108.885 169.016C109.16 168.859 109.368 168.658 109.507 168.411C109.649 168.163 109.72 167.903 109.72 167.631V166.71C109.677 166.761 109.583 166.808 109.439 166.851C109.297 166.891 109.132 166.926 108.944 166.957C108.76 166.986 108.579 167.011 108.403 167.034C108.23 167.054 108.089 167.071 107.981 167.085C107.72 167.119 107.475 167.175 107.248 167.251C107.024 167.325 106.842 167.437 106.703 167.588C106.566 167.736 106.498 167.937 106.498 168.193C106.498 168.543 106.627 168.807 106.886 168.986C107.147 169.162 107.478 169.25 107.879 169.25ZM115.22 170.136C114.607 170.136 114.078 169.991 113.635 169.702C113.192 169.412 112.851 169.013 112.612 168.504C112.374 167.996 112.254 167.415 112.254 166.761C112.254 166.097 112.376 165.51 112.621 165.001C112.868 164.49 113.212 164.091 113.652 163.804C114.095 163.514 114.612 163.369 115.203 163.369C115.663 163.369 116.078 163.455 116.447 163.625C116.817 163.795 117.119 164.034 117.355 164.341C117.591 164.648 117.737 165.006 117.794 165.415H116.788C116.712 165.116 116.541 164.852 116.277 164.622C116.016 164.389 115.663 164.273 115.22 164.273C114.828 164.273 114.484 164.375 114.189 164.58C113.896 164.781 113.668 165.067 113.503 165.436C113.341 165.803 113.26 166.233 113.26 166.727C113.26 167.233 113.339 167.673 113.499 168.048C113.661 168.423 113.888 168.714 114.18 168.922C114.476 169.129 114.822 169.233 115.22 169.233C115.482 169.233 115.719 169.188 115.932 169.097C116.145 169.006 116.325 168.875 116.473 168.705C116.621 168.534 116.726 168.33 116.788 168.091H117.794C117.737 168.477 117.597 168.825 117.372 169.135C117.151 169.442 116.857 169.686 116.49 169.868C116.126 170.047 115.703 170.136 115.22 170.136ZM122.111 163.455V164.307H118.719V163.455H122.111ZM119.707 161.886H120.713V168.125C120.713 168.409 120.754 168.622 120.837 168.764C120.922 168.903 121.03 168.997 121.161 169.045C121.294 169.091 121.435 169.114 121.582 169.114C121.693 169.114 121.784 169.108 121.855 169.097C121.926 169.082 121.983 169.071 122.026 169.062L122.23 169.966C122.162 169.991 122.067 170.017 121.945 170.043C121.822 170.071 121.668 170.085 121.48 170.085C121.196 170.085 120.918 170.024 120.645 169.902C120.375 169.78 120.151 169.594 119.972 169.344C119.795 169.094 119.707 168.778 119.707 168.398V161.886ZM128.143 164.92L127.239 165.176C127.183 165.026 127.099 164.879 126.988 164.737C126.88 164.592 126.732 164.473 126.545 164.379C126.357 164.286 126.117 164.239 125.825 164.239C125.424 164.239 125.09 164.331 124.823 164.516C124.559 164.697 124.427 164.929 124.427 165.21C124.427 165.46 124.518 165.658 124.7 165.803C124.881 165.947 125.165 166.068 125.552 166.165L126.523 166.403C127.109 166.545 127.545 166.763 127.832 167.055C128.119 167.345 128.262 167.719 128.262 168.176C128.262 168.551 128.154 168.886 127.938 169.182C127.725 169.477 127.427 169.71 127.043 169.881C126.66 170.051 126.214 170.136 125.705 170.136C125.038 170.136 124.485 169.991 124.048 169.702C123.61 169.412 123.333 168.989 123.217 168.432L124.171 168.193C124.262 168.545 124.434 168.81 124.687 168.986C124.942 169.162 125.276 169.25 125.688 169.25C126.157 169.25 126.529 169.151 126.805 168.952C127.083 168.75 127.222 168.509 127.222 168.227C127.222 168 127.143 167.81 126.984 167.656C126.825 167.5 126.58 167.384 126.251 167.307L125.16 167.051C124.56 166.909 124.12 166.689 123.839 166.391C123.56 166.089 123.421 165.713 123.421 165.261C123.421 164.892 123.525 164.565 123.732 164.281C123.942 163.997 124.228 163.774 124.589 163.612C124.952 163.45 125.364 163.369 125.825 163.369C126.472 163.369 126.981 163.511 127.35 163.795C127.722 164.08 127.987 164.455 128.143 164.92Z" fill="#5C5F63"/>
<defs>
<clipPath id="clip0_347_1359">
<rect width="65" height="61" fill="white" transform="translate(71 63)"/>
</clipPath>
</defs>
</svg>
