<svg width="206" height="208" viewBox="0 0 206 208" fill="none" xmlns="http://www.w3.org/2000/svg">
<path d="M45.4066 20.032L44.701 21.9034L47.2229 22.8543L47.4022 20.165L45.4066 20.032ZM12.5746 39.616L10.5848 39.4144L9.96987 45.4836L14.0588 40.9566L12.5746 39.616ZM40.6066 38.368L41.8536 36.8043L41.8467 36.7989L40.6066 38.368ZM42.0466 74.656L40.5902 73.2853L40.5848 73.291L40.5795 73.2968L42.0466 74.656ZM9.02263 19.552L7.40163 18.3805L7.39622 18.388L7.39089 18.3955L9.02263 19.552ZM46.0786 9.952L48.0742 10.085L48.1827 8.45695L46.6096 8.02377L46.0786 9.952ZM16.1266 47.008L14.7124 45.5938L14.7124 45.5938L16.1266 47.008ZM15.8386 66.88L17.4347 65.6748L17.428 65.6659L17.4212 65.6571L15.8386 66.88ZM34.7506 67.456L33.264 66.1181L33.2401 66.1447L33.2171 66.1721L34.7506 67.456ZM46.1122 18.1606C41.9698 16.5987 37.5694 15.824 32.9266 15.824V19.824C37.1158 19.824 41.0355 20.5213 44.701 21.9034L46.1122 18.1606ZM32.9266 15.824C26.454 15.824 21.1553 17.7841 17.3049 21.9069C13.5033 25.9775 11.345 31.9112 10.5848 39.4144L14.5644 39.8176C15.2762 32.7928 17.246 27.8305 20.2283 24.6371C23.1619 21.4959 27.3032 19.824 32.9266 19.824V15.824ZM14.0588 40.9566C17.2665 37.4052 21.1766 35.664 25.9186 35.664V31.664C20.0366 31.664 15.0508 33.8908 11.0904 38.2754L14.0588 40.9566ZM25.9186 35.664C31.364 35.664 35.8039 37.1215 39.3665 39.9371L41.8467 36.7989C37.4733 33.3425 32.1212 31.664 25.9186 31.664V35.664ZM39.3597 39.9317C43.8203 43.4889 46.1906 48.9175 46.1906 56.608H50.1906C50.1906 48.0425 47.5049 41.3111 41.8536 36.8043L39.3597 39.9317ZM46.1906 56.608C46.1906 63.9291 44.246 69.4011 40.5902 73.2853L43.503 76.0267C48.0393 71.2069 50.1906 64.6469 50.1906 56.608H46.1906ZM40.5795 73.2968C37.0137 77.1456 31.9053 79.184 24.9586 79.184V83.184C32.7319 83.184 39.0156 80.8704 43.5138 76.0152L40.5795 73.2968ZM24.9586 79.184C17.8825 79.184 12.8113 76.6095 9.40821 71.5689C5.91063 66.3884 4.01463 58.3657 4.01463 47.2H0.0146255C0.0146255 58.6903 1.94262 67.6596 6.09304 73.8071C10.3379 80.0945 16.7388 83.184 24.9586 83.184V79.184ZM4.01463 47.2C4.01463 35.5906 6.30989 26.8383 10.6544 20.7085L7.39089 18.3955C2.39136 25.4496 0.0146255 35.1294 0.0146255 47.2H4.01463ZM10.6436 20.7235C15.7036 13.7218 23.2991 10.128 33.7906 10.128V6.128C22.2662 6.128 13.3496 10.1502 7.40163 18.3805L10.6436 20.7235ZM33.7906 10.128C37.3539 10.128 41.2693 10.7021 45.5477 11.8802L46.6096 8.02377C42.056 6.76988 37.7794 6.128 33.7906 6.128V10.128ZM44.0831 9.81896L43.4111 19.899L47.4022 20.165L48.0742 10.085L44.0831 9.81896ZM25.9186 41.36C21.4008 41.36 17.5899 42.7163 14.7124 45.5938L17.5408 48.4222C19.5274 46.4357 22.2444 45.36 25.9186 45.36V41.36ZM14.7124 45.5938C11.9071 48.3991 10.5746 52.0765 10.5746 56.416H14.5746C14.5746 52.9475 15.6101 50.3529 17.5408 48.4222L14.7124 45.5938ZM10.5746 56.416C10.5746 60.9408 11.7654 64.8797 14.2561 68.1029L17.4212 65.6571C15.5598 63.2483 14.5746 60.2112 14.5746 56.416H10.5746ZM14.2425 68.0852C16.9781 71.708 20.6664 73.584 25.1506 73.584V69.584C21.9549 69.584 19.4351 68.324 17.4347 65.6748L14.2425 68.0852ZM25.1506 73.584C29.745 73.584 33.5439 72.0129 36.2841 68.7399L33.2171 66.1721C31.3494 68.4031 28.7483 69.584 25.1506 69.584V73.584ZM36.2372 68.7939C38.9425 65.7881 40.2066 61.881 40.2066 57.28H36.2066C36.2066 61.127 35.1668 64.0039 33.264 66.1181L36.2372 68.7939ZM40.2066 57.28C40.2066 52.3888 39.1326 48.3469 36.634 45.5164C34.0934 42.6384 30.3921 41.36 25.9186 41.36V45.36C29.6371 45.36 32.0799 46.4016 33.6353 48.1636C35.2327 49.9731 36.2066 52.8912 36.2066 57.28H40.2066Z" fill="#565555"/>
<circle cx="104" cy="115" r="92.5" fill="white" stroke="black"/>
<g clip-path="url(#clip0_347_1640)">
<path d="M121.368 66H100.476H81V85.4552V121.319V124H83.6723H121.368H124.04V121.319V68.6807V66H121.368ZM121.854 121.807H83.1864V86.1863V68.1933H101.123H121.854V121.807Z" fill="#5C5F63"/>
<path d="M98.9371 93.9846C98.2083 93.9846 97.7629 93.5378 97.7629 92.6849V79.6064C97.7629 79.119 97.9654 78.3067 99.1801 78.3067H107.197C108.007 78.3067 108.493 78.7129 108.493 79.444C108.493 80.1751 108.007 80.6219 107.197 80.6219H100.152C100.111 80.6219 100.111 80.6219 100.111 80.6219V84.6429H106.306C107.44 84.6429 107.602 85.4146 107.602 85.7395C107.602 86.4706 107.157 86.8768 106.306 86.8768H100.071V92.6849C100.071 93.5378 99.666 93.9846 98.9371 93.9846Z" fill="#5C5F63"/>
<path d="M107.238 80.3375H100.152C99.9089 80.3375 99.7875 80.4594 99.7875 80.6625V84.9272H106.266C106.914 84.9272 107.238 85.2115 107.238 85.7395C107.238 86.3081 106.914 86.5924 106.266 86.5924H99.7875V92.6849C99.7875 93.3347 99.5041 93.6597 98.9372 93.6597C98.3703 93.6597 98.0869 93.3347 98.0869 92.6849V79.6064C98.0869 78.9566 98.4513 78.6317 99.2206 78.6317H107.238C107.885 78.6317 108.25 78.916 108.25 79.4846C108.25 80.0532 107.926 80.3375 107.238 80.3375Z" fill="#5C5F63"/>
<path d="M111.813 116.405H93.228V118.598H111.813" fill="#5C5F63"/>
<path d="M116.267 112.871H88.7336V115.024H116.267" fill="#5C5F63"/>
<path d="M109.424 109.297H95.5764V111.49H109.424" fill="#5C5F63"/>
<path d="M109.424 102.311H95.5764V104.504H109.424" fill="#5C5F63"/>
<path d="M113.756 105.763H91.2844V107.957H113.756" fill="#5C5F63"/>
<path d="M102.5 71.402C94.8881 71.402 88.7336 77.5756 88.7336 85.2115C88.7336 92.8473 94.8881 99.021 102.5 99.021C110.112 99.021 116.267 92.8473 116.267 85.2115C116.267 77.5756 110.112 71.402 102.5 71.402ZM102.5 96.6247C96.2242 96.6247 91.1225 91.507 91.1225 85.2115C91.1225 78.916 96.2242 73.7983 102.5 73.7983C108.776 73.7983 113.878 78.916 113.878 85.2115C113.878 91.507 108.817 96.6247 102.5 96.6247Z" fill="#5C5F63"/>
</g>
<path d="M71.508 170V161.273H76.7409V162.21H72.5648V165.159H76.3489V166.097H72.5648V170H71.508ZM78.4146 170V163.455H79.4203V170H78.4146ZM78.926 162.364C78.7299 162.364 78.5609 162.297 78.4189 162.163C78.2797 162.03 78.21 161.869 78.21 161.682C78.21 161.494 78.2797 161.334 78.4189 161.2C78.5609 161.067 78.7299 161 78.926 161C79.122 161 79.2896 161.067 79.4288 161.2C79.5708 161.334 79.6419 161.494 79.6419 161.682C79.6419 161.869 79.5708 162.03 79.4288 162.163C79.2896 162.297 79.122 162.364 78.926 162.364ZM82.2679 166.062V170H81.2623V163.455H82.2338V164.477H82.3191C82.4725 164.145 82.7054 163.878 83.0179 163.676C83.3304 163.472 83.7338 163.369 84.2282 163.369C84.6713 163.369 85.0591 163.46 85.3915 163.642C85.7239 163.821 85.9824 164.094 86.1671 164.46C86.3517 164.824 86.4441 165.284 86.4441 165.841V170H85.4384V165.909C85.4384 165.395 85.3049 164.994 85.0378 164.707C84.7708 164.418 84.4043 164.273 83.9384 164.273C83.6174 164.273 83.3304 164.342 83.0776 164.482C82.8276 164.621 82.6301 164.824 82.4853 165.091C82.3404 165.358 82.2679 165.682 82.2679 166.062ZM90.2079 170.153C89.7931 170.153 89.4167 170.075 89.0787 169.919C88.7406 169.76 88.4721 169.531 88.2733 169.233C88.0744 168.932 87.975 168.568 87.975 168.142C87.975 167.767 88.0488 167.463 88.1966 167.23C88.3443 166.994 88.5417 166.81 88.7889 166.676C89.036 166.543 89.3088 166.443 89.6071 166.378C89.9082 166.31 90.2108 166.256 90.5147 166.216C90.9125 166.165 91.2349 166.126 91.4821 166.101C91.7321 166.072 91.9139 166.026 92.0275 165.96C92.144 165.895 92.2022 165.781 92.2022 165.619V165.585C92.2022 165.165 92.0872 164.838 91.8571 164.605C91.6298 164.372 91.2846 164.256 90.8216 164.256C90.3414 164.256 89.965 164.361 89.6923 164.571C89.4196 164.781 89.2278 165.006 89.117 165.244L88.1625 164.903C88.3329 164.506 88.5602 164.196 88.8443 163.974C89.1312 163.75 89.4437 163.594 89.7818 163.506C90.1227 163.415 90.4579 163.369 90.7875 163.369C90.9977 163.369 91.2392 163.395 91.5119 163.446C91.7875 163.494 92.0531 163.595 92.3088 163.749C92.5673 163.902 92.7818 164.134 92.9522 164.443C93.1227 164.753 93.2079 165.168 93.2079 165.688V170H92.2022V169.114H92.1511C92.0829 169.256 91.9693 169.408 91.8102 169.57C91.6511 169.732 91.4395 169.869 91.1752 169.983C90.911 170.097 90.5886 170.153 90.2079 170.153ZM90.3613 169.25C90.7591 169.25 91.0943 169.172 91.367 169.016C91.6426 168.859 91.85 168.658 91.9892 168.411C92.1312 168.163 92.2022 167.903 92.2022 167.631V166.71C92.1596 166.761 92.0659 166.808 91.921 166.851C91.7789 166.891 91.6142 166.926 91.4267 166.957C91.242 166.986 91.0616 167.011 90.8855 167.034C90.7122 167.054 90.5716 167.071 90.4636 167.085C90.2022 167.119 89.9579 167.175 89.7306 167.251C89.5062 167.325 89.3244 167.437 89.1852 167.588C89.0488 167.736 88.9806 167.937 88.9806 168.193C88.9806 168.543 89.1099 168.807 89.3684 168.986C89.6298 169.162 89.9608 169.25 90.3613 169.25ZM96.0492 161.273V170H95.0435V161.273H96.0492ZM102.988 170L100.601 161.273H101.675L103.499 168.381H103.584L105.442 161.273H106.635L108.493 168.381H108.579L110.403 161.273H111.476L109.09 170H107.999L106.073 163.045H106.005L104.079 170H102.988ZM114.706 170.136C114.116 170.136 113.597 169.996 113.151 169.714C112.708 169.433 112.361 169.04 112.111 168.534C111.864 168.028 111.741 167.437 111.741 166.761C111.741 166.08 111.864 165.484 112.111 164.976C112.361 164.467 112.708 164.072 113.151 163.791C113.597 163.51 114.116 163.369 114.706 163.369C115.297 163.369 115.814 163.51 116.258 163.791C116.704 164.072 117.05 164.467 117.297 164.976C117.547 165.484 117.672 166.08 117.672 166.761C117.672 167.437 117.547 168.028 117.297 168.534C117.05 169.04 116.704 169.433 116.258 169.714C115.814 169.996 115.297 170.136 114.706 170.136ZM114.706 169.233C115.155 169.233 115.525 169.118 115.814 168.888C116.104 168.658 116.319 168.355 116.458 167.98C116.597 167.605 116.667 167.199 116.667 166.761C116.667 166.324 116.597 165.916 116.458 165.538C116.319 165.161 116.104 164.855 115.814 164.622C115.525 164.389 115.155 164.273 114.706 164.273C114.258 164.273 113.888 164.389 113.599 164.622C113.309 164.855 113.094 165.161 112.955 165.538C112.816 165.916 112.746 166.324 112.746 166.761C112.746 167.199 112.816 167.605 112.955 167.98C113.094 168.355 113.309 168.658 113.599 168.888C113.888 169.118 114.258 169.233 114.706 169.233ZM119.208 170V163.455H120.179V164.443H120.247C120.367 164.119 120.583 163.857 120.895 163.655C121.208 163.453 121.56 163.352 121.952 163.352C122.026 163.352 122.118 163.354 122.229 163.357C122.34 163.359 122.423 163.364 122.48 163.369V164.392C122.446 164.384 122.368 164.371 122.246 164.354C122.127 164.334 122 164.324 121.867 164.324C121.548 164.324 121.264 164.391 121.014 164.524C120.767 164.655 120.571 164.837 120.426 165.07C120.284 165.3 120.213 165.562 120.213 165.858V170H119.208ZM124.61 167.614L124.593 166.369H124.797L127.661 163.455H128.905L125.854 166.54H125.769L124.61 167.614ZM123.672 170V161.273H124.678V170H123.672ZM127.831 170L125.275 166.761L125.991 166.062L129.11 170H127.831ZM134.836 164.92L133.933 165.176C133.876 165.026 133.792 164.879 133.681 164.737C133.573 164.592 133.426 164.473 133.238 164.379C133.051 164.286 132.811 164.239 132.518 164.239C132.117 164.239 131.784 164.331 131.517 164.516C131.252 164.697 131.12 164.929 131.12 165.21C131.12 165.46 131.211 165.658 131.393 165.803C131.575 165.947 131.859 166.068 132.245 166.165L133.217 166.403C133.802 166.545 134.238 166.763 134.525 167.055C134.812 167.345 134.955 167.719 134.955 168.176C134.955 168.551 134.847 168.886 134.632 169.182C134.419 169.477 134.12 169.71 133.737 169.881C133.353 170.051 132.907 170.136 132.399 170.136C131.731 170.136 131.178 169.991 130.741 169.702C130.303 169.412 130.026 168.989 129.91 168.432L130.865 168.193C130.955 168.545 131.127 168.81 131.38 168.986C131.636 169.162 131.97 169.25 132.382 169.25C132.85 169.25 133.222 169.151 133.498 168.952C133.776 168.75 133.916 168.509 133.916 168.227C133.916 168 133.836 167.81 133.677 167.656C133.518 167.5 133.274 167.384 132.944 167.307L131.853 167.051C131.254 166.909 130.813 166.689 130.532 166.391C130.254 166.089 130.115 165.713 130.115 165.261C130.115 164.892 130.218 164.565 130.426 164.281C130.636 163.997 130.921 163.774 131.282 163.612C131.646 163.45 132.058 163.369 132.518 163.369C133.166 163.369 133.674 163.511 134.044 163.795C134.416 164.08 134.68 164.455 134.836 164.92Z" fill="#5C5F63"/>
<path d="M76.405 143.765V144.785H84.565V143.765H76.405ZM73.84 146.525V147.59H87.145V146.525H73.84ZM77.785 147.26C77.53 149.705 76.885 151.43 73.51 152.27C73.75 152.495 74.05 152.945 74.17 153.23C77.83 152.21 78.67 150.185 78.985 147.26H77.785ZM81.58 147.17V151.4C81.58 152.6 81.94 152.945 83.32 152.945C83.62 152.945 85.345 152.945 85.645 152.945C86.845 152.945 87.175 152.42 87.295 150.365C86.995 150.275 86.515 150.095 86.275 149.915C86.23 151.64 86.125 151.91 85.555 151.91C85.165 151.91 83.74 151.91 83.44 151.91C82.81 151.91 82.705 151.835 82.705 151.385V147.17H81.58ZM79.87 139.415V141.8H81.055V139.415H79.87ZM74.185 141.02V144.2H75.325V142.085H85.615V144.2H86.8V141.02H74.185ZM97.48 139.415V141.41H98.575V139.415H97.48ZM93.895 140.945V141.86H102.13V140.945H93.895ZM96.085 143.525H100.045V144.965H96.085V143.525ZM95.11 142.685V145.805H101.065V142.685H95.11ZM94.015 146.63V153.185H95.035V147.545H101.47V146.63H94.015ZM101.065 146.63V152.09C101.065 152.255 101.005 152.285 100.855 152.3C100.69 152.315 100.18 152.315 99.58 152.3C99.715 152.555 99.85 152.93 99.895 153.2C100.75 153.2 101.305 153.185 101.65 153.035C101.995 152.87 102.1 152.6 102.1 152.105V146.63H101.065ZM96.115 148.445V152.225H96.955V148.445H96.115ZM96.7 148.445V149.21H99.13V150.74H96.7V151.505H99.97V148.445H96.7ZM90.88 140.6V153.215H91.96V140.6H90.88ZM88.675 143.57V144.62H93.865V143.57H88.675ZM90.94 143.975C90.475 145.805 89.41 148.145 88.45 149.36C88.645 149.63 88.915 150.095 89.02 150.395C90.07 149.015 91.12 146.345 91.645 144.26L90.94 143.975ZM93.01 139.655C92.02 140.105 90.205 140.48 88.645 140.72C88.78 140.975 88.93 141.35 88.99 141.59C90.61 141.38 92.545 141.005 93.85 140.495L93.01 139.655ZM91.9 145.1L91.39 145.535C91.78 146.075 92.8 147.53 93.1 148.175L93.79 147.305C93.52 146.93 92.26 145.43 91.9 145.1ZM110.815 146.66V147.53H116.68V146.66H110.815ZM110.815 149.12V150.005H116.68V149.12H110.815ZM110.83 151.595V152.555H117.385V151.595H110.83ZM109.12 140.945V143.51H110.095V141.92H116.305V143.51H117.31V140.945H109.12ZM113.26 144.875V152.105H114.31V144.875H113.26ZM111.22 144.155H111.13L110.155 145.175V153.2H111.22V145.13H116.935V144.155H111.22ZM112.63 139.4C111.895 142.16 110.515 144.485 108.535 145.925C108.775 146.12 109.18 146.54 109.345 146.75C111.37 145.145 112.855 142.655 113.71 139.61L112.63 139.4ZM114.19 142.37C114.01 143.03 113.62 143.975 113.305 144.575L114.175 144.83C114.49 144.26 114.895 143.42 115.255 142.64L114.19 142.37ZM103.78 140.42V141.455H109.075V140.42H103.78ZM105.295 144.8V145.805H107.695V150.38H105.295V151.37H108.685V144.8H105.295ZM105.55 140.915C105.19 143.735 104.545 146.39 103.345 148.085C103.555 148.34 103.87 148.895 103.99 149.15C105.385 147.185 106.165 144.23 106.63 141.08L105.55 140.915ZM104.83 144.8V152.54H105.775V144.8H104.83ZM121.165 143.99V145.07H129.91V143.99H121.165ZM125.485 147.575V148.64H130.54V147.575H125.485ZM124.885 144.545V151.985L126.055 152.135V144.545H124.885ZM121.33 146.36C121 149.075 120.19 151.22 118.51 152.525C118.78 152.69 119.26 153.08 119.44 153.275C121.135 151.805 122.08 149.51 122.5 146.48L121.33 146.36ZM122.035 148.295L121.12 148.64C122.41 152.3 124.855 153.005 128.425 153.005H131.95C131.995 152.675 132.19 152.135 132.37 151.865C131.635 151.88 129.04 151.88 128.485 151.88C125.44 151.88 123.1 151.355 122.035 148.295ZM124.87 139.415V141.845H126.055V139.415H124.87ZM119.23 141.125V144.395H120.34V142.205H130.615V144.395H131.77V141.125H119.23Z" fill="#5C5F63"/>
<defs>
<clipPath id="clip0_347_1640">
<rect width="43" height="58" fill="white" transform="translate(81 66)"/>
</clipPath>
</defs>
</svg>
