<svg width="92" height="73" viewBox="0 0 92 73" fill="none" xmlns="http://www.w3.org/2000/svg">
<g opacity="0.7">
<path d="M58.5986 70.0859V58.3199C58.5986 58.3033 58.5986 58.2866 58.5986 58.27C58.5986 58.1701 58.6153 58.0703 58.6654 57.9871L60.7862 53.76C60.8196 53.6934 60.8363 53.6268 60.8363 53.5436V44.507C60.8363 44.3072 60.7194 44.1408 60.5357 44.0743L58.7656 43.3586C56.7952 42.5765 55.4092 40.7126 55.2589 38.6156C55.2422 38.4992 55.2088 38.3993 55.1253 38.3161L52.4034 35.6034C52.3199 35.5202 52.1863 35.4703 52.0694 35.4703H46.9262C46.7926 35.4703 46.6757 35.437 46.5588 35.3538L43.4862 33.3068C43.4027 33.2569 43.3193 33.2236 43.2191 33.2236H41.783V31.9255H43.2191C43.3193 31.9255 43.4027 31.8922 43.4862 31.8423L46.5588 29.7953C46.659 29.7288 46.7926 29.6788 46.9262 29.6788H49.4143C49.5646 29.6788 49.7149 29.5956 49.7984 29.4791C49.8819 29.346 49.8986 29.1796 49.8485 29.0464C49.765 28.8301 49.7149 28.6137 49.6648 28.3974C49.5312 27.5986 49.7316 26.7831 50.2158 26.1341C50.7001 25.4684 51.4015 25.0357 52.2197 24.9192L68.5344 22.3563C68.7348 22.323 68.9519 22.3064 69.1523 22.3064C70.939 22.3064 72.5087 23.5046 73.0097 25.2021L74.1953 29.3626C74.2454 29.5623 74.4458 29.7121 74.6462 29.7121H78.2865C79.8729 29.7121 81.1754 31.0102 81.1754 32.5912C81.1754 34.1722 79.8729 35.4703 78.2865 35.4703H74.9301C74.6629 35.4703 74.4625 35.6866 74.4625 35.9363V53.5436C74.4625 53.6102 74.4792 53.6934 74.5126 53.76L76.6333 57.9871C76.6834 58.0703 76.7001 58.1701 76.7001 58.27C76.7001 58.2866 76.7001 58.3033 76.7001 58.3199V70.0859H75.3976V59.385C75.3976 59.1187 75.1805 58.919 74.9301 58.919H60.352C60.0848 58.919 59.8845 59.1354 59.8845 59.385V70.0859H58.5986V70.0859ZM62.1722 54.4423C61.9885 54.4423 61.8215 54.5421 61.7547 54.7086L60.6359 56.9386C60.5691 57.0884 60.5691 57.2548 60.6526 57.4046C60.7361 57.5544 60.8864 57.6209 61.0534 57.6209H74.2454C74.4124 57.6209 74.5627 57.5377 74.6462 57.4046C74.7297 57.2714 74.7464 57.0884 74.6629 56.9386L73.5441 54.7086C73.4606 54.5421 73.2936 54.4423 73.1266 54.4423H62.1722ZM53.7727 30.9936C53.3051 30.9936 52.871 31.1766 52.5537 31.4928C52.2197 31.8257 52.0527 32.2584 52.0527 32.7077C52.0527 33.1737 52.2364 33.6064 52.5537 33.9226L56.3443 37.7003C56.4612 37.8168 56.528 37.9833 56.528 38.1497C56.528 39.9304 57.5967 41.4947 59.2499 42.1438L61.738 43.1257C61.9885 43.2255 62.1388 43.4585 62.1388 43.7248V52.6616C62.1388 52.9279 62.3559 53.1276 62.6064 53.1276H72.6924C72.9596 53.1276 73.16 52.9112 73.16 52.6616V35.9196C73.16 35.6534 72.9429 35.4537 72.6924 35.4537H66.4304C66.2467 35.4537 66.063 35.5701 65.9962 35.7532C65.9294 35.9363 65.9628 36.136 66.0964 36.2691L67.2152 37.3841L66.2968 38.2994L63.3912 35.4037C63.3578 35.3704 63.3077 35.3372 63.2743 35.3205L54.975 31.1766C54.7412 31.0601 54.474 30.9936 54.2069 30.9936H53.7727V30.9936ZM77.1677 30.9936C76.9005 30.9936 76.7001 31.2099 76.7001 31.4595V33.6896C76.7001 33.9559 76.9172 34.1556 77.1677 34.1556H78.2865C79.1716 34.1556 79.8729 33.44 79.8729 32.5746C79.8729 31.7092 79.1549 30.9936 78.2865 30.9936H77.1677V30.9936ZM59.5004 30.9936C59.2833 30.9936 59.0829 31.1433 59.0328 31.3597C58.9827 31.576 59.0829 31.7924 59.2833 31.8922L63.7586 34.1223C63.8254 34.1556 63.8922 34.1722 63.9757 34.1722H74.9134C75.1805 34.1722 75.3809 33.9559 75.3809 33.7062V31.4762C75.3809 31.2099 75.1638 31.0102 74.9134 31.0102H59.5004V30.9936ZM47.2435 30.9936C47.1433 30.9936 47.0598 31.0269 46.9763 31.0768L45.2897 32.1918C45.1561 32.275 45.0726 32.4248 45.0726 32.5912C45.0726 32.7576 45.1561 32.8908 45.2897 32.9906L46.9763 34.1056C47.0598 34.1556 47.1433 34.1889 47.2435 34.1889H50.3995C50.5498 34.1889 50.6834 34.1223 50.7836 34.0058C50.8671 33.8893 50.9005 33.7395 50.8671 33.5897C50.6834 32.9573 50.7168 32.275 50.9506 31.6593C51.0007 31.5095 50.984 31.3431 50.9005 31.2266C50.817 31.0934 50.6667 31.0269 50.5164 31.0269H47.2435V30.9936ZM66.0964 28.8967C65.9628 29.0298 65.9127 29.2295 65.9962 29.4126C66.063 29.5956 66.2467 29.7121 66.4304 29.7121H72.325C72.4753 29.7121 72.6089 29.6456 72.7091 29.5291C72.7926 29.4126 72.826 29.2628 72.7926 29.113L71.774 25.5682C71.44 24.4199 70.3713 23.6045 69.169 23.6045C69.0354 23.6045 68.8851 23.6211 68.7515 23.6378L52.4368 26.2006C51.5851 26.3338 50.9339 27.0827 50.9506 27.9481C50.9506 28.9133 51.7521 29.7121 52.7207 29.7121H63.291C63.4246 29.7121 63.5415 29.6622 63.625 29.579L66.3302 26.883L67.2486 27.7983L66.0964 28.8967Z" fill="white"/>
<path d="M16.6512 66.724C16.3006 66.724 16 66.4411 16 66.075V9.12573C16 8.77624 16.2839 8.47668 16.6512 8.47668H69.3359C69.6866 8.47668 69.9872 8.7596 69.9872 9.12573V18.7116H68.6847V10.2407C68.6847 9.97447 68.4676 9.77477 68.2171 9.77477H17.7701C17.5029 9.77477 17.3025 9.99112 17.3025 10.2407V64.9766C17.3025 65.2429 17.5196 65.4426 17.7701 65.4426H55.4091V66.7407H16.6512V66.724Z" fill="white"/>
<path d="M40.9144 59.8675C38.3762 59.8675 35.9048 59.3516 33.5502 58.3364C28.9915 56.3726 25.4847 52.7613 23.6478 48.1681C21.811 43.5749 21.8945 38.5323 23.8649 34.0057C26.8039 27.2157 33.5001 22.8388 40.9311 22.8388C43.3023 22.8388 45.6402 23.2881 47.8611 24.1868L47.3434 25.3684C45.2895 24.5529 43.1353 24.1369 40.9311 24.1369C39.8791 24.1369 38.8437 24.2367 37.8084 24.4198C31.2792 25.618 25.9523 30.5108 24.2156 36.9014C24.1655 37.1011 24.249 37.3174 24.4327 37.4339C24.4995 37.4838 24.583 37.5005 24.6665 37.5005C24.7834 37.5005 24.9169 37.4506 25.0004 37.3674L29.5926 32.7908L30.511 33.7061L23.7814 40.3796C23.6979 40.4628 23.6478 40.5793 23.6478 40.6958C23.6311 40.9454 23.6311 41.1451 23.6311 41.3448C23.6311 42.1603 23.6812 42.9757 23.7981 43.7746C23.8148 43.9576 23.9484 44.1074 24.1154 44.1573C24.1655 44.174 24.2156 44.174 24.2657 44.174C24.3826 44.174 24.5162 44.124 24.5997 44.0408L30.5277 38.1329L31.4462 39.0482L24.5162 45.9713C24.3993 46.0878 24.3492 46.2709 24.3993 46.4373C24.6498 47.2361 24.9504 48.0183 25.3177 48.7672C25.3845 48.9003 25.5181 49.0002 25.6684 49.0335C25.7018 49.0335 25.7185 49.0335 25.7519 49.0335C25.8688 49.0335 26.0024 48.9835 26.0859 48.9003L32.5984 42.4099L33.5168 43.3252L26.5701 50.2483C26.4031 50.4148 26.3864 50.6644 26.5033 50.8474C26.9375 51.4965 27.4051 52.1122 27.9227 52.6947C28.0062 52.7946 28.1398 52.8445 28.2567 52.8611H28.2734C28.407 52.8611 28.5239 52.8112 28.6074 52.728L34.6523 46.7036L35.5708 47.6189L29.5091 53.6267C29.4089 53.7265 29.3588 53.843 29.3755 53.9762C29.3922 54.1093 29.4423 54.2258 29.5425 54.309C30.127 54.8249 30.7448 55.2909 31.3961 55.7236C31.4796 55.7735 31.5631 55.8068 31.6633 55.8068C31.7802 55.8068 31.9137 55.7569 31.9972 55.6737L39.5117 48.1847L40.4301 49.1L33.3665 56.1396C33.2497 56.2561 33.2162 56.4059 33.2329 56.5557C33.2663 56.7055 33.3498 56.8386 33.5001 56.9052C34.2516 57.2713 35.0531 57.5709 35.838 57.8205C35.8881 57.8371 35.9382 57.8371 35.9715 57.8371C36.0884 57.8371 36.222 57.7872 36.3055 57.704L44.3543 49.6825L45.2728 50.5978L38.2259 57.6208C38.0923 57.7539 38.0589 57.937 38.109 58.1034C38.1591 58.2698 38.3094 58.403 38.4931 58.4196C39.2946 58.5361 40.1129 58.586 40.9311 58.586C41.1482 58.586 41.382 58.586 41.599 58.5694C41.7159 58.5694 41.8328 58.5195 41.9163 58.4362L52.0191 48.3678L52.9375 49.2831L44.9889 57.2047C44.8386 57.3545 44.8052 57.5875 44.9221 57.7706C45.0056 57.9203 45.1726 58.0035 45.3396 58.0035C45.373 58.0035 45.4231 58.0035 45.4565 57.9869C50.8836 56.539 55.2253 52.5782 57.1623 47.336L58.3813 47.752C58.2644 48.0682 58.1308 48.3844 57.9973 48.684C55.0249 55.4739 48.3286 59.8675 40.9144 59.8675Z" fill="white"/>
<path d="M58.6821 19.5437C57.2961 19.5437 56.6615 18.2622 56.1438 17.2304C55.6429 16.2319 55.3089 15.6328 54.7578 15.6328C54.2068 15.6328 53.8728 16.2319 53.3718 17.2304C52.8542 18.2622 52.2196 19.5437 50.8336 19.5437C49.4476 19.5437 48.8131 18.2622 48.2954 17.2304C47.8111 16.2652 47.4605 15.6328 46.9094 15.6328C46.375 15.6328 46.0244 16.2319 45.5234 17.2304C45.0058 18.2622 44.3712 19.5437 42.9852 19.5437C41.5992 19.5437 40.9646 18.2622 40.447 17.2304C39.946 16.2319 39.612 15.6328 39.061 15.6328C38.5099 15.6328 38.1759 16.2319 37.675 17.2304C37.1573 18.2622 36.5228 19.5437 35.1368 19.5437C33.7508 19.5437 33.1162 18.2622 32.5985 17.2304C32.0976 16.2319 31.7636 15.6328 31.2126 15.6328C30.6782 15.6328 30.3275 16.2319 29.8266 17.2304C29.3089 18.2622 28.6743 19.5437 27.2883 19.5437C25.9023 19.5437 25.2678 18.2622 24.7501 17.2304C24.4161 16.5481 24.149 16.0655 23.8484 15.8158V14.4012C24.9171 14.6509 25.4682 15.7493 25.919 16.6646C26.42 17.6631 26.754 18.2622 27.305 18.2622C27.8394 18.2622 28.1901 17.6631 28.691 16.6646C29.2087 15.6328 29.8432 14.3513 31.2292 14.3513C32.6152 14.3513 33.2498 15.6328 33.7675 16.6646C34.2684 17.6631 34.6024 18.2622 35.1535 18.2622C35.6878 18.2622 36.0385 17.6631 36.5395 16.6646C37.0571 15.6328 37.6917 14.3513 39.0777 14.3513C40.4637 14.3513 41.0982 15.6328 41.6159 16.6646C42.1169 17.6631 42.4508 18.2622 43.0019 18.2622C43.553 18.2622 43.8869 17.6631 44.3879 16.6646C44.9056 15.6328 45.5401 14.3513 46.9261 14.3513C48.3121 14.3513 48.9467 15.6328 49.4643 16.6646C49.9653 17.6631 50.2993 18.2622 50.8503 18.2622C51.4014 18.2622 51.7354 17.6631 52.2363 16.6646C52.754 15.6328 53.3885 14.3513 54.7745 14.3513C56.1605 14.3513 56.7951 15.6328 57.3128 16.6646C57.8137 17.6631 58.1477 18.2622 58.6988 18.2622C59.2331 18.2622 59.5838 17.6631 60.0848 16.6646C60.5356 15.7659 61.0867 14.6675 62.1554 14.4012V15.8158C61.8548 16.0655 61.5876 16.5647 61.2537 17.2304C60.7026 18.2622 60.0681 19.5437 58.6821 19.5437Z" fill="white"/>
<path d="M55.4089 3.99994H24.967V5.29856H55.4089V3.99994Z" fill="white"/>
<path d="M59.9009 3.99994H58.5984V5.29856H59.9009V3.99994Z" fill="white"/>
</g>
</svg>
