<svg width="206" height="208" viewBox="0 0 206 208" fill="none" xmlns="http://www.w3.org/2000/svg">
<path d="M16.5106 18.496V16.496H14.5734L14.5116 18.4322L16.5106 18.496ZM15.9346 36.544L13.9356 36.4802L13.8441 39.349L16.5671 38.4414L15.9346 36.544ZM40.7986 41.056L42.168 39.5983L42.1616 39.5923L42.1552 39.5864L40.7986 41.056ZM39.6466 75.136L38.3547 73.6092L38.3421 73.6199L38.3296 73.6308L39.6466 75.136ZM4.89463 78.4H2.89463V79.7136L4.10018 80.2354L4.89463 78.4ZM4.89463 68.224L5.77056 66.426L2.89463 65.0249V68.224H4.89463ZM32.5426 68.512L33.7877 70.0772L33.7939 70.0723L33.8001 70.0673L32.5426 68.512ZM5.66263 46.816L3.66294 46.7806L3.61508 49.481L6.21207 48.739L5.66263 46.816ZM6.33463 8.89599V6.89599H4.36975L4.33494 8.86056L6.33463 8.89599ZM43.5826 8.89599H45.5826V6.89599H43.5826V8.89599ZM43.5826 18.496V20.496H45.5826V18.496H43.5826ZM14.5116 18.4322L13.9356 36.4802L17.9336 36.6078L18.5096 18.5598L14.5116 18.4322ZM16.5671 38.4414C18.8169 37.6914 21.476 37.296 24.5746 37.296V33.296C21.1453 33.296 18.0444 33.7326 15.3022 34.6466L16.5671 38.4414ZM24.5746 37.296C30.8218 37.296 35.7152 39.0854 39.4421 42.5256L42.1552 39.5864C37.562 35.3466 31.6394 33.296 24.5746 33.296V37.296ZM39.4293 42.5137C43.1898 46.0463 45.1346 50.7983 45.1346 56.992H49.1346C49.1346 49.8737 46.8555 44.0017 42.168 39.5983L39.4293 42.5137ZM45.1346 56.992C45.1346 64.4075 42.8059 69.8428 38.3547 73.6092L40.9385 76.6628C46.4713 71.9812 49.1346 65.3205 49.1346 56.992H45.1346ZM38.3296 73.6308C34.1777 77.2638 28.4833 79.184 21.0226 79.184V83.184C29.1779 83.184 35.8996 81.0722 40.9636 76.6412L38.3296 73.6308ZM21.0226 79.184C14.7339 79.184 9.64974 78.2789 5.68907 76.5646L4.10018 80.2354C8.71551 82.2331 14.3833 83.184 21.0226 83.184V79.184ZM6.89463 78.4V68.224H2.89463V78.4H6.89463ZM4.01869 70.022C9.30581 72.5978 15.1129 73.872 21.4066 73.872V69.872C15.6684 69.872 10.4674 68.7142 5.77056 66.426L4.01869 70.022ZM21.4066 73.872C26.3381 73.872 30.5287 72.6696 33.7877 70.0772L31.2976 66.9468C28.9246 68.8344 25.6911 69.872 21.4066 69.872V73.872ZM33.8001 70.0673C37.3478 67.1989 39.0546 63.1636 39.0546 58.24H35.0546C35.0546 62.1484 33.7534 64.9611 31.2852 66.9567L33.8001 70.0673ZM39.0546 58.24C39.0546 53.294 37.6608 49.2354 34.5474 46.4528C31.4768 43.7084 27.071 42.512 21.6946 42.512V46.512C26.5583 46.512 29.8325 47.6036 31.8819 49.4352C33.8885 51.2286 35.0546 54.034 35.0546 58.24H39.0546ZM21.6946 42.512C16.1873 42.512 10.6585 43.3086 5.11318 44.893L6.21207 48.739C11.4188 47.2514 16.578 46.512 21.6946 46.512V42.512ZM7.66231 46.8514L8.33431 8.93143L4.33494 8.86056L3.66294 46.7806L7.66231 46.8514ZM6.33463 10.896H43.5826V6.89599H6.33463V10.896ZM41.5826 8.89599V18.496H45.5826V8.89599H41.5826ZM43.5826 16.496H16.5106V20.496H43.5826V16.496Z" fill="#565555"/>
<circle cx="104" cy="115" r="92.5" fill="white" stroke="black"/>
<g clip-path="url(#clip0_347_1627)">
<path d="M127.553 100.589H78.4472V72.8166H76.4666V102.489H129.496V72.8166H127.553V100.589Z" fill="#5C5F63"/>
<path d="M81.7732 112.246L84.2397 114L91.0412 103.476H87.4536L81.7732 112.246Z" fill="#5C5F63"/>
<path d="M124.526 112.246L122.022 114L115.333 103.476H118.92L124.526 112.246Z" fill="#5C5F63"/>
<path d="M132 68.3219H74V71.1356H132V68.3219Z" fill="#5C5F63"/>
<path d="M103 63.6079C106.924 63.6079 110.25 65.4715 111.184 68.7604H113.202C112.193 64.6311 108.008 62 103 62C97.9922 62 93.8066 64.6311 92.7976 68.7238H94.8156C95.7499 65.4715 99.076 63.6079 103 63.6079Z" fill="#5C5F63"/>
<path d="M82.259 82.8292H80.1663V98.9079H82.259V82.8292Z" fill="#5C5F63"/>
<path d="M87.1172 85.0218H85.0244V98.9079H87.1172V85.0218Z" fill="#5C5F63"/>
<path d="M91.9382 79.6135H89.8455V98.9445H91.9382V79.6135Z" fill="#5C5F63"/>
<path d="M96.7964 87.324H94.7036V98.9079H96.7964V87.324Z" fill="#5C5F63"/>
<path d="M101.617 78.773H99.5244V98.9445H101.617V78.773Z" fill="#5C5F63"/>
<path d="M106.438 82.2446H104.345V98.9445H106.438V82.2446Z" fill="#5C5F63"/>
<path d="M111.296 90.3204H109.204V98.9445H111.296V90.3204Z" fill="#5C5F63"/>
<path d="M116.117 80.3078H114.024V98.9445H116.117V80.3078Z" fill="#5C5F63"/>
<path d="M120.976 85.2045H118.883V98.9079H120.976V85.2045Z" fill="#5C5F63"/>
<path d="M125.796 93.9747H123.704V98.9079H125.796V93.9747Z" fill="#5C5F63"/>
</g>
<path d="M58.17 127.745H63.18V128.945H58.17V127.745ZM58.17 125.75H63.18V126.95H58.17V125.75ZM57.135 124.895V129.815H64.26V124.895H57.135ZM56.445 130.895V131.84H65.085V130.895H56.445ZM60.135 131.36V137.06L61.185 137.495V131.36H60.135ZM58.125 134.12L57.435 134.375C58.35 137.435 60.075 137.975 62.58 137.975H65.22C65.25 137.69 65.4 137.21 65.55 136.97C65.025 136.985 63 136.985 62.625 136.985C60.54 136.985 58.89 136.61 58.125 134.12ZM60.855 133.595V134.525H64.335V133.595H60.855ZM57.435 132.545C57.195 134.765 56.52 136.46 55.185 137.525C55.41 137.69 55.845 138.02 56.025 138.2C57.375 137 58.155 135.14 58.455 132.665L57.435 132.545ZM51.42 132.38L51.705 133.475C52.98 133.07 54.615 132.53 56.175 132.02L56.01 130.985C54.33 131.525 52.59 132.065 51.42 132.38ZM51.585 127.43V128.48H56.16V127.43H51.585ZM53.445 124.415V136.79C53.445 137.015 53.385 137.075 53.19 137.075C53.01 137.075 52.44 137.075 51.78 137.06C51.93 137.375 52.065 137.84 52.11 138.11C53.055 138.11 53.64 138.08 53.985 137.9C54.36 137.72 54.495 137.42 54.495 136.805V124.415H53.445ZM72.915 124.415V126.14H74.04V124.415H72.915ZM72.885 132.305V138.2H74.025V132.305H72.885ZM67.2 125.525V127.7H68.25V126.485H78.78V127.7H79.86V125.525H67.2ZM67.02 128.06V128.99H80.025V128.06H67.02ZM66.78 133.55V134.525H80.235V133.55H66.78ZM72.135 126.665C71.235 127.94 69.93 129.62 68.985 130.67L70.035 131.015C70.935 129.95 72.225 128.315 73.2 126.98L72.135 126.665ZM69.855 130.565C72.795 131.135 76.65 132.2 78.615 132.995L79.29 132.17C77.175 131.36 73.35 130.385 70.5 129.86L69.855 130.565ZM72.48 134.06C71.25 135.395 68.76 136.595 66.495 137.09C66.735 137.3 67.05 137.735 67.215 138.005C69.495 137.39 71.97 136.025 73.32 134.435L72.48 134.06ZM74.475 134.03L73.65 134.42C75.03 136.04 77.565 137.405 79.845 138.02C80.01 137.735 80.325 137.315 80.58 137.075C78.285 136.58 75.75 135.395 74.475 134.03ZM76.095 128.585C75.24 130.61 73.29 131.63 67.425 131.99C67.575 132.215 67.755 132.635 67.785 132.89C73.935 132.455 76.26 131.24 77.295 128.585H76.095ZM82.2 127.415V128.525H94.83V127.415H82.2ZM81.795 136.4V137.555H95.205V136.4H81.795ZM86.31 128.15V137H87.42V128.15H86.31ZM89.49 128.15V137.015H90.615V128.15H89.49ZM93 129.815C92.64 131.315 91.935 133.43 91.335 134.72L92.34 135.005C92.955 133.745 93.66 131.765 94.2 130.115L93 129.815ZM91.77 124.415C91.425 125.255 90.765 126.44 90.24 127.19L91.245 127.55C91.785 126.83 92.445 125.75 92.985 124.775L91.77 124.415ZM82.905 130.235C83.61 131.735 84.195 133.7 84.345 134.99L85.425 134.72C85.26 133.415 84.66 131.465 83.91 129.965L82.905 130.235ZM84.195 124.835C84.795 125.615 85.425 126.725 85.665 127.46L86.715 126.995C86.445 126.29 85.815 125.225 85.185 124.43L84.195 124.835ZM106.455 131.225C105.66 132.005 104.145 132.71 102.795 133.115C103.02 133.28 103.29 133.565 103.44 133.775C104.865 133.31 106.41 132.53 107.325 131.57L106.455 131.225ZM107.895 132.665C106.875 133.73 104.91 134.585 103.005 135.02C103.215 135.215 103.44 135.545 103.59 135.755C105.6 135.215 107.61 134.27 108.75 133.025L107.895 132.665ZM109.305 134.3C107.955 135.845 105.195 136.805 102.18 137.24C102.405 137.48 102.66 137.87 102.765 138.14C105.945 137.585 108.78 136.505 110.265 134.72L109.305 134.3ZM104.46 124.4C103.845 126.005 102.75 127.565 101.55 128.57C101.805 128.72 102.225 129.065 102.405 129.245C103.62 128.135 104.775 126.44 105.51 124.655L104.46 124.4ZM104.13 126.035L103.56 126.98H110.235V126.035H104.13ZM108.18 126.245C107.16 128.795 104.7 130.265 101.67 131.045C101.88 131.255 102.21 131.705 102.345 131.93C105.45 130.97 108.03 129.35 109.245 126.5L108.18 126.245ZM104.025 126.62L103.335 127.175C104.325 129.035 106.575 131 110.1 131.795C110.235 131.525 110.505 131.105 110.715 130.895C107.205 130.235 104.94 128.42 104.025 126.62ZM100.65 126.185V135.71H101.64V126.185H100.65ZM99.48 124.49C98.76 126.815 97.56 129.125 96.255 130.625C96.45 130.91 96.75 131.51 96.84 131.765C98.34 130.025 99.675 127.385 100.53 124.79L99.48 124.49ZM98.28 128.165V138.2H99.36V127.16L99.33 127.13L98.28 128.165ZM112.335 125.51V126.605H124.755V125.51H112.335ZM118.83 130.61V131.72H124.155V130.61H118.83ZM111.765 136.445V137.54H125.25V136.445H111.765ZM118.29 125.915V136.985H119.46V125.915H118.29ZM113.82 129.365V137.03H114.975V129.365H113.82ZM133.44 124.88V126.695C133.44 127.745 133.215 128.99 131.775 129.92C132 130.07 132.435 130.46 132.585 130.67C134.19 129.605 134.52 128.015 134.52 126.71V124.88H133.44ZM137.1 124.88V128.585C137.1 129.65 137.37 129.95 138.285 129.95C138.48 129.95 139.14 129.95 139.335 129.95C140.145 129.95 140.415 129.485 140.505 127.73C140.22 127.655 139.77 127.49 139.56 127.325C139.53 128.765 139.47 128.96 139.215 128.96C139.065 128.96 138.57 128.96 138.45 128.96C138.21 128.96 138.165 128.9 138.165 128.57V124.88H137.1ZM134.25 131.96L133.245 132.275C134.445 135.215 136.68 137.285 139.8 138.2C139.95 137.915 140.28 137.465 140.535 137.225C137.52 136.46 135.285 134.54 134.25 131.96ZM138.45 130.91V131.09C137.55 134.42 134.835 136.445 131.805 137.21C132.015 137.45 132.3 137.93 132.42 138.2C135.705 137.24 138.525 135.08 139.59 131.15L138.87 130.865L138.675 130.91H138.45ZM132.465 130.91V131.93H138.885V130.91H132.465ZM133.89 124.88V125.885H137.64V124.88H133.89ZM127.275 128.945V129.845H131.745V128.945H127.275ZM127.35 124.94V125.84H131.715V124.94H127.35ZM127.275 130.955V131.855H131.745V130.955H127.275ZM126.57 126.905V127.835H132.27V126.905H126.57ZM127.815 132.98V133.91H130.755V136.415H127.815V137.36H131.745V132.98H127.815ZM127.26 132.98V138.05H128.235V132.98H127.26ZM147.51 129.545V130.655H155.565V129.545H147.51ZM151.035 124.445V138.2H152.175V124.445H151.035ZM142.275 128.945V129.845H146.955V128.945H142.275ZM142.365 124.94V125.84H146.97V124.94H142.365ZM142.275 130.955V131.855H146.955V130.955H142.275ZM141.57 126.905V127.835H147.54V126.905H141.57ZM142.8 132.98V133.91H145.905V136.415H142.8V137.36H146.91V132.98H142.8ZM142.26 132.98V138.05H143.265V132.98H142.26Z" fill="#5C5F63"/>
<path d="M69.5998 155V146.273H72.5487C73.2333 146.273 73.793 146.396 74.2276 146.643C74.6651 146.888 74.989 147.219 75.1992 147.636C75.4094 148.054 75.5146 148.52 75.5146 149.034C75.5146 149.548 75.4094 150.016 75.1992 150.436C74.9918 150.857 74.6708 151.192 74.2362 151.442C73.8015 151.689 73.2447 151.812 72.5657 151.812H70.4521V150.875H72.5316C73.0004 150.875 73.3768 150.794 73.6609 150.632C73.945 150.47 74.1509 150.251 74.2788 149.976C74.4094 149.697 74.4748 149.384 74.4748 149.034C74.4748 148.685 74.4094 148.372 74.2788 148.097C74.1509 147.821 73.9435 147.605 73.6566 147.449C73.3697 147.29 72.989 147.21 72.5146 147.21H70.6566V155H69.5998ZM77.0806 155V148.455H78.0522V149.443H78.1204C78.2397 149.119 78.4556 148.857 78.7681 148.655C79.0806 148.453 79.4329 148.352 79.8249 148.352C79.8988 148.352 79.9911 148.354 80.1019 148.357C80.2127 148.359 80.2965 148.364 80.3533 148.369V149.392C80.3192 149.384 80.2411 149.371 80.119 149.354C79.9996 149.334 79.8732 149.324 79.7397 149.324C79.4215 149.324 79.1374 149.391 78.8874 149.524C78.6403 149.655 78.4442 149.837 78.2994 150.07C78.1573 150.3 78.0863 150.562 78.0863 150.858V155H77.0806ZM84.0906 155.136C83.4599 155.136 82.9158 154.997 82.4585 154.719C82.0039 154.438 81.6531 154.045 81.4059 153.543C81.1616 153.037 81.0394 152.449 81.0394 151.778C81.0394 151.108 81.1616 150.517 81.4059 150.006C81.6531 149.491 81.9968 149.091 82.4371 148.804C82.8803 148.514 83.3974 148.369 83.9883 148.369C84.3292 148.369 84.6658 148.426 84.9982 148.54C85.3306 148.653 85.6332 148.838 85.9059 149.094C86.1786 149.347 86.396 149.682 86.5579 150.099C86.7198 150.517 86.8008 151.031 86.8008 151.642V152.068H81.7553V151.199H85.7781C85.7781 150.83 85.7042 150.5 85.5565 150.21C85.4116 149.92 85.2042 149.692 84.9343 149.524C84.6673 149.357 84.3519 149.273 83.9883 149.273C83.5877 149.273 83.2411 149.372 82.9485 149.571C82.6587 149.767 82.4357 150.023 82.2795 150.338C82.1232 150.653 82.0451 150.991 82.0451 151.352V151.932C82.0451 152.426 82.1303 152.845 82.3008 153.189C82.4741 153.53 82.7141 153.79 83.021 153.969C83.3278 154.145 83.6843 154.233 84.0906 154.233C84.3548 154.233 84.5934 154.196 84.8065 154.122C85.0224 154.045 85.2085 153.932 85.3647 153.781C85.521 153.628 85.6417 153.437 85.7269 153.21L86.6985 153.483C86.5962 153.812 86.4244 154.102 86.1829 154.352C85.9414 154.599 85.6431 154.793 85.288 154.932C84.9329 155.068 84.5337 155.136 84.0906 155.136ZM92.967 149.92L92.0636 150.176C92.0067 150.026 91.9229 149.879 91.8121 149.737C91.7042 149.592 91.5565 149.473 91.369 149.379C91.1815 149.286 90.9414 149.239 90.6488 149.239C90.2482 149.239 89.9144 149.331 89.6474 149.516C89.3832 149.697 89.2511 149.929 89.2511 150.21C89.2511 150.46 89.342 150.658 89.5238 150.803C89.7056 150.947 89.9897 151.068 90.3761 151.165L91.3477 151.403C91.9329 151.545 92.369 151.763 92.6559 152.055C92.9428 152.345 93.0863 152.719 93.0863 153.176C93.0863 153.551 92.9783 153.886 92.7624 154.182C92.5494 154.477 92.2511 154.71 91.8675 154.881C91.484 155.051 91.038 155.136 90.5295 155.136C89.8619 155.136 89.3093 154.991 88.8718 154.702C88.4343 154.412 88.1573 153.989 88.0408 153.432L88.9954 153.193C89.0863 153.545 89.2582 153.81 89.511 153.986C89.7667 154.162 90.1005 154.25 90.5124 154.25C90.9812 154.25 91.3533 154.151 91.6289 153.952C91.9073 153.75 92.0465 153.509 92.0465 153.227C92.0465 153 91.967 152.81 91.8079 152.656C91.6488 152.5 91.4045 152.384 91.0749 152.307L89.984 152.051C89.3846 151.909 88.9442 151.689 88.663 151.391C88.3846 151.089 88.2454 150.713 88.2454 150.261C88.2454 149.892 88.3491 149.565 88.5565 149.281C88.7667 148.997 89.0522 148.774 89.413 148.612C89.7766 148.45 90.1886 148.369 90.6488 148.369C91.2965 148.369 91.805 148.511 92.1744 148.795C92.5465 149.08 92.8107 149.455 92.967 149.92ZM97.3445 155.136C96.7138 155.136 96.1697 154.997 95.7124 154.719C95.2578 154.438 94.907 154.045 94.6598 153.543C94.4155 153.037 94.2933 152.449 94.2933 151.778C94.2933 151.108 94.4155 150.517 94.6598 150.006C94.907 149.491 95.2507 149.091 95.6911 148.804C96.1342 148.514 96.6513 148.369 97.2422 148.369C97.5831 148.369 97.9197 148.426 98.2521 148.54C98.5845 148.653 98.8871 148.838 99.1598 149.094C99.4325 149.347 99.6499 149.682 99.8118 150.099C99.9737 150.517 100.055 151.031 100.055 151.642V152.068H95.0092V151.199H99.032C99.032 150.83 98.9581 150.5 98.8104 150.21C98.6655 149.92 98.4581 149.692 98.1882 149.524C97.9212 149.357 97.6058 149.273 97.2422 149.273C96.8416 149.273 96.495 149.372 96.2024 149.571C95.9126 149.767 95.6896 150.023 95.5334 150.338C95.3771 150.653 95.299 150.991 95.299 151.352V151.932C95.299 152.426 95.3842 152.845 95.5547 153.189C95.728 153.53 95.968 153.79 96.2749 153.969C96.5817 154.145 96.9382 154.233 97.3445 154.233C97.6087 154.233 97.8473 154.196 98.0604 154.122C98.2763 154.045 98.4624 153.932 98.6186 153.781C98.7749 153.628 98.8956 153.437 98.9808 153.21L99.9524 153.483C99.8501 153.812 99.6783 154.102 99.4368 154.352C99.1953 154.599 98.897 154.793 98.5419 154.932C98.1868 155.068 97.7876 155.136 97.3445 155.136ZM102.59 151.062V155H101.585V148.455H102.556V149.477H102.641C102.795 149.145 103.028 148.878 103.34 148.676C103.653 148.472 104.056 148.369 104.55 148.369C104.994 148.369 105.381 148.46 105.714 148.642C106.046 148.821 106.305 149.094 106.489 149.46C106.674 149.824 106.766 150.284 106.766 150.841V155H105.761V150.909C105.761 150.395 105.627 149.994 105.36 149.707C105.093 149.418 104.727 149.273 104.261 149.273C103.94 149.273 103.653 149.342 103.4 149.482C103.15 149.621 102.952 149.824 102.808 150.091C102.663 150.358 102.59 150.682 102.59 151.062ZM111.451 148.455V149.307H108.059V148.455H111.451ZM109.047 146.886H110.053V153.125C110.053 153.409 110.094 153.622 110.176 153.764C110.262 153.903 110.37 153.997 110.5 154.045C110.634 154.091 110.775 154.114 110.922 154.114C111.033 154.114 111.124 154.108 111.195 154.097C111.266 154.082 111.323 154.071 111.365 154.062L111.57 154.966C111.502 154.991 111.407 155.017 111.284 155.043C111.162 155.071 111.007 155.085 110.82 155.085C110.536 155.085 110.257 155.024 109.985 154.902C109.715 154.78 109.49 154.594 109.311 154.344C109.135 154.094 109.047 153.778 109.047 153.398V146.886ZM112.963 155V148.455H113.969V155H112.963ZM113.475 147.364C113.279 147.364 113.11 147.297 112.968 147.163C112.828 147.03 112.759 146.869 112.759 146.682C112.759 146.494 112.828 146.334 112.968 146.2C113.11 146.067 113.279 146 113.475 146C113.671 146 113.838 146.067 113.978 146.2C114.12 146.334 114.191 146.494 114.191 146.682C114.191 146.869 114.12 147.03 113.978 147.163C113.838 147.297 113.671 147.364 113.475 147.364ZM118.47 155.136C117.879 155.136 117.361 154.996 116.915 154.714C116.472 154.433 116.125 154.04 115.875 153.534C115.628 153.028 115.504 152.437 115.504 151.761C115.504 151.08 115.628 150.484 115.875 149.976C116.125 149.467 116.472 149.072 116.915 148.791C117.361 148.51 117.879 148.369 118.47 148.369C119.061 148.369 119.578 148.51 120.021 148.791C120.467 149.072 120.814 149.467 121.061 149.976C121.311 150.484 121.436 151.08 121.436 151.761C121.436 152.437 121.311 153.028 121.061 153.534C120.814 154.04 120.467 154.433 120.021 154.714C119.578 154.996 119.061 155.136 118.47 155.136ZM118.47 154.233C118.919 154.233 119.288 154.118 119.578 153.888C119.868 153.658 120.082 153.355 120.222 152.98C120.361 152.605 120.43 152.199 120.43 151.761C120.43 151.324 120.361 150.916 120.222 150.538C120.082 150.161 119.868 149.855 119.578 149.622C119.288 149.389 118.919 149.273 118.47 149.273C118.021 149.273 117.652 149.389 117.362 149.622C117.072 149.855 116.858 150.161 116.719 150.538C116.58 150.916 116.51 151.324 116.51 151.761C116.51 152.199 116.58 152.605 116.719 152.98C116.858 153.355 117.072 153.658 117.362 153.888C117.652 154.118 118.021 154.233 118.47 154.233ZM123.977 151.062V155H122.971V148.455H123.943V149.477H124.028C124.181 149.145 124.414 148.878 124.727 148.676C125.039 148.472 125.443 148.369 125.937 148.369C126.38 148.369 126.768 148.46 127.1 148.642C127.433 148.821 127.691 149.094 127.876 149.46C128.061 149.824 128.153 150.284 128.153 150.841V155H127.147V150.909C127.147 150.395 127.014 149.994 126.747 149.707C126.48 149.418 126.113 149.273 125.647 149.273C125.326 149.273 125.039 149.342 124.787 149.482C124.537 149.621 124.339 149.824 124.194 150.091C124.049 150.358 123.977 150.682 123.977 151.062ZM134.627 149.92L133.724 150.176C133.667 150.026 133.583 149.879 133.472 149.737C133.364 149.592 133.217 149.473 133.029 149.379C132.842 149.286 132.602 149.239 132.309 149.239C131.908 149.239 131.575 149.331 131.308 149.516C131.043 149.697 130.911 149.929 130.911 150.21C130.911 150.46 131.002 150.658 131.184 150.803C131.366 150.947 131.65 151.068 132.036 151.165L133.008 151.403C133.593 151.545 134.029 151.763 134.316 152.055C134.603 152.345 134.746 152.719 134.746 153.176C134.746 153.551 134.638 153.886 134.423 154.182C134.21 154.477 133.911 154.71 133.528 154.881C133.144 155.051 132.698 155.136 132.19 155.136C131.522 155.136 130.969 154.991 130.532 154.702C130.094 154.412 129.817 153.989 129.701 153.432L130.656 153.193C130.746 153.545 130.918 153.81 131.171 153.986C131.427 154.162 131.761 154.25 132.173 154.25C132.641 154.25 133.013 154.151 133.289 153.952C133.567 153.75 133.707 153.509 133.707 153.227C133.707 153 133.627 152.81 133.468 152.656C133.309 152.5 133.065 152.384 132.735 152.307L131.644 152.051C131.045 151.909 130.604 151.689 130.323 151.391C130.045 151.089 129.906 150.713 129.906 150.261C129.906 149.892 130.009 149.565 130.217 149.281C130.427 148.997 130.712 148.774 131.073 148.612C131.437 148.45 131.849 148.369 132.309 148.369C132.957 148.369 133.465 148.511 133.835 148.795C134.207 149.08 134.471 149.455 134.627 149.92ZM77.8146 170V161.273H80.7635C81.4453 161.273 82.005 161.389 82.4425 161.622C82.88 161.852 83.2038 162.169 83.4141 162.572C83.6243 162.976 83.7294 163.435 83.7294 163.949C83.7294 164.463 83.6243 164.919 83.4141 165.317C83.2038 165.714 82.8814 166.027 82.4467 166.254C82.0121 166.479 81.4567 166.591 80.7805 166.591H78.3942V165.636H80.7464C81.2124 165.636 81.5874 165.568 81.8714 165.432C82.1584 165.295 82.3658 165.102 82.4936 164.852C82.6243 164.599 82.6896 164.298 82.6896 163.949C82.6896 163.599 82.6243 163.294 82.4936 163.033C82.3629 162.771 82.1541 162.57 81.8672 162.428C81.5803 162.283 81.201 162.21 80.7294 162.21H78.8714V170H77.8146ZM81.9226 166.08L84.0703 170H82.843L80.7294 166.08H81.9226ZM88.0281 170.136C87.3974 170.136 86.8533 169.997 86.396 169.719C85.9414 169.438 85.5906 169.045 85.3434 168.543C85.0991 168.037 84.9769 167.449 84.9769 166.778C84.9769 166.108 85.0991 165.517 85.3434 165.006C85.5906 164.491 85.9343 164.091 86.3746 163.804C86.8178 163.514 87.3349 163.369 87.9258 163.369C88.2667 163.369 88.6033 163.426 88.9357 163.54C89.2681 163.653 89.5707 163.838 89.8434 164.094C90.1161 164.347 90.3335 164.682 90.4954 165.099C90.6573 165.517 90.7383 166.031 90.7383 166.642V167.068H85.6928V166.199H89.7156C89.7156 165.83 89.6417 165.5 89.494 165.21C89.3491 164.92 89.1417 164.692 88.8718 164.524C88.6048 164.357 88.2894 164.273 87.9258 164.273C87.5252 164.273 87.1786 164.372 86.886 164.571C86.5962 164.767 86.3732 165.023 86.217 165.338C86.0607 165.653 85.9826 165.991 85.9826 166.352V166.932C85.9826 167.426 86.0678 167.845 86.2383 168.189C86.4116 168.53 86.6516 168.79 86.9585 168.969C87.2653 169.145 87.6218 169.233 88.0281 169.233C88.2923 169.233 88.5309 169.196 88.744 169.122C88.9599 169.045 89.146 168.932 89.3022 168.781C89.4585 168.628 89.5792 168.437 89.6644 168.21L90.636 168.483C90.5337 168.812 90.3619 169.102 90.1204 169.352C89.8789 169.599 89.5806 169.793 89.2255 169.932C88.8704 170.068 88.4712 170.136 88.0281 170.136ZM97.4212 163.455L95.0007 170H93.978L91.5575 163.455H92.6484L94.4553 168.67H94.5234L96.3303 163.455H97.4212ZM98.7486 170V163.455H99.7543V170H98.7486ZM99.2599 162.364C99.0639 162.364 98.8949 162.297 98.7528 162.163C98.6136 162.03 98.544 161.869 98.544 161.682C98.544 161.494 98.6136 161.334 98.7528 161.2C98.8949 161.067 99.0639 161 99.2599 161C99.456 161 99.6236 161.067 99.7628 161.2C99.9048 161.334 99.9759 161.494 99.9759 161.682C99.9759 161.869 99.9048 162.03 99.7628 162.163C99.6236 162.297 99.456 162.364 99.2599 162.364ZM106.233 164.92L105.329 165.176C105.272 165.026 105.189 164.879 105.078 164.737C104.97 164.592 104.822 164.473 104.635 164.379C104.447 164.286 104.207 164.239 103.914 164.239C103.514 164.239 103.18 164.331 102.913 164.516C102.649 164.697 102.517 164.929 102.517 165.21C102.517 165.46 102.608 165.658 102.789 165.803C102.971 165.947 103.255 166.068 103.642 166.165L104.613 166.403C105.199 166.545 105.635 166.763 105.922 167.055C106.208 167.345 106.352 167.719 106.352 168.176C106.352 168.551 106.244 168.886 106.028 169.182C105.815 169.477 105.517 169.71 105.133 169.881C104.75 170.051 104.304 170.136 103.795 170.136C103.127 170.136 102.575 169.991 102.137 169.702C101.7 169.412 101.423 168.989 101.306 168.432L102.261 168.193C102.352 168.545 102.524 168.81 102.777 168.986C103.032 169.162 103.366 169.25 103.778 169.25C104.247 169.25 104.619 169.151 104.895 168.952C105.173 168.75 105.312 168.509 105.312 168.227C105.312 168 105.233 167.81 105.074 167.656C104.914 167.5 104.67 167.384 104.341 167.307L103.25 167.051C102.65 166.909 102.21 166.689 101.929 166.391C101.65 166.089 101.511 165.713 101.511 165.261C101.511 164.892 101.615 164.565 101.822 164.281C102.032 163.997 102.318 163.774 102.679 163.612C103.042 163.45 103.454 163.369 103.914 163.369C104.562 163.369 105.071 163.511 105.44 163.795C105.812 164.08 106.076 164.455 106.233 164.92ZM107.866 170V163.455H108.871V170H107.866ZM108.377 162.364C108.181 162.364 108.012 162.297 107.87 162.163C107.731 162.03 107.661 161.869 107.661 161.682C107.661 161.494 107.731 161.334 107.87 161.2C108.012 161.067 108.181 161 108.377 161C108.573 161 108.741 161.067 108.88 161.2C109.022 161.334 109.093 161.494 109.093 161.682C109.093 161.869 109.022 162.03 108.88 162.163C108.741 162.297 108.573 162.364 108.377 162.364ZM113.373 170.136C112.782 170.136 112.263 169.996 111.817 169.714C111.374 169.433 111.027 169.04 110.777 168.534C110.53 168.028 110.407 167.437 110.407 166.761C110.407 166.08 110.53 165.484 110.777 164.976C111.027 164.467 111.374 164.072 111.817 163.791C112.263 163.51 112.782 163.369 113.373 163.369C113.963 163.369 114.48 163.51 114.924 163.791C115.37 164.072 115.716 164.467 115.963 164.976C116.213 165.484 116.338 166.08 116.338 166.761C116.338 167.437 116.213 168.028 115.963 168.534C115.716 169.04 115.37 169.433 114.924 169.714C114.48 169.996 113.963 170.136 113.373 170.136ZM113.373 169.233C113.821 169.233 114.191 169.118 114.48 168.888C114.77 168.658 114.985 168.355 115.124 167.98C115.263 167.605 115.333 167.199 115.333 166.761C115.333 166.324 115.263 165.916 115.124 165.538C114.985 165.161 114.77 164.855 114.48 164.622C114.191 164.389 113.821 164.273 113.373 164.273C112.924 164.273 112.554 164.389 112.265 164.622C111.975 164.855 111.76 165.161 111.621 165.538C111.482 165.916 111.412 166.324 111.412 166.761C111.412 167.199 111.482 167.605 111.621 167.98C111.76 168.355 111.975 168.658 112.265 168.888C112.554 169.118 112.924 169.233 113.373 169.233ZM118.879 166.062V170H117.874V163.455H118.845V164.477H118.93C119.084 164.145 119.317 163.878 119.629 163.676C119.942 163.472 120.345 163.369 120.839 163.369C121.283 163.369 121.67 163.46 122.003 163.642C122.335 163.821 122.594 164.094 122.778 164.46C122.963 164.824 123.055 165.284 123.055 165.841V170H122.05V165.909C122.05 165.395 121.916 164.994 121.649 164.707C121.382 164.418 121.016 164.273 120.55 164.273C120.229 164.273 119.942 164.342 119.689 164.482C119.439 164.621 119.241 164.824 119.097 165.091C118.952 165.358 118.879 165.682 118.879 166.062ZM129.529 164.92L128.626 165.176C128.569 165.026 128.485 164.879 128.375 164.737C128.267 164.592 128.119 164.473 127.931 164.379C127.744 164.286 127.504 164.239 127.211 164.239C126.811 164.239 126.477 164.331 126.21 164.516C125.946 164.697 125.814 164.929 125.814 165.21C125.814 165.46 125.904 165.658 126.086 165.803C126.268 165.947 126.552 166.068 126.939 166.165L127.91 166.403C128.495 166.545 128.931 166.763 129.218 167.055C129.505 167.345 129.649 167.719 129.649 168.176C129.649 168.551 129.541 168.886 129.325 169.182C129.112 169.477 128.814 169.71 128.43 169.881C128.047 170.051 127.6 170.136 127.092 170.136C126.424 170.136 125.872 169.991 125.434 169.702C124.997 169.412 124.72 168.989 124.603 168.432L125.558 168.193C125.649 168.545 125.821 168.81 126.074 168.986C126.329 169.162 126.663 169.25 127.075 169.25C127.544 169.25 127.916 169.151 128.191 168.952C128.47 168.75 128.609 168.509 128.609 168.227C128.609 168 128.529 167.81 128.37 167.656C128.211 167.5 127.967 167.384 127.637 167.307L126.547 167.051C125.947 166.909 125.507 166.689 125.225 166.391C124.947 166.089 124.808 165.713 124.808 165.261C124.808 164.892 124.912 164.565 125.119 164.281C125.329 163.997 125.615 163.774 125.975 163.612C126.339 163.45 126.751 163.369 127.211 163.369C127.859 163.369 128.368 163.511 128.737 163.795C129.109 164.08 129.373 164.455 129.529 164.92Z" fill="#5C5F63"/>
<defs>
<clipPath id="clip0_347_1627">
<rect width="58" height="52" fill="white" transform="translate(74 62)"/>
</clipPath>
</defs>
</svg>
