<svg width="206" height="208" viewBox="0 0 206 208" fill="none" xmlns="http://www.w3.org/2000/svg">
<path d="M35.3346 54.976V56.976H37.3346V54.976H35.3346ZM35.3346 23.104H37.3346V16.2558L33.649 22.0276L35.3346 23.104ZM14.9826 54.976L13.297 53.8996L11.3325 56.976H14.9826V54.976ZM55.3986 64.576V66.576H57.3986V64.576H55.3986ZM45.6066 64.576V62.576H43.6066V64.576H45.6066ZM45.6066 80.512V82.512H47.6066V80.512H45.6066ZM35.3346 80.512H33.3346V82.512H35.3346V80.512ZM35.3346 64.576H37.3346V62.576H35.3346V64.576ZM3.65463 64.576H1.65463V66.576H3.65463V64.576ZM3.65463 55.552L1.98105 54.4569L1.65463 54.9558V55.552H3.65463ZM34.1826 8.89599V6.89599H33.1012L32.5091 7.80094L34.1826 8.89599ZM45.6066 8.89599H47.6066V6.89599H45.6066V8.89599ZM45.6066 54.976H43.6066V56.976H45.6066V54.976ZM55.3986 54.976H57.3986V52.976H55.3986V54.976ZM37.3346 54.976V23.104H33.3346V54.976H37.3346ZM33.649 22.0276L13.297 53.8996L16.6683 56.0524L37.0203 24.1804L33.649 22.0276ZM14.9826 56.976H35.3346V52.976H14.9826V56.976ZM55.3986 62.576H45.6066V66.576H55.3986V62.576ZM43.6066 64.576V80.512H47.6066V64.576H43.6066ZM45.6066 78.512H35.3346V82.512H45.6066V78.512ZM37.3346 80.512V64.576H33.3346V80.512H37.3346ZM35.3346 62.576H3.65463V66.576H35.3346V62.576ZM5.65463 64.576V55.552H1.65463V64.576H5.65463ZM5.3282 56.6471L35.8562 9.99105L32.5091 7.80094L1.98105 54.4569L5.3282 56.6471ZM34.1826 10.896H45.6066V6.89599H34.1826V10.896ZM43.6066 8.89599V54.976H47.6066V8.89599H43.6066ZM45.6066 56.976H55.3986V52.976H45.6066V56.976ZM53.3986 54.976V64.576H57.3986V54.976H53.3986Z" fill="#565555"/>
<circle cx="107" cy="115" r="92.5" fill="white" stroke="black"/>
<path d="M108.597 127.65H104.359C103.966 127.65 103.66 127.344 103.66 126.95V118.07C103.66 117.676 103.966 117.37 104.359 117.37H108.597C108.99 117.37 109.296 117.676 109.296 118.07V126.994C109.296 127.344 108.99 127.65 108.597 127.65Z" fill="#5C5F63"/>
<path d="M132.801 128H80.199C80.0243 128 79.8932 127.869 79.8932 127.694V125.9C79.8932 125.725 80.0243 125.594 80.199 125.594H132.801C132.976 125.594 133.107 125.725 133.107 125.9V127.694C133.063 127.869 132.932 128 132.801 128Z" fill="#5C5F63"/>
<path d="M106.762 93.0913L99.9904 112.952L120.524 108.883L106.762 93.0913Z" fill="#5C5F63"/>
<path d="M98.4692 86.1748L84.9514 81.5458L80.3283 95.0809L93.8461 99.7099L98.4692 86.1748Z" fill="#5C5F63"/>
<path d="M125.33 94.6662C128.563 94.6662 131.184 92.0417 131.184 88.8043C131.184 85.5669 128.563 82.9424 125.33 82.9424C122.097 82.9424 119.476 85.5669 119.476 88.8043C119.476 92.0417 122.097 94.6662 125.33 94.6662Z" fill="#5C5F63"/>
<path d="M137.126 71H75.8301C75.3932 71 75 71.4375 75 71.9624V117.982C75 118.507 75.3932 118.945 75.8301 118.945H137.126C137.607 118.945 137.956 118.507 137.956 117.982V71.9624C138 71.4375 137.607 71 137.126 71ZM135.684 115.795C135.684 116.276 135.335 116.67 134.898 116.67H78.0583C77.6214 116.67 77.2718 116.276 77.2718 115.795V74.1497C77.2718 73.6685 77.6214 73.2748 78.0583 73.2748H134.898C135.335 73.2748 135.684 73.6685 135.684 74.1497V115.795Z" fill="#5C5F63"/>
<path d="M90.7207 174H88.0275V165.273H90.84C91.6866 165.273 92.411 165.447 93.0133 165.797C93.6156 166.143 94.0772 166.642 94.3983 167.293C94.7193 167.94 94.8798 168.716 94.8798 169.619C94.8798 170.528 94.7179 171.311 94.394 171.967C94.0701 172.621 93.5985 173.124 92.9792 173.476C92.3599 173.825 91.6071 174 90.7207 174ZM89.0843 173.062H90.6525C91.3741 173.062 91.9721 172.923 92.4466 172.645C92.921 172.366 93.2747 171.97 93.5076 171.456C93.7406 170.942 93.8571 170.33 93.8571 169.619C93.8571 168.915 93.742 168.308 93.5119 167.8C93.2818 167.288 92.938 166.896 92.4806 166.624C92.0233 166.348 91.4537 166.21 90.7718 166.21H89.0843V173.062ZM99.2605 174.136C98.6298 174.136 98.0858 173.997 97.6284 173.719C97.1738 173.438 96.823 173.045 96.5758 172.543C96.3315 172.037 96.2093 171.449 96.2093 170.778C96.2093 170.108 96.3315 169.517 96.5758 169.006C96.823 168.491 97.1667 168.091 97.6071 167.804C98.0502 167.514 98.5673 167.369 99.1582 167.369C99.4991 167.369 99.8358 167.426 100.168 167.54C100.501 167.653 100.803 167.838 101.076 168.094C101.349 168.347 101.566 168.682 101.728 169.099C101.89 169.517 101.971 170.031 101.971 170.642V171.068H96.9252V170.199H100.948C100.948 169.83 100.874 169.5 100.726 169.21C100.581 168.92 100.374 168.692 100.104 168.524C99.8372 168.357 99.5218 168.273 99.1582 168.273C98.7576 168.273 98.411 168.372 98.1184 168.571C97.8287 168.767 97.6056 169.023 97.4494 169.338C97.2931 169.653 97.215 169.991 97.215 170.352V170.932C97.215 171.426 97.3002 171.845 97.4707 172.189C97.644 172.53 97.8841 172.79 98.1909 172.969C98.4977 173.145 98.8542 173.233 99.2605 173.233C99.5247 173.233 99.7633 173.196 99.9764 173.122C100.192 173.045 100.378 172.932 100.535 172.781C100.691 172.628 100.812 172.437 100.897 172.21L101.868 172.483C101.766 172.812 101.594 173.102 101.353 173.352C101.111 173.599 100.813 173.793 100.458 173.932C100.103 174.068 99.7037 174.136 99.2605 174.136ZM108.137 168.92L107.233 169.176C107.177 169.026 107.093 168.879 106.982 168.737C106.874 168.592 106.726 168.473 106.539 168.379C106.351 168.286 106.111 168.239 105.819 168.239C105.418 168.239 105.084 168.331 104.817 168.516C104.553 168.697 104.421 168.929 104.421 169.21C104.421 169.46 104.512 169.658 104.694 169.803C104.876 169.947 105.16 170.068 105.546 170.165L106.518 170.403C107.103 170.545 107.539 170.763 107.826 171.055C108.113 171.345 108.256 171.719 108.256 172.176C108.256 172.551 108.148 172.886 107.932 173.182C107.719 173.477 107.421 173.71 107.037 173.881C106.654 174.051 106.208 174.136 105.699 174.136C105.032 174.136 104.479 173.991 104.042 173.702C103.604 173.412 103.327 172.989 103.211 172.432L104.165 172.193C104.256 172.545 104.428 172.81 104.681 172.986C104.937 173.162 105.27 173.25 105.682 173.25C106.151 173.25 106.523 173.151 106.799 172.952C107.077 172.75 107.216 172.509 107.216 172.227C107.216 172 107.137 171.81 106.978 171.656C106.819 171.5 106.574 171.384 106.245 171.307L105.154 171.051C104.555 170.909 104.114 170.689 103.833 170.391C103.555 170.089 103.415 169.713 103.415 169.261C103.415 168.892 103.519 168.565 103.726 168.281C103.937 167.997 104.222 167.774 104.583 167.612C104.947 167.45 105.358 167.369 105.819 167.369C106.466 167.369 106.975 167.511 107.344 167.795C107.716 168.08 107.981 168.455 108.137 168.92ZM109.77 174V167.455H110.776V174H109.77ZM110.281 166.364C110.085 166.364 109.916 166.297 109.774 166.163C109.635 166.03 109.566 165.869 109.566 165.682C109.566 165.494 109.635 165.334 109.774 165.2C109.916 165.067 110.085 165 110.281 165C110.477 165 110.645 165.067 110.784 165.2C110.926 165.334 110.997 165.494 110.997 165.682C110.997 165.869 110.926 166.03 110.784 166.163C110.645 166.297 110.477 166.364 110.281 166.364ZM115.26 176.591C114.774 176.591 114.356 176.528 114.007 176.403C113.657 176.281 113.366 176.119 113.133 175.918C112.903 175.719 112.72 175.506 112.584 175.278L113.385 174.716C113.476 174.835 113.591 174.972 113.73 175.125C113.869 175.281 114.059 175.416 114.301 175.53C114.545 175.646 114.865 175.705 115.26 175.705C115.788 175.705 116.224 175.577 116.568 175.321C116.912 175.065 117.084 174.665 117.084 174.119V172.79H116.998C116.925 172.909 116.819 173.057 116.683 173.233C116.55 173.406 116.356 173.561 116.104 173.697C115.854 173.831 115.515 173.898 115.089 173.898C114.561 173.898 114.086 173.773 113.666 173.523C113.248 173.273 112.917 172.909 112.673 172.432C112.432 171.955 112.311 171.375 112.311 170.693C112.311 170.023 112.429 169.439 112.665 168.942C112.9 168.442 113.229 168.055 113.649 167.783C114.069 167.507 114.555 167.369 115.106 167.369C115.532 167.369 115.871 167.44 116.121 167.582C116.373 167.722 116.567 167.881 116.7 168.06C116.836 168.236 116.942 168.381 117.015 168.494H117.118V167.455H118.089V174.188C118.089 174.75 117.961 175.207 117.706 175.56C117.453 175.915 117.112 176.175 116.683 176.339C116.257 176.507 115.782 176.591 115.26 176.591ZM115.226 172.994C115.629 172.994 115.97 172.902 116.248 172.717C116.527 172.533 116.738 172.267 116.883 171.92C117.028 171.574 117.101 171.159 117.101 170.676C117.101 170.205 117.03 169.788 116.888 169.428C116.746 169.067 116.535 168.784 116.257 168.58C115.979 168.375 115.635 168.273 115.226 168.273C114.8 168.273 114.444 168.381 114.16 168.597C113.879 168.812 113.667 169.102 113.525 169.466C113.386 169.83 113.317 170.233 113.317 170.676C113.317 171.131 113.388 171.533 113.53 171.882C113.675 172.229 113.888 172.501 114.169 172.7C114.453 172.896 114.805 172.994 115.226 172.994ZM120.936 170.062V174H119.93V167.455H120.902V168.477H120.987C121.14 168.145 121.373 167.878 121.686 167.676C121.998 167.472 122.402 167.369 122.896 167.369C123.339 167.369 123.727 167.46 124.059 167.642C124.392 167.821 124.65 168.094 124.835 168.46C125.02 168.824 125.112 169.284 125.112 169.841V174H124.106V169.909C124.106 169.395 123.973 168.994 123.706 168.707C123.439 168.418 123.072 168.273 122.606 168.273C122.285 168.273 121.998 168.342 121.746 168.482C121.496 168.621 121.298 168.824 121.153 169.091C121.008 169.358 120.936 169.682 120.936 170.062Z" fill="#5C5F63"/>
<path d="M83.94 143.88V145.695C83.94 146.745 83.715 147.99 82.275 148.92C82.5 149.07 82.935 149.46 83.085 149.67C84.69 148.605 85.02 147.015 85.02 145.71V143.88H83.94ZM87.6 143.88V147.585C87.6 148.65 87.87 148.95 88.785 148.95C88.98 148.95 89.64 148.95 89.835 148.95C90.645 148.95 90.915 148.485 91.005 146.73C90.72 146.655 90.27 146.49 90.06 146.325C90.03 147.765 89.97 147.96 89.715 147.96C89.565 147.96 89.07 147.96 88.95 147.96C88.71 147.96 88.665 147.9 88.665 147.57V143.88H87.6ZM84.75 150.96L83.745 151.275C84.945 154.215 87.18 156.285 90.3 157.2C90.45 156.915 90.78 156.465 91.035 156.225C88.02 155.46 85.785 153.54 84.75 150.96ZM88.95 149.91V150.09C88.05 153.42 85.335 155.445 82.305 156.21C82.515 156.45 82.8 156.93 82.92 157.2C86.205 156.24 89.025 154.08 90.09 150.15L89.37 149.865L89.175 149.91H88.95ZM82.965 149.91V150.93H89.385V149.91H82.965ZM84.39 143.88V144.885H88.14V143.88H84.39ZM77.775 147.945V148.845H82.245V147.945H77.775ZM77.85 143.94V144.84H82.215V143.94H77.85ZM77.775 149.955V150.855H82.245V149.955H77.775ZM77.07 145.905V146.835H82.77V145.905H77.07ZM78.315 151.98V152.91H81.255V155.415H78.315V156.36H82.245V151.98H78.315ZM77.76 151.98V157.05H78.735V151.98H77.76ZM98.01 148.545V149.655H106.065V148.545H98.01ZM101.535 143.445V157.2H102.675V143.445H101.535ZM92.775 147.945V148.845H97.455V147.945H92.775ZM92.865 143.94V144.84H97.47V143.94H92.865ZM92.775 149.955V150.855H97.455V149.955H92.775ZM92.07 145.905V146.835H98.04V145.905H92.07ZM93.3 151.98V152.91H96.405V155.415H93.3V156.36H97.41V151.98H93.3ZM92.76 151.98V157.05H93.765V151.98H92.76ZM107.685 144.945V145.92H113.22V144.945H107.685ZM107.49 153.195V154.17H113.37V153.195H107.49ZM113.58 146.355V147.405H118.98V146.355H113.58ZM107.115 147.345V148.335H113.82V147.345H107.115ZM107.325 150.645V151.62H113.61V150.645H107.325ZM109.965 143.4V147.735H111.015V143.4H109.965ZM109.965 150.945V157.17H111.015V150.945H109.965ZM113.445 150.3C114.975 151.29 116.775 152.775 117.585 153.81L118.26 152.925C117.42 151.89 115.59 150.465 114.06 149.52L113.445 150.3ZM112.005 148.29C111.84 148.935 111.495 149.895 111.225 150.495L112.065 150.75C112.365 150.165 112.68 149.325 112.98 148.545L112.005 148.29ZM108.15 148.545C108.465 149.25 108.765 150.18 108.84 150.765L109.74 150.48C109.665 149.91 109.35 148.995 109.005 148.32L108.15 148.545ZM118.44 146.355C118.425 152.205 118.245 156.645 119.85 157.17C120.615 157.455 121.08 156.885 121.17 154.215C120.99 154.095 120.66 153.75 120.45 153.51C120.435 154.89 120.33 156.105 120.225 156.075C119.355 155.85 119.445 151.725 119.535 146.355H118.44ZM115.635 143.415V147.93C115.635 150.72 115.32 154.155 112.155 156.54C112.41 156.705 112.83 157.02 113.01 157.23C116.31 154.695 116.7 151.02 116.7 147.945V143.415H115.635ZM128.025 144.315V145.395H135.39V144.315H128.025ZM132.405 148.785V155.745C132.405 156 132.315 156.06 132.015 156.075C131.745 156.09 130.74 156.09 129.675 156.06C129.84 156.39 129.99 156.855 130.035 157.17C131.505 157.17 132.36 157.155 132.87 156.99C133.38 156.81 133.545 156.465 133.545 155.76V148.785H132.405ZM127.365 148.455V149.52H135.825V148.455H127.365ZM124.365 149.61V157.245H125.49V148.695L125.355 148.635L124.365 149.61ZM126.105 146.61C125.07 148.335 123.42 150.075 121.86 151.185C122.1 151.395 122.49 151.89 122.655 152.115C124.23 150.855 126 148.92 127.17 147.015L126.105 146.61ZM125.49 143.4C124.725 144.48 123.27 145.83 122.025 146.67C122.22 146.895 122.52 147.33 122.685 147.57C124.02 146.61 125.565 145.155 126.57 143.835L125.49 143.4Z" fill="#5C5F63"/>
</svg>
