<svg width="92" height="73" viewBox="0 0 92 73" fill="none" xmlns="http://www.w3.org/2000/svg">
<g opacity="0.7">
<path d="M46.4 50.7C39.1 50.7 33.1 44.7 33.1 37.4V27.3C33.1 26.8 32.8 26.4 32.4 26.2C31 25.6 30 24.4 29.7 23H32C32.7 23 33.2 22.5 33.2 21.8C33.2 21.1 32.7 20.6 32 20.6C29.8 20.6 27.8999 19.1 27.2999 17H53.7C57 17 59.7 19.7 59.7 23V37.5C59.7 44.7 53.7 50.7 46.4 50.7ZM82.5 70.7L79.2 64C77.3 60.3 73.6 58 69.5 58H63.4C59.1 58 55.6 54.8 55 50.6C59.3 47.8 62.2 43 62.2 37.4V22.9C62.2 18.2 58.4 14.4 53.7 14.4H25.9C25.2 14.4 24.7 14.9 24.7 15.6C24.7 17.8 25.7 19.8 27.2 21.1C27.1 21.3 27.1 21.4 27.1 21.6C27.1 24.2 28.5 26.6 30.7 27.9V37.3C30.7 42.8 33.5999 47.7 37.9 50.5C37.4 54.6 33.8 57.9 29.5 57.9H23.4C19.3 57.9 15.5 60.2 13.7 63.9L10.3 70.6C10.2 70.8 10.2 71 10.2 71.1V72.3H12.6V71.4L15.9 65C17.3 62.1 20.2 60.3 23.5 60.3H29.6C34.8 60.3 39.2 56.6 40.2 51.7C42.1 52.5 44.3 53 46.5 53C48.7 53 50.8999 52.5 52.7999 51.7C53.8999 56.6 58.2 60.3 63.4 60.3H69.5C72.7 60.3 75.6 62.1 77.1 65L80.3 71.5V72.4H82.7V71.2C82.6 71 82.6 70.9 82.5 70.7Z" fill="#9FA0A0"/>
<path d="M46.3999 63.2L45.1999 61.6H47.5999L46.3999 63.2ZM52.2999 70.7L48.8999 63.9L50.9999 61.1C51.2999 60.7 51.2999 60.2 51.0999 59.8C50.8999 59.4 50.4999 59.1 49.9999 59.1H42.7999C42.2999 59.1 41.8999 59.4 41.6999 59.8C41.4999 60.2 41.4999 60.7 41.7999 61.1L43.8999 63.9L40.4999 70.7C40.3999 70.9 40.3999 71.1 40.3999 71.2V72.4H42.7999V71.5L45.5999 66C45.7999 66.2 46.0999 66.4 46.4999 66.4C46.7999 66.4 47.0999 66.2 47.3999 66L50.1999 71.5V72.4H52.5999V71.2C52.4999 71 52.3999 70.9 52.2999 70.7Z" fill="#9FA0A0"/>
<path d="M50.4 5.2L47.5999 8V0H45.2V8L42.4 5.2L40.7 6.9L45.5 11.7C45.7 11.9 46 12.1 46.4 12.1C46.8 12.1 46.9999 12 47.2999 11.7L52.0999 6.9L50.4 5.2Z" fill="#9FA0A0"/>
<path d="M76.5999 29H68.5999L71.3999 26.2L69.6999 24.5L64.8999 29.3C64.3999 29.8 64.3999 30.5 64.8999 31L69.6999 35.8L71.3999 34.1L68.5999 31.3H76.5999V29Z" fill="#9FA0A0"/>
<path d="M28 29.3L23.2 24.5L21.5 26.2L24.3 29H16.3V31.4H24.3L21.5 34.2L23.2 35.9L28 31C28.4 30.6 28.4 29.8 28 29.3Z" fill="#9FA0A0"/>
<path d="M81.4 29H79V31.4H81.4V29Z" fill="#9FA0A0"/>
<path d="M13.7999 29H11.3999V31.4H13.7999V29Z" fill="#9FA0A0"/>
<path d="M40.4001 35C39.1001 35 38.0001 33.9 38.0001 32.6C38.0001 31.3 39.1001 30.2 40.4001 30.2C41.7001 30.2 42.8001 31.3 42.8001 32.6C42.8001 33.9 41.7001 35 40.4001 35ZM40.4001 27.8C37.7001 27.8 35.6001 30 35.6001 32.6C35.6001 35.3 37.8001 37.4 40.4001 37.4C43.1001 37.4 45.2001 35.2 45.2001 32.6C45.2001 29.9 43.1001 27.8 40.4001 27.8Z" fill="#9FA0A0"/>
<path d="M52.5002 35C51.2002 35 50.1002 33.9 50.1002 32.6C50.1002 31.3 51.2002 30.2 52.5002 30.2C53.8002 30.2 54.9002 31.3 54.9002 32.6C54.9002 33.9 53.8002 35 52.5002 35ZM52.5002 27.8C49.8002 27.8 47.7002 30 47.7002 32.6C47.7002 35.3 49.9002 37.4 52.5002 37.4C55.2002 37.4 57.3002 35.2 57.3002 32.6C57.3002 29.9 55.1002 27.8 52.5002 27.8Z" fill="#9FA0A0"/>
<path d="M80.2001 10.9C80.2001 11.6 79.7001 12.1 79.0001 12.1H71.8001C71.6001 12.1 71.4001 12.2 71.2001 12.3L67.0001 14.8V13.3C67.0001 12.6 66.5001 12.1 65.8001 12.1H64.6001C63.9001 12.1 63.4001 11.6 63.4001 10.9V3.6C63.4001 2.9 63.9001 2.4 64.6001 2.4H79.0001C79.7001 2.4 80.2001 2.9 80.2001 3.6V10.9ZM79.0001 0H64.5001C62.5001 0 60.9001 1.6 60.9001 3.6V10.8C60.9001 12.8 62.5001 14.4 64.5001 14.4V16.8C64.5001 17.2 64.7001 17.6 65.1001 17.8C65.3001 17.9 65.5001 18 65.7001 18C65.9001 18 66.1001 17.9 66.3001 17.8L72.1001 14.4H79.0001C81.0001 14.4 82.6001 12.8 82.6001 10.8V3.6C82.6001 1.6 81.0001 0 79.0001 0Z" fill="#9FA0A0"/>
<path d="M68.0999 6H65.7V8.4H68.0999V6Z" fill="#9FA0A0"/>
<path d="M73.0001 6H70.6001V8.4H73.0001V6Z" fill="#9FA0A0"/>
<path d="M77.7999 6H75.3999V8.4H77.7999V6Z" fill="#9FA0A0"/>
<path d="M28.3 51.9C28.3 52.6 27.8 53.1 27.1 53.1H12.6C11.9 53.1 11.4 52.6 11.4 51.9V47.1C11.4 46.4 11.9 45.9 12.6 45.9H19.8C20.1 45.9 20.4 45.8 20.6 45.6L25.2 41.8L24.7 44.5C24.6 44.9 24.7 45.2 24.9 45.5C25.1 45.8 25.5 45.9 25.8 45.9H27C27.7 45.9 28.2 46.4 28.2 47.1V51.9H28.3ZM27.4 43.5L28.3 38.9C28.4 38.4 28.2 37.9 27.7 37.6C27.3 37.3 26.7 37.4 26.3 37.7L19.4 43.5H12.6C10.6 43.5 9 45.1 9 47.1V51.9C9 53.9 10.6 55.5 12.6 55.5H27.1C29.1 55.5 30.7 53.9 30.7 51.9V47.1C30.7 45.2 29.2 43.6 27.4 43.5Z" fill="#9FA0A0"/>
<path d="M25.9 48.3H23.5V50.7H25.9V48.3Z" fill="#9FA0A0"/>
<path d="M21.1 48.3H18.7V50.7H21.1V48.3Z" fill="#9FA0A0"/>
<path d="M16.2 48.3H13.8V50.7H16.2V48.3Z" fill="#9FA0A0"/>
<path d="M52.4999 41C52.4999 43 50.8999 44.6 48.8999 44.6V47C52.1999 47 54.8999 44.3 54.8999 41H52.4999Z" fill="#9FA0A0"/>
<path d="M24.7 8.5C24.7 9.2 24.2 9.7 23.5 9.7H22.3C21.6 9.7 21.1 10.2 21.1 10.9V12.4L16.9 9.8C16.7 9.7 16.5 9.7 16.2 9.7H13.8C13.1 9.7 12.6 9.2 12.6 8.5V3.6C12.6 2.9 13.1 2.4 13.8 2.4H23.5C24.2 2.4 24.7 2.9 24.7 3.6V8.5ZM23.5 0H13.8C11.8 0 10.2 1.6 10.2 3.6V8.4C10.2 10.4 11.8 12 13.8 12H15.9L21.6 15.5C21.8 15.6 22 15.7 22.2 15.7C22.4 15.7 22.6 15.6 22.8 15.5C23.2 15.3 23.4 14.9 23.4 14.5V12.1C25.4 12.1 27 10.5 27 8.5V3.6C27.1 1.6 25.5 0 23.5 0Z" fill="#9FA0A0"/>
<path d="M22.2999 4.79999H19.8999V7.19999H22.2999V4.79999Z" fill="#9FA0A0"/>
<path d="M17.4 4.79999H15V7.19999H17.4V4.79999Z" fill="#9FA0A0"/>
<path d="M76.5999 51.9C76.5999 52.6 76.1 53.1 75.4 53.1H65.7C65 53.1 64.5 52.6 64.5 51.9V47.1C64.5 46.4 65 45.9 65.7 45.9H67C67.7 45.9 68.2 45.4 68.2 44.7V43.2L72.4 45.7C72.6 45.8 72.8 45.9 73 45.9H75.4C76.1 45.9 76.5999 46.4 76.5999 47.1V51.9V51.9ZM75.4 43.5H73.3L67.5999 40C67.1999 39.8 66.8 39.8 66.4 40C66 40.2 65.7999 40.6 65.7999 41V43.4C63.7999 43.4 62.2 45 62.2 47V51.8C62.2 53.8 63.7999 55.4 65.7999 55.4H75.5C77.5 55.4 79.0999 53.8 79.0999 51.8V47C78.9999 45.1 77.4 43.5 75.4 43.5Z" fill="#9FA0A0"/>
<path d="M69.4 48.3H67V50.7H69.4V48.3Z" fill="#9FA0A0"/>
<path d="M74.2 48.3H71.8V50.7H74.2V48.3Z" fill="#9FA0A0"/>
</g>
</svg>
