<svg width="206" height="208" viewBox="0 0 206 208" fill="none" xmlns="http://www.w3.org/2000/svg">
<path d="M39.2666 47.68L40.1016 45.8626L39.3236 45.5052L38.528 45.8214L39.2666 47.68ZM28.8026 53.44L27.4363 51.9795L27.412 52.0022L27.3884 52.0258L28.8026 53.44ZM29.7626 68.608L28.5749 70.2172L28.5863 70.2255L29.7626 68.608ZM48.9626 68.992L47.7749 67.3829L47.7653 67.39L47.7557 67.3972L48.9626 68.992ZM49.1546 53.152L47.9118 54.719L47.9206 54.726L47.9295 54.7328L49.1546 53.152ZM39.3626 38.848L38.4931 40.6491L39.3743 41.0745L40.251 40.6399L39.3626 38.848ZM47.2346 20.128L46.0498 21.7393L46.0557 21.7436L47.2346 20.128ZM31.1066 20.224L32.2914 21.8353L32.3066 21.8241L32.3215 21.8127L31.1066 20.224ZM31.3946 34.048L30.0414 35.5207L30.0715 35.5483L30.1027 35.5748L31.3946 34.048ZM34.5626 36.352L33.4726 38.0289L33.5206 38.0601L33.5703 38.0885L34.5626 36.352ZM49.5386 42.88L48.4422 41.2073L45.3723 43.2195L48.7275 44.7081L49.5386 42.88ZM55.2986 76.864L54.1986 75.1937L54.1949 75.1961L55.2986 76.864ZM23.4266 76.576L24.5688 74.9342L24.5548 74.9245L24.5407 74.915L23.4266 76.576ZM28.6106 42.976L29.4622 44.7856L32.8539 43.1896L29.6396 41.261L28.6106 42.976ZM25.4426 11.968L26.4989 13.6663L26.5026 13.664L25.4426 11.968ZM54.0506 12.16L55.1914 10.5173L55.1819 10.5107L55.1723 10.5042L54.0506 12.16ZM38.528 45.8214C33.4856 47.8254 29.7055 49.8567 27.4363 51.9795L30.1689 54.9005C31.8678 53.3113 35.0637 51.5026 40.0053 49.5386L38.528 45.8214ZM27.3884 52.0258C24.9324 54.4818 23.7306 57.598 23.7306 61.216H27.7306C27.7306 58.562 28.5768 56.4942 30.2168 54.8542L27.3884 52.0258ZM23.7306 61.216C23.7306 64.8871 25.4551 67.9144 28.5749 70.2171L30.9503 66.9988C28.6942 65.3336 27.7306 63.4329 27.7306 61.216H23.7306ZM28.5863 70.2255C31.7547 72.5298 35.3692 73.68 39.3626 73.68V69.68C36.188 69.68 33.4026 68.7822 30.939 66.9905L28.5863 70.2255ZM39.3626 73.68C43.6764 73.68 47.3486 72.7215 50.1695 70.5868L47.7557 67.3972C45.8406 68.8465 43.1129 69.68 39.3626 69.68V73.68ZM50.1503 70.6012C53.4013 68.2016 54.9946 64.7592 54.9946 60.544H50.9946C50.9946 63.6248 49.9 65.8144 47.7749 67.3829L50.1503 70.6012ZM54.9946 60.544C54.9946 56.9139 53.3724 53.8905 50.3798 51.5712L47.9295 54.7328C50.0568 56.3815 50.9946 58.2861 50.9946 60.544H54.9946ZM50.3974 51.585C48.3388 49.9523 44.8523 48.0454 40.1016 45.8626L38.4316 49.4974C43.153 51.6666 46.2585 53.4077 47.9118 54.719L50.3974 51.585ZM40.251 40.6399C44.1723 38.6957 47.2601 36.6086 49.3901 34.3355C51.5406 32.0404 52.7866 29.4703 52.7866 26.656H48.7866C48.7866 28.1937 48.1287 29.8316 46.4712 31.6005C44.7931 33.3914 42.1689 35.2243 38.4742 37.0561L40.251 40.6399ZM52.7866 26.656C52.7866 23.3115 51.2277 20.566 48.4136 18.5124L46.0557 21.7436C47.9775 23.146 48.7866 24.7525 48.7866 26.656H52.7866ZM48.4194 18.5167C45.8539 16.6303 42.7998 15.728 39.3626 15.728V19.728C42.0694 19.728 44.2634 20.4257 46.0498 21.7393L48.4194 18.5167ZM39.3626 15.728C35.6924 15.728 32.4864 16.6511 29.8917 18.6353L32.3215 21.8127C34.0788 20.4689 36.3769 19.728 39.3626 19.728V15.728ZM29.9218 18.6127C27.2362 20.5874 25.8426 23.3282 25.8426 26.656H29.8426C29.8426 24.6078 30.625 23.0606 32.2914 21.8353L29.9218 18.6127ZM25.8426 26.656C25.8426 30.0633 27.3372 33.0358 30.0414 35.5207L32.7479 32.5753C30.716 30.7082 29.8426 28.7527 29.8426 26.656H25.8426ZM30.1027 35.5748C31.0185 36.3496 32.1478 37.1677 33.4726 38.0289L35.6526 34.6751C34.4175 33.8723 33.4348 33.1544 32.6865 32.5212L30.1027 35.5748ZM33.5703 38.0885C34.9651 38.8855 36.6082 39.7391 38.4931 40.6491L40.2321 37.0469C38.4051 36.1649 36.8481 35.3545 35.5549 34.6155L33.5703 38.0885ZM48.7275 44.7081C53.0433 46.6229 56.1351 48.9902 58.1488 51.7413C60.1471 54.4714 61.1706 57.6965 61.1706 61.504H65.1706C65.1706 56.9275 63.9221 52.8566 61.3765 49.3787C58.8461 45.9218 55.122 43.1691 50.3497 41.0518L48.7275 44.7081ZM61.1706 61.504C61.1706 67.679 58.8336 72.1413 54.1986 75.1937L56.3986 78.5343C62.2596 74.6747 65.1706 68.897 65.1706 61.504H61.1706ZM54.1949 75.1961C50.2313 77.8191 45.3224 79.184 39.3626 79.184V83.184C45.9468 83.184 51.6619 81.6689 56.4024 78.5319L54.1949 75.1961ZM39.3626 79.184C33.4981 79.184 28.5999 77.7385 24.5688 74.9342L22.2845 78.2178C27.0853 81.5575 32.8112 83.184 39.3626 83.184V79.184ZM24.5407 74.915C19.868 71.7809 17.5546 67.3917 17.5546 61.504H13.5546C13.5546 68.6723 16.4893 74.3311 22.3126 78.237L24.5407 74.915ZM17.5546 61.504C17.5546 57.7483 18.5372 54.5515 20.4535 51.832C22.3824 49.0947 25.3398 46.7256 29.4622 44.7856L27.759 41.1664C23.1774 43.3224 19.6069 46.0892 17.1838 49.528C14.748 52.9845 13.5546 57.0037 13.5546 61.504H17.5546ZM29.6396 41.261C22.7281 37.1141 19.5706 31.9668 19.5706 25.792H15.5706C15.5706 33.6972 19.7732 40.0059 27.5816 44.691L29.6396 41.261ZM19.5706 25.792C19.5706 20.5627 21.8105 16.5823 26.4989 13.6663L24.3864 10.2697C18.5788 13.8817 15.5706 19.1173 15.5706 25.792H19.5706ZM26.5026 13.664C30.2573 11.3173 34.5249 10.128 39.3626 10.128V6.128C33.8324 6.128 28.8199 7.4987 24.3826 10.272L26.5026 13.664ZM39.3626 10.128C44.8739 10.128 49.3575 11.3965 52.9289 13.8158L55.1723 10.5042C50.8078 7.54754 45.4994 6.128 39.3626 6.128V10.128ZM52.9098 13.8027C56.9488 16.6075 58.9626 20.5208 58.9626 25.792H62.9626C62.9626 19.2872 60.3685 14.1125 55.1914 10.5173L52.9098 13.8027ZM58.9626 25.792C58.9626 31.258 55.753 36.4154 48.4422 41.2073L50.635 44.5527C58.5563 39.3606 62.9626 33.126 62.9626 25.792H58.9626Z" fill="#565555"/>
<circle cx="113" cy="115" r="92.5" fill="white" stroke="black"/>
<g clip-path="url(#clip0_345_777)">
<path d="M114.832 115.353C114.537 115.608 114.242 115.736 113.946 115.736C113.229 115.736 112.765 115.481 112.597 114.886L111.036 109.449H100.618L97.1596 114.886C96.7378 115.481 96.2317 115.736 95.5568 115.736C94.7132 115.736 94.418 115.353 94.5445 114.546C94.6289 114.079 94.7554 113.697 95.0507 113.272L107.198 94.7927C107.62 94.1555 108.041 93.8156 108.59 93.8156C109.096 93.8156 109.476 94.1555 109.686 94.7927L115.338 113.272C115.423 113.654 115.465 114.079 115.38 114.546C115.296 114.886 115.127 115.141 114.832 115.353ZM107.746 98.3186L102.39 106.687H110.235L107.746 98.3186Z" fill="#5C5F63"/>
<path d="M121.285 115.736C120.357 115.736 120.02 115.184 120.231 114.037L123.479 95.5149C123.69 94.3679 124.196 93.8156 125.124 93.8156C126.051 93.8156 126.431 94.3679 126.22 95.5149L122.973 114.037C122.804 115.184 122.213 115.736 121.285 115.736Z" fill="#5C5F63"/>
<path d="M137.903 87.0612C137.439 86.5939 136.975 86.4664 135.794 86.1266C135.794 85.192 135.794 82.2608 135.794 81.2838C135.752 79.1172 134.656 77.8428 132.505 77.5879C132.083 77.5455 131.661 77.5455 131.197 77.5455C122.424 77.5455 113.651 77.5455 104.836 77.5879C103.866 77.5879 103.233 77.2906 102.854 76.4834C101.63 73.8071 99.648 72.8301 96.7377 73.085C93.954 73.2974 91.0859 73.1274 88.2178 73.085C86.3198 73.0425 84.8436 73.6372 84 75.4639V119.517C84 120.749 84.6748 121.938 85.8137 122.448C86.6994 122.83 87.7117 122.958 88.8083 122.958C102.39 122.915 115.929 122.915 129.51 122.915C132.167 122.915 133.179 121.938 133.643 119.304C134.909 112.082 136.258 104.861 137.608 97.6389C137.988 95.5149 138.41 93.3908 138.831 91.2668C138.831 91.1818 138.916 90.5871 138.958 89.9499C139.084 88.9303 138.705 87.8258 137.903 87.0612ZM86.1933 77.2481C86.1933 75.7188 86.4463 75.4639 87.9225 75.4639C91.4655 75.4639 95.0084 75.4214 98.5514 75.5064C99.0153 75.5064 99.6058 75.8462 99.9433 76.2285C100.449 76.8233 100.829 77.5455 101.251 78.1827C102.01 79.4146 103.107 79.9244 104.583 79.9244C113.525 79.8819 123.225 79.9244 131.492 79.9244C133.306 79.9244 133.475 80.0518 133.475 81.8785C133.475 82.6432 133.475 85.4469 133.475 86.2965C132.842 86.2965 132.294 86.2965 131.83 86.2965C118.965 86.2965 106.101 86.254 93.237 86.254C90.8328 86.254 89.7784 87.1461 89.3566 89.4826C88.4287 94.7927 87.4586 100.018 86.2776 105.285C86.2354 104.988 86.1933 104.648 86.1933 104.351C86.1933 95.9822 86.1933 85.6168 86.1933 77.2481ZM136.258 92.2014L131.239 117.138C130.564 119.644 129.679 120.706 126.473 120.706H89.6097C87.3742 120.706 85.898 119.092 86.2776 117.138L91.1702 92.6686C91.2546 92.3288 91.339 91.989 91.4233 91.6491C92.2247 89.1003 92.9417 88.633 96.0207 88.633H132.926C135.162 88.6754 136.638 90.2472 136.258 92.2014Z" fill="#5C5F63"/>
</g>
<path d="M81.795 148.58V149.525H95.205V148.58H81.795ZM84.315 143.105V143.9H93.6V143.105H84.315ZM84.315 144.905V145.715H93.645V144.905H84.315ZM84.135 141.185V142.115H94.215V141.185H84.135ZM88.185 141.71V147.095H89.28V141.71H88.185ZM87.9 147.38V153.2H89.025V147.38H87.9ZM87.66 148.925C86.295 150.275 83.655 151.535 81.42 152.105C81.675 152.33 82.005 152.75 82.17 153.05C84.375 152.36 87.045 150.935 88.53 149.375L87.66 148.925ZM89.28 148.925L88.41 149.375C89.895 150.89 92.55 152.27 94.785 152.93C94.95 152.645 95.265 152.225 95.505 152C93.255 151.445 90.63 150.245 89.28 148.925ZM88.89 139.4C88.68 140.045 88.245 140.975 87.885 141.575L88.875 141.785C89.265 141.215 89.73 140.375 90.15 139.58L88.89 139.4ZM84.975 139.385C84.3 140.75 83.07 142.505 81.39 143.825C81.645 143.975 82.02 144.32 82.215 144.575C84 143.075 85.26 141.245 86.145 139.595L84.975 139.385ZM83.61 141.8V147.65H94.8V146.75H84.69V141.8H83.61ZM96.765 142.655V143.72H101.325V142.655H96.765ZM98.775 139.4V153.185H99.81V139.4H98.775ZM98.76 143.285C98.37 145.43 97.41 148.025 96.45 149.39C96.63 149.645 96.9 150.065 97.035 150.365C98.07 148.865 99.015 145.895 99.45 143.525L98.76 143.285ZM99.72 144.755L99.255 145.205C99.615 145.79 100.635 147.56 100.95 148.295L101.55 147.47C101.28 147.05 100.05 145.16 99.72 144.755ZM102.63 149.705V150.545H109.11V149.705H102.63ZM102.555 151.745V152.615H109.17V151.745H102.555ZM105.255 139.415V142.37H106.335V139.415H105.255ZM105.285 148.1V152.225H106.275V148.1H105.285ZM101.535 141.845V144.275H102.54V142.76H109.155V144.275H110.205V141.845H101.535ZM101.925 147.635V153.2H102.96V148.505H108.705V153.17H109.785V147.635H101.925ZM103.92 144.605H107.88V145.985H103.92V144.605ZM102.93 143.78V146.81H108.93V143.78H102.93ZM102.21 139.925C102.6 140.525 102.99 141.335 103.14 141.86L104.115 141.515C103.965 140.975 103.545 140.195 103.14 139.61L102.21 139.925ZM108.42 139.55C108.195 140.15 107.76 141.005 107.43 141.545L108.27 141.86C108.63 141.365 109.065 140.615 109.47 139.91L108.42 139.55ZM120.69 139.4V145.295H121.815V139.4H120.69ZM118.74 151.415V152.45H124.095V151.415H118.74ZM117.21 141.53V142.565H125.4V141.53H117.21ZM117.69 144.815V145.85H125.07V144.815H117.69ZM118.17 147.485V153.185H119.22V148.505H123.555V153.155H124.65V147.485H118.17ZM113.925 139.415C113.535 140.405 112.845 141.845 112.275 142.715L113.055 143.045C113.64 142.235 114.36 140.9 114.93 139.79L113.925 139.415ZM115.74 141.125C114.915 142.715 113.49 144.965 112.335 146.3L113.055 146.675C114.195 145.385 115.665 143.225 116.715 141.545L115.74 141.125ZM111.555 142.565C112.365 143.285 113.31 144.32 113.715 145.025L114.315 144.17C113.91 143.51 112.965 142.52 112.125 141.815L111.555 142.565ZM115.26 144.605C115.875 145.595 116.475 146.9 116.7 147.74L117.6 147.32C117.375 146.495 116.73 145.205 116.1 144.245L115.26 144.605ZM111.525 146.12L111.615 147.125C113.01 147.065 114.9 146.945 116.76 146.825L116.775 145.91C114.825 146 112.875 146.075 111.525 146.12ZM115.635 148.19C116.055 149.12 116.46 150.335 116.595 151.115L117.51 150.8C117.345 150.02 116.925 148.835 116.49 147.92L115.635 148.19ZM112.35 147.98C112.17 149.3 111.87 150.635 111.375 151.55C111.615 151.655 112.065 151.865 112.26 151.985C112.74 151.025 113.115 149.57 113.325 148.16L112.35 147.98ZM114.075 146.555V153.245H115.095V146.555H114.075ZM132.915 139.415V141.14H134.04V139.415H132.915ZM132.885 147.305V153.2H134.025V147.305H132.885ZM127.2 140.525V142.7H128.25V141.485H138.78V142.7H139.86V140.525H127.2ZM127.02 143.06V143.99H140.025V143.06H127.02ZM126.78 148.55V149.525H140.235V148.55H126.78ZM132.135 141.665C131.235 142.94 129.93 144.62 128.985 145.67L130.035 146.015C130.935 144.95 132.225 143.315 133.2 141.98L132.135 141.665ZM129.855 145.565C132.795 146.135 136.65 147.2 138.615 147.995L139.29 147.17C137.175 146.36 133.35 145.385 130.5 144.86L129.855 145.565ZM132.48 149.06C131.25 150.395 128.76 151.595 126.495 152.09C126.735 152.3 127.05 152.735 127.215 153.005C129.495 152.39 131.97 151.025 133.32 149.435L132.48 149.06ZM134.475 149.03L133.65 149.42C135.03 151.04 137.565 152.405 139.845 153.02C140.01 152.735 140.325 152.315 140.58 152.075C138.285 151.58 135.75 150.395 134.475 149.03ZM136.095 143.585C135.24 145.61 133.29 146.63 127.425 146.99C127.575 147.215 127.755 147.635 127.785 147.89C133.935 147.455 136.26 146.24 137.295 143.585H136.095Z" fill="#5C5F63"/>
<path d="M86.0795 164H85.0227C84.9602 163.696 84.8509 163.429 84.6946 163.199C84.5412 162.969 84.3537 162.776 84.1321 162.619C83.9134 162.46 83.6705 162.341 83.4034 162.261C83.1364 162.182 82.858 162.142 82.5682 162.142C82.0398 162.142 81.5611 162.276 81.1321 162.543C80.706 162.81 80.3665 163.203 80.1136 163.723C79.8636 164.243 79.7386 164.881 79.7386 165.636C79.7386 166.392 79.8636 167.03 80.1136 167.55C80.3665 168.07 80.706 168.463 81.1321 168.73C81.5611 168.997 82.0398 169.131 82.5682 169.131C82.858 169.131 83.1364 169.091 83.4034 169.011C83.6705 168.932 83.9134 168.814 84.1321 168.658C84.3537 168.499 84.5412 168.304 84.6946 168.074C84.8509 167.841 84.9602 167.574 85.0227 167.273H86.0795C86 167.719 85.8551 168.118 85.6449 168.47C85.4347 168.822 85.1733 169.122 84.8608 169.369C84.5483 169.614 84.1974 169.8 83.8082 169.928C83.4219 170.055 83.0085 170.119 82.5682 170.119C81.8239 170.119 81.1619 169.938 80.5824 169.574C80.0028 169.21 79.5469 168.693 79.2145 168.023C78.8821 167.352 78.7159 166.557 78.7159 165.636C78.7159 164.716 78.8821 163.92 79.2145 163.25C79.5469 162.58 80.0028 162.062 80.5824 161.699C81.1619 161.335 81.8239 161.153 82.5682 161.153C83.0085 161.153 83.4219 161.217 83.8082 161.345C84.1974 161.473 84.5483 161.661 84.8608 161.908C85.1733 162.152 85.4347 162.45 85.6449 162.803C85.8551 163.152 86 163.551 86.0795 164ZM90.31 170.136C89.7191 170.136 89.2006 169.996 88.7546 169.714C88.3114 169.433 87.9648 169.04 87.7148 168.534C87.4677 168.028 87.3441 167.437 87.3441 166.761C87.3441 166.08 87.4677 165.484 87.7148 164.976C87.9648 164.467 88.3114 164.072 88.7546 163.791C89.2006 163.51 89.7191 163.369 90.31 163.369C90.9009 163.369 91.418 163.51 91.8612 163.791C92.3072 164.072 92.6538 164.467 92.9009 164.976C93.1509 165.484 93.2759 166.08 93.2759 166.761C93.2759 167.437 93.1509 168.028 92.9009 168.534C92.6538 169.04 92.3072 169.433 91.8612 169.714C91.418 169.996 90.9009 170.136 90.31 170.136ZM90.31 169.233C90.7589 169.233 91.1282 169.118 91.418 168.888C91.7077 168.658 91.9222 168.355 92.0614 167.98C92.2006 167.605 92.2702 167.199 92.2702 166.761C92.2702 166.324 92.2006 165.916 92.0614 165.538C91.9222 165.161 91.7077 164.855 91.418 164.622C91.1282 164.389 90.7589 164.273 90.31 164.273C89.8612 164.273 89.4918 164.389 89.2021 164.622C88.9123 164.855 88.6978 165.161 88.5586 165.538C88.4194 165.916 88.3498 166.324 88.3498 166.761C88.3498 167.199 88.4194 167.605 88.5586 167.98C88.6978 168.355 88.9123 168.658 89.2021 168.888C89.4918 169.118 89.8612 169.233 90.31 169.233ZM95.8168 161.273V170H94.8111V161.273H95.8168ZM98.6644 161.273V170H97.6587V161.273H98.6644ZM103.251 170.136C102.62 170.136 102.076 169.997 101.619 169.719C101.164 169.438 100.813 169.045 100.566 168.543C100.322 168.037 100.2 167.449 100.2 166.778C100.2 166.108 100.322 165.517 100.566 165.006C100.813 164.491 101.157 164.091 101.597 163.804C102.04 163.514 102.558 163.369 103.148 163.369C103.489 163.369 103.826 163.426 104.158 163.54C104.491 163.653 104.793 163.838 105.066 164.094C105.339 164.347 105.556 164.682 105.718 165.099C105.88 165.517 105.961 166.031 105.961 166.642V167.068H100.915V166.199H104.938C104.938 165.83 104.864 165.5 104.717 165.21C104.572 164.92 104.364 164.692 104.094 164.524C103.827 164.357 103.512 164.273 103.148 164.273C102.748 164.273 102.401 164.372 102.109 164.571C101.819 164.767 101.596 165.023 101.44 165.338C101.283 165.653 101.205 165.991 101.205 166.352V166.932C101.205 167.426 101.29 167.845 101.461 168.189C101.634 168.53 101.874 168.79 102.181 168.969C102.488 169.145 102.844 169.233 103.251 169.233C103.515 169.233 103.754 169.196 103.967 169.122C104.183 169.045 104.369 168.932 104.525 168.781C104.681 168.628 104.802 168.437 104.887 168.21L105.859 168.483C105.756 168.812 105.585 169.102 105.343 169.352C105.102 169.599 104.803 169.793 104.448 169.932C104.093 170.068 103.694 170.136 103.251 170.136ZM110.15 170.136C109.536 170.136 109.008 169.991 108.565 169.702C108.121 169.412 107.781 169.013 107.542 168.504C107.303 167.996 107.184 167.415 107.184 166.761C107.184 166.097 107.306 165.51 107.55 165.001C107.798 164.49 108.141 164.091 108.582 163.804C109.025 163.514 109.542 163.369 110.133 163.369C110.593 163.369 111.008 163.455 111.377 163.625C111.746 163.795 112.049 164.034 112.285 164.341C112.521 164.648 112.667 165.006 112.724 165.415H111.718C111.641 165.116 111.471 164.852 111.207 164.622C110.945 164.389 110.593 164.273 110.15 164.273C109.758 164.273 109.414 164.375 109.119 164.58C108.826 164.781 108.597 165.067 108.433 165.436C108.271 165.803 108.19 166.233 108.19 166.727C108.19 167.233 108.269 167.673 108.428 168.048C108.59 168.423 108.817 168.714 109.11 168.922C109.406 169.129 109.752 169.233 110.15 169.233C110.411 169.233 110.648 169.188 110.862 169.097C111.075 169.006 111.255 168.875 111.403 168.705C111.55 168.534 111.656 168.33 111.718 168.091H112.724C112.667 168.477 112.526 168.825 112.302 169.135C112.08 169.442 111.786 169.686 111.42 169.868C111.056 170.047 110.633 170.136 110.15 170.136ZM117.04 163.455V164.307H113.648V163.455H117.04ZM114.637 161.886H115.643V168.125C115.643 168.409 115.684 168.622 115.766 168.764C115.852 168.903 115.96 168.997 116.09 169.045C116.224 169.091 116.364 169.114 116.512 169.114C116.623 169.114 116.714 169.108 116.785 169.097C116.856 169.082 116.913 169.071 116.955 169.062L117.16 169.966C117.092 169.991 116.996 170.017 116.874 170.043C116.752 170.071 116.597 170.085 116.41 170.085C116.126 170.085 115.847 170.024 115.575 169.902C115.305 169.78 115.08 169.594 114.901 169.344C114.725 169.094 114.637 168.778 114.637 168.398V161.886ZM122.065 170V161.273H127.298V162.21H123.121V165.159H126.906V166.097H123.121V170H122.065ZM128.971 170V163.455H129.977V170H128.971ZM129.483 162.364C129.287 162.364 129.118 162.297 128.975 162.163C128.836 162.03 128.767 161.869 128.767 161.682C128.767 161.494 128.836 161.334 128.975 161.2C129.118 161.067 129.287 161 129.483 161C129.679 161 129.846 161.067 129.985 161.2C130.127 161.334 130.199 161.494 130.199 161.682C130.199 161.869 130.127 162.03 129.985 162.163C129.846 162.297 129.679 162.364 129.483 162.364ZM132.825 161.273V170H131.819V161.273H132.825ZM137.411 170.136C136.78 170.136 136.236 169.997 135.779 169.719C135.324 169.438 134.973 169.045 134.726 168.543C134.482 168.037 134.36 167.449 134.36 166.778C134.36 166.108 134.482 165.517 134.726 165.006C134.973 164.491 135.317 164.091 135.757 163.804C136.201 163.514 136.718 163.369 137.309 163.369C137.65 163.369 137.986 163.426 138.319 163.54C138.651 163.653 138.953 163.838 139.226 164.094C139.499 164.347 139.716 164.682 139.878 165.099C140.04 165.517 140.121 166.031 140.121 166.642V167.068H135.076V166.199H139.098C139.098 165.83 139.025 165.5 138.877 165.21C138.732 164.92 138.525 164.692 138.255 164.524C137.988 164.357 137.672 164.273 137.309 164.273C136.908 164.273 136.561 164.372 136.269 164.571C135.979 164.767 135.756 165.023 135.6 165.338C135.444 165.653 135.365 165.991 135.365 166.352V166.932C135.365 167.426 135.451 167.845 135.621 168.189C135.794 168.53 136.034 168.79 136.341 168.969C136.648 169.145 137.005 169.233 137.411 169.233C137.675 169.233 137.914 169.196 138.127 169.122C138.343 169.045 138.529 168.932 138.685 168.781C138.841 168.628 138.962 168.437 139.047 168.21L140.019 168.483C139.917 168.812 139.745 169.102 139.503 169.352C139.262 169.599 138.963 169.793 138.608 169.932C138.253 170.068 137.854 170.136 137.411 170.136ZM146.287 164.92L145.384 165.176C145.327 165.026 145.243 164.879 145.132 164.737C145.025 164.592 144.877 164.473 144.689 164.379C144.502 164.286 144.262 164.239 143.969 164.239C143.569 164.239 143.235 164.331 142.968 164.516C142.703 164.697 142.571 164.929 142.571 165.21C142.571 165.46 142.662 165.658 142.844 165.803C143.026 165.947 143.31 166.068 143.696 166.165L144.668 166.403C145.253 166.545 145.689 166.763 145.976 167.055C146.263 167.345 146.407 167.719 146.407 168.176C146.407 168.551 146.299 168.886 146.083 169.182C145.87 169.477 145.571 169.71 145.188 169.881C144.804 170.051 144.358 170.136 143.85 170.136C143.182 170.136 142.63 169.991 142.192 169.702C141.755 169.412 141.478 168.989 141.361 168.432L142.316 168.193C142.407 168.545 142.578 168.81 142.831 168.986C143.087 169.162 143.421 169.25 143.833 169.25C144.301 169.25 144.674 169.151 144.949 168.952C145.228 168.75 145.367 168.509 145.367 168.227C145.367 168 145.287 167.81 145.128 167.656C144.969 167.5 144.725 167.384 144.395 167.307L143.304 167.051C142.705 166.909 142.265 166.689 141.983 166.391C141.705 166.089 141.566 165.713 141.566 165.261C141.566 164.892 141.669 164.565 141.877 164.281C142.087 163.997 142.373 163.774 142.733 163.612C143.097 163.45 143.509 163.369 143.969 163.369C144.617 163.369 145.125 163.511 145.495 163.795C145.867 164.08 146.131 164.455 146.287 164.92Z" fill="#5C5F63"/>
<defs>
<clipPath id="clip0_345_777">
<rect width="55" height="50" fill="white" transform="translate(84 73)"/>
</clipPath>
</defs>
</svg>
