<svg width="92" height="73" viewBox="0 0 92 73" fill="none" xmlns="http://www.w3.org/2000/svg">
<g opacity="0.7">
<path d="M69.3082 17.4458C68.9576 17.4458 68.657 17.1627 68.657 16.7965C68.657 16.4468 68.9409 16.1472 69.3082 16.1472C69.6589 16.1472 69.9595 16.4302 69.9595 16.7965C69.9595 17.1461 69.6589 17.4458 69.3082 17.4458Z" fill="white"/>
<path d="M22.8856 17.4458C22.535 17.4458 22.2344 17.1627 22.2344 16.7965C22.2344 16.4468 22.5183 16.1472 22.8856 16.1472C23.2363 16.1472 23.5369 16.4302 23.5369 16.7965C23.5202 17.1461 23.2363 17.4458 22.8856 17.4458Z" fill="white"/>
<path d="M73.2657 38.4643C72.9151 38.4643 72.6145 38.1814 72.6145 37.8152V32.5563C72.6145 32.2068 72.8984 31.9073 73.2657 31.9073H74.3011C74.5014 31.9073 74.6851 31.8241 74.802 31.6743C74.9356 31.5245 74.9857 31.3248 74.9523 31.1417C74.468 27.7301 73.3659 24.4683 71.6793 21.456C71.5959 21.3063 71.5792 21.1398 71.6293 20.9734C71.6794 20.807 71.7795 20.6739 71.9298 20.5907C72.03 20.5407 72.1302 20.5074 72.2471 20.5074C72.4809 20.5074 72.698 20.6406 72.8149 20.8403C74.635 24.1021 75.8039 27.6303 76.2882 31.3414C76.3383 31.6743 76.6222 31.9239 76.9562 31.9239H78.5259C78.8765 31.9239 79.1771 32.2068 79.1771 32.573V37.8319C79.1771 38.1814 78.8932 38.4809 78.5259 38.4809H73.2657V38.4643ZM74.5849 33.2054C74.2176 33.2054 73.917 33.5049 73.917 33.871V36.5005C73.917 36.8666 74.2176 37.1662 74.5849 37.1662H77.2233C77.5907 37.1662 77.8913 36.8666 77.8913 36.5005V33.871C77.8913 33.5049 77.5907 33.2054 77.2233 33.2054H74.5849Z" fill="white"/>
<path d="M38.1818 68.9691C37.8311 68.9691 37.5305 68.6862 37.5305 68.3201V61.1307C37.5305 60.8478 37.3468 60.5982 37.0797 60.4983C35.7772 60.0323 34.8921 58.8008 34.8921 57.4195C34.8921 56.5541 35.2261 55.722 35.8606 55.1063C36.1111 54.8566 36.4117 54.6403 36.729 54.4905C37.0463 54.3407 37.1799 53.9746 37.063 53.6584L32.3205 41.1103C32.3205 41.0936 32.3205 41.077 32.3038 41.077C32.3038 41.0604 32.2871 41.0437 32.2871 41.0271V41.0104C32.2871 40.9938 32.2871 40.9771 32.2871 40.9771V40.9439C32.2871 40.9272 32.2871 40.9272 32.2871 40.9106C32.2871 40.8939 32.2871 40.8939 32.2871 40.8773V40.8606V40.8107C32.2871 40.7941 32.2871 40.7774 32.2871 40.7774V40.7442L32.3038 40.6776C32.3038 40.6609 32.3205 40.6443 32.3205 40.6277L32.3372 40.611C32.3372 40.5944 32.3539 40.5777 32.3539 40.5611L45.5459 16.5133C45.6628 16.3136 45.8799 16.1804 46.1137 16.1804C46.3475 16.1804 46.5646 16.3136 46.6815 16.5133L59.8735 40.5611C59.8902 40.5777 59.8902 40.5944 59.9069 40.611V40.6277C59.9069 40.6443 59.9236 40.6609 59.9236 40.6776V40.6942C59.9236 40.7109 59.9403 40.7275 59.9403 40.7442V40.7774C59.9403 40.7774 59.9403 40.7941 59.9403 40.8107V40.8606V40.8939C59.9403 40.9106 59.9403 40.9272 59.9403 40.9439V40.9605C59.9403 40.9771 59.9403 40.9938 59.9236 41.0104V41.0271C59.9236 41.0437 59.9069 41.0604 59.9069 41.077C59.9069 41.077 59.9069 41.0936 59.8902 41.1103L55.1311 53.6584C55.0142 53.9746 55.1478 54.3407 55.465 54.4905C56.6005 55.0564 57.3019 56.1714 57.3019 57.4195C57.3019 58.3016 56.9679 59.117 56.3334 59.7328C55.9827 60.0823 55.5652 60.3485 55.1144 60.4983C54.8472 60.5982 54.6635 60.8478 54.6635 61.1307V68.3201C54.6635 68.6696 54.3796 68.9691 54.0122 68.9691H38.1818V68.9691ZM39.501 60.6814C39.1336 60.6814 38.833 60.9809 38.833 61.3471V67.0054C38.833 67.3715 39.1336 67.6711 39.501 67.6711H52.693C53.0604 67.6711 53.361 67.3715 53.361 67.0054V61.3471C53.361 60.9809 53.0604 60.6814 52.693 60.6814H39.501ZM38.1818 55.4225C37.6474 55.4225 37.1465 55.6222 36.7791 56.005C36.395 56.3877 36.1946 56.8703 36.1946 57.4029C36.1946 58.5013 37.0964 59.3833 38.1818 59.3833H54.0122C54.5466 59.3833 55.0476 59.1836 55.4149 58.8008C55.799 58.4181 55.9994 57.9354 55.9994 57.4029C55.9994 56.3045 55.1144 55.4225 54.0122 55.4225H38.1818ZM34.8086 41.493C34.5915 41.493 34.3745 41.5929 34.2576 41.776C34.124 41.959 34.1073 42.192 34.1741 42.3917L38.449 53.6917C38.5492 53.958 38.7996 54.1244 39.0835 54.1244H53.0938C53.3777 54.1244 53.6282 53.958 53.7284 53.6917L58.0032 42.3917C58.0867 42.192 58.0533 41.959 57.9197 41.776C57.7862 41.5929 57.5858 41.493 57.3687 41.493H53.9955C53.6449 41.493 53.3443 41.2101 53.3443 40.844C53.3443 40.4945 53.6282 40.195 53.9955 40.195H57.0514C57.2852 40.195 57.5023 40.0618 57.6359 39.8621C57.7528 39.6624 57.7528 39.4128 57.6526 39.1964L48.0007 21.6057C47.8838 21.3894 47.65 21.2563 47.4162 21.2563C47.3661 21.2563 47.2993 21.2563 47.2492 21.2729C46.9486 21.3561 46.7483 21.6224 46.7483 21.9219V37.1328C46.7483 37.4157 46.9319 37.6654 47.1991 37.7652C48.5016 38.2312 49.3867 39.4627 49.3867 40.844C49.3867 42.6413 47.9172 44.1225 46.097 44.1225C44.2768 44.1225 42.8073 42.658 42.8073 40.844C42.8073 39.4627 43.6924 38.2146 44.9949 37.7652C45.2621 37.6654 45.4458 37.4157 45.4458 37.1328V21.9386C45.4458 21.639 45.2454 21.3728 44.9448 21.2895C44.8947 21.2729 44.8279 21.2729 44.7778 21.2729C44.5273 21.2729 44.3102 21.406 44.1933 21.6224L34.5414 39.2131C34.4246 39.4128 34.4246 39.6791 34.5581 39.8788C34.675 40.0785 34.8921 40.2116 35.1426 40.2116H38.1985C38.5492 40.2116 38.8497 40.4945 38.8497 40.8606C38.8497 41.2101 38.5659 41.5097 38.1985 41.5097H34.8086V41.493ZM46.097 38.8636C44.9949 38.8636 44.1099 39.7623 44.1099 40.844C44.1099 41.9257 45.0116 42.8244 46.097 42.8244C47.1824 42.8244 48.0842 41.9257 48.0842 40.844C48.0842 39.7623 47.1991 38.8636 46.097 38.8636Z" fill="white"/>
<path d="M13.6513 38.4643C13.3006 38.4643 13 38.1814 13 37.8153V32.5564C13 32.2069 13.2839 31.9073 13.6513 31.9073H15.2209C15.5549 31.9073 15.8388 31.6577 15.8889 31.3249C16.3732 27.6137 17.5421 24.0855 19.3622 20.8237C19.4791 20.624 19.6962 20.4908 19.93 20.4908C20.0469 20.4908 20.1471 20.5241 20.2473 20.5741C20.3976 20.6573 20.5145 20.7904 20.5479 20.9568C20.5979 21.1232 20.5812 21.2897 20.4978 21.4394C18.8112 24.4517 17.7091 27.7135 17.2248 31.1251C17.1914 31.3248 17.2582 31.5079 17.3751 31.6577C17.5087 31.8075 17.6924 31.8907 17.876 31.8907H18.9114C19.262 31.8907 19.5626 32.1736 19.5626 32.5397V37.7986C19.5626 38.1481 19.2787 38.4477 18.9114 38.4477H13.6513V38.4643ZM14.9705 33.2054C14.6031 33.2054 14.3025 33.505 14.3025 33.8711V36.5005C14.3025 36.8667 14.6031 37.1662 14.9705 37.1662H17.6089C17.9762 37.1662 18.2768 36.8667 18.2768 36.5005V33.8711C18.2768 33.505 17.9762 33.2054 17.6089 33.2054H14.9705Z" fill="white"/>
<path d="M26.6095 13.7175C26.4258 13.7175 26.2421 13.6343 26.1085 13.4845C25.9917 13.3514 25.9416 13.185 25.9583 13.0185C25.975 12.8521 26.0585 12.6857 26.192 12.5858C28.2293 10.8884 30.7675 9.37392 33.5395 8.20898C33.8401 8.09248 34.0071 7.77628 33.9403 7.46008C33.8735 7.14388 33.6063 6.92753 33.2723 6.92753H20.0135C19.7296 6.92753 19.4791 7.1106 19.3789 7.37687C18.9114 8.67495 17.6757 9.55699 16.2897 9.55699C14.4695 9.55699 13 8.07584 13 6.27849C13 4.48115 14.4695 3 16.2897 3C17.6757 3 18.9281 3.88203 19.3789 5.18011C19.4791 5.44639 19.7296 5.62945 20.0135 5.62945H42.1394C42.5068 5.62945 42.8073 5.32989 42.8073 4.96377V3.64904C42.8073 3.29956 43.0912 3 43.4586 3H48.7354C49.0861 3 49.3867 3.28292 49.3867 3.64904V4.96377C49.3867 5.32989 49.6872 5.62945 50.0546 5.62945H72.1805C72.4644 5.62945 72.7149 5.44639 72.8151 5.18011C73.2826 3.88203 74.5183 3 75.9043 3C77.7078 3 79.194 4.4645 79.194 6.27849C79.194 8.09248 77.7245 9.55699 75.9043 9.55699C74.5183 9.55699 73.2659 8.67495 72.8151 7.37687C72.7149 7.1106 72.4644 6.92753 72.1805 6.92753H58.9217C58.6044 6.92753 58.3205 7.16052 58.2537 7.46008C58.1869 7.77628 58.3539 8.09248 58.6545 8.20898C61.4265 9.37392 63.9647 10.8717 66.002 12.5858C66.1355 12.7023 66.219 12.8521 66.2357 13.0185C66.2524 13.185 66.2023 13.3514 66.0854 13.4845C65.9686 13.6343 65.7849 13.7175 65.5845 13.7175C65.4342 13.7175 65.2839 13.6676 65.167 13.5677C61.2929 10.3059 55.8157 7.99263 50.1548 7.21045C50.1214 7.21045 50.088 7.21045 50.0546 7.21045C49.8876 7.21045 49.7373 7.27702 49.6204 7.37687C49.4702 7.51001 49.3867 7.69307 49.3867 7.87613V8.90794C49.3867 9.25743 49.1028 9.55699 48.7354 9.55699H43.4586C43.1079 9.55699 42.8073 9.27407 42.8073 8.90794V7.87613C42.8073 7.67643 42.7238 7.49337 42.5736 7.37687C42.4567 7.27702 42.2897 7.21045 42.1394 7.21045C42.106 7.21045 42.0726 7.21045 42.0392 7.21045C36.3783 7.99263 30.9011 10.3059 27.027 13.5677C26.9101 13.6676 26.7598 13.7175 26.6095 13.7175ZM75.9043 4.29808C74.8022 4.29808 73.9172 5.19676 73.9172 6.27849C73.9172 7.36023 74.8189 8.2589 75.9043 8.2589C76.9898 8.2589 77.8915 7.36023 77.8915 6.27849C77.8915 5.19676 77.0065 4.29808 75.9043 4.29808ZM44.7778 4.29808C44.4104 4.29808 44.1098 4.59764 44.1098 4.96377V7.59322C44.1098 7.95934 44.4104 8.2589 44.7778 8.2589H47.4162C47.7836 8.2589 48.0842 7.95934 48.0842 7.59322V4.96377C48.0842 4.59764 47.7836 4.29808 47.4162 4.29808H44.7778ZM16.2897 4.29808C15.1875 4.29808 14.3025 5.19676 14.3025 6.27849C14.3025 7.36023 15.2042 8.2589 16.2897 8.2589C17.3751 8.2589 18.2768 7.36023 18.2768 6.27849C18.2768 5.19676 17.3751 4.29808 16.2897 4.29808Z" fill="white"/>
</g>
</svg>
