<svg width="92" height="73" viewBox="0 0 92 73" fill="none" xmlns="http://www.w3.org/2000/svg">
<g opacity="0.7">
<path d="M26.4929 43.0423H25.374V54.4255H26.4929V43.0423Z" fill="white"/>
<path d="M22.3681 45.0893H21.2493V50.3149H22.3681V45.0893Z" fill="white"/>
<path d="M22.8356 68.8043C17.4252 68.8043 13 64.3942 13 59.0021V16.881C13 9.79145 18.8112 4 25.9249 4H78.0251V5.11502H25.9082C21.8504 5.11502 17.9929 7.26185 15.8722 10.7068C13.7348 14.1683 13.5511 18.5618 15.4046 22.1732C15.4881 22.3396 15.6551 22.4394 15.8221 22.4394C15.8388 22.4394 15.8722 22.4394 15.8889 22.4394C16.0893 22.4062 16.2563 22.2564 16.2897 22.0567C17.2916 16.3651 22.201 12.2378 27.9955 12.2212H30.6172V28.181C30.6172 28.4472 30.8343 28.6469 31.0848 28.6469H37.2633C37.5305 28.6469 37.7309 28.4306 37.7309 28.181V12.2212H59.456V28.181C59.456 28.4472 59.6731 28.6469 59.9236 28.6469H66.1022C66.3693 28.6469 66.5697 28.4306 66.5697 28.181V12.2212H77.9917V13.3362H68.1561C67.8889 13.3362 67.6885 13.5526 67.6885 13.8022V28.181C67.6885 28.4472 67.9056 28.6469 68.1561 28.6469H72.8317V37.9832H66.0854C65.8183 37.9832 65.6179 38.1995 65.6179 38.4491V41.5279C65.6179 41.7942 65.835 41.9939 66.0854 41.9939H77.975V43.1089H50.7393C50.5723 43.1089 50.422 43.1921 50.3385 43.3253C50.255 43.4584 50.2383 43.6415 50.3218 43.7913L51.3571 45.8382C51.4406 46.0047 51.6076 46.1045 51.7746 46.1045H77.975V47.2195H51.641C51.4907 47.2195 51.3571 47.2861 51.2569 47.4026L50.4888 48.4344C50.3552 48.6008 50.3552 48.8338 50.4888 49.0002L51.2569 50.032C51.3404 50.1485 51.4907 50.2151 51.641 50.2151H77.975V51.3301H51.7746C51.5909 51.3301 51.4239 51.43 51.3571 51.5964L50.3218 53.6434C50.255 53.7932 50.255 53.9596 50.3385 54.1094C50.422 54.2591 50.5723 54.3257 50.7393 54.3257H77.975V55.4407H66.0854C65.8183 55.4407 65.6179 55.6571 65.6179 55.9067V59.0021C65.6179 59.2684 65.835 59.4681 66.0854 59.4681H72.8317V68.8043H22.8356V68.8043ZM14.5864 54.3091C14.5363 54.3091 14.5029 54.3091 14.4528 54.3257C14.2524 54.3756 14.1021 54.5753 14.1021 54.775V59.0021C14.1021 63.7951 18.0263 67.6893 22.8189 67.6893H71.2621C71.5293 67.6893 71.7296 67.473 71.7296 67.2233V61.0657C71.7296 60.7995 71.5126 60.5998 71.2621 60.5998H41.8388V51.2636C41.8388 51.0971 41.7553 50.9474 41.6217 50.8641L38.2653 48.7506L41.6217 46.6371C41.7553 46.5538 41.8388 46.4041 41.8388 46.2376V36.8681H71.2621C71.5293 36.8681 71.7296 36.6518 71.7296 36.4022V30.2446C71.7296 29.9783 71.5126 29.7786 71.2621 29.7786H25.9082C21.4329 29.7786 17.3417 27.5153 14.9705 23.7375C14.887 23.6044 14.7367 23.5212 14.5697 23.5212C14.5196 23.5212 14.4862 23.5212 14.4361 23.5378C14.2357 23.5877 14.0854 23.7875 14.0854 23.9872V28.1976C14.0854 32.9905 18.0096 36.8848 22.8022 36.8848H34.6917V60.5998H25.8915C21.4162 60.5998 17.325 58.3364 14.9538 54.5587C14.9037 54.3923 14.7534 54.3091 14.5864 54.3091ZM43.4586 52.0624C43.3751 52.0624 43.3083 52.079 43.2248 52.1289C43.0745 52.2122 42.9743 52.3619 42.9743 52.545V59.0021C42.9743 59.2684 43.1914 59.4681 43.4419 59.4681H64.0649C64.3321 59.4681 64.5325 59.2518 64.5325 59.0021V55.9233C64.5325 55.6571 64.3154 55.4574 64.0649 55.4574H48.9525L43.6924 52.1456C43.6256 52.0957 43.5421 52.0624 43.4586 52.0624ZM14.5864 33.8393C14.5363 33.8393 14.4862 33.8393 14.4361 33.8559C14.2357 33.9225 14.1188 34.1056 14.1188 34.3053V47.6855C14.1188 54.1759 19.429 59.4515 25.9249 59.4515H33.1387C33.4059 59.4515 33.6063 59.2351 33.6063 58.9855V38.4491C33.6063 38.1829 33.3892 37.9832 33.1387 37.9832H22.8356C19.7463 37.9832 16.8073 36.502 14.9705 34.039C14.8703 33.9225 14.7367 33.8393 14.5864 33.8393ZM48.702 43.5749C48.6185 43.5749 48.5183 43.5915 48.4515 43.6415L46.2807 45.0061C46.1471 45.0893 46.0636 45.2391 46.0636 45.4055V52.0624C46.0636 52.2288 46.1471 52.3786 46.2807 52.4618L48.4515 53.8264C48.535 53.8764 48.6185 53.893 48.702 53.893C48.7521 53.893 48.7855 53.893 48.8356 53.8764C48.9692 53.8431 49.0694 53.7599 49.1362 53.6267L50.4053 51.0971C50.4888 50.9307 50.4721 50.7476 50.3552 50.5979L48.9358 48.7173L50.3552 46.8368C50.4554 46.687 50.4888 46.5039 50.4053 46.3375L49.1362 43.8079C49.0694 43.6914 48.9692 43.6082 48.8356 43.5583C48.7855 43.5749 48.7521 43.5749 48.702 43.5749ZM44.4772 46.221C44.3937 46.221 44.2935 46.2376 44.2268 46.2876L41.0039 48.3179C40.8703 48.4011 40.7868 48.5509 40.7868 48.7173C40.7868 48.8837 40.8703 49.0335 41.0039 49.1167L44.2268 51.1471C44.3102 51.197 44.3937 51.2136 44.4772 51.2136C44.5607 51.2136 44.6275 51.197 44.711 51.1471C44.8613 51.0638 44.9615 50.9141 44.9615 50.731V46.6703C44.9615 46.5039 44.8613 46.3375 44.711 46.2543C44.6442 46.2543 44.5607 46.221 44.4772 46.221ZM43.4586 37.9832C43.1914 37.9832 42.991 38.1995 42.991 38.4491V44.9063C42.991 45.0727 43.0912 45.2391 43.2415 45.3223C43.3083 45.3556 43.3918 45.3889 43.4753 45.3889C43.5588 45.3889 43.659 45.3723 43.7258 45.3223L48.9859 42.0105H64.0983C64.3655 42.0105 64.5658 41.7942 64.5658 41.5446V38.4658C64.5658 38.1995 64.3488 37.9998 64.0983 37.9998H43.4586V37.9832ZM39.334 13.3362C39.0668 13.3362 38.8664 13.5526 38.8664 13.8022V28.181C38.8664 28.4472 39.0835 28.6469 39.334 28.6469H57.8863C58.1535 28.6469 58.3539 28.4306 58.3539 28.181V13.8022C58.3539 13.5359 58.1368 13.3362 57.8863 13.3362H39.334V13.3362ZM27.9955 13.3362C22.0508 13.3362 17.2248 18.1624 17.2081 24.087V24.6196C17.2081 24.7361 17.2582 24.8525 17.3417 24.9358C19.5626 27.2989 22.6853 28.6469 25.9416 28.6469H29.0309C29.298 28.6469 29.4984 28.4306 29.4984 28.181V13.8022C29.4984 13.5359 29.2813 13.3362 29.0309 13.3362C29.0142 13.3362 27.9955 13.3362 27.9955 13.3362Z" fill="white"/>
</g>
</svg>
