<svg width="92" height="73" viewBox="0 0 92 73" fill="none" xmlns="http://www.w3.org/2000/svg">
<g opacity="0.7">
<path d="M75.1518 45L69 51.1518L70.7677 52.9195L76.9195 46.7678L75.1518 45Z" fill="#FFB950"/>
<path d="M71.4583 56.0092L73.1583 57.7092L79.3583 51.6092L77.5583 49.9092L71.4583 56.0092Z" fill="#FFB950"/>
<path d="M80.2 41.3H64.2V38.8C64.2 38.1 64.8 37.6 65.4 37.6H79C79.7 37.6 80.2 38.2 80.2 38.8V41.3ZM80.2 62.1H64.2V43.7H80.2V62.1ZM80.2 67.1C80.2 67.8 79.6 68.3 79 68.3H65.5C64.8 68.3 64.3 67.7 64.3 67.1V64.6H80.3V67.1H80.2ZM61.8 38.8V41.3H43.4V30.3C43.4 28.3 41.7 26.6 39.7 26.6H15.1V8.1C15.1 6.1 16.8 4.4 18.8 4.4H72.8C74.8 4.4 76.5 6.1 76.5 8.1V35.1H65.5C63.4 35.1 61.8 36.8 61.8 38.8ZM61.8 51.1H43.4V43.7H61.8V51.1ZM43.4 59.7V53.6H52.3L54 59.7H43.4ZM54.8 63C54.9 63.4 54.8 63.8 54.6 64.1C54.4 64.4 54 64.6 53.6 64.6H43.4V62.1H54.6L54.8 63ZM40.9 32.7H11.5V30.2C11.5 29.6 12 29 12.7 29H39.7C40.4 29 40.9 29.6 40.9 30.2V32.7ZM40.9 62.1H11.5V35.1H41V62.1H40.9ZM40.9 67.1C40.9 67.8 40.3 68.3 39.7 68.3H12.7C12 68.3 11.5 67.7 11.5 67.1V64.6H41V67.1H40.9ZM79 35.1V8.1C79 4.8 76.2 2 72.8 2H18.8C15.4 2 12.7 4.8 12.7 8.1V26.5C10.7 26.5 9 28.2 9 30.2V67C9 69 10.7 70.7 12.7 70.7H39.7C41.7 70.7 43.4 69 43.4 67H53.7C54.9 67 55.9 66.5 56.6 65.6C57.3 64.7 57.5 63.5 57.2 62.4L54.8 53.5H61.8V67C61.8 69 63.5 70.7 65.5 70.7H79C81 70.7 82.7 69 82.7 67V38.8C82.6 36.8 81 35.1 79 35.1Z" fill="#FFB950"/>
<path d="M20.3629 47.86L15.4839 52.739L17.2516 54.5067L22.1306 49.6277L20.3629 47.86Z" fill="#FFB950"/>
<path d="M35.0668 41.6452L20.3591 56.3528L22.1269 58.1206L36.8346 43.4129L35.0668 41.6452Z" fill="#FFB950"/>
<path d="M30.2264 37.9839L22.8726 45.3378L24.6403 47.1055L31.9941 39.7517L30.2264 37.9839Z" fill="#FFB950"/>
<path d="M48.629 15.893L41.2742 23.2469L43.0419 25.0149L50.3968 17.661L48.629 15.893Z" fill="#FFB950"/>
<path d="M59.6825 13.3688L52.3276 20.7227L54.0954 22.4907L61.4503 15.1368L59.6825 13.3688Z" fill="#FFB950"/>
<path d="M49.8126 23.2461L44.9336 28.1251L46.7013 29.8928L51.5803 25.0138L49.8126 23.2461Z" fill="#FFB950"/>
<path d="M56.009 8.495L51.0593 13.4447L52.8271 15.2125L57.7768 10.2628L56.009 8.495Z" fill="#FFB950"/>
<path d="M20.1001 6.90002H17.6001V9.40002H20.1001V6.90002Z" fill="#FFB950"/>
<path d="M25 6.90002H22.5V9.40002H25V6.90002Z" fill="#FFB950"/>
<path d="M29.8999 6.90002H27.3999V9.40002H29.8999V6.90002Z" fill="#FFB950"/>
</g>
</svg>
