<svg width="206" height="208" viewBox="0 0 206 208" fill="none" xmlns="http://www.w3.org/2000/svg">
<path d="M44.4466 80.512V82.512H46.4466V80.512H44.4466ZM1.34263 80.512L-0.657249 80.4895L-0.679973 82.512H1.34263V80.512ZM1.43863 71.968L-0.0579775 70.6413L-0.552867 71.1995L-0.561249 71.9455L1.43863 71.968ZM17.1826 54.208L18.6792 55.5347L18.6852 55.5279L17.1826 54.208ZM29.5666 20.32L28.1774 21.7588L28.1896 21.7706L28.202 21.7821L29.5666 20.32ZM5.37463 23.104L3.40781 23.4668L3.91863 26.236L6.36503 24.8416L5.37463 23.104ZM3.55063 13.216L2.64252 11.434L1.31314 12.1115L1.58381 13.5788L3.55063 13.216ZM36.7666 12.736L35.4784 14.2658L35.4918 14.2771L35.5054 14.2882L36.7666 12.736ZM25.1506 59.392L26.6736 60.6884L26.6755 60.6861L25.1506 59.392ZM15.2626 71.008L13.7397 69.7116L10.9337 73.008H15.2626V71.008ZM44.4466 71.008H46.4466V69.008H44.4466V71.008ZM44.4466 78.512H1.34263V82.512H44.4466V78.512ZM3.3425 80.5345L3.4385 71.9905L-0.561249 71.9455L-0.657249 80.4895L3.3425 80.5345ZM2.93523 73.2947L18.6792 55.5347L15.686 52.8813L-0.0579775 70.6413L2.93523 73.2947ZM18.6852 55.5279C23.8229 49.6794 27.7329 44.4385 30.3683 39.8143C32.9863 35.2204 34.4466 31.0624 34.4466 27.424H30.4466C30.4466 30.0576 29.363 33.4996 26.893 37.8337C24.4403 42.1375 20.7184 47.1526 15.68 52.8881L18.6852 55.5279ZM34.4466 27.424C34.4466 23.9997 33.3077 21.0759 30.9313 18.8579L28.202 21.7821C29.6656 23.1481 30.4466 24.9603 30.4466 27.424H34.4466ZM30.9558 18.8812C28.6823 16.6861 25.7953 15.632 22.4626 15.632V19.632C24.8899 19.632 26.739 20.3699 28.1774 21.7588L30.9558 18.8812ZM22.4626 15.632C16.9965 15.632 10.9524 17.6226 4.38422 21.3664L6.36503 24.8416C12.5969 21.2894 17.9448 19.632 22.4626 19.632V15.632ZM7.34144 22.7412L5.51744 12.8532L1.58381 13.5788L3.40781 23.4668L7.34144 22.7412ZM4.45873 14.9979C10.9215 11.7044 16.7522 10.128 21.9826 10.128V6.128C15.9491 6.128 9.49172 7.94359 2.64252 11.434L4.45873 14.9979ZM21.9826 10.128C27.8637 10.128 32.2879 11.5791 35.4784 14.2658L38.0549 11.2062C33.9493 7.74887 28.5175 6.128 21.9826 6.128V10.128ZM35.5054 14.2882C39.0247 17.1476 40.9106 21.4377 40.9106 27.52H44.9106C44.9106 20.5463 42.7005 14.9804 38.0278 11.1838L35.5054 14.2882ZM40.9106 27.52C40.9106 30.6709 39.6155 34.7966 36.7236 39.9865C33.8501 45.1431 29.4991 51.1769 23.6257 58.0979L26.6755 60.6861C32.6422 53.6551 37.1711 47.4009 40.2177 41.9335C43.2458 36.4994 44.9106 31.6651 44.9106 27.52H40.9106ZM23.6277 58.0956L13.7397 69.7116L16.7856 72.3044L26.6736 60.6884L23.6277 58.0956ZM15.2626 73.008H44.4466V69.008H15.2626V73.008ZM42.4466 71.008V80.512H46.4466V71.008H42.4466Z" fill="#565555"/>
<circle cx="104" cy="115" r="92.5" fill="white" stroke="black"/>
<g clip-path="url(#clip0_347_1214)">
<path d="M81.5314 121.311H80.476V85.8551H83.8856L96.6716 73.1894V69.4594H115.343V70.689H117.779V69.4594V67H115.343H96.0221L78 85.0353V123.688H81.5314V121.311Z" fill="#5C5F63"/>
<path d="M100.893 90.118L100.852 73.7223H119.524V122.5H84.6569V90.077L100.893 90.118ZM82.1809 89.2573V122.5V125H84.6569H119.524H122V122.5V73.7223V71.2219H119.524H100.203L82.1809 89.2573Z" fill="#5C5F63"/>
<path d="M88.2015 101.909H115.154V99.7366H88.2015V101.909Z" fill="#5C5F63"/>
<path d="M88.2015 109.448H115.154V107.275H88.2015V109.448Z" fill="#5C5F63"/>
<path d="M88.2015 116.987H115.154V114.814H88.2015V116.987Z" fill="#5C5F63"/>
<path d="M113.151 89.2573C112.421 89.7901 111.528 90.118 110.432 90.159V91.0198C110.432 91.2657 110.269 91.3887 109.904 91.3887C109.539 91.3887 109.376 91.2657 109.376 91.0198V90.159C107.915 90.0361 106.779 89.4212 105.967 88.1915C105.602 87.6587 105.439 87.1258 105.439 86.552C105.439 86.347 105.52 86.1421 105.683 86.0191C105.845 85.8551 106.048 85.8142 106.251 85.8142C106.576 85.8142 106.819 86.1011 106.982 86.6339C107.347 87.8226 108.159 88.5195 109.376 88.6424V84.3385C108.93 84.1746 108.565 84.0106 108.362 83.8877C106.738 83.1498 105.886 82.2071 105.886 81.0184C105.886 79.2559 107.022 78.2721 109.376 78.1082V77.0424C109.376 76.7965 109.539 76.6735 109.904 76.6735C110.269 76.6735 110.432 76.7965 110.432 77.0424V78.0672C112.055 78.1491 113.233 78.682 113.923 79.7067C114.247 80.1986 114.41 80.6085 114.41 80.9774C114.41 81.5513 114.126 81.8792 113.517 81.8792C113.273 81.8792 113.07 81.7152 112.908 81.3873C112.38 80.2806 111.568 79.7067 110.432 79.5838V83.1908C111.69 83.6827 112.583 84.0926 113.111 84.4615C113.963 85.0763 114.369 85.8551 114.369 86.7569C114.41 87.8226 113.963 88.6424 113.151 89.2573ZM109.376 79.6248C108.118 79.7887 107.509 80.2396 107.509 80.9774C107.509 81.6742 108.118 82.2481 109.376 82.7809V79.6248ZM111.934 85.5272C111.568 85.3223 111.041 85.0354 110.472 84.7894V88.6424C112.055 88.4785 112.867 87.8636 112.867 86.7569C112.827 86.347 112.502 85.9371 111.934 85.5272Z" fill="#5C5F63"/>
<circle cx="102" cy="113" r="92.5" fill="white" stroke="black"/>
<g clip-path="url(#clip1_347_1214)">
<path d="M81.5314 121.311H80.476V85.8551H83.8856L96.6716 73.1894V69.4594H115.343V70.689H117.779V69.4594V67H115.343H96.0221L78 85.0353V123.688H81.5314V121.311Z" fill="#5C5F63"/>
<path d="M100.893 90.118L100.852 73.7222H119.524V122.5H84.6569V90.077L100.893 90.118ZM82.1809 89.2572V122.5V125H84.6569H119.524H122V122.5V73.7222V71.2219H119.524H100.203L82.1809 89.2572Z" fill="#5C5F63"/>
<path d="M88.2015 101.909H115.154V99.7365H88.2015V101.909Z" fill="#5C5F63"/>
<path d="M88.2015 109.448H115.154V107.275H88.2015V109.448Z" fill="#5C5F63"/>
<path d="M88.2015 116.987H115.154V114.814H88.2015V116.987Z" fill="#5C5F63"/>
<path d="M113.151 89.2572C112.421 89.7901 111.528 90.118 110.432 90.159V91.0198C110.432 91.2657 110.269 91.3887 109.904 91.3887C109.539 91.3887 109.376 91.2657 109.376 91.0198V90.159C107.915 90.036 106.779 89.4212 105.967 88.1915C105.602 87.6587 105.439 87.1258 105.439 86.5519C105.439 86.347 105.52 86.142 105.683 86.0191C105.845 85.8551 106.048 85.8141 106.251 85.8141C106.576 85.8141 106.819 86.1011 106.982 86.6339C107.347 87.8226 108.159 88.5194 109.376 88.6424V84.3385C108.93 84.1746 108.565 84.0106 108.362 83.8876C106.738 83.1498 105.886 82.2071 105.886 81.0184C105.886 79.2558 107.022 78.2721 109.376 78.1081V77.0424C109.376 76.7965 109.539 76.6735 109.904 76.6735C110.269 76.6735 110.432 76.7965 110.432 77.0424V78.0671C112.055 78.1491 113.233 78.682 113.923 79.7067C114.247 80.1986 114.41 80.6085 114.41 80.9774C114.41 81.5512 114.126 81.8791 113.517 81.8791C113.273 81.8791 113.07 81.7152 112.908 81.3873C112.38 80.2806 111.568 79.7067 110.432 79.5837V83.1908C111.69 83.6827 112.583 84.0926 113.111 84.4615C113.963 85.0763 114.369 85.8551 114.369 86.7569C114.41 87.8226 113.963 88.6424 113.151 89.2572ZM109.376 79.6247C108.118 79.7887 107.509 80.2396 107.509 80.9774C107.509 81.6742 108.118 82.2481 109.376 82.7809V79.6247ZM111.934 85.5272C111.568 85.3223 111.041 85.0353 110.472 84.7894V88.6424C112.055 88.4784 112.867 87.8636 112.867 86.7569C112.827 86.347 112.502 85.9371 111.934 85.5272Z" fill="#5C5F63"/>
</g>
</g>
<path d="M87.3191 167.273H88.4782L89.4498 168.551L89.7054 168.892L91.1543 170.818H89.9952L89.0407 169.54L88.802 169.216L87.3191 167.273ZM91.5123 165.636C91.5123 166.557 91.3461 167.352 91.0137 168.023C90.6813 168.693 90.2253 169.21 89.6458 169.574C89.0662 169.938 88.4043 170.119 87.66 170.119C86.9157 170.119 86.2537 169.938 85.6742 169.574C85.0946 169.21 84.6387 168.693 84.3063 168.023C83.9739 167.352 83.8077 166.557 83.8077 165.636C83.8077 164.716 83.9739 163.92 84.3063 163.25C84.6387 162.58 85.0946 162.062 85.6742 161.699C86.2537 161.335 86.9157 161.153 87.66 161.153C88.4043 161.153 89.0662 161.335 89.6458 161.699C90.2253 162.062 90.6813 162.58 91.0137 163.25C91.3461 163.92 91.5123 164.716 91.5123 165.636ZM90.4895 165.636C90.4895 164.881 90.3631 164.243 90.1103 163.723C89.8603 163.203 89.5208 162.81 89.0918 162.543C88.6657 162.276 88.1884 162.142 87.66 162.142C87.1316 162.142 86.6529 162.276 86.2239 162.543C85.7978 162.81 85.4583 163.203 85.2054 163.723C84.9554 164.243 84.8304 164.881 84.8304 165.636C84.8304 166.392 84.9554 167.03 85.2054 167.55C85.4583 168.07 85.7978 168.463 86.2239 168.73C86.6529 168.997 87.1316 169.131 87.66 169.131C88.1884 169.131 88.6657 168.997 89.0918 168.73C89.5208 168.463 89.8603 168.07 90.1103 167.55C90.3631 167.03 90.4895 166.392 90.4895 165.636ZM97.2779 167.324V163.455H98.2836V170H97.2779V168.892H97.2097C97.0563 169.224 96.8176 169.507 96.4938 169.74C96.1699 169.97 95.7608 170.085 95.2665 170.085C94.8574 170.085 94.4938 169.996 94.1756 169.817C93.8574 169.635 93.6074 169.362 93.4256 168.999C93.2438 168.632 93.1529 168.17 93.1529 167.614V163.455H94.1586V167.545C94.1586 168.023 94.2921 168.403 94.5591 168.688C94.829 168.972 95.1728 169.114 95.5904 169.114C95.8404 169.114 96.0946 169.05 96.3532 168.922C96.6145 168.794 96.8333 168.598 97.0094 168.334C97.1884 168.07 97.2779 167.733 97.2779 167.324ZM102.785 170.136C102.194 170.136 101.675 169.996 101.229 169.714C100.786 169.433 100.439 169.04 100.189 168.534C99.9423 168.028 99.8187 167.437 99.8187 166.761C99.8187 166.08 99.9423 165.484 100.189 164.976C100.439 164.467 100.786 164.072 101.229 163.791C101.675 163.51 102.194 163.369 102.785 163.369C103.376 163.369 103.893 163.51 104.336 163.791C104.782 164.072 105.128 164.467 105.376 164.976C105.626 165.484 105.751 166.08 105.751 166.761C105.751 167.437 105.626 168.028 105.376 168.534C105.128 169.04 104.782 169.433 104.336 169.714C103.893 169.996 103.376 170.136 102.785 170.136ZM102.785 169.233C103.233 169.233 103.603 169.118 103.893 168.888C104.182 168.658 104.397 168.355 104.536 167.98C104.675 167.605 104.745 167.199 104.745 166.761C104.745 166.324 104.675 165.916 104.536 165.538C104.397 165.161 104.182 164.855 103.893 164.622C103.603 164.389 103.233 164.273 102.785 164.273C102.336 164.273 101.966 164.389 101.677 164.622C101.387 164.855 101.172 165.161 101.033 165.538C100.894 165.916 100.824 166.324 100.824 166.761C100.824 167.199 100.894 167.605 101.033 167.98C101.172 168.355 101.387 168.658 101.677 168.888C101.966 169.118 102.336 169.233 102.785 169.233ZM110.132 163.455V164.307H106.74V163.455H110.132ZM107.729 161.886H108.735V168.125C108.735 168.409 108.776 168.622 108.858 168.764C108.943 168.903 109.051 168.997 109.182 169.045C109.316 169.091 109.456 169.114 109.604 169.114C109.715 169.114 109.806 169.108 109.877 169.097C109.948 169.082 110.004 169.071 110.047 169.062L110.252 169.966C110.183 169.991 110.088 170.017 109.966 170.043C109.844 170.071 109.689 170.085 109.502 170.085C109.218 170.085 108.939 170.024 108.666 169.902C108.396 169.78 108.172 169.594 107.993 169.344C107.817 169.094 107.729 168.778 107.729 168.398V161.886ZM114.319 170.136C113.688 170.136 113.144 169.997 112.687 169.719C112.232 169.438 111.882 169.045 111.634 168.543C111.39 168.037 111.268 167.449 111.268 166.778C111.268 166.108 111.39 165.517 111.634 165.006C111.882 164.491 112.225 164.091 112.666 163.804C113.109 163.514 113.626 163.369 114.217 163.369C114.558 163.369 114.894 163.426 115.227 163.54C115.559 163.653 115.862 163.838 116.134 164.094C116.407 164.347 116.624 164.682 116.786 165.099C116.948 165.517 117.029 166.031 117.029 166.642V167.068H111.984V166.199H116.007C116.007 165.83 115.933 165.5 115.785 165.21C115.64 164.92 115.433 164.692 115.163 164.524C114.896 164.357 114.58 164.273 114.217 164.273C113.816 164.273 113.47 164.372 113.177 164.571C112.887 164.767 112.664 165.023 112.508 165.338C112.352 165.653 112.274 165.991 112.274 166.352V166.932C112.274 167.426 112.359 167.845 112.529 168.189C112.703 168.53 112.943 168.79 113.249 168.969C113.556 169.145 113.913 169.233 114.319 169.233C114.583 169.233 114.822 169.196 115.035 169.122C115.251 169.045 115.437 168.932 115.593 168.781C115.749 168.628 115.87 168.437 115.955 168.21L116.927 168.483C116.825 168.812 116.653 169.102 116.411 169.352C116.17 169.599 115.872 169.793 115.517 169.932C115.161 170.068 114.762 170.136 114.319 170.136ZM123.195 164.92L122.292 165.176C122.235 165.026 122.151 164.879 122.041 164.737C121.933 164.592 121.785 164.473 121.597 164.379C121.41 164.286 121.17 164.239 120.877 164.239C120.477 164.239 120.143 164.331 119.876 164.516C119.612 164.697 119.48 164.929 119.48 165.21C119.48 165.46 119.57 165.658 119.752 165.803C119.934 165.947 120.218 166.068 120.605 166.165L121.576 166.403C122.161 166.545 122.597 166.763 122.884 167.055C123.171 167.345 123.315 167.719 123.315 168.176C123.315 168.551 123.207 168.886 122.991 169.182C122.778 169.477 122.48 169.71 122.096 169.881C121.713 170.051 121.267 170.136 120.758 170.136C120.09 170.136 119.538 169.991 119.1 169.702C118.663 169.412 118.386 168.989 118.269 168.432L119.224 168.193C119.315 168.545 119.487 168.81 119.74 168.986C119.995 169.162 120.329 169.25 120.741 169.25C121.21 169.25 121.582 169.151 121.857 168.952C122.136 168.75 122.275 168.509 122.275 168.227C122.275 168 122.195 167.81 122.036 167.656C121.877 167.5 121.633 167.384 121.303 167.307L120.213 167.051C119.613 166.909 119.173 166.689 118.892 166.391C118.613 166.089 118.474 165.713 118.474 165.261C118.474 164.892 118.578 164.565 118.785 164.281C118.995 163.997 119.281 163.774 119.642 163.612C120.005 163.45 120.417 163.369 120.877 163.369C121.525 163.369 122.034 163.511 122.403 163.795C122.775 164.08 123.039 164.455 123.195 164.92Z" fill="#5C5F63"/>
<path d="M79.648 142.128H84.992V143.408H79.648V142.128ZM79.648 140H84.992V141.28H79.648V140ZM78.544 139.088V144.336H86.144V139.088H78.544ZM77.808 145.488V146.496H87.024V145.488H77.808ZM81.744 145.984V152.064L82.864 152.528V145.984H81.744ZM79.6 148.928L78.864 149.2C79.84 152.464 81.68 153.04 84.352 153.04H87.168C87.2 152.736 87.36 152.224 87.52 151.968C86.96 151.984 84.8 151.984 84.4 151.984C82.176 151.984 80.416 151.584 79.6 148.928ZM82.512 148.368V149.36H86.224V148.368H82.512ZM78.864 147.248C78.608 149.616 77.888 151.424 76.464 152.56C76.704 152.736 77.168 153.088 77.36 153.28C78.8 152 79.632 150.016 79.952 147.376L78.864 147.248ZM72.448 147.072L72.752 148.24C74.112 147.808 75.856 147.232 77.52 146.688L77.344 145.584C75.552 146.16 73.696 146.736 72.448 147.072ZM72.624 141.792V142.912H77.504V141.792H72.624ZM74.608 138.576V151.776C74.608 152.016 74.544 152.08 74.336 152.08C74.144 152.08 73.536 152.08 72.832 152.064C72.992 152.4 73.136 152.896 73.184 153.184C74.192 153.184 74.816 153.152 75.184 152.96C75.584 152.768 75.728 152.448 75.728 151.792V138.576H74.608ZM92.288 138.608C91.392 141.04 89.888 143.44 88.32 144.992C88.544 145.264 88.88 145.904 89.008 146.176C90.736 144.384 92.384 141.664 93.424 138.96L92.288 138.608ZM90.592 142.752V153.264H91.776V141.6L91.76 141.584L90.592 142.752ZM93.344 141.984V143.136H103.168V141.984H93.344ZM92.944 147.088V148.272H103.36V147.088H92.944ZM95.408 138.736V147.728H96.592V138.736H95.408ZM99.712 138.72V147.744H100.88V138.72H99.712ZM95.744 149.168C95.056 150.4 93.952 151.664 92.848 152.496C93.12 152.656 93.584 153.04 93.808 153.248C94.88 152.336 96.096 150.912 96.88 149.52L95.744 149.168ZM99.376 149.744C100.448 150.816 101.632 152.304 102.176 153.296L103.184 152.656C102.608 151.68 101.424 150.256 100.32 149.2L99.376 149.744ZM112.896 144.752V145.744H118.128V144.752H112.896ZM112.288 139.312V153.296H113.392V140.384H118.016V139.312H112.288ZM117.44 139.312V142.384C117.44 142.56 117.376 142.624 117.12 142.64C116.864 142.656 116.032 142.656 115.04 142.624C115.2 142.928 115.36 143.36 115.408 143.68C116.64 143.68 117.44 143.664 117.936 143.488C118.432 143.312 118.56 142.992 118.56 142.4V139.312H117.44ZM114.464 145.408L113.52 145.648C114.464 148.976 116.24 151.888 118.704 153.28C118.896 152.976 119.264 152.544 119.536 152.304C117.136 151.136 115.328 148.4 114.464 145.408ZM117.76 144.752V145.008C117.264 147.936 115.76 150.928 113.36 152.496C113.632 152.704 113.984 153.04 114.16 153.312C116.72 151.584 118.304 148.432 118.928 144.96L118.192 144.688L117.984 144.752H117.76ZM105.232 140.208V141.248H111.168V140.208H105.232ZM105.04 148.96V150H111.376V148.96H105.04ZM104.656 142.848V143.888H111.776V142.848H104.656ZM104.88 146.176V147.216H111.584V146.176H104.88ZM107.696 138.592V143.216H108.816V138.592H107.696ZM107.696 146.608V153.248H108.816V146.608H107.696ZM109.856 143.824C109.68 144.448 109.328 145.392 109.056 145.984L109.952 146.256C110.256 145.696 110.56 144.864 110.88 144.096L109.856 143.824ZM105.776 144.08C106.096 144.784 106.4 145.696 106.48 146.272L107.44 146C107.36 145.44 107.04 144.528 106.688 143.856L105.776 144.08ZM124.928 139.376V140.304H135.2V139.376H124.928ZM126.384 142.048H133.6V143.584H126.384V142.048ZM125.312 141.248V144.368H134.72V141.248H125.312ZM128.08 139.68V143.888H129.072V139.68H128.08ZM130.848 139.68V143.888H131.84V139.68H130.848ZM126.768 147.568H133.36V148.48H126.768V147.568ZM126.768 149.232H133.36V150.176H126.768V149.232ZM126.768 145.904H133.36V146.816H126.768V145.904ZM125.648 145.136V150.944H134.528V145.136H125.648ZM130.848 151.744C132.224 152.224 133.648 152.848 134.464 153.328L135.504 152.624C134.576 152.144 133.024 151.52 131.632 151.056L130.848 151.744ZM128.224 151.04C127.376 151.584 125.824 152.176 124.432 152.496C124.656 152.704 124.944 153.072 125.104 153.312C126.528 152.96 128.112 152.352 129.088 151.648L128.224 151.04ZM123.712 138.656C122.944 141.12 121.68 143.584 120.272 145.184C120.48 145.488 120.8 146.128 120.912 146.416C122.496 144.544 123.92 141.728 124.832 138.96L123.712 138.656ZM122.432 142.576V153.28H123.568V141.504L123.536 141.472L122.432 142.576Z" fill="#5C5F63"/>
<defs>
<clipPath id="clip0_347_1214">
<rect width="44" height="58" fill="white" transform="translate(78 67)"/>
</clipPath>
<clipPath id="clip1_347_1214">
<rect width="44" height="58" fill="white" transform="translate(78 67)"/>
</clipPath>
</defs>
</svg>
