<svg width="92" height="73" viewBox="0 0 92 73" fill="none" xmlns="http://www.w3.org/2000/svg">
<g opacity="0.7">
<path d="M7.52029 63.6722C7.2365 63.6722 7 63.4365 7 63.1537V25.1133C7 24.8305 7.2365 24.5948 7.52029 24.5948H21.836C21.9779 24.5948 22.1041 24.6419 22.1986 24.7519C22.2932 24.8462 22.3563 24.9876 22.3563 25.1133V63.1537C22.3563 63.4365 22.1198 63.6722 21.836 63.6722H7.52029ZM8.70276 25.6318C8.34014 25.6318 8.0248 25.9304 8.0248 26.3075V61.9753C8.0248 62.3366 8.32437 62.6509 8.70276 62.6509H20.6378C21.0004 62.6509 21.3157 62.3524 21.3157 61.9753V26.3075C21.3157 25.9461 21.0162 25.6318 20.6378 25.6318H8.70276V25.6318Z" fill="white"/>
<path d="M12.2815 47.0325C11.9977 47.0325 11.7612 46.7968 11.7612 46.514V41.753C11.7612 41.4702 11.9977 41.2345 12.2815 41.2345H17.0587C17.3424 41.2345 17.5789 41.4702 17.5789 41.753V46.514C17.5789 46.7968 17.3424 47.0325 17.0587 47.0325H12.2815ZM13.4797 42.2715C13.1171 42.2715 12.8018 42.5701 12.8018 42.9472V45.3198C12.8018 45.6812 13.1013 45.9954 13.4797 45.9954H15.8604C16.2231 45.9954 16.5384 45.6969 16.5384 45.3198V42.9472C16.5384 42.5858 16.2388 42.2715 15.8604 42.2715H13.4797Z" fill="white"/>
<path d="M12.2815 36.3313C11.9977 36.3313 11.7612 36.0959 11.7612 35.8133C11.7612 35.5307 11.9977 35.2952 12.2815 35.2952H17.0587C17.3424 35.2952 17.5789 35.5307 17.5789 35.8133C17.5789 36.0959 17.3424 36.3313 17.0587 36.3313H12.2815Z" fill="white"/>
<path d="M12.2815 31.5704C11.9977 31.5704 11.7612 31.3349 11.7612 31.0523C11.7612 30.7697 11.9977 30.5342 12.2815 30.5342H17.0587C17.3424 30.5342 17.5789 30.7697 17.5789 31.0523C17.5789 31.3349 17.3424 31.5704 17.0587 31.5704H12.2815Z" fill="white"/>
<path d="M12.2815 57.7321C11.9977 57.7321 11.7612 57.4966 11.7612 57.214C11.7612 56.9314 11.9977 56.6959 12.2815 56.6959H17.0587C17.3424 56.6959 17.5789 56.9314 17.5789 57.214C17.5789 57.4966 17.3424 57.7321 17.0587 57.7321H12.2815Z" fill="white"/>
<path d="M12.2815 52.9711C11.9977 52.9711 11.7612 52.7356 11.7612 52.453C11.7612 52.1704 11.9977 51.9349 12.2815 51.9349H17.0587C17.3424 51.9349 17.5789 52.1704 17.5789 52.453C17.5789 52.7356 17.3424 52.9711 17.0587 52.9711H12.2815Z" fill="white"/>
<path d="M40.9131 47.0325C40.6293 47.0325 40.3928 46.7969 40.3928 46.514V8.45791C40.3928 8.17508 40.6293 7.93939 40.9131 7.93939H48.071C48.3548 7.93939 48.5913 8.17508 48.5913 8.45791V46.4983C48.5913 46.7811 48.3548 47.0168 48.071 47.0168H40.9131V47.0325ZM42.1114 8.99214C41.7487 8.99214 41.4334 9.29068 41.4334 9.66779V45.3356C41.4334 45.697 41.733 46.0112 42.1114 46.0112H46.8885C47.2511 46.0112 47.5664 45.7127 47.5664 45.3356V9.66779C47.5664 9.3064 47.2669 8.99214 46.8885 8.99214H42.1114V8.99214Z" fill="white"/>
<path d="M42.1114 8.99214C41.8276 8.99214 41.5911 8.75645 41.5911 8.47363V4.89113C41.5911 3.28844 42.8996 2 44.492 2C45.2646 2 45.9898 2.29854 46.5416 2.84848C47.0935 3.39843 47.393 4.12121 47.393 4.89113V8.45791C47.393 8.74074 47.1565 8.97643 46.8727 8.97643H42.1114V8.99214ZM44.492 3.03704C43.4672 3.03704 42.6316 3.86981 42.6316 4.89113V7.26375C42.6316 7.62514 42.9312 7.93939 43.3096 7.93939H45.6903C46.0529 7.93939 46.3682 7.64085 46.3682 7.26375V4.89113C46.3525 3.86981 45.5168 3.03704 44.492 3.03704Z" fill="white"/>
<path d="M42.1114 51.7778C41.8276 51.7778 41.5911 51.5421 41.5911 51.2593V46.4983C41.5911 46.2155 41.8276 45.9798 42.1114 45.9798H46.8885C47.0304 45.9798 47.1565 46.0269 47.2511 46.1369C47.3457 46.2312 47.4088 46.3726 47.4088 46.4983V51.2593C47.4088 51.5421 47.1723 51.7778 46.8885 51.7778H42.1114ZM43.2938 47.0325C42.9312 47.0325 42.6159 47.3311 42.6159 47.7082V50.0808C42.6159 50.4422 42.9154 50.7565 43.2938 50.7565H45.6745C46.0371 50.7565 46.3525 50.4579 46.3525 50.0808V47.7082C46.3525 47.3468 46.0529 47.0325 45.6745 47.0325H43.2938V47.0325Z" fill="white"/>
<path d="M44.492 56.5386C44.2082 56.5386 43.9717 56.3029 43.9717 56.0201V51.2592C43.9717 50.9763 44.2082 50.7407 44.492 50.7407C44.7758 50.7407 45.0123 50.9763 45.0123 51.2592V56.0201C45.0123 56.3029 44.7758 56.5386 44.492 56.5386Z" fill="white"/>
<path d="M11.0992 72C8.84465 72 7 70.1616 7 67.9147V20.3524C7 18.0898 8.84465 16.2671 11.0992 16.2671H40.9131C41.1969 16.2671 41.4334 16.5028 41.4334 16.7856V45.3198C41.4334 45.6812 41.733 45.9955 42.1114 45.9955H46.8885C47.2511 45.9955 47.5665 45.6969 47.5665 45.3198V16.7856C47.5665 16.5028 47.803 16.2671 48.0868 16.2671H73.1392C75.3938 16.2671 77.2385 18.1055 77.2385 20.3524V67.899C77.2385 70.1616 75.3938 71.9843 73.1392 71.9843H11.0992V72ZM11.0992 17.3041C9.41223 17.3041 8.04059 18.6711 8.04059 20.3524V67.899C8.04059 69.5802 9.41223 70.9472 11.0992 70.9472H73.1235C74.8105 70.9472 76.1821 69.5802 76.1821 67.899V20.3524C76.1821 18.6711 74.8105 17.3041 73.1235 17.3041H49.2692C48.9066 17.3041 48.5913 17.6027 48.5913 17.9798V46.514C48.5913 46.7968 48.3548 47.0325 48.071 47.0325H40.9131C40.6293 47.0325 40.3928 46.7968 40.3928 46.514V17.9798C40.3928 17.6184 40.0933 17.3041 39.7149 17.3041H11.0992Z" fill="white"/>
<path d="M21.8362 63.6722C21.5524 63.6722 21.3159 63.4365 21.3159 63.1537V25.1133C21.3159 24.8305 21.5524 24.5948 21.8362 24.5948H40.9133C41.1971 24.5948 41.4336 24.8305 41.4336 25.1133V45.3198C41.4336 45.6812 41.7332 45.9955 42.1116 45.9955H46.8887C47.2513 45.9955 47.5667 45.6969 47.5667 45.3198V25.1133C47.5667 24.8305 47.8032 24.5948 48.0869 24.5948H68.3465C68.4884 24.5948 68.6146 24.6419 68.7092 24.7519C68.8038 24.8462 68.8668 24.9876 68.8668 25.1133V63.1537C68.8668 63.4365 68.6303 63.6722 68.3465 63.6722H21.8362ZM23.0187 25.6318C22.6561 25.6318 22.3407 25.9304 22.3407 26.3075V61.9753C22.3407 62.3366 22.6403 62.6509 23.0187 62.6509H67.1483C67.5109 62.6509 67.8262 62.3524 67.8262 61.9753V26.3075C67.8262 25.9461 67.5267 25.6318 67.1483 25.6318H49.2694C48.9068 25.6318 48.5915 25.9304 48.5915 26.3075V46.514C48.5915 46.7968 48.355 47.0325 48.0712 47.0325H40.9133C40.6295 47.0325 40.393 46.7968 40.393 46.514V26.2918C40.393 25.9304 40.0935 25.6161 39.7151 25.6161H23.0187V25.6318Z" fill="white"/>
</g>
</svg>
