<svg width="206" height="208" viewBox="0 0 206 208" fill="none" xmlns="http://www.w3.org/2000/svg">
<path d="M45.8866 16.96L47.7346 17.7249L47.8866 17.3575V16.96H45.8866ZM19.5826 80.512V82.512H20.9194L21.4306 81.2769L19.5826 80.512ZM8.54263 80.512L6.70199 79.7297L5.51939 82.512H8.54263V80.512ZM34.9426 18.4L36.7833 19.1823L37.9659 16.4H34.9426V18.4ZM2.20663 18.4H0.206625V20.4H2.20663V18.4ZM2.20663 8.89599V6.89599H0.206625V8.89599H2.20663ZM45.8866 8.89599H47.8866V6.89599H45.8866V8.89599ZM44.0387 16.1951L17.7347 79.7471L21.4306 81.2769L47.7346 17.7249L44.0387 16.1951ZM19.5826 78.512H8.54263V82.512H19.5826V78.512ZM10.3833 81.2943L36.7833 19.1823L33.102 17.6177L6.70199 79.7297L10.3833 81.2943ZM34.9426 16.4H2.20663V20.4H34.9426V16.4ZM4.20663 18.4V8.89599H0.206625V18.4H4.20663ZM2.20663 10.896H45.8866V6.89599H2.20663V10.896ZM43.8866 8.89599V16.96H47.8866V8.89599H43.8866Z" fill="#565555"/>
<circle cx="104" cy="115" r="92.5" fill="white" stroke="black"/>
<path d="M83.3463 86.3664C83.3463 77.5517 89.7368 70.2262 98.0844 68.8175C99.043 68.6565 100.002 68.576 101 68.576C101.999 68.576 102.997 68.6565 103.916 68.8175C112.263 70.2262 118.654 77.5517 118.654 86.3664C118.654 90.5926 117.216 94.4566 114.78 97.5156L119.812 93.7724C120.531 91.8806 121.01 89.8279 121.13 87.6947C121.17 87.2519 121.17 86.8494 121.17 86.4067C121.21 75.0965 112.144 66 101 66C89.8566 66 80.79 75.0965 80.79 86.3664C80.79 86.8092 80.79 87.2519 80.83 87.6544C80.9498 89.7474 81.4291 91.8001 82.148 93.6919L87.1406 97.3949C84.7841 94.3761 83.3463 90.5524 83.3463 86.3664Z" fill="#5C5F63"/>
<path d="M128 88.4594H122.169V90.4316H125.564L117.416 96.5899L113.022 99.8904L106.632 104.68L103.556 106.974C103.556 106.974 102.278 107.94 102.238 107.94C101.519 108.423 100.481 108.423 99.7618 107.94C99.7219 107.94 97.8047 106.451 97.7648 106.451L95.4083 104.68L88.9379 99.8501L84.5843 96.5899L76.5562 90.4719H80.1109L80.1509 88.4997H74V120.337C74 122.189 75.2382 123.96 77.0754 123.96H124.485C126.283 123.96 128 122.189 128 120.378V88.4594V88.4594ZM76.3964 120.458C76.1169 120.015 75.9571 119.492 75.9571 118.929V92.6856L86.2219 100.253L92.7322 105.123L92.0932 105.686L76.3964 120.458ZM122.608 122.028H79.392C78.8728 122.028 78.3935 121.947 77.9541 121.746L93.9704 106.652L94.3299 106.33L96.287 107.82L99.4423 110.154C100.361 110.838 101.639 110.838 102.558 110.154L105.713 107.82L107.75 106.25L108.189 106.652L124.206 121.706C123.686 121.907 123.167 122.028 122.608 122.028ZM126.043 118.929C126.043 119.452 125.843 119.895 125.643 120.337L110.027 105.606L109.388 105.042L115.858 100.172L126.003 92.7259V118.929H126.043Z" fill="#5C5F63"/>
<path d="M107.111 95.1811C105.753 96.1874 104.115 96.7509 102.078 96.8716V98.4816C102.078 98.9244 101.759 99.1659 101.08 99.1659C100.401 99.1659 100.081 98.9244 100.081 98.4816V96.8716C97.3653 96.6704 95.2485 95.4629 93.7307 93.2491C93.0517 92.2831 92.7322 91.3171 92.7322 90.2304C92.7322 89.8279 92.852 89.4656 93.1715 89.2242C93.4511 88.9424 93.8106 88.8217 94.21 88.8217C94.8091 88.8217 95.2484 89.3449 95.6079 90.3109C96.3269 92.5246 97.8047 93.7724 100.081 94.0541V86.0847C99.2425 85.7627 98.6035 85.4809 98.2041 85.2797C95.1686 83.9112 93.6508 82.1402 93.6508 80.0069C93.6508 76.7467 95.7677 74.9355 100.121 74.5732V72.601C100.121 72.1582 100.441 71.9167 101.12 71.9167C101.759 71.9167 102.118 72.1582 102.118 72.601V74.533C105.114 74.6537 107.311 75.66 108.589 77.5517C109.148 78.4372 109.467 79.2422 109.467 79.8862C109.467 80.9729 108.908 81.5364 107.83 81.5364C107.351 81.5364 106.991 81.2547 106.711 80.6509C105.713 78.5982 104.195 77.5115 102.118 77.3505V83.9917C104.475 84.9174 106.152 85.6822 107.111 86.3262C108.669 87.4934 109.467 88.9022 109.467 90.5926C109.388 92.5246 108.629 94.0541 107.111 95.1811ZM100.081 77.3505C97.7647 77.6725 96.6464 78.5177 96.6464 79.8459C96.6464 81.0937 97.8047 82.2207 100.081 83.1867V77.3505ZM104.794 88.3387C104.075 87.9362 103.157 87.4532 102.038 86.9299V94.0541C104.994 93.7321 106.472 92.6051 106.472 90.5524C106.472 89.7876 105.913 89.0632 104.794 88.3387Z" fill="#5C5F63"/>
<path d="M75.35 146.18L74.315 146.555C76.19 150.32 79.685 152.48 84.695 153.245C84.86 152.93 85.16 152.435 85.415 152.18C80.495 151.52 76.985 149.51 75.35 146.18ZM72.83 145.13V146.225H82.61V145.13H72.83ZM72.14 141.695V142.82H84.8V141.695H72.14ZM77.885 139.415V145.64H79.04V139.415H77.885ZM82.25 145.13V145.355C80.69 149.465 76.46 151.37 71.585 152.135C71.795 152.39 72.095 152.915 72.2 153.2C77.18 152.3 81.635 150.17 83.495 145.55L82.73 145.085L82.505 145.13H82.25ZM91.16 142.745V143.885H100.31V142.745H91.16ZM97.265 139.58V151.67C97.265 152.015 97.13 152.105 96.77 152.135C96.425 152.15 95.18 152.15 93.905 152.105C94.085 152.42 94.295 152.93 94.355 153.23C95.99 153.245 97.01 153.23 97.595 153.035C98.165 152.87 98.405 152.525 98.405 151.67V139.58H97.265ZM92.105 145.925C92.87 147.125 93.845 148.745 94.295 149.675L95.345 149.105C94.865 148.19 93.86 146.63 93.08 145.46L92.105 145.925ZM88.775 143.495V153.17H89.915V142.385L89.9 142.355L88.775 143.495ZM90.41 139.505C89.54 141.845 88.1 144.14 86.555 145.61C86.765 145.88 87.125 146.45 87.26 146.72C88.925 145.025 90.5 142.445 91.505 139.835L90.41 139.505ZM102.98 140.12V144.515C102.98 146.9 102.86 150.245 101.45 152.615C101.735 152.72 102.245 153.005 102.455 153.17C103.925 150.725 104.12 147.05 104.12 144.515V140.12H102.98ZM103.775 140.12V141.11H113.135V142.775H103.775V143.75H114.26V140.12H103.775ZM108.29 144.965V151.28C108.29 152.63 108.725 152.975 110.285 152.975C110.63 152.975 112.985 152.975 113.36 152.975C114.68 152.975 115.01 152.48 115.16 150.725C114.845 150.65 114.41 150.485 114.155 150.29C114.065 151.685 113.945 151.94 113.285 151.94C112.775 151.94 110.75 151.94 110.375 151.94C109.535 151.94 109.4 151.835 109.4 151.265V144.965H108.29ZM111.86 143.795C110.3 144.395 107.375 144.935 104.84 145.265C104.96 145.49 105.095 145.85 105.14 146.075C107.78 145.76 110.825 145.235 112.805 144.53L111.86 143.795ZM104.75 147.455L104.93 148.385L113.825 147.02L113.66 146.105L104.75 147.455ZM104.255 149.87L104.435 150.815L114.89 149.18L114.725 148.25L104.255 149.87ZM116.765 140.84V141.785H123.695V140.84H116.765ZM116.585 147.26V148.205H123.83V147.26H116.585ZM117.11 143.075V144.035H123.38V143.075H117.11ZM117.275 145.16V146.105H123.2V145.16H117.275ZM119.705 147.665V152.045C119.705 152.195 119.66 152.24 119.495 152.24C119.33 152.255 118.805 152.255 118.205 152.24C118.34 152.525 118.49 152.93 118.535 153.215C119.39 153.215 119.93 153.2 120.29 153.035C120.665 152.885 120.755 152.585 120.755 152.06V147.665H119.705ZM119.69 139.46V143.69H120.755V139.46H119.69ZM117.74 148.73C117.47 149.855 116.99 150.98 116.36 151.76C116.6 151.85 117.035 152.09 117.23 152.225C117.845 151.4 118.385 150.17 118.7 148.91L117.74 148.73ZM121.625 149.06C122.06 149.795 122.51 150.8 122.705 151.4L123.59 150.965C123.41 150.38 122.93 149.435 122.48 148.715L121.625 149.06ZM124.925 142.13V143.165H129.47V142.13H124.925ZM126.755 142.55H126.2V145.22C126.2 146.45 125.75 150.305 122.6 152.315C122.81 152.525 123.125 152.975 123.245 153.215C125.705 151.61 126.59 148.82 126.74 147.53C126.89 148.76 127.67 151.685 129.8 153.215C129.95 152.945 130.295 152.51 130.49 152.255C127.73 150.305 127.28 146.42 127.28 145.22V142.55H126.755ZM124.97 139.385C124.685 141.785 124.13 144.095 123.17 145.58C123.44 145.745 123.935 146.075 124.13 146.255C125.105 144.635 125.75 142.16 126.095 139.565L124.97 139.385ZM129.155 142.13V142.34C129.02 143.495 128.795 145.01 128.555 145.925L129.455 146.18C129.755 145.19 130.04 143.615 130.235 142.295L129.515 142.085L129.32 142.13H129.155Z" fill="#5C5F63"/>
<path d="M57.4416 170V161.273H60.3904C61.0751 161.273 61.6348 161.396 62.0694 161.643C62.5069 161.888 62.8308 162.219 63.041 162.636C63.2512 163.054 63.3564 163.52 63.3564 164.034C63.3564 164.548 63.2512 165.016 63.041 165.436C62.8336 165.857 62.5126 166.192 62.0779 166.442C61.6433 166.689 61.0865 166.812 60.4075 166.812H58.2939V165.875H60.3734C60.8422 165.875 61.2186 165.794 61.5027 165.632C61.7868 165.47 61.9927 165.251 62.1206 164.976C62.2512 164.697 62.3166 164.384 62.3166 164.034C62.3166 163.685 62.2512 163.372 62.1206 163.097C61.9927 162.821 61.7853 162.605 61.4984 162.449C61.2115 162.29 60.8308 162.21 60.3564 162.21H58.4984V170H57.4416ZM66.8485 170.153C66.4338 170.153 66.0574 170.075 65.7193 169.919C65.3812 169.76 65.1127 169.531 64.9139 169.233C64.715 168.932 64.6156 168.568 64.6156 168.142C64.6156 167.767 64.6895 167.463 64.8372 167.23C64.9849 166.994 65.1824 166.81 65.4295 166.676C65.6767 166.543 65.9494 166.443 66.2477 166.378C66.5488 166.31 66.8514 166.256 67.1554 166.216C67.5531 166.165 67.8755 166.126 68.1227 166.101C68.3727 166.072 68.5545 166.026 68.6681 165.96C68.7846 165.895 68.8429 165.781 68.8429 165.619V165.585C68.8429 165.165 68.7278 164.838 68.4977 164.605C68.2704 164.372 67.9252 164.256 67.4622 164.256C66.9821 164.256 66.6056 164.361 66.3329 164.571C66.0602 164.781 65.8684 165.006 65.7576 165.244L64.8031 164.903C64.9735 164.506 65.2008 164.196 65.4849 163.974C65.7718 163.75 66.0843 163.594 66.4224 163.506C66.7633 163.415 67.0985 163.369 67.4281 163.369C67.6383 163.369 67.8798 163.395 68.1525 163.446C68.4281 163.494 68.6937 163.595 68.9494 163.749C69.2079 163.902 69.4224 164.134 69.5929 164.443C69.7633 164.753 69.8485 165.168 69.8485 165.688V170H68.8429V169.114H68.7917C68.7235 169.256 68.6099 169.408 68.4508 169.57C68.2917 169.732 68.0801 169.869 67.8159 169.983C67.5517 170.097 67.2292 170.153 66.8485 170.153ZM67.002 169.25C67.3997 169.25 67.7349 169.172 68.0076 169.016C68.2832 168.859 68.4906 168.658 68.6298 168.411C68.7718 168.163 68.8429 167.903 68.8429 167.631V166.71C68.8002 166.761 68.7065 166.808 68.5616 166.851C68.4196 166.891 68.2548 166.926 68.0673 166.957C67.8826 166.986 67.7022 167.011 67.5261 167.034C67.3528 167.054 67.2122 167.071 67.1042 167.085C66.8429 167.119 66.5985 167.175 66.3713 167.251C66.1468 167.325 65.965 167.437 65.8258 167.588C65.6895 167.736 65.6213 167.937 65.6213 168.193C65.6213 168.543 65.7505 168.807 66.0091 168.986C66.2704 169.162 66.6014 169.25 67.002 169.25ZM72.0975 172.455C71.927 172.455 71.775 172.44 71.6415 172.412C71.508 172.386 71.4157 172.361 71.3645 172.335L71.6202 171.449C71.8645 171.511 72.0804 171.534 72.2679 171.517C72.4554 171.5 72.6216 171.416 72.7665 171.266C72.9142 171.118 73.0492 170.878 73.1713 170.545L73.3588 170.034L70.9384 163.455H72.0293L73.8361 168.67H73.9043L75.7111 163.455H76.802L74.0236 170.955C73.8986 171.293 73.7438 171.572 73.5591 171.794C73.3745 172.018 73.16 172.185 72.9157 172.293C72.6742 172.401 72.4015 172.455 72.0975 172.455ZM81.1635 162.21V161.273H87.709V162.21H84.9647V170H83.9078V162.21H81.1635ZM90.2093 166.062V170H89.2037V161.273H90.2093V164.477H90.2946C90.448 164.139 90.6781 163.871 90.9849 163.672C91.2946 163.47 91.7065 163.369 92.2207 163.369C92.6667 163.369 93.0574 163.459 93.3926 163.638C93.7278 163.814 93.9877 164.085 94.1724 164.452C94.3599 164.815 94.4537 165.278 94.4537 165.841V170H93.448V165.909C93.448 165.389 93.313 164.987 93.0431 164.703C92.7761 164.416 92.4054 164.273 91.9309 164.273C91.6014 164.273 91.3059 164.342 91.0446 164.482C90.786 164.621 90.5815 164.824 90.4309 165.091C90.2832 165.358 90.2093 165.682 90.2093 166.062ZM99.0378 170.136C98.4071 170.136 97.8631 169.997 97.4057 169.719C96.9512 169.438 96.6003 169.045 96.3532 168.543C96.1088 168.037 95.9867 167.449 95.9867 166.778C95.9867 166.108 96.1088 165.517 96.3532 165.006C96.6003 164.491 96.9441 164.091 97.3844 163.804C97.8276 163.514 98.3446 163.369 98.9355 163.369C99.2765 163.369 99.6131 163.426 99.9455 163.54C100.278 163.653 100.58 163.838 100.853 164.094C101.126 164.347 101.343 164.682 101.505 165.099C101.667 165.517 101.748 166.031 101.748 166.642V167.068H96.7026V166.199H100.725C100.725 165.83 100.651 165.5 100.504 165.21C100.359 164.92 100.151 164.692 99.8816 164.524C99.6145 164.357 99.2992 164.273 98.9355 164.273C98.535 164.273 98.1884 164.372 97.8958 164.571C97.606 164.767 97.383 165.023 97.2267 165.338C97.0705 165.653 96.9924 165.991 96.9924 166.352V166.932C96.9924 167.426 97.0776 167.845 97.248 168.189C97.4213 168.53 97.6614 168.79 97.9682 168.969C98.275 169.145 98.6316 169.233 99.0378 169.233C99.302 169.233 99.5407 169.196 99.7537 169.122C99.9696 169.045 100.156 168.932 100.312 168.781C100.468 168.628 100.589 168.437 100.674 168.21L101.646 168.483C101.544 168.812 101.372 169.102 101.13 169.352C100.889 169.599 100.59 169.793 100.235 169.932C99.8801 170.068 99.481 170.136 99.0378 170.136ZM106.789 170V161.273H109.84C110.448 161.273 110.95 161.378 111.345 161.588C111.74 161.795 112.034 162.075 112.227 162.428C112.42 162.777 112.517 163.165 112.517 163.591C112.517 163.966 112.45 164.276 112.316 164.52C112.186 164.764 112.012 164.957 111.796 165.099C111.583 165.241 111.352 165.347 111.102 165.415V165.5C111.369 165.517 111.637 165.611 111.907 165.781C112.177 165.952 112.403 166.196 112.585 166.514C112.767 166.832 112.857 167.222 112.857 167.682C112.857 168.119 112.758 168.513 112.559 168.862C112.36 169.212 112.046 169.489 111.617 169.693C111.188 169.898 110.63 170 109.943 170H106.789ZM107.846 169.062H109.943C110.633 169.062 111.123 168.929 111.413 168.662C111.705 168.392 111.852 168.065 111.852 167.682C111.852 167.386 111.776 167.114 111.626 166.864C111.475 166.611 111.261 166.409 110.982 166.259C110.704 166.105 110.374 166.028 109.994 166.028H107.846V169.062ZM107.846 165.108H109.806C110.124 165.108 110.411 165.045 110.667 164.92C110.926 164.795 111.13 164.619 111.281 164.392C111.434 164.165 111.511 163.898 111.511 163.591C111.511 163.207 111.377 162.882 111.11 162.615C110.843 162.345 110.42 162.21 109.84 162.21H107.846V165.108ZM116.384 170.153C115.969 170.153 115.593 170.075 115.254 169.919C114.916 169.76 114.648 169.531 114.449 169.233C114.25 168.932 114.151 168.568 114.151 168.142C114.151 167.767 114.225 167.463 114.372 167.23C114.52 166.994 114.718 166.81 114.965 166.676C115.212 166.543 115.485 166.443 115.783 166.378C116.084 166.31 116.387 166.256 116.691 166.216C117.088 166.165 117.411 166.126 117.658 166.101C117.908 166.072 118.09 166.026 118.203 165.96C118.32 165.895 118.378 165.781 118.378 165.619V165.585C118.378 165.165 118.263 164.838 118.033 164.605C117.806 164.372 117.46 164.256 116.997 164.256C116.517 164.256 116.141 164.361 115.868 164.571C115.595 164.781 115.404 165.006 115.293 165.244L114.338 164.903C114.509 164.506 114.736 164.196 115.02 163.974C115.307 163.75 115.619 163.594 115.958 163.506C116.298 163.415 116.634 163.369 116.963 163.369C117.173 163.369 117.415 163.395 117.688 163.446C117.963 163.494 118.229 163.595 118.485 163.749C118.743 163.902 118.958 164.134 119.128 164.443C119.298 164.753 119.384 165.168 119.384 165.688V170H118.378V169.114H118.327C118.259 169.256 118.145 169.408 117.986 169.57C117.827 169.732 117.615 169.869 117.351 169.983C117.087 170.097 116.764 170.153 116.384 170.153ZM116.537 169.25C116.935 169.25 117.27 169.172 117.543 169.016C117.818 168.859 118.026 168.658 118.165 168.411C118.307 168.163 118.378 167.903 118.378 167.631V166.71C118.335 166.761 118.242 166.808 118.097 166.851C117.955 166.891 117.79 166.926 117.602 166.957C117.418 166.986 117.237 167.011 117.061 167.034C116.888 167.054 116.747 167.071 116.639 167.085C116.378 167.119 116.134 167.175 115.906 167.251C115.682 167.325 115.5 167.437 115.361 167.588C115.225 167.736 115.156 167.937 115.156 168.193C115.156 168.543 115.286 168.807 115.544 168.986C115.806 169.162 116.137 169.25 116.537 169.25ZM122.225 161.273V170H121.219V161.273H122.225ZM125.993 170.153C125.578 170.153 125.202 170.075 124.864 169.919C124.526 169.76 124.257 169.531 124.058 169.233C123.86 168.932 123.76 168.568 123.76 168.142C123.76 167.767 123.834 167.463 123.982 167.23C124.129 166.994 124.327 166.81 124.574 166.676C124.821 166.543 125.094 166.443 125.392 166.378C125.693 166.31 125.996 166.256 126.3 166.216C126.698 166.165 127.02 166.126 127.267 166.101C127.517 166.072 127.699 166.026 127.813 165.96C127.929 165.895 127.987 165.781 127.987 165.619V165.585C127.987 165.165 127.872 164.838 127.642 164.605C127.415 164.372 127.07 164.256 126.607 164.256C126.127 164.256 125.75 164.361 125.477 164.571C125.205 164.781 125.013 165.006 124.902 165.244L123.948 164.903C124.118 164.506 124.345 164.196 124.629 163.974C124.916 163.75 125.229 163.594 125.567 163.506C125.908 163.415 126.243 163.369 126.573 163.369C126.783 163.369 127.024 163.395 127.297 163.446C127.573 163.494 127.838 163.595 128.094 163.749C128.352 163.902 128.567 164.134 128.737 164.443C128.908 164.753 128.993 165.168 128.993 165.688V170H127.987V169.114H127.936C127.868 169.256 127.754 169.408 127.595 169.57C127.436 169.732 127.225 169.869 126.96 169.983C126.696 170.097 126.374 170.153 125.993 170.153ZM126.146 169.25C126.544 169.25 126.879 169.172 127.152 169.016C127.428 168.859 127.635 168.658 127.774 168.411C127.916 168.163 127.987 167.903 127.987 167.631V166.71C127.945 166.761 127.851 166.808 127.706 166.851C127.564 166.891 127.399 166.926 127.212 166.957C127.027 166.986 126.847 167.011 126.671 167.034C126.497 167.054 126.357 167.071 126.249 167.085C125.987 167.119 125.743 167.175 125.516 167.251C125.291 167.325 125.11 167.437 124.97 167.588C124.834 167.736 124.766 167.937 124.766 168.193C124.766 168.543 124.895 168.807 125.154 168.986C125.415 169.162 125.746 169.25 126.146 169.25ZM131.834 166.062V170H130.829V163.455H131.8V164.477H131.885C132.039 164.145 132.272 163.878 132.584 163.676C132.897 163.472 133.3 163.369 133.795 163.369C134.238 163.369 134.626 163.46 134.958 163.642C135.29 163.821 135.549 164.094 135.733 164.46C135.918 164.824 136.01 165.284 136.01 165.841V170H135.005V165.909C135.005 165.395 134.871 164.994 134.604 164.707C134.337 164.418 133.971 164.273 133.505 164.273C133.184 164.273 132.897 164.342 132.644 164.482C132.394 164.621 132.197 164.824 132.052 165.091C131.907 165.358 131.834 165.682 131.834 166.062ZM140.507 170.136C139.894 170.136 139.365 169.991 138.922 169.702C138.479 169.412 138.138 169.013 137.899 168.504C137.661 167.996 137.541 167.415 137.541 166.761C137.541 166.097 137.664 165.51 137.908 165.001C138.155 164.49 138.499 164.091 138.939 163.804C139.382 163.514 139.899 163.369 140.49 163.369C140.95 163.369 141.365 163.455 141.735 163.625C142.104 163.795 142.406 164.034 142.642 164.341C142.878 164.648 143.024 165.006 143.081 165.415H142.075C141.999 165.116 141.828 164.852 141.564 164.622C141.303 164.389 140.95 164.273 140.507 164.273C140.115 164.273 139.771 164.375 139.476 164.58C139.183 164.781 138.955 165.067 138.79 165.436C138.628 165.803 138.547 166.233 138.547 166.727C138.547 167.233 138.627 167.673 138.786 168.048C138.948 168.423 139.175 168.714 139.468 168.922C139.763 169.129 140.11 169.233 140.507 169.233C140.769 169.233 141.006 169.188 141.219 169.097C141.432 169.006 141.612 168.875 141.76 168.705C141.908 168.534 142.013 168.33 142.075 168.091H143.081C143.024 168.477 142.884 168.825 142.659 169.135C142.438 169.442 142.144 169.686 141.777 169.868C141.414 170.047 140.99 170.136 140.507 170.136ZM147.296 170.136C146.665 170.136 146.121 169.997 145.664 169.719C145.209 169.438 144.858 169.045 144.611 168.543C144.367 168.037 144.244 167.449 144.244 166.778C144.244 166.108 144.367 165.517 144.611 165.006C144.858 164.491 145.202 164.091 145.642 163.804C146.085 163.514 146.602 163.369 147.193 163.369C147.534 163.369 147.871 163.426 148.203 163.54C148.536 163.653 148.838 163.838 149.111 164.094C149.384 164.347 149.601 164.682 149.763 165.099C149.925 165.517 150.006 166.031 150.006 166.642V167.068H144.96V166.199H148.983C148.983 165.83 148.909 165.5 148.762 165.21C148.617 164.92 148.409 164.692 148.139 164.524C147.872 164.357 147.557 164.273 147.193 164.273C146.793 164.273 146.446 164.372 146.154 164.571C145.864 164.767 145.641 165.023 145.485 165.338C145.328 165.653 145.25 165.991 145.25 166.352V166.932C145.25 167.426 145.335 167.845 145.506 168.189C145.679 168.53 145.919 168.79 146.226 168.969C146.533 169.145 146.889 169.233 147.296 169.233C147.56 169.233 147.798 169.196 148.012 169.122C148.227 169.045 148.414 168.932 148.57 168.781C148.726 168.628 148.847 168.437 148.932 168.21L149.904 168.483C149.801 168.812 149.629 169.102 149.388 169.352C149.146 169.599 148.848 169.793 148.493 169.932C148.138 170.068 147.739 170.136 147.296 170.136Z" fill="#5C5F63"/>
</svg>
