<svg width="206" height="208" viewBox="0 0 206 208" fill="none" xmlns="http://www.w3.org/2000/svg">
<path d="M33.0061 80.512V82.512H35.0061V80.512H33.0061ZM22.6381 80.512H20.6381V82.512H22.6381V80.512ZM22.6381 22.24H24.6381V17.9466L21.3514 20.7089L22.6381 22.24ZM13.6141 29.824L12.1372 31.1725L13.4314 32.5901L14.9009 31.3551L13.6141 29.824ZM7.56612 23.2L6.26957 21.6772L4.69306 23.0195L6.08915 24.5485L7.56612 23.2ZM24.3661 8.89599V6.89599H23.63L23.0696 7.37319L24.3661 8.89599ZM33.0061 8.89599H35.0061V6.89599H33.0061V8.89599ZM33.0061 78.512H22.6381V82.512H33.0061V78.512ZM24.6381 80.512V22.24H20.6381V80.512H24.6381ZM21.3514 20.7089L12.3274 28.2929L14.9009 31.3551L23.9249 23.7711L21.3514 20.7089ZM15.0911 28.4755L9.0431 21.8515L6.08915 24.5485L12.1372 31.1725L15.0911 28.4755ZM8.86268 24.7228L25.6627 10.4188L23.0696 7.37319L6.26957 21.6772L8.86268 24.7228ZM24.3661 10.896H33.0061V6.89599H24.3661V10.896ZM31.0061 8.89599V80.512H35.0061V8.89599H31.0061Z" fill="#565555"/>
<circle cx="104" cy="115" r="92.5" fill="white" stroke="black"/>
<path d="M77.208 146.932V153.428H78.376V148.036H83.736V153.364H84.952V146.932H77.208ZM77.768 151.604V152.708H84.408V151.604H77.768ZM78.04 143.924V145.012H84.104V143.924H78.04ZM81 140.036C82.056 141.828 83.992 143.892 85.784 145.14C85.976 144.772 86.264 144.356 86.52 144.068C84.712 142.948 82.728 140.836 81.512 138.788H80.344C79.464 140.692 77.544 142.98 75.56 144.308C75.8 144.548 76.12 144.996 76.264 145.3C78.248 143.924 80.04 141.812 81 140.036ZM72.472 139.716C73.496 140.196 74.744 140.98 75.368 141.572L76.056 140.596C75.448 140.02 74.168 139.284 73.128 138.852L72.472 139.716ZM71.608 144.052C72.648 144.5 73.928 145.236 74.552 145.796L75.24 144.804C74.584 144.26 73.288 143.556 72.248 143.156L71.608 144.052ZM72.12 152.42L73.144 153.204C74.04 151.732 75.096 149.716 75.896 148.036L75 147.268C74.104 149.092 72.936 151.188 72.12 152.42ZM97.16 142.788C98.648 143.7 100.584 145.012 101.512 145.876L102.312 144.964C101.32 144.116 99.384 142.852 97.912 142.004L97.16 142.788ZM98.008 145.364H97.4V147.668C97.4 148.596 96.824 151.188 93.096 152.484C93.32 152.724 93.656 153.188 93.784 153.444C96.616 152.42 97.752 150.404 97.992 149.428C98.232 150.388 99.304 152.484 101.768 153.444C101.928 153.172 102.264 152.708 102.488 152.42C99.144 151.188 98.6 148.58 98.6 147.668V145.364H98.008ZM97.496 138.724C97.352 142.132 96.888 144.052 93.592 145.044C93.848 145.284 94.152 145.716 94.264 146.004C97.88 144.788 98.488 142.564 98.68 138.724H97.496ZM95.128 139.78C94.984 140.82 94.52 141.876 93.864 142.436L94.792 142.884C95.544 142.228 95.976 141.06 96.136 140.004L95.128 139.78ZM94.968 146.676C94.76 147.812 94.248 148.916 93.464 149.476L94.424 150.052C95.304 149.348 95.816 148.1 96.024 146.884L94.968 146.676ZM100.84 139.7C100.552 140.484 99.96 141.62 99.496 142.308L100.392 142.676C100.872 142.02 101.48 141.012 101.992 140.116L100.84 139.7ZM101.016 146.564C100.664 147.412 100.024 148.628 99.528 149.364L100.44 149.748C100.984 149.044 101.64 147.924 102.184 146.98L101.016 146.564ZM88.36 143.556V144.516H93.048V143.556H88.36ZM88.408 139.284V140.244H92.984V139.284H88.408ZM88.36 145.7V146.66H93.048V145.7H88.36ZM87.608 141.38V142.372H93.576V141.38H87.608ZM88.888 147.86V148.852H91.992V151.524H88.888V152.532H93.048V147.86H88.888ZM88.344 147.86V153.268H89.384V147.86H88.344ZM105.144 139.364V140.324H116.84V139.364H105.144ZM104.024 146.452V147.428H118.008V146.452H104.024ZM106.088 143.012V143.828H109.544V143.012H106.088ZM105.752 144.692V145.508H109.544V144.692H105.752ZM112.36 144.692V145.508H116.28V144.692H112.36ZM112.36 143.012V143.828H115.896V143.012H112.36ZM110.36 139.732V145.924H111.528V139.732H110.36ZM108.776 149.204V153.316H109.896V149.204H108.776ZM112.328 149.204V153.316H113.432V149.204H112.328ZM104.216 141.252V144.324H105.304V142.132H116.664V144.324H117.8V141.252H104.216ZM105.272 148.58V153.412H106.408V149.572H116.248V148.58H105.272ZM115.944 148.58V152.228C115.944 152.372 115.896 152.42 115.72 152.436C115.544 152.452 115 152.452 114.36 152.436C114.504 152.724 114.68 153.14 114.728 153.428C115.608 153.428 116.2 153.444 116.6 153.252C117.016 153.076 117.096 152.788 117.096 152.244V148.58H115.944ZM110.376 146.82C110.264 147.476 109.976 148.436 109.736 149.092L110.792 149.204C111.064 148.612 111.4 147.732 111.688 146.868L110.376 146.82ZM120.024 141.396V142.564H134.024V141.396H120.024ZM127.48 142.436L126.536 142.724C127.848 146.932 130.2 150.596 133.608 152.26C133.8 151.908 134.2 151.444 134.488 151.204C131.144 149.748 128.68 146.276 127.48 142.436ZM132.28 143.22C131.416 144.404 129.928 145.956 128.84 146.868L129.688 147.524C130.808 146.612 132.264 145.188 133.32 143.972L132.28 143.22ZM129.08 139.524C130.104 140.068 131.384 140.868 132.008 141.428L132.776 140.564C132.104 140.036 130.792 139.284 129.816 138.772L129.08 139.524ZM120.888 144.132C121.88 145.012 122.984 146.292 123.464 147.124L124.44 146.436C123.944 145.588 122.792 144.372 121.816 143.524L120.888 144.132ZM126.344 138.756V151.812C126.344 152.116 126.232 152.196 125.944 152.212C125.624 152.228 124.584 152.228 123.464 152.196C123.656 152.564 123.848 153.124 123.912 153.46C125.32 153.46 126.28 153.444 126.824 153.22C127.352 153.028 127.576 152.66 127.576 151.812V138.756H126.344ZM119.592 150.804L120.328 151.876C121.752 151.076 123.64 149.956 125.368 148.884L124.984 147.812C123.032 148.948 120.936 150.116 119.592 150.804Z" fill="#5C5F63"/>
<path d="M77.2816 161.075V169.802H76.2248V161.075H77.2816ZM80.2699 165.864V169.802H79.2642V163.257H80.2358V164.279H80.321C80.4744 163.947 80.7074 163.68 81.0199 163.478C81.3324 163.274 81.7358 163.171 82.2301 163.171C82.6733 163.171 83.0611 163.262 83.3935 163.444C83.7259 163.623 83.9844 163.896 84.169 164.262C84.3537 164.626 84.446 165.086 84.446 165.643V169.802H83.4403V165.711C83.4403 165.197 83.3068 164.796 83.0398 164.509C82.7727 164.22 82.4063 164.075 81.9403 164.075C81.6193 164.075 81.3324 164.144 81.0795 164.284C80.8295 164.423 80.6321 164.626 80.4872 164.893C80.3423 165.16 80.2699 165.484 80.2699 165.864ZM89.1303 163.257V164.109H85.7383V163.257H89.1303ZM86.7269 161.688H87.7326V167.927C87.7326 168.211 87.7738 168.424 87.8562 168.566C87.9414 168.705 88.0494 168.799 88.18 168.847C88.3136 168.893 88.4542 168.916 88.6019 168.916C88.7127 168.916 88.8036 168.91 88.8746 168.899C88.9457 168.884 89.0025 168.873 89.0451 168.864L89.2496 169.768C89.1815 169.793 89.0863 169.819 88.9641 169.845C88.842 169.873 88.6871 169.887 88.4996 169.887C88.2156 169.887 87.9371 169.826 87.6644 169.704C87.3945 169.582 87.1701 169.396 86.9911 169.146C86.815 168.896 86.7269 168.58 86.7269 168.2V161.688ZM93.3171 169.938C92.6864 169.938 92.1424 169.799 91.685 169.521C91.2305 169.239 90.8796 168.847 90.6325 168.345C90.3881 167.839 90.266 167.251 90.266 166.58C90.266 165.91 90.3881 165.319 90.6325 164.808C90.8796 164.293 91.2234 163.893 91.6637 163.606C92.1069 163.316 92.6239 163.171 93.2148 163.171C93.5558 163.171 93.8924 163.228 94.2248 163.342C94.5572 163.455 94.8597 163.64 95.1325 163.896C95.4052 164.149 95.6225 164.484 95.7844 164.901C95.9464 165.319 96.0273 165.833 96.0273 166.444V166.87H90.9819V166.001H95.0046C95.0046 165.632 94.9308 165.302 94.783 165.012C94.6381 164.722 94.4308 164.494 94.1609 164.326C93.8938 164.159 93.5785 164.075 93.2148 164.075C92.8143 164.075 92.4677 164.174 92.1751 164.373C91.8853 164.569 91.6623 164.825 91.506 165.14C91.3498 165.455 91.2717 165.793 91.2717 166.154V166.734C91.2717 167.228 91.3569 167.647 91.5273 167.991C91.7006 168.332 91.9407 168.592 92.2475 168.771C92.5543 168.947 92.9109 169.035 93.3171 169.035C93.5813 169.035 93.82 168.998 94.033 168.924C94.2489 168.847 94.435 168.734 94.5913 168.583C94.7475 168.43 94.8683 168.239 94.9535 168.012L95.9251 168.285C95.8228 168.614 95.6509 168.904 95.4094 169.154C95.168 169.401 94.8697 169.595 94.5146 169.734C94.1594 169.87 93.7603 169.938 93.3171 169.938ZM97.5572 169.802V163.257H98.5288V164.245H98.5969C98.7163 163.921 98.9322 163.659 99.2447 163.457C99.5572 163.255 99.9094 163.154 100.301 163.154C100.375 163.154 100.468 163.156 100.578 163.159C100.689 163.161 100.773 163.166 100.83 163.171V164.194C100.796 164.185 100.718 164.173 100.596 164.156C100.476 164.136 100.35 164.126 100.216 164.126C99.8981 164.126 99.614 164.193 99.364 164.326C99.1168 164.457 98.9208 164.639 98.7759 164.872C98.6339 165.102 98.5629 165.364 98.5629 165.66V169.802H97.5572ZM107.574 163.257L105.153 169.802H104.13L101.71 163.257H102.801L104.608 168.472H104.676L106.483 163.257H107.574ZM108.901 169.802V163.257H109.907V169.802H108.901ZM109.412 162.166C109.216 162.166 109.047 162.099 108.905 161.965C108.766 161.832 108.696 161.671 108.696 161.484C108.696 161.296 108.766 161.136 108.905 161.002C109.047 160.869 109.216 160.802 109.412 160.802C109.608 160.802 109.776 160.869 109.915 161.002C110.057 161.136 110.128 161.296 110.128 161.484C110.128 161.671 110.057 161.832 109.915 161.965C109.776 162.099 109.608 162.166 109.412 162.166ZM114.493 169.938C113.862 169.938 113.318 169.799 112.861 169.521C112.406 169.239 112.055 168.847 111.808 168.345C111.564 167.839 111.442 167.251 111.442 166.58C111.442 165.91 111.564 165.319 111.808 164.808C112.055 164.293 112.399 163.893 112.839 163.606C113.283 163.316 113.8 163.171 114.391 163.171C114.732 163.171 115.068 163.228 115.401 163.342C115.733 163.455 116.036 163.64 116.308 163.896C116.581 164.149 116.798 164.484 116.96 164.901C117.122 165.319 117.203 165.833 117.203 166.444V166.87H112.158V166.001H116.18C116.18 165.632 116.107 165.302 115.959 165.012C115.814 164.722 115.607 164.494 115.337 164.326C115.07 164.159 114.754 164.075 114.391 164.075C113.99 164.075 113.643 164.174 113.351 164.373C113.061 164.569 112.838 164.825 112.682 165.14C112.526 165.455 112.447 165.793 112.447 166.154V166.734C112.447 167.228 112.533 167.647 112.703 167.991C112.876 168.332 113.116 168.592 113.423 168.771C113.73 168.947 114.087 169.035 114.493 169.035C114.757 169.035 114.996 168.998 115.209 168.924C115.425 168.847 115.611 168.734 115.767 168.583C115.923 168.43 116.044 168.239 116.129 168.012L117.101 168.285C116.999 168.614 116.827 168.904 116.585 169.154C116.344 169.401 116.045 169.595 115.69 169.734C115.335 169.87 114.936 169.938 114.493 169.938ZM120.216 169.802L118.222 163.257H119.278L120.693 168.268H120.761L122.159 163.257H123.233L124.614 168.251H124.682L126.097 163.257H127.153L125.159 169.802H124.17L122.739 164.774H122.636L121.205 169.802H120.216ZM133.119 164.722L132.216 164.978C132.159 164.828 132.075 164.681 131.964 164.539C131.857 164.394 131.709 164.275 131.521 164.181C131.334 164.087 131.094 164.041 130.801 164.041C130.401 164.041 130.067 164.133 129.8 164.318C129.536 164.499 129.403 164.731 129.403 165.012C129.403 165.262 129.494 165.46 129.676 165.605C129.858 165.749 130.142 165.87 130.528 165.967L131.5 166.205C132.085 166.347 132.521 166.565 132.808 166.857C133.095 167.147 133.239 167.521 133.239 167.978C133.239 168.353 133.131 168.688 132.915 168.984C132.702 169.279 132.403 169.512 132.02 169.683C131.636 169.853 131.19 169.938 130.682 169.938C130.014 169.938 129.462 169.793 129.024 169.504C128.587 169.214 128.31 168.791 128.193 168.234L129.148 167.995C129.239 168.347 129.411 168.612 129.663 168.788C129.919 168.964 130.253 169.052 130.665 169.052C131.134 169.052 131.506 168.953 131.781 168.754C132.06 168.552 132.199 168.31 132.199 168.029C132.199 167.802 132.119 167.612 131.96 167.458C131.801 167.302 131.557 167.185 131.227 167.109L130.136 166.853C129.537 166.711 129.097 166.491 128.815 166.193C128.537 165.891 128.398 165.515 128.398 165.063C128.398 164.694 128.501 164.367 128.709 164.083C128.919 163.799 129.205 163.576 129.565 163.414C129.929 163.252 130.341 163.171 130.801 163.171C131.449 163.171 131.957 163.313 132.327 163.597C132.699 163.882 132.963 164.257 133.119 164.722Z" fill="#5C5F63"/>
<path d="M132.355 78.2198C131.288 75.9259 129.732 74.1172 127.864 72.7938C126.441 71.8233 124.841 71.0733 123.107 70.544C120.484 69.7499 117.594 69.3529 114.348 69.1765C111.147 69 107.59 69 103.767 69C99.0094 69 94.7856 69 91.0509 69.3088C88.2499 69.5294 85.7157 69.9705 83.4927 70.7204C81.8032 71.2939 80.2915 72.088 78.9577 73.1467C77.9351 73.9407 77.0459 74.8671 76.2901 75.97C75.1786 77.6463 74.3338 79.6314 73.8003 81.9695C73.2668 84.3516 73 87.0867 73 90.2628C73 95.3359 73.8003 99.2621 75.3564 102.306C76.5124 104.6 78.0685 106.364 79.8914 107.688C81.2696 108.658 82.7813 109.408 84.3819 109.938C86.8272 110.776 89.4504 111.129 92.118 111.349C94.6522 111.526 97.2754 111.526 99.8541 111.526L118.661 124.583L111.992 111.349C114.482 111.349 116.838 111.261 119.105 111.04C121.284 110.776 123.329 110.379 125.197 109.585C126.619 109.011 127.953 108.217 129.109 107.158C130.843 105.57 132.221 103.453 133.155 100.674C134.044 97.8945 134.533 94.5419 134.533 90.307C134.533 85.2339 133.822 81.3077 132.355 78.2198ZM129.643 100.894C128.842 102.747 127.864 104.07 126.664 105.041C125.775 105.791 124.752 106.364 123.596 106.806C121.862 107.467 119.817 107.82 117.505 107.997C115.193 108.173 112.659 108.173 109.991 108.173C109.813 108.173 109.635 108.173 109.413 108.173H106.834L110.169 114.79L100.877 108.349H100.388C97.0976 108.349 93.8964 108.349 90.962 108.041C88.7835 107.82 86.7383 107.423 84.9599 106.806C83.626 106.32 82.4256 105.703 81.403 104.909C79.8469 103.673 78.5576 102.085 77.6683 99.7032C76.7347 97.3652 76.2012 94.2772 76.2012 90.2628C76.2012 85.4544 76.8236 81.9695 77.9351 79.5432C78.7799 77.6904 79.8469 76.367 81.2696 75.3524C82.3367 74.6025 83.5371 74.029 85.0043 73.5437C87.2273 72.882 89.895 72.5291 93.0517 72.3526C96.2083 72.1762 99.7652 72.1762 103.767 72.1762C108.302 72.1762 112.392 72.1762 115.86 72.485C118.483 72.7056 120.751 73.1026 122.662 73.7643C124.085 74.2495 125.33 74.8671 126.353 75.6612C127.153 76.2788 127.82 76.9846 128.442 77.8228C129.331 79.1021 130.043 80.6902 130.576 82.7194C131.065 84.7486 131.332 87.2631 131.332 90.307C131.332 94.983 130.71 98.4239 129.643 100.894Z" fill="#5C5F63"/>
<path d="M118.428 94.035C120.699 93.5054 122.108 91.2495 121.574 88.9964C121.04 86.7432 118.766 85.3459 116.496 85.8755C114.225 86.405 112.816 88.6609 113.35 90.9141C113.884 93.1673 116.157 94.5645 118.428 94.035Z" fill="#5C5F63"/>
<path d="M106.752 92.9115C108.402 91.2749 108.402 88.6214 106.752 86.9848C105.103 85.3482 102.429 85.3482 100.779 86.9848C99.1296 88.6214 99.1296 91.2749 100.779 92.9115C102.429 94.5481 105.103 94.5481 106.752 92.9115Z" fill="#5C5F63"/>
<path d="M93.9657 91.552C94.8636 89.4157 93.846 86.9617 91.6929 86.0708C89.5398 85.1799 87.0665 86.1896 86.1687 88.3259C85.2708 90.4622 86.2884 92.9162 88.4415 93.807C90.5946 94.6979 93.0679 93.6883 93.9657 91.552Z" fill="#5C5F63"/>
</svg>
