<svg width="92" height="73" viewBox="0 0 92 73" fill="none" xmlns="http://www.w3.org/2000/svg">
<g opacity="0.7">
<path d="M21.262 18.5801V8.67809C21.262 6.64775 22.9151 5.00018 24.9523 5.00018H66.6158C68.4861 5.00018 70.0391 6.39812 70.2729 8.21211H69.1206C68.9035 7.03052 67.8515 6.13184 66.6158 6.13184H24.9523C23.5496 6.13184 22.3974 7.28015 22.3974 8.67809V18.5801H21.262Z" fill="white"/>
<path d="M18.6904 66.3428C16.6531 66.3428 15 64.6952 15 62.6649V59.5528C15 59.2366 15.2505 58.987 15.5677 58.987H20.7777C21.0449 58.987 21.2453 58.7706 21.2453 58.521V38.2177H22.3808V58.5044C22.3808 58.7706 22.5979 58.9703 22.8484 58.9703H63.4765C63.7938 58.9703 64.0443 59.22 64.0443 59.5362V62.6482C64.0443 64.0462 65.1966 65.1945 66.5993 65.1945C68.0019 65.1945 69.1541 64.0462 69.1541 62.6482V58.9703H70.2896V62.6482C70.2896 64.6786 68.6365 66.3261 66.5993 66.3261H18.6904V66.3428ZM16.6197 60.1186C16.3526 60.1186 16.1522 60.335 16.1522 60.5846V62.6649C16.1522 64.0628 17.3044 65.2111 18.7071 65.2111H63.0256C63.1926 65.2111 63.3596 65.1279 63.4431 64.9781C63.5266 64.8284 63.5266 64.6453 63.4431 64.5122C63.1258 63.963 62.9422 63.3139 62.9422 62.6815V60.6013C62.9422 60.335 62.7251 60.1353 62.4746 60.1353H16.6197V60.1186Z" fill="white"/>
<path d="M15.5677 35.1889C15.2505 35.1889 15 34.9392 15 34.623V22.1581C15 21.8419 15.2505 21.5923 15.5677 21.5923H36.4078C36.7251 21.5923 36.9755 21.8419 36.9755 22.1581V34.623C36.9755 34.9392 36.7251 35.1889 36.4078 35.1889H15.5677ZM16.6197 22.7406C16.3526 22.7406 16.1522 22.9569 16.1522 23.2066V33.5912C16.1522 33.8575 16.3693 34.0572 16.6197 34.0572H35.3725C35.6397 34.0572 35.8401 33.8409 35.8401 33.5912V23.2066C35.8401 22.9403 35.623 22.7406 35.3725 22.7406H16.6197Z" fill="white"/>
<path d="M19.3418 28.7983C19.1247 28.582 19.1247 28.2158 19.3418 27.9995L21.0951 26.2521L21.8967 27.0509L20.878 28.0661C20.7945 28.1493 20.7445 28.2824 20.7445 28.3989C20.7445 28.5154 20.7945 28.6485 20.878 28.7317L21.8967 29.7469L21.0951 30.5457L19.3418 28.7983Z" fill="white"/>
<path d="M30.0957 29.7469L31.1143 28.7317C31.298 28.5487 31.298 28.2491 31.1143 28.0661L30.0957 27.0509L30.8972 26.2521L32.6506 27.9995C32.8677 28.2158 32.8677 28.582 32.6506 28.7983L30.8972 30.5457L30.0957 29.7469Z" fill="white"/>
<path d="M26.3089 25.5875L24.5237 30.9233L25.6008 31.2813L27.3861 25.9454L26.3089 25.5875Z" fill="white"/>
<path d="M40.5658 33.1253C40.2485 33.1253 39.998 32.8757 39.998 32.5595V11.7901C39.998 11.4739 40.2485 11.2243 40.5658 11.2243H75.9839C76.3012 11.2243 76.5517 11.4739 76.5517 11.7901V32.5595C76.5517 32.8757 76.3012 33.1253 75.9839 33.1253H40.5658V33.1253ZM50.9692 22.9237C50.8857 22.9237 50.8022 22.9403 50.7187 22.9903L41.3674 28.582C41.2171 28.6652 41.1336 28.815 41.1336 28.9814V31.511C41.1336 31.7773 41.3507 31.977 41.6011 31.977H74.9319C75.1991 31.977 75.3995 31.7606 75.3995 31.511V28.9981C75.3995 28.8316 75.316 28.6652 75.1657 28.582L68.887 25.004C68.8202 24.9707 68.7367 24.9374 68.6532 24.9374C68.5864 24.9374 68.5029 24.954 68.4361 24.9873L60.8882 28.8816C60.8048 28.9149 60.7212 28.9481 60.6211 28.9481C60.5042 28.9481 60.404 28.9148 60.3205 28.8649L51.203 22.9903C51.1529 22.9403 51.0527 22.9237 50.9692 22.9237ZM51.0025 21.609C51.1194 21.609 51.2197 21.6423 51.3032 21.6922L60.4541 27.6001C60.5376 27.6501 60.6211 27.6833 60.7045 27.6833C60.7713 27.6833 60.8549 27.6667 60.9217 27.6334L68.4361 23.7558C68.5196 23.7225 68.6031 23.6892 68.7032 23.6892C68.8034 23.6892 68.9037 23.7225 68.9872 23.7558L74.7148 27.0177C74.7816 27.0509 74.8652 27.0842 74.9487 27.0842C75.0322 27.0842 75.1156 27.0676 75.1824 27.0177C75.3327 26.9344 75.4162 26.7847 75.4162 26.6016V12.8219C75.4162 12.5557 75.1991 12.356 74.9487 12.356H41.6179C41.3507 12.356 41.1502 12.5723 41.1502 12.8219V26.5683C41.1502 26.7347 41.2338 26.9012 41.3841 26.9844C41.4509 27.0177 41.5344 27.0509 41.6179 27.0509C41.7014 27.0509 41.7848 27.0343 41.8683 26.9844L50.7187 21.6922C50.7855 21.6256 50.8856 21.609 51.0025 21.609Z" fill="white"/>
<path d="M64.0109 21.6921C62.2575 21.6921 60.8381 20.2775 60.8381 18.5301C60.8381 16.7827 62.2575 15.3681 64.0109 15.3681C65.7643 15.3681 67.1837 16.7827 67.1837 18.5301C67.1837 20.2775 65.7643 21.6921 64.0109 21.6921ZM64.0109 16.4998C62.8921 16.4998 61.9736 17.4151 61.9736 18.5301C61.9736 19.6451 62.8921 20.5604 64.0109 20.5604C65.1297 20.5604 66.0481 19.6451 66.0481 18.5301C66.0481 17.4151 65.1297 16.4998 64.0109 16.4998Z" fill="white"/>
<path d="M25.9877 51.7977C25.6704 51.7977 25.4199 51.5481 25.4199 51.2319V38.7669C25.4199 38.4507 25.6704 38.2011 25.9877 38.2011H52.0378C52.3551 38.2011 52.6055 38.4507 52.6055 38.7669V51.2319C52.6055 51.5481 52.3551 51.7977 52.0378 51.7977H25.9877ZM27.023 39.3494C26.7558 39.3494 26.5554 39.5658 26.5554 39.8154V50.2001C26.5554 50.4663 26.7725 50.666 27.023 50.666H50.9858C51.253 50.666 51.4533 50.4497 51.4533 50.2001V39.8154C51.4533 39.5491 51.2363 39.3494 50.9858 39.3494H27.023Z" fill="white"/>
<path d="M32.8176 42.3616H29.5947V43.4923H32.8176V42.3616Z" fill="white"/>
<path d="M44.273 42.3616H35.8401V43.4923H44.273V42.3616Z" fill="white"/>
<path d="M48.4309 42.3616H47.2954V43.4923H48.4309V42.3616Z" fill="white"/>
<path d="M41.1502 46.5221H29.5947V47.6528H41.1502V46.5221Z" fill="white"/>
<path d="M48.431 46.5221H44.1729V47.6528H48.431V46.5221Z" fill="white"/>
<path d="M26.5554 9.14392H25.4199V10.2746H26.5554V9.14392Z" fill="white"/>
<path d="M30.7302 9.14392H29.5947V10.2746H30.7302V9.14392Z" fill="white"/>
<path d="M34.8882 9.14392H33.7527V10.2746H34.8882V9.14392Z" fill="white"/>
<path d="M36.9754 13.3045H25.4199V14.4352H36.9754V13.3045Z" fill="white"/>
<path d="M56.1959 55.9582C55.8786 55.9582 55.6282 55.7085 55.6282 55.3923V42.9274C55.6282 42.6112 55.8786 42.3616 56.1959 42.3616H75.984C76.3013 42.3616 76.5517 42.6112 76.5517 42.9274V55.3923C76.5517 55.7085 76.3013 55.9582 75.984 55.9582H56.1959ZM57.248 43.4932C56.9808 43.4932 56.7804 43.7096 56.7804 43.9592V54.3439C56.7804 54.6102 56.9975 54.8099 57.248 54.8099H74.9653C75.2325 54.8099 75.433 54.5935 75.433 54.3439V43.9592C75.433 43.6929 75.2158 43.4932 74.9653 43.4932H57.248Z" fill="white"/>
<path d="M60.9382 46.5221H59.8027V47.6528H60.9382V46.5221Z" fill="white"/>
<path d="M60.9382 50.666H59.8027V51.7967H60.9382V50.666Z" fill="white"/>
<path d="M72.3936 46.5221H63.9607V47.6528H72.3936V46.5221Z" fill="white"/>
<path d="M72.3936 50.666H63.9607V51.7967H72.3936V50.666Z" fill="white"/>
<path d="M70.3064 36.1375H69.1709V39.3494H70.3064V36.1375Z" fill="white"/>
</g>
</svg>
