<svg width="92" height="73" viewBox="0 0 92 73" fill="none" xmlns="http://www.w3.org/2000/svg">
<g opacity="0.7">
<path d="M46.3816 51.0194C39.3236 51.0194 33.5225 45.2183 33.5225 38.1602V28.395C33.5225 27.9116 33.2324 27.5249 32.8457 27.3315C31.4921 26.7514 30.5252 25.5912 30.2352 24.2376H32.4589C33.1357 24.2376 33.6192 23.7542 33.6192 23.0774C33.6192 22.4006 33.1357 21.9171 32.4589 21.9171C30.3319 21.9171 28.4949 20.4669 27.9147 18.4365H53.4396C56.6302 18.4365 59.2407 21.047 59.2407 24.2376V38.2569C59.2407 45.2182 53.4396 51.0194 46.3816 51.0194ZM81.2849 70.3564L78.0943 63.8785C76.2573 60.3011 72.6799 58.0774 68.7158 58.0774H62.8181C58.6606 58.0774 55.2766 54.9834 54.6965 50.9227C58.854 48.2155 61.6578 43.5746 61.6578 38.1602V24.1409C61.6578 19.5967 57.9838 15.9227 53.4396 15.9227H26.5612C25.8844 15.9227 25.4009 16.4061 25.4009 17.0829C25.4009 19.21 26.3678 21.1437 27.8181 22.4006C27.7214 22.5939 27.7214 22.6906 27.7214 22.884C27.7214 25.3978 29.075 27.7182 31.202 28.9752V38.0636C31.202 43.3812 34.0059 48.1188 38.1634 50.826C37.6799 54.7901 34.1993 57.9807 30.0418 57.9807H24.144C20.1799 57.9807 16.5059 60.2044 14.7656 63.7818L11.4783 70.2597C11.3816 70.4531 11.3816 70.6464 11.3816 70.7431V71.9033H13.702V71.0332L16.8926 64.8453C18.2462 62.0415 21.0501 60.3011 24.2407 60.3011H30.1385C35.1661 60.3011 39.4203 56.7238 40.3871 51.9862C42.2241 52.7597 44.3512 53.2431 46.4783 53.2431C48.6053 53.2431 50.7324 52.7597 52.5694 51.9862C53.633 56.7238 57.7904 60.3011 62.8181 60.3011H68.7158C71.8098 60.3011 74.6136 62.0415 76.0639 64.8453L79.1578 71.1298V72H81.4783V70.8398C81.3816 70.6464 81.3816 70.5497 81.2849 70.3564Z" fill="#FFB950"/>
<path d="M46.3814 63.105L45.2212 61.558H47.5416L46.3814 63.105ZM52.0858 70.3563L48.7986 63.7818L50.8289 61.0746C51.119 60.6878 51.119 60.2044 50.9256 59.8177C50.7323 59.4309 50.3455 59.1409 49.8621 59.1409H42.9008C42.4173 59.1409 42.0306 59.4309 41.8372 59.8177C41.6439 60.2044 41.6439 60.6878 41.9339 61.0746L43.9643 63.7818L40.677 70.3563C40.5803 70.5497 40.5803 70.7431 40.5803 70.8398V72H42.9008V71.1298L45.6079 65.8121C45.8013 66.0055 46.0914 66.1989 46.4781 66.1989C46.7682 66.1989 47.0582 66.0055 47.3483 65.8121L50.0555 71.1298V72H52.3759V70.8398C52.2792 70.6464 52.1825 70.5497 52.0858 70.3563Z" fill="#FFB950"/>
<path d="M50.2488 7.02762L47.5416 9.73481V2H45.2212V9.73481L42.514 7.02762L40.8704 8.67127L45.5112 13.3122C45.7046 13.5055 45.9947 13.6989 46.3814 13.6989C46.7682 13.6989 46.9615 13.6022 47.2516 13.3122L51.8925 8.67127L50.2488 7.02762Z" fill="#FFB950"/>
<path d="M75.5802 30.0387H67.8454L70.5526 27.3315L68.909 25.6879L64.2681 30.3287C63.7847 30.8122 63.7847 31.489 64.2681 31.9724L68.909 36.6133L70.5526 34.9696L67.8454 32.2625H75.5802V30.0387Z" fill="#FFB950"/>
<path d="M28.5915 30.3287L23.9506 25.6879L22.3069 27.3315L25.0141 30.0387H17.2793V32.3591H25.0141L22.3069 35.0663L23.9506 36.71L28.5915 31.9724C28.9782 31.5857 28.9782 30.8122 28.5915 30.3287Z" fill="#FFB950"/>
<path d="M80.2213 30.0387H77.9009V32.3591H80.2213V30.0387Z" fill="#FFB950"/>
<path d="M14.8622 30.0387H12.5417V32.3591H14.8622V30.0387Z" fill="#FFB950"/>
<path d="M40.5806 35.8397C39.3237 35.8397 38.2601 34.7762 38.2601 33.5193C38.2601 32.2624 39.3237 31.1989 40.5806 31.1989C41.8375 31.1989 42.901 32.2624 42.901 33.5193C42.901 34.7762 41.8375 35.8397 40.5806 35.8397ZM40.5806 28.8784C37.9701 28.8784 35.9397 31.0055 35.9397 33.5193C35.9397 36.1298 38.0668 38.1602 40.5806 38.1602C43.1911 38.1602 45.2215 36.0331 45.2215 33.5193C45.2215 30.9088 43.1911 28.8784 40.5806 28.8784Z" fill="#FFB950"/>
<path d="M52.2796 35.8397C51.0226 35.8397 49.9591 34.7762 49.9591 33.5193C49.9591 32.2624 51.0226 31.1989 52.2796 31.1989C53.5365 31.1989 54.6 32.2624 54.6 33.5193C54.6 34.7762 53.5365 35.8397 52.2796 35.8397ZM52.2796 28.8784C49.6691 28.8784 47.6387 31.0055 47.6387 33.5193C47.6387 36.1298 49.7657 38.1602 52.2796 38.1602C54.8901 38.1602 56.9204 36.0331 56.9204 33.5193C56.9204 30.9088 54.7934 28.8784 52.2796 28.8784Z" fill="#FFB950"/>
<path d="M79.0613 12.5387C79.0613 13.2155 78.5779 13.6989 77.9011 13.6989H70.9398C70.7464 13.6989 70.5531 13.7956 70.3597 13.8923L66.2989 16.3094V14.8591C66.2989 14.1823 65.8155 13.6989 65.1387 13.6989H63.9785C63.3017 13.6989 62.8183 13.2155 62.8183 12.5387V5.48066C62.8183 4.80387 63.3017 4.32044 63.9785 4.32044H77.9011C78.5779 4.32044 79.0613 4.80387 79.0613 5.48066V12.5387ZM77.9011 2H63.8818C61.9481 2 60.4011 3.54696 60.4011 5.48066V12.442C60.4011 14.3757 61.9481 15.9227 63.8818 15.9227V18.2431C63.8818 18.6298 64.0752 19.0166 64.4619 19.2099C64.6553 19.3066 64.8486 19.4033 65.042 19.4033C65.2354 19.4033 65.4287 19.3066 65.6221 19.2099L71.2298 15.9227H77.9011C79.8348 15.9227 81.3818 14.3757 81.3818 12.442V5.48066C81.3818 3.54696 79.8348 2 77.9011 2Z" fill="#FFB950"/>
<path d="M67.3622 7.80109H65.0417V10.1215H67.3622V7.80109Z" fill="#FFB950"/>
<path d="M72.1 7.80109H69.7795V10.1215H72.1V7.80109Z" fill="#FFB950"/>
<path d="M76.7406 7.80109H74.4202V10.1215H76.7406V7.80109Z" fill="#FFB950"/>
<path d="M28.8817 52.1796C28.8817 52.8564 28.3982 53.3398 27.7214 53.3398H13.7021C13.0253 53.3398 12.5419 52.8564 12.5419 52.1796V47.5387C12.5419 46.8619 13.0253 46.3785 13.7021 46.3785H20.6634C20.9535 46.3785 21.2435 46.2818 21.4369 46.0884L25.8844 42.4144L25.401 45.0249C25.3043 45.4116 25.401 45.7017 25.5944 45.9917C25.7877 46.2818 26.1745 46.3785 26.4645 46.3785H27.6248C28.3015 46.3785 28.785 46.8619 28.785 47.5387V52.1796H28.8817ZM28.0115 44.058L28.8817 39.6105C28.9783 39.1271 28.785 38.6437 28.3015 38.3536C27.9148 38.0635 27.3347 38.1602 26.948 38.4503L20.2767 44.058H13.7021C11.7684 44.058 10.2214 45.605 10.2214 47.5387V52.1796C10.2214 54.1133 11.7684 55.6602 13.7021 55.6602H27.7214C29.6551 55.6602 31.2021 54.1133 31.2021 52.1796V47.5387C31.2021 45.7017 29.7518 44.1547 28.0115 44.058Z" fill="#FFB950"/>
<path d="M26.5612 48.6989H24.2407V51.0193H26.5612V48.6989Z" fill="#FFB950"/>
<path d="M21.9203 48.6989H19.5999V51.0193H21.9203V48.6989Z" fill="#FFB950"/>
<path d="M17.1827 48.6989H14.8623V51.0193H17.1827V48.6989Z" fill="#FFB950"/>
<path d="M52.2792 41.6409C52.2792 43.5746 50.7323 45.1215 48.7986 45.1215V47.442C51.9892 47.442 54.5997 44.8315 54.5997 41.6409H52.2792Z" fill="#FFB950"/>
<path d="M25.4009 10.2182C25.4009 10.895 24.9175 11.3785 24.2407 11.3785H23.0805C22.4037 11.3785 21.9203 11.8619 21.9203 12.5387V13.9889L17.8595 11.4751C17.6661 11.3785 17.4728 11.3785 17.1827 11.3785H14.8623C14.1855 11.3785 13.702 10.895 13.702 10.2182V5.48066C13.702 4.80387 14.1855 4.32044 14.8623 4.32044H24.2407C24.9175 4.32044 25.4009 4.80387 25.4009 5.48066V10.2182ZM24.2407 2H14.8623C12.9286 2 11.3816 3.54696 11.3816 5.48066V10.1215C11.3816 12.0552 12.9286 13.6022 14.8623 13.6022H16.8926L22.4037 16.9862C22.5971 17.0829 22.7904 17.1796 22.9838 17.1796C23.1772 17.1796 23.3705 17.0829 23.5639 16.9862C23.9507 16.7928 24.144 16.4061 24.144 16.0193V13.6989C26.0777 13.6989 27.6247 12.1519 27.6247 10.2182V5.48066C27.7214 3.54696 26.1744 2 24.2407 2Z" fill="#FFB950"/>
<path d="M23.0805 6.64087H20.76V8.96131H23.0805V6.64087Z" fill="#FFB950"/>
<path d="M18.3429 6.64087H16.0225V8.96131H18.3429V6.64087Z" fill="#FFB950"/>
<path d="M75.5806 52.1795C75.5806 52.8563 75.0972 53.3398 74.4204 53.3398H65.0419C64.3651 53.3398 63.8817 52.8563 63.8817 52.1795V47.5387C63.8817 46.8619 64.3651 46.3784 65.0419 46.3784H66.2988C66.9756 46.3784 67.4591 45.895 67.4591 45.2182V43.7679L71.5198 46.1851C71.7132 46.2818 71.9066 46.3784 72.0999 46.3784H74.4204C75.0972 46.3784 75.5806 46.8619 75.5806 47.5387V52.1795V52.1795ZM74.4204 44.058H72.39L66.879 40.674C66.4922 40.4806 66.1055 40.4806 65.7187 40.674C65.332 40.8674 65.1386 41.2541 65.1386 41.6409V43.9613C63.2049 43.9613 61.658 45.5083 61.658 47.442V52.0829C61.658 54.0166 63.2049 55.5635 65.1386 55.5635H74.5171C76.4508 55.5635 77.9977 54.0166 77.9977 52.0829V47.442C77.9011 45.605 76.3541 44.058 74.4204 44.058Z" fill="#FFB950"/>
<path d="M68.6193 48.6989H66.2988V51.0193H68.6193V48.6989Z" fill="#FFB950"/>
<path d="M73.2601 48.6989H70.9397V51.0193H73.2601V48.6989Z" fill="#FFB950"/>
</g>
</svg>
