<svg width="136" height="122" viewBox="0 0 136 122" fill="none" xmlns="http://www.w3.org/2000/svg">
<path d="M23.4481 45.3698L23.9491 44.2794L23.4823 44.0649L23.0049 44.2546L23.4481 45.3698ZM13.6381 50.7698L12.8183 49.8935L12.8037 49.9071L12.7896 49.9213L13.6381 50.7698ZM14.5381 64.9898L13.8255 65.9553L13.8323 65.9603L14.5381 64.9898ZM32.5381 65.3498L31.8255 64.3843L31.8197 64.3886L31.814 64.3929L32.5381 65.3498ZM32.7181 50.4998L31.9724 51.4401L31.983 51.4483L32.7181 50.4998ZM23.5381 37.0898L23.0164 38.1705L23.5451 38.4257L24.0711 38.1649L23.5381 37.0898ZM30.9181 19.5398L30.2072 20.5066L30.2107 20.5091L30.9181 19.5398ZM15.7981 19.6298L16.509 20.5966L16.5181 20.5899L16.527 20.583L15.7981 19.6298ZM16.0681 32.5898L15.2561 33.4734L15.2742 33.49L15.293 33.5059L16.0681 32.5898ZM19.0381 34.7498L18.3841 35.7559L18.4129 35.7746L18.4427 35.7917L19.0381 34.7498ZM33.0781 40.8698L32.4203 39.8662L30.5783 41.0735L32.5914 41.9667L33.0781 40.8698ZM38.4781 72.7298L37.8181 71.7276L37.8159 71.7291L38.4781 72.7298ZM8.59809 72.4598L9.28337 71.4747L9.275 71.4689L9.26654 71.4632L8.59809 72.4598ZM13.4581 40.9598L13.969 42.0456L16.004 41.0879L14.0755 39.9308L13.4581 40.9598ZM10.4881 11.8898L11.1219 12.9088L11.1241 12.9074L10.4881 11.8898ZM37.3081 12.0698L37.9926 11.0841L37.9811 11.0763L37.3081 12.0698ZM23.0049 44.2546C18.2947 46.1267 14.8494 47.9934 12.8183 49.8935L14.4579 51.6461C16.1468 50.0662 19.2415 48.3329 23.8913 46.485L23.0049 44.2546ZM12.7896 49.9213C10.6248 52.0861 9.55809 54.8306 9.55809 58.0598H11.9581C11.9581 55.409 12.8114 53.2935 14.4866 51.6183L12.7896 49.9213ZM9.55809 58.0598C9.55809 61.256 11.0464 63.904 13.8255 65.9553L15.2507 64.0243C12.9898 62.3556 11.9581 60.3835 11.9581 58.0598H9.55809ZM13.8323 65.9603C16.6837 68.0341 19.9324 69.0698 23.5381 69.0698V66.6698C20.4237 66.6698 17.6725 65.7855 15.2439 64.0193L13.8323 65.9603ZM23.5381 69.0698C27.4871 69.0698 30.7705 68.1923 33.2622 66.3067L31.814 64.3929C29.8657 65.8673 27.1491 66.6698 23.5381 66.6698V69.0698ZM33.2507 66.3153C36.1085 64.206 37.5181 61.1901 37.5181 57.4298H35.1181C35.1181 60.5095 34.0077 62.7736 31.8255 64.3843L33.2507 66.3153ZM37.5181 57.4298C37.5181 54.2581 36.1128 51.6125 33.4532 49.5513L31.983 51.4483C34.1234 53.1071 35.1181 55.0815 35.1181 57.4298H37.5181ZM33.4638 49.5596C31.6022 48.0832 28.3979 46.3234 23.9491 44.2794L22.9471 46.4602C27.3783 48.4962 30.354 50.1564 31.9724 51.44L33.4638 49.5596ZM24.0711 38.1649C27.7091 36.3612 30.5257 34.4475 32.4463 32.3978C34.3792 30.335 35.4481 28.0828 35.4481 25.6598H33.0481C33.0481 27.3168 32.332 29.0096 30.6949 30.7568C29.0455 32.5171 26.5071 34.2784 23.0051 36.0147L24.0711 38.1649ZM35.4481 25.6598C35.4481 22.7675 34.1132 20.3858 31.6255 18.5704L30.2107 20.5091C32.163 21.9338 33.0481 23.6321 33.0481 25.6598H35.4481ZM31.629 18.573C29.3552 16.9012 26.6372 16.0898 23.5381 16.0898V18.4898C26.199 18.4898 28.401 19.1784 30.2072 20.5066L31.629 18.573ZM23.5381 16.0898C20.2128 16.0898 17.3604 16.9245 15.0692 18.6766L16.527 20.583C18.3158 19.2151 20.6234 18.4898 23.5381 18.4898V16.0898ZM15.0872 18.663C12.7415 20.3878 11.5381 22.7559 11.5381 25.6598H13.9381C13.9381 23.5237 14.7747 21.8717 16.509 20.5966L15.0872 18.663ZM11.5381 25.6598C11.5381 28.633 12.8345 31.2481 15.2561 33.4734L16.88 31.7062C14.8617 29.8515 13.9381 27.8466 13.9381 25.6598H11.5381ZM15.293 33.5059C16.1232 34.2084 17.1572 34.9584 18.3841 35.7559L19.6921 33.7437C18.519 32.9812 17.573 32.2912 16.8432 31.6737L15.293 33.5059ZM18.4427 35.7917C19.7332 36.5291 21.259 37.3221 23.0164 38.1705L24.0598 36.0091C22.3372 35.1775 20.863 34.4105 19.6335 33.7079L18.4427 35.7917ZM32.5914 41.9667C36.7145 43.7959 39.7198 46.0803 41.6948 48.7786C43.6606 51.4642 44.6581 54.6305 44.6581 58.3298H47.0581C47.0581 54.1691 45.9256 50.4954 43.6314 47.361C41.3464 44.2393 37.9617 41.7237 33.5647 39.7729L32.5914 41.9667ZM44.6581 58.3298C44.6581 64.3244 42.3703 68.7298 37.8181 71.7276L39.1381 73.732C44.4259 70.2498 47.0581 65.0552 47.0581 58.3298H44.6581ZM37.8159 71.7291C33.9689 74.2748 29.2308 75.5798 23.5381 75.5798V77.9798C29.6054 77.9798 34.8273 76.5848 39.1403 73.7305L37.8159 71.7291ZM23.5381 75.5798C17.9242 75.5798 13.1925 74.1941 9.28337 71.4747L7.91282 73.4449C12.2837 76.4855 17.512 77.9798 23.5381 77.9798V75.5798ZM9.26654 71.4632C4.69171 68.3947 2.41809 64.0656 2.41809 58.3298H0.0180928C0.0180928 64.834 2.66448 69.9249 7.92965 73.4564L9.26654 71.4632ZM2.41809 58.3298C2.41809 54.6832 3.37485 51.5474 5.25902 48.8735C7.15074 46.1889 10.0268 43.9007 13.969 42.0456L12.9471 39.874C8.72937 41.8588 5.48545 44.3856 3.29717 47.4911C1.10134 50.6072 0.0180928 54.2364 0.0180928 58.3298H2.41809ZM14.0755 39.9308C7.44455 35.9522 4.30809 30.9307 4.30809 24.8498H1.90809C1.90809 31.9689 5.67163 37.6874 12.8407 41.9888L14.0755 39.9308ZM4.30809 24.8498C4.30809 19.7034 6.53759 15.76 11.1219 12.9088L9.85433 10.8708C4.5986 14.1396 1.90809 18.8362 1.90809 24.8498H4.30809ZM11.1241 12.9074C14.7593 10.6354 18.8858 9.4898 23.5381 9.4898V7.0898C18.4704 7.0898 13.8969 8.34422 9.85209 10.8722L11.1241 12.9074ZM23.5381 9.4898C28.8104 9.4898 33.153 10.7045 36.6351 13.0633L37.9811 11.0763C34.0232 8.39512 29.1858 7.0898 23.5381 7.0898V9.4898ZM36.6236 13.0554C40.6022 15.8183 42.5881 19.6999 42.5881 24.8498H44.9881C44.9881 18.9597 42.654 14.3213 37.9926 11.0842L36.6236 13.0554ZM42.5881 24.8498C42.5881 30.2894 39.3771 35.3062 32.4203 39.8662L33.7359 41.8734C41.0591 37.0734 44.9881 31.4102 44.9881 24.8498H42.5881Z" fill="#565555"/>
<circle cx="72.2162" cy="67.3563" r="53.2269" fill="white" stroke="black"/>
<path d="M90.0351 46.7032C89.7533 46.4348 89.4715 46.3616 88.7542 46.1664C88.7542 45.6296 88.7542 43.946 88.7542 43.3847C88.7286 42.1403 88.0625 41.4083 86.756 41.2619C86.4998 41.2375 86.2436 41.2375 85.9618 41.2375C80.6332 41.2375 75.3046 41.2375 69.9504 41.2619C69.3612 41.2619 68.9769 41.0911 68.7463 40.6275C68.0034 39.0903 66.7993 38.5291 65.0317 38.6755C63.3408 38.7975 61.5988 38.6999 59.8568 38.6755C58.7039 38.6511 57.8073 38.9927 57.2949 40.0419V65.3451C57.2949 66.0527 57.7048 66.7359 58.3965 67.0287C58.9345 67.2483 59.5493 67.3215 60.2154 67.3215C68.4645 67.2971 76.688 67.2971 84.9371 67.2971C86.5511 67.2971 87.1659 66.7359 87.4477 65.2231C88.2162 61.075 89.036 56.9269 89.8558 52.7789C90.0864 51.5589 90.3426 50.3388 90.5988 49.1188C90.5988 49.07 90.65 48.7284 90.6756 48.3624C90.7525 47.7768 90.5219 47.1424 90.0351 46.7032ZM58.6271 41.0667C58.6271 40.1883 58.7808 40.0419 59.6774 40.0419C61.8294 40.0419 63.9813 40.0175 66.1332 40.0663C66.415 40.0663 66.7737 40.2615 66.9787 40.4811C67.2861 40.8227 67.5166 41.2375 67.7728 41.6035C68.2339 42.3111 68.9 42.6039 69.7967 42.6039C75.2278 42.5795 81.12 42.6039 86.1412 42.6039C87.2427 42.6039 87.3452 42.6771 87.3452 43.7263C87.3452 44.1656 87.3452 45.776 87.3452 46.264C86.9609 46.264 86.6279 46.264 86.3461 46.264C78.5325 46.264 70.7189 46.2396 62.9053 46.2396C61.4451 46.2396 60.8046 46.752 60.5484 48.094C59.9848 51.1441 59.3956 54.1453 58.6783 57.1709C58.6527 57.0001 58.6271 56.8049 58.6271 56.6341C58.6271 51.8273 58.6271 45.8736 58.6271 41.0667ZM89.036 49.6556L85.9875 63.9786C85.5776 65.4183 85.0396 66.0283 83.0926 66.0283H60.7022C59.3444 66.0283 58.4477 65.1011 58.6783 63.9786L61.65 49.924C61.7013 49.7288 61.7525 49.5336 61.8037 49.3384C62.2905 47.8744 62.726 47.606 64.5961 47.606H87.0122C88.37 47.6304 89.2666 48.5332 89.036 49.6556Z" fill="#5C5F63"/>
<path d="M76.0218 62.9539C75.8425 63.1003 75.6632 63.1735 75.4838 63.1735C75.0483 63.1735 74.7665 63.0271 74.6641 62.6855L73.7162 59.5622H67.3885L65.2878 62.6855C65.0316 63.0271 64.7241 63.1735 64.3143 63.1735C63.8019 63.1735 63.6226 62.9539 63.6994 62.4903C63.7507 62.2219 63.8275 62.0023 64.0068 61.7583L71.3849 51.1441C71.6411 50.7781 71.8973 50.5829 72.2303 50.5829C72.5377 50.5829 72.7683 50.7781 72.8964 51.1441L76.3293 61.7583C76.3805 61.9779 76.4061 62.2219 76.3549 62.4903C76.3036 62.6855 76.2012 62.8319 76.0218 62.9539ZM71.718 53.1694L68.4644 57.9762H73.2294L71.718 53.1694Z" fill="#5C5F63"/>
<path d="M79.9414 63.1735C79.3778 63.1735 79.1728 62.8563 79.3009 62.1975L81.2735 51.5589C81.4016 50.9001 81.7091 50.5829 82.2727 50.5829C82.8363 50.5829 83.0668 50.9001 82.9387 51.5589L80.9661 62.1975C80.8636 62.8563 80.505 63.1735 79.9414 63.1735Z" fill="#5C5F63"/>
<path d="M43.742 82.808V83.69H56.258V82.808H43.742ZM46.094 77.698V78.44H54.76V77.698H46.094ZM46.094 79.378V80.134H54.802V79.378H46.094ZM45.926 75.906V76.774H55.334V75.906H45.926ZM49.706 76.396V81.422H50.728V76.396H49.706ZM49.44 81.688V87.12H50.49V81.688H49.44ZM49.216 83.13C47.942 84.39 45.478 85.566 43.392 86.098C43.63 86.308 43.938 86.7 44.092 86.98C46.15 86.336 48.642 85.006 50.028 83.55L49.216 83.13ZM50.728 83.13L49.916 83.55C51.302 84.964 53.78 86.252 55.866 86.868C56.02 86.602 56.314 86.21 56.538 86C54.438 85.482 51.988 84.362 50.728 83.13ZM50.364 74.24C50.168 74.842 49.762 75.71 49.426 76.27L50.35 76.466C50.714 75.934 51.148 75.15 51.54 74.408L50.364 74.24ZM46.71 74.226C46.08 75.5 44.932 77.138 43.364 78.37C43.602 78.51 43.952 78.832 44.134 79.07C45.8 77.67 46.976 75.962 47.802 74.422L46.71 74.226ZM45.436 76.48V81.94H55.88V81.1H46.444V76.48H45.436ZM57.714 77.278V78.272H61.97V77.278H57.714ZM59.59 74.24V87.106H60.556V74.24H59.59ZM59.576 77.866C59.212 79.868 58.316 82.29 57.42 83.564C57.588 83.802 57.84 84.194 57.966 84.474C58.932 83.074 59.814 80.302 60.22 78.09L59.576 77.866ZM60.472 79.238L60.038 79.658C60.374 80.204 61.326 81.856 61.62 82.542L62.18 81.772C61.928 81.38 60.78 79.616 60.472 79.238ZM63.188 83.858V84.642H69.236V83.858H63.188ZM63.118 85.762V86.574H69.292V85.762H63.118ZM65.638 74.254V77.012H66.646V74.254H65.638ZM65.666 82.36V86.21H66.59V82.36H65.666ZM62.166 76.522V78.79H63.104V77.376H69.278V78.79H70.258V76.522H62.166ZM62.53 81.926V87.12H63.496V82.738H68.858V87.092H69.866V81.926H62.53ZM64.392 79.098H68.088V80.386H64.392V79.098ZM63.468 78.328V81.156H69.068V78.328H63.468ZM62.796 74.73C63.16 75.29 63.524 76.046 63.664 76.536L64.574 76.214C64.434 75.71 64.042 74.982 63.664 74.436L62.796 74.73ZM68.592 74.38C68.382 74.94 67.976 75.738 67.668 76.242L68.452 76.536C68.788 76.074 69.194 75.374 69.572 74.716L68.592 74.38ZM80.044 74.24V79.742H81.094V74.24H80.044ZM78.224 85.454V86.42H83.222V85.454H78.224ZM76.796 76.228V77.194H84.44V76.228H76.796ZM77.244 79.294V80.26H84.132V79.294H77.244ZM77.692 81.786V87.106H78.672V82.738H82.718V87.078H83.74V81.786H77.692ZM73.73 74.254C73.366 75.178 72.722 76.522 72.19 77.334L72.918 77.642C73.464 76.886 74.136 75.64 74.668 74.604L73.73 74.254ZM75.424 75.85C74.654 77.334 73.324 79.434 72.246 80.68L72.918 81.03C73.982 79.826 75.354 77.81 76.334 76.242L75.424 75.85ZM71.518 77.194C72.274 77.866 73.156 78.832 73.534 79.49L74.094 78.692C73.716 78.076 72.834 77.152 72.05 76.494L71.518 77.194ZM74.976 79.098C75.55 80.022 76.11 81.24 76.32 82.024L77.16 81.632C76.95 80.862 76.348 79.658 75.76 78.762L74.976 79.098ZM71.49 80.512L71.574 81.45C72.876 81.394 74.64 81.282 76.376 81.17L76.39 80.316C74.57 80.4 72.75 80.47 71.49 80.512ZM75.326 82.444C75.718 83.312 76.096 84.446 76.222 85.174L77.076 84.88C76.922 84.152 76.53 83.046 76.124 82.192L75.326 82.444ZM72.26 82.248C72.092 83.48 71.812 84.726 71.35 85.58C71.574 85.678 71.994 85.874 72.176 85.986C72.624 85.09 72.974 83.732 73.17 82.416L72.26 82.248ZM73.87 80.918V87.162H74.822V80.918H73.87ZM91.454 74.254V75.864H92.504V74.254H91.454ZM91.426 81.618V87.12H92.49V81.618H91.426ZM86.12 75.29V77.32H87.1V76.186H96.928V77.32H97.936V75.29H86.12ZM85.952 77.656V78.524H98.09V77.656H85.952ZM85.728 82.78V83.69H98.286V82.78H85.728ZM90.726 76.354C89.886 77.544 88.668 79.112 87.786 80.092L88.766 80.414C89.606 79.42 90.81 77.894 91.72 76.648L90.726 76.354ZM88.598 79.994C91.342 80.526 94.94 81.52 96.774 82.262L97.404 81.492C95.43 80.736 91.86 79.826 89.2 79.336L88.598 79.994ZM91.048 83.256C89.9 84.502 87.576 85.622 85.462 86.084C85.686 86.28 85.98 86.686 86.134 86.938C88.262 86.364 90.572 85.09 91.832 83.606L91.048 83.256ZM92.91 83.228L92.14 83.592C93.428 85.104 95.794 86.378 97.922 86.952C98.076 86.686 98.37 86.294 98.608 86.07C96.466 85.608 94.1 84.502 92.91 83.228ZM94.422 78.146C93.624 80.036 91.804 80.988 86.33 81.324C86.47 81.534 86.638 81.926 86.666 82.164C92.406 81.758 94.576 80.624 95.542 78.146H94.422Z" fill="#5C5F63"/>
<path d="M62.7193 94H61.8386C61.7865 93.7467 61.6954 93.5241 61.5652 93.3324C61.4373 93.1406 61.2811 92.9796 61.0964 92.8494C60.9141 92.7169 60.7117 92.6174 60.4892 92.5511C60.2666 92.4848 60.0346 92.4517 59.7931 92.4517C59.3528 92.4517 58.9539 92.563 58.5964 92.7855C58.2413 93.008 57.9584 93.3359 57.7477 93.7692C57.5394 94.2024 57.4352 94.7339 57.4352 95.3636C57.4352 95.9934 57.5394 96.5249 57.7477 96.9581C57.9584 97.3913 58.2413 97.7192 58.5964 97.9418C58.9539 98.1643 59.3528 98.2756 59.7931 98.2756C60.0346 98.2756 60.2666 98.2424 60.4892 98.1761C60.7117 98.1098 60.9141 98.0116 61.0964 97.8814C61.2811 97.7488 61.4373 97.5866 61.5652 97.3949C61.6954 97.2008 61.7865 96.9782 61.8386 96.7273H62.7193C62.653 97.099 62.5323 97.4316 62.3571 97.7251C62.1819 98.0187 61.9641 98.2685 61.7037 98.4744C61.4432 98.678 61.1509 98.8331 60.8265 98.9396C60.5046 99.0462 60.1601 99.0994 59.7931 99.0994C59.1729 99.0994 58.6213 98.9479 58.1383 98.6449C57.6554 98.3419 57.2754 97.911 56.9984 97.3523C56.7214 96.7936 56.5829 96.1307 56.5829 95.3636C56.5829 94.5966 56.7214 93.9337 56.9984 93.375C57.2754 92.8163 57.6554 92.3854 58.1383 92.0824C58.6213 91.7794 59.1729 91.6278 59.7931 91.6278C60.1601 91.6278 60.5046 91.6811 60.8265 91.7876C61.1509 91.8942 61.4432 92.0504 61.7037 92.2564C61.9641 92.46 62.1819 92.7086 62.3571 93.0021C62.5323 93.2933 62.653 93.6259 62.7193 94ZM66.2447 99.1136C65.7522 99.1136 65.3202 98.9964 64.9485 98.7621C64.5792 98.5277 64.2904 98.1998 64.082 97.7784C63.8761 97.357 63.7731 96.8646 63.7731 96.3011C63.7731 95.733 63.8761 95.237 64.082 94.8132C64.2904 94.3894 64.5792 94.0604 64.9485 93.826C65.3202 93.5916 65.7522 93.4744 66.2447 93.4744C66.7371 93.4744 67.168 93.5916 67.5373 93.826C67.909 94.0604 68.1978 94.3894 68.4038 94.8132C68.6121 95.237 68.7163 95.733 68.7163 96.3011C68.7163 96.8646 68.6121 97.357 68.4038 97.7784C68.1978 98.1998 67.909 98.5277 67.5373 98.7621C67.168 98.9964 66.7371 99.1136 66.2447 99.1136ZM66.2447 98.3608C66.6187 98.3608 66.9265 98.2649 67.168 98.0732C67.4094 97.8814 67.5882 97.6293 67.7042 97.3168C67.8202 97.0043 67.8782 96.6657 67.8782 96.3011C67.8782 95.9366 67.8202 95.5968 67.7042 95.282C67.5882 94.9671 67.4094 94.7126 67.168 94.5185C66.9265 94.3243 66.6187 94.2273 66.2447 94.2273C65.8706 94.2273 65.5629 94.3243 65.3214 94.5185C65.0799 94.7126 64.9012 94.9671 64.7852 95.282C64.6692 95.5968 64.6112 95.9366 64.6112 96.3011C64.6112 96.6657 64.6692 97.0043 64.7852 97.3168C64.9012 97.6293 65.0799 97.8814 65.3214 98.0732C65.5629 98.2649 65.8706 98.3608 66.2447 98.3608ZM70.8336 91.7273V99H69.9956V91.7273H70.8336ZM73.2067 91.7273V99H72.3686V91.7273H73.2067ZM77.0286 99.1136C76.503 99.1136 76.0497 98.9976 75.6685 98.7656C75.2897 98.5312 74.9973 98.2045 74.7914 97.7855C74.5878 97.3641 74.486 96.8741 74.486 96.3153C74.486 95.7566 74.5878 95.2642 74.7914 94.8381C74.9973 94.4096 75.2838 94.0758 75.6507 93.8366C76.0201 93.5952 76.4509 93.4744 76.9434 93.4744C77.2275 93.4744 77.508 93.5218 77.785 93.6165C78.062 93.7112 78.3141 93.8651 78.5414 94.0781C78.7686 94.2888 78.9498 94.5682 79.0847 94.9162C79.2196 95.2642 79.2871 95.6927 79.2871 96.2017V96.5568H75.0826V95.8324H78.4348C78.4348 95.5246 78.3733 95.25 78.2502 95.0085C78.1294 94.767 77.9566 94.5765 77.7317 94.4368C77.5092 94.2971 77.2464 94.2273 76.9434 94.2273C76.6096 94.2273 76.3207 94.3101 76.0769 94.4759C75.8354 94.6392 75.6496 94.8523 75.5194 95.1151C75.3891 95.3778 75.324 95.6596 75.324 95.9602V96.4432C75.324 96.8551 75.3951 97.2043 75.5371 97.4908C75.6815 97.7749 75.8816 97.9915 76.1373 98.1406C76.3929 98.2874 76.69 98.3608 77.0286 98.3608C77.2488 98.3608 77.4476 98.33 77.6252 98.2685C77.8051 98.2045 77.9602 98.1098 78.0904 97.9844C78.2206 97.8565 78.3212 97.6979 78.3922 97.5085L79.2019 97.7358C79.1167 98.0104 78.9734 98.2519 78.7722 98.4602C78.571 98.6662 78.3224 98.8272 78.0265 98.9432C77.7305 99.0568 77.3979 99.1136 77.0286 99.1136ZM82.7779 99.1136C82.2665 99.1136 81.8262 98.9929 81.4569 98.7514C81.0875 98.5099 80.8034 98.1773 80.6046 97.7536C80.4057 97.3298 80.3063 96.8456 80.3063 96.3011C80.3063 95.7472 80.4081 95.2583 80.6117 94.8345C80.8176 94.4084 81.1041 94.0758 81.4711 93.8366C81.8404 93.5952 82.2712 93.4744 82.7637 93.4744C83.1472 93.4744 83.4928 93.5455 83.8006 93.6875C84.1084 93.8295 84.3605 94.0284 84.557 94.2841C84.7535 94.5398 84.8754 94.8381 84.9228 95.179H84.0847C84.0208 94.9304 83.8787 94.7102 83.6586 94.5185C83.4408 94.3243 83.1472 94.2273 82.7779 94.2273C82.4512 94.2273 82.1647 94.3125 81.9185 94.483C81.6747 94.651 81.4841 94.889 81.3468 95.1967C81.2118 95.5021 81.1444 95.8608 81.1444 96.2727C81.1444 96.6941 81.2106 97.0611 81.3432 97.3736C81.4782 97.6861 81.6676 97.9287 81.9114 98.1016C82.1576 98.2744 82.4464 98.3608 82.7779 98.3608C82.9957 98.3608 83.1934 98.3229 83.3709 98.2472C83.5485 98.1714 83.6988 98.0625 83.8219 97.9205C83.945 97.7784 84.0326 97.608 84.0847 97.4091H84.9228C84.8754 97.7311 84.7582 98.0211 84.5712 98.2791C84.3865 98.5348 84.1415 98.7384 83.8361 98.8899C83.5331 99.0391 83.1803 99.1136 82.7779 99.1136ZM88.5201 93.5455V94.2557H85.6934V93.5455H88.5201ZM86.5172 92.2386H87.3553V97.4375C87.3553 97.6742 87.3896 97.8518 87.4583 97.9702C87.5293 98.0862 87.6193 98.1643 87.7282 98.2045C87.8394 98.2424 87.9566 98.2614 88.0797 98.2614C88.1721 98.2614 88.2478 98.2566 88.307 98.2472C88.3662 98.2353 88.4135 98.2259 88.449 98.2188L88.6195 98.9716C88.5627 98.9929 88.4834 99.0142 88.3816 99.0355C88.2798 99.0592 88.1507 99.071 87.9945 99.071C87.7578 99.071 87.5257 99.0201 87.2985 98.9183C87.0736 98.8165 86.8865 98.6615 86.7374 98.4531C86.5906 98.2448 86.5172 97.982 86.5172 97.6648V92.2386ZM62.5506 111V103.727H66.9114V104.509H63.4313V106.966H66.5847V107.747H63.4313V111H62.5506ZM68.3061 111V105.545H69.1442V111H68.3061ZM68.7322 104.636C68.5689 104.636 68.428 104.581 68.3097 104.469C68.1937 104.358 68.1357 104.224 68.1357 104.068C68.1357 103.912 68.1937 103.778 68.3097 103.667C68.428 103.556 68.5689 103.5 68.7322 103.5C68.8956 103.5 69.0353 103.556 69.1513 103.667C69.2696 103.778 69.3288 103.912 69.3288 104.068C69.3288 104.224 69.2696 104.358 69.1513 104.469C69.0353 104.581 68.8956 104.636 68.7322 104.636ZM71.5172 103.727V111H70.6792V103.727H71.5172ZM75.3391 111.114C74.8136 111.114 74.3602 110.998 73.979 110.766C73.6003 110.531 73.3079 110.205 73.1019 109.786C72.8983 109.364 72.7965 108.874 72.7965 108.315C72.7965 107.757 72.8983 107.264 73.1019 106.838C73.3079 106.41 73.5943 106.076 73.9613 105.837C74.3306 105.595 74.7615 105.474 75.2539 105.474C75.538 105.474 75.8185 105.522 76.0955 105.616C76.3725 105.711 76.6246 105.865 76.8519 106.078C77.0792 106.289 77.2603 106.568 77.3952 106.916C77.5302 107.264 77.5977 107.693 77.5977 108.202V108.557H73.3931V107.832H76.7454C76.7454 107.525 76.6838 107.25 76.5607 107.009C76.44 106.767 76.2672 106.576 76.0423 106.437C75.8197 106.297 75.5569 106.227 75.2539 106.227C74.9201 106.227 74.6313 106.31 74.3874 106.476C74.146 106.639 73.9601 106.852 73.8299 107.115C73.6997 107.378 73.6346 107.66 73.6346 107.96V108.443C73.6346 108.855 73.7056 109.204 73.8477 109.491C73.9921 109.775 74.1921 109.991 74.4478 110.141C74.7035 110.287 75.0006 110.361 75.3391 110.361C75.5593 110.361 75.7582 110.33 75.9357 110.268C76.1156 110.205 76.2707 110.11 76.4009 109.984C76.5311 109.857 76.6317 109.698 76.7028 109.509L77.5124 109.736C77.4272 110.01 77.284 110.252 77.0827 110.46C76.8815 110.666 76.6329 110.827 76.337 110.943C76.0411 111.057 75.7085 111.114 75.3391 111.114ZM82.7362 106.767L81.9833 106.98C81.936 106.855 81.8661 106.733 81.7738 106.614C81.6838 106.494 81.5607 106.394 81.4045 106.316C81.2482 106.238 81.0482 106.199 80.8043 106.199C80.4705 106.199 80.1924 106.276 79.9698 106.43C79.7496 106.581 79.6396 106.774 79.6396 107.009C79.6396 107.217 79.7153 107.381 79.8668 107.502C80.0183 107.623 80.2551 107.723 80.5771 107.804L81.3867 108.003C81.8744 108.121 82.2378 108.302 82.4769 108.546C82.716 108.788 82.8356 109.099 82.8356 109.48C82.8356 109.793 82.7456 110.072 82.5657 110.318C82.3881 110.564 82.1396 110.759 81.82 110.901C81.5004 111.043 81.1287 111.114 80.7049 111.114C80.1486 111.114 79.6881 110.993 79.3235 110.751C78.9589 110.51 78.7281 110.157 78.631 109.693L79.4265 109.494C79.5022 109.788 79.6455 110.008 79.8562 110.155C80.0692 110.302 80.3474 110.375 80.6907 110.375C81.0813 110.375 81.3915 110.292 81.6211 110.126C81.8531 109.958 81.9691 109.757 81.9691 109.523C81.9691 109.333 81.9028 109.175 81.7702 109.047C81.6377 108.917 81.4341 108.82 81.1594 108.756L80.2504 108.543C79.7508 108.424 79.3839 108.241 79.1495 107.992C78.9175 107.741 78.8015 107.428 78.8015 107.051C78.8015 106.743 78.8879 106.471 79.0607 106.234C79.2359 105.998 79.4738 105.812 79.7745 105.677C80.0775 105.542 80.4208 105.474 80.8043 105.474C81.3441 105.474 81.7679 105.593 82.0756 105.83C82.3858 106.066 82.6059 106.379 82.7362 106.767Z" fill="#5C5F63"/>
</svg>
