<svg width="135" height="120" viewBox="0 0 135 120" fill="none" xmlns="http://www.w3.org/2000/svg">
<path d="M1.72061 63.35L2.17976 62.2413L0.704309 61.6303L0.527952 63.2175L1.72061 63.35ZM27.9106 64.34L27.2211 63.3579L27.2115 63.3646L27.202 63.3716L27.9106 64.34ZM10.3606 44.81H9.16061V46.01H10.3606V44.81ZM10.3606 35.81V34.61H9.16061V35.81H10.3606ZM25.6606 34.19L26.0898 35.3106L26.1009 35.3064L26.1118 35.3019L25.6606 34.19ZM30.8806 21.32L29.8463 21.9284L29.8592 21.9504L29.8731 21.9719L30.8806 21.32ZM28.3606 18.71L29.0263 17.7115L29.0263 17.7115L28.3606 18.71ZM24.4906 17L24.1546 18.1521L24.1671 18.1556L24.4906 17ZM4.78061 20.24L3.58572 20.3506L3.74234 22.0421L5.28423 21.3292L4.78061 20.24ZM3.88061 10.52L3.45794 9.3969L2.60134 9.71927L2.68572 10.6306L3.88061 10.52ZM34.7506 10.97L34.0926 11.9735L34.1004 11.9785L34.7506 10.97ZM31.2406 40.04L30.7077 38.9648L28.2335 40.1912L30.8182 41.1632L31.2406 40.04ZM34.6606 70.91L35.3827 71.8684L35.3884 71.8641L35.394 71.8598L34.6606 70.91ZM0.640612 73.07L-0.552048 72.9375L-0.651696 73.8343L0.182225 74.179L0.640612 73.07ZM1.26146 64.4587C7.30854 66.963 12.9561 68.24 18.1906 68.24V65.84C13.3451 65.84 8.01269 64.657 2.17976 62.2413L1.26146 64.4587ZM18.1906 68.24C22.3847 68.24 25.8968 67.3004 28.6192 65.3084L27.202 63.3716C25.0044 64.9796 22.0366 65.84 18.1906 65.84V68.24ZM28.6002 65.3221C31.7805 63.0891 33.3406 59.7889 33.3406 55.61H30.9406C30.9406 59.1111 29.6807 61.6309 27.2211 63.3579L28.6002 65.3221ZM33.3406 55.61C33.3406 51.6946 31.9479 48.5977 29.0581 46.5335C26.2427 44.5225 22.1672 43.61 17.0206 43.61V46.01C21.954 46.01 25.4385 46.8975 27.6631 48.4865C29.8133 50.0223 30.9406 52.3254 30.9406 55.61H33.3406ZM17.0206 43.61H10.3606V46.01H17.0206V43.61ZM11.5606 44.81V35.81H9.16061V44.81H11.5606ZM10.3606 37.01H13.0606V34.61H10.3606V37.01ZM13.0606 37.01C18.6846 37.01 23.0617 36.4703 26.0898 35.3106L25.2314 33.0694C22.6196 34.0697 18.5967 34.61 13.0606 34.61V37.01ZM26.1118 35.3019C28.3677 34.3865 30.1326 33.0296 31.3238 31.1997C32.5124 29.3738 33.0706 27.168 33.0706 24.65H30.6706C30.6706 26.812 30.1939 28.5362 29.3124 29.8903C28.4336 31.2404 27.0936 32.3135 25.2094 33.0781L26.1118 35.3019ZM33.0706 24.65C33.0706 23.2157 32.6721 21.8797 31.8881 20.6681L29.8731 21.9719C30.4091 22.8003 30.6706 23.6843 30.6706 24.65H33.0706ZM31.9149 20.7116C31.2144 19.5207 30.2422 18.5222 29.0263 17.7115L27.695 19.7085C28.639 20.3378 29.3468 21.0793 29.8463 21.9284L31.9149 20.7116ZM29.0263 17.7115C27.8226 16.9091 26.4122 16.2919 24.8142 15.8444L24.1671 18.1556C25.569 18.5481 26.7386 19.0709 27.695 19.7085L29.0263 17.7115ZM24.8266 15.848C23.2653 15.3926 21.5909 15.17 19.8106 15.17V17.57C21.3903 17.57 22.836 17.7674 24.1546 18.152L24.8266 15.848ZM19.8106 15.17C15.1433 15.17 9.95788 16.5241 4.277 19.1508L5.28423 21.3292C10.7633 18.7958 15.5979 17.57 19.8106 17.57V15.17ZM5.9755 20.1294L5.0755 10.4094L2.68572 10.6306L3.58572 20.3506L5.9755 20.1294ZM4.30328 11.6431C9.7622 9.58866 15.1093 8.57 20.3506 8.57V6.17C14.792 6.17 9.15902 7.25133 3.45794 9.3969L4.30328 11.6431ZM20.3506 8.57C26.138 8.57 30.6864 9.73996 34.0926 11.9735L35.4086 9.9665C31.4948 7.40004 26.4432 6.17 20.3506 6.17V8.57ZM34.1004 11.9785C38.2808 14.6738 40.3906 18.7118 40.3906 24.29H42.7906C42.7906 17.9882 40.3405 13.1462 35.4009 9.96144L34.1004 11.9785ZM40.3906 24.29C40.3906 27.6265 39.5808 30.4734 38.0003 32.8785C36.416 35.2894 34.0098 37.3281 30.7077 38.9648L31.7735 41.1152C35.3714 39.3319 38.1403 37.0356 40.006 34.1965C41.8755 31.3516 42.7906 28.0335 42.7906 24.29H40.3906ZM30.8182 41.1632C34.1313 42.4091 36.5407 44.267 38.1337 46.704C39.7313 49.1484 40.5706 52.2722 40.5706 56.15H42.9706C42.9706 51.9278 42.0549 48.3166 40.1426 45.391C38.2255 42.458 35.37 40.3109 31.663 38.9168L30.8182 41.1632ZM40.5706 56.15C40.5706 61.9721 38.3621 66.5358 33.9272 69.9602L35.394 71.8598C40.4391 67.9642 42.9706 62.6879 42.9706 56.15H40.5706ZM33.9385 69.9516C29.8134 73.0595 24.4755 74.66 17.8306 74.66V77.06C24.8657 77.06 30.7478 75.3605 35.3827 71.8684L33.9385 69.9516ZM17.8306 74.66C10.9656 74.66 5.40545 73.741 1.099 71.961L0.182225 74.179C4.87577 76.119 10.7756 77.06 17.8306 77.06V74.66ZM1.83327 73.2025L2.91327 63.4825L0.527952 63.2175L-0.552048 72.9375L1.83327 73.2025Z" fill="#565555"/>
<circle cx="76.7484" cy="65.4823" r="53.2269" fill="white" stroke="black"/>
<g clip-path="url(#clip0_861_5814)">
<path d="M84.7773 40.8405C83.7517 42.1703 80.621 46.5852 79.4065 50.4947C81.4307 50.0958 84.1025 47.8618 86.6934 44.9894C90.202 40.6543 95.0329 33.6862 94.7091 32.9947C94.6281 32.8086 94.1963 32.7554 93.5486 32.7554C92.9818 32.782 92.415 33.0213 92.0372 33.4203L90.5528 34.9628L91.2545 33.3671C91.2815 33.2873 91.2815 33.2341 91.2275 33.1543C91.1736 33.1011 91.0926 33.0745 91.0386 33.1011C88.4747 33.6596 85.1281 34.883 82.6182 36.7979C82.1054 37.1969 81.7815 37.8086 81.7815 38.4735L81.7545 41.0532L80.9449 38.7394C80.9179 38.6862 80.8639 38.633 80.8099 38.6064C80.729 38.5798 80.675 38.6064 80.621 38.6596C80.2162 39.1118 79.8383 39.5905 79.4875 40.0426C79.1366 40.5479 79.0017 41.1596 79.1096 41.7447L79.7574 44.7766L78.3 42.4894C78.273 42.4362 78.192 42.383 78.1111 42.4096C78.0301 42.4096 77.9761 42.4628 77.9491 42.516C76.6807 45.0692 76.2758 47.5692 76.8696 49.0586C75.1963 52.516 74.1437 56.7181 74.0088 64.9096C74.0088 65.016 74.0088 65.4149 74.0898 65.4415C74.1977 65.4415 74.3866 65.0692 74.3866 64.9628C75.1423 57.4628 75.817 54.883 77.7332 51.0798C79.0827 48.4203 81.2957 44.9628 84.7773 40.8405Z" fill="#5C5F63"/>
<path d="M57.5997 67.0376C60.1907 65.495 63.2134 64.6972 66.2361 64.6972C66.7489 64.6972 67.2617 64.7238 67.7745 64.777C67.8014 64.777 67.8284 64.8036 67.8554 64.8036C67.8824 64.8302 67.8824 64.8302 67.9094 64.8302L67.9634 64.8036H67.9094V64.8302L67.9634 64.8036H67.9094H67.9634H67.9094H67.9634H67.9094H67.9364H67.9094H67.9364H67.9094C67.9094 64.8036 67.9094 64.8302 67.8554 64.8833C67.8284 64.9365 67.7745 64.9897 67.6935 65.0695C67.2887 65.5216 66.8838 65.9738 66.479 66.3993C66.3441 66.5589 66.2631 66.745 66.2631 66.9312C66.2631 67.144 66.3441 67.3302 66.479 67.4897C66.56 67.5695 66.6409 67.6227 66.7489 67.6759C66.8568 67.7291 66.9648 67.7557 67.0728 67.7557V67.4631V67.7557V67.4631V67.7557H67.0997L73.7389 67.3568C73.7659 67.3568 73.7929 67.3568 73.8469 67.3568C73.9279 67.3568 73.9818 67.3568 74.0628 67.3568C74.1438 67.3568 74.2517 67.3833 74.4137 67.3833C74.7375 67.3833 75.0074 67.1174 75.0074 66.7982C75.0074 66.4791 74.7375 66.2131 74.4137 66.2131C74.3327 66.2131 74.2787 66.2131 74.1708 66.1865C74.0898 66.1865 73.9818 66.1599 73.8469 66.1599C73.7929 66.1599 73.7389 66.1599 73.685 66.1599L67.0728 66.5589L67.0997 67.144L67.1267 66.5589H67.0997V66.9046L67.2347 66.5855C67.1807 66.5589 67.1267 66.5589 67.0997 66.5589V66.9046L67.2347 66.5855L67.0997 66.9046L67.3966 66.7185C67.3696 66.6653 67.3157 66.6121 67.2347 66.5855L67.0997 66.9046L67.3966 66.7185L67.0997 66.9046H67.4506C67.4506 66.8248 67.4236 66.7716 67.3966 66.7185L67.0997 66.9046H67.4506H67.0997L67.3696 67.144C67.4236 67.0908 67.4506 66.9844 67.4506 66.9046H67.0997L67.3696 67.144C67.7745 66.6919 68.1793 66.2397 68.5841 65.8142C68.6651 65.7078 68.773 65.6014 68.881 65.4419C68.935 65.3621 68.9889 65.2557 69.0159 65.1493C69.0429 65.0429 69.0699 64.9099 69.0699 64.8036C69.0699 64.5908 68.9889 64.378 68.881 64.1919C68.773 64.0057 68.6111 63.8727 68.4222 63.7663C68.2333 63.6599 68.0443 63.6068 67.8554 63.5802C67.3157 63.527 66.7489 63.5004 66.2091 63.5004C62.9705 63.5004 59.7588 64.378 56.979 66.0004C56.7091 66.1599 56.6012 66.5323 56.7631 66.7982C56.952 67.0908 57.3299 67.1972 57.5997 67.0376Z" fill="#5C5F63"/>
</g>
<path d="M52.1815 79.073V80.011H59.2515V79.073H52.1815ZM51.9295 85.877V86.815H59.4335V85.877H51.9295ZM51.4535 81.775V87.389H52.4755V82.727H58.9575V87.389H60.0215V81.775H51.4535ZM55.6675 75.573C56.9835 77.365 59.4475 79.339 61.6455 80.487C61.8275 80.179 62.0795 79.815 62.3455 79.563C60.1055 78.569 57.6555 76.623 56.1435 74.537H55.0795C53.9735 76.343 51.6355 78.485 49.1715 79.731C49.4095 79.955 49.6895 80.333 49.8295 80.571C52.2235 79.269 54.5195 77.281 55.6675 75.573ZM69.8635 80.515C70.6475 81.523 71.4595 82.909 71.7675 83.791L72.6915 83.301C72.3555 82.405 71.5155 81.061 70.7175 80.081L69.8635 80.515ZM69.9475 77.029V78.023H75.2675V77.029H69.9475ZM74.8475 77.029V77.267C74.6235 83.315 74.3855 85.639 73.8955 86.143C73.7555 86.325 73.5735 86.353 73.2935 86.353C72.9435 86.353 72.0755 86.353 71.1515 86.269C71.3335 86.563 71.4595 87.011 71.4875 87.319C72.3275 87.375 73.1815 87.389 73.6575 87.347C74.1895 87.291 74.4975 87.179 74.8195 86.773C75.3935 86.073 75.6175 83.889 75.8555 77.575C75.8555 77.435 75.8555 77.029 75.8555 77.029H74.8475ZM70.4655 74.495C69.9475 76.357 69.0515 78.205 67.9595 79.381C68.2255 79.521 68.6875 79.829 68.8975 79.997C69.9615 78.723 70.9275 76.763 71.5435 74.733L70.4655 74.495ZM65.4395 74.509C65.0755 75.433 64.4315 76.777 63.8995 77.589L64.6275 77.897C65.1735 77.141 65.8455 75.895 66.3775 74.859L65.4395 74.509ZM67.1335 76.105C66.3635 77.589 65.0335 79.689 63.9555 80.935L64.6275 81.285C65.6915 80.081 67.0635 78.065 68.0435 76.497L67.1335 76.105ZM63.2275 77.449C63.9835 78.121 64.8655 79.087 65.2435 79.745L65.8035 78.947C65.4255 78.331 64.5435 77.407 63.7595 76.749L63.2275 77.449ZM66.6855 79.353C67.2595 80.277 67.8195 81.495 68.0295 82.279L68.8695 81.887C68.6595 81.117 68.0575 79.913 67.4695 79.017L66.6855 79.353ZM63.1995 80.767L63.2835 81.705C64.6135 81.635 66.3915 81.537 68.1695 81.425V80.571C66.3215 80.655 64.4595 80.725 63.1995 80.767ZM67.0355 82.699C67.4275 83.567 67.8055 84.701 67.9315 85.429L68.7855 85.135C68.6315 84.407 68.2395 83.301 67.8335 82.447L67.0355 82.699ZM63.9695 82.503C63.8015 83.735 63.5215 84.981 63.0595 85.835C63.2835 85.933 63.7035 86.129 63.8855 86.241C64.3335 85.345 64.6835 83.987 64.8795 82.671L63.9695 82.503ZM65.5795 81.173V87.417H66.5315V81.173H65.5795ZM81.5815 79.773V80.543H85.9635V79.773H81.5815ZM80.6715 84.043C80.0695 85.233 78.7535 86.129 77.2835 86.661C77.5075 86.843 77.8435 87.221 77.9835 87.417C79.4955 86.759 80.9375 85.723 81.6515 84.267L80.6715 84.043ZM83.7095 78.149C85.1375 79.507 87.6715 80.879 89.7435 81.565C89.8835 81.299 90.1215 80.935 90.3315 80.711C88.1615 80.081 85.7115 78.835 84.1295 77.337H83.1635C81.9875 78.681 79.6215 80.067 77.2275 80.865C77.4235 81.075 77.6475 81.439 77.7735 81.663C80.0975 80.823 82.4495 79.409 83.7095 78.149ZM80.0555 82.083H82.1695V83.469H80.0555V82.083ZM79.0475 81.313V84.225H83.2055V81.313H79.0475ZM85.1655 82.083H87.3495V83.469H85.1655V82.083ZM84.1715 81.313V84.225H88.3995V81.313H84.1715ZM80.1115 85.611C80.8395 85.947 81.7635 86.507 82.2395 86.913L82.8695 86.157C82.3795 85.779 81.4695 85.247 80.7275 84.939L80.1115 85.611ZM85.5295 84.043C85.0815 85.303 83.9335 86.185 82.5195 86.689C82.7295 86.857 83.0795 87.235 83.2055 87.417C84.6895 86.773 85.9775 85.737 86.5235 84.211L85.5295 84.043ZM85.0815 85.667C86.4955 86.101 88.2595 86.843 89.2115 87.389L89.9115 86.605C88.9175 86.101 87.1675 85.373 85.7675 84.953L85.0815 85.667ZM78.9915 75.713V76.539H83.3315V75.713H78.9915ZM84.2835 75.713V76.539H90.1215V75.713H84.2835ZM79.2855 74.439C78.8375 75.671 78.0815 76.903 77.2135 77.715C77.4655 77.855 77.8855 78.135 78.0815 78.289C78.9075 77.407 79.7475 76.063 80.2655 74.691L79.2855 74.439ZM84.7455 74.439C84.2835 75.461 83.4995 76.455 82.6175 77.113C82.8555 77.253 83.2895 77.533 83.4715 77.701C84.3395 76.987 85.2215 75.853 85.7395 74.691L84.7455 74.439ZM79.7895 76.329C80.1255 76.945 80.4615 77.785 80.5735 78.303L81.5255 78.023C81.3995 77.505 81.0215 76.679 80.6995 76.077L79.7895 76.329ZM85.6275 76.329C86.1455 76.917 86.7055 77.743 86.9295 78.275L87.9095 77.967C87.6575 77.421 87.0835 76.623 86.5655 76.049L85.6275 76.329ZM96.9815 75.741V76.749H104.163V75.741H96.9815ZM100.439 76.161V86.003C100.439 86.255 100.355 86.339 100.089 86.339C99.8235 86.353 98.9415 86.353 97.9895 86.311C98.1435 86.633 98.3255 87.095 98.3675 87.389C99.5995 87.389 100.397 87.375 100.859 87.193C101.321 87.025 101.489 86.717 101.489 86.003V76.161H100.439ZM91.8995 78.737V79.577H96.2675V78.737H91.8995ZM91.9835 74.999V75.839H96.2815V74.999H91.9835ZM91.8995 80.613V81.453H96.2675V80.613H91.8995ZM91.2415 76.833V77.701H96.8135V76.833H91.2415ZM92.3895 82.503V83.371H95.2875V85.709H92.3895V86.591H96.2255V82.503H92.3895ZM91.8855 82.503V87.235H92.8235V82.503H91.8855Z" fill="#5C5F63"/>
<path d="M60.2295 96.255H59.3489C59.2968 96.0017 59.2056 95.7792 59.0754 95.5874C58.9476 95.3956 58.7913 95.2346 58.6067 95.1044C58.4244 94.9719 58.222 94.8724 57.9994 94.8061C57.7769 94.7399 57.5449 94.7067 57.3034 94.7067C56.8631 94.7067 56.4641 94.818 56.1067 95.0405C55.7516 95.2631 55.4686 95.5909 55.2579 96.0242C55.0496 96.4574 54.9454 96.9889 54.9454 97.6186C54.9454 98.2484 55.0496 98.7799 55.2579 99.2131C55.4686 99.6463 55.7516 99.9742 56.1067 100.197C56.4641 100.419 56.8631 100.531 57.3034 100.531C57.5449 100.531 57.7769 100.497 57.9994 100.431C58.222 100.365 58.4244 100.267 58.6067 100.136C58.7913 100.004 58.9476 99.8417 59.0754 99.6499C59.2056 99.4558 59.2968 99.2332 59.3489 98.9823H60.2295C60.1632 99.354 60.0425 99.6866 59.8673 99.9801C59.6921 100.274 59.4743 100.523 59.2139 100.729C58.9535 100.933 58.6611 101.088 58.3368 101.195C58.0148 101.301 57.6704 101.354 57.3034 101.354C56.6831 101.354 56.1315 101.203 55.6486 100.9C55.1656 100.597 54.7856 100.166 54.5087 99.6073C54.2317 99.0486 54.0932 98.3857 54.0932 97.6186C54.0932 96.8516 54.2317 96.1887 54.5087 95.63C54.7856 95.0713 55.1656 94.6404 55.6486 94.3374C56.1315 94.0344 56.6831 93.8828 57.3034 93.8828C57.6704 93.8828 58.0148 93.9361 58.3368 94.0426C58.6611 94.1492 58.9535 94.3054 59.2139 94.5114C59.4743 94.715 59.6921 94.9636 59.8673 95.2571C60.0425 95.5483 60.1632 95.881 60.2295 96.255ZM63.7549 101.369C63.2625 101.369 62.8304 101.251 62.4588 101.017C62.0894 100.783 61.8006 100.455 61.5923 100.033C61.3863 99.612 61.2833 99.1196 61.2833 98.5561C61.2833 97.988 61.3863 97.492 61.5923 97.0682C61.8006 96.6444 62.0894 96.3154 62.4588 96.081C62.8304 95.8466 63.2625 95.7294 63.7549 95.7294C64.2474 95.7294 64.6782 95.8466 65.0475 96.081C65.4192 96.3154 65.7081 96.6444 65.914 97.0682C66.1224 97.492 66.2265 97.988 66.2265 98.5561C66.2265 99.1196 66.1224 99.612 65.914 100.033C65.7081 100.455 65.4192 100.783 65.0475 101.017C64.6782 101.251 64.2474 101.369 63.7549 101.369ZM63.7549 100.616C64.129 100.616 64.4367 100.52 64.6782 100.328C64.9197 100.136 65.0984 99.8843 65.2144 99.5718C65.3304 99.2593 65.3885 98.9207 65.3885 98.5561C65.3885 98.1916 65.3304 97.8518 65.2144 97.537C65.0984 97.2221 64.9197 96.9676 64.6782 96.7735C64.4367 96.5793 64.129 96.4823 63.7549 96.4823C63.3809 96.4823 63.0731 96.5793 62.8316 96.7735C62.5902 96.9676 62.4114 97.2221 62.2954 97.537C62.1794 97.8518 62.1214 98.1916 62.1214 98.5561C62.1214 98.9207 62.1794 99.2593 62.2954 99.5718C62.4114 99.8843 62.5902 100.136 62.8316 100.328C63.0731 100.52 63.3809 100.616 63.7549 100.616ZM68.3439 97.9738V101.255H67.5058V95.8005H68.3155V96.6527H68.3865C68.5143 96.3757 68.7085 96.1532 68.9689 95.9851C69.2293 95.8147 69.5655 95.7294 69.9774 95.7294C70.3467 95.7294 70.6699 95.8052 70.9469 95.9567C71.2239 96.1059 71.4393 96.3331 71.5932 96.6385C71.7471 96.9416 71.824 97.3251 71.824 97.7891V101.255H70.9859V97.8459C70.9859 97.4174 70.8747 97.0836 70.6521 96.8445C70.4296 96.603 70.1242 96.4823 69.7359 96.4823C69.4684 96.4823 69.2293 96.5403 69.0186 96.6563C68.8103 96.7723 68.6457 96.9416 68.525 97.1641C68.4043 97.3866 68.3439 97.6565 68.3439 97.9738ZM75.7276 95.8005V96.5107H72.9009V95.8005H75.7276ZM73.7247 94.4936H74.5628V99.6925C74.5628 99.9292 74.5971 100.107 74.6658 100.225C74.7368 100.341 74.8268 100.419 74.9357 100.46C75.0469 100.497 75.1641 100.516 75.2872 100.516C75.3796 100.516 75.4553 100.512 75.5145 100.502C75.5737 100.49 75.621 100.481 75.6566 100.474L75.827 101.227C75.7702 101.248 75.6909 101.269 75.5891 101.291C75.4873 101.314 75.3583 101.326 75.202 101.326C74.9653 101.326 74.7333 101.275 74.506 101.173C74.2811 101.072 74.0941 100.916 73.9449 100.708C73.7981 100.5 73.7247 100.237 73.7247 99.9198V94.4936ZM76.9882 101.255V95.8005H77.7979V96.6243H77.8547C77.9541 96.3544 78.1341 96.1354 78.3945 95.9674C78.6549 95.7993 78.9485 95.7152 79.2752 95.7152C79.3367 95.7152 79.4137 95.7164 79.506 95.7188C79.5983 95.7212 79.6682 95.7247 79.7155 95.7294V96.5817C79.6871 96.5746 79.622 96.564 79.5202 96.5497C79.4208 96.5332 79.3154 96.5249 79.2041 96.5249C78.939 96.5249 78.7023 96.5805 78.4939 96.6918C78.288 96.8007 78.1246 96.9522 78.0039 97.1463C77.8855 97.3381 77.8263 97.5571 77.8263 97.8033V101.255H76.9882ZM82.3141 101.383C81.9684 101.383 81.6547 101.318 81.373 101.188C81.0913 101.055 80.8676 100.864 80.7018 100.616C80.5361 100.365 80.4533 100.062 80.4533 99.7067C80.4533 99.3942 80.5148 99.1409 80.6379 98.9468C80.761 98.7503 80.9256 98.5964 81.1315 98.4851C81.3375 98.3738 81.5648 98.291 81.8133 98.2365C82.0643 98.1797 82.3164 98.1347 82.5697 98.1016C82.9012 98.059 83.1699 98.027 83.3758 98.0057C83.5842 97.982 83.7357 97.943 83.8304 97.8885C83.9275 97.8341 83.976 97.7394 83.976 97.6044V97.576C83.976 97.2256 83.8801 96.9534 83.6883 96.7593C83.4989 96.5651 83.2113 96.4681 82.8254 96.4681C82.4253 96.4681 82.1116 96.5557 81.8844 96.7309C81.6571 96.906 81.4973 97.0931 81.405 97.2919L80.6095 97.0078C80.7516 96.6764 80.9409 96.4184 81.1777 96.2337C81.4168 96.0467 81.6772 95.9165 81.9589 95.8431C82.243 95.7673 82.5224 95.7294 82.797 95.7294C82.9722 95.7294 83.1734 95.7507 83.4007 95.7934C83.6303 95.8336 83.8517 95.9176 84.0648 96.0455C84.2802 96.1733 84.4589 96.3663 84.601 96.6243C84.743 96.8824 84.8141 97.228 84.8141 97.6613V101.255H83.976V100.516H83.9334C83.8766 100.635 83.7819 100.761 83.6493 100.896C83.5167 101.031 83.3403 101.146 83.1202 101.241C82.9 101.335 82.6313 101.383 82.3141 101.383ZM82.4419 100.63C82.7733 100.63 83.0527 100.565 83.28 100.435C83.5096 100.304 83.6824 100.136 83.7984 99.9304C83.9168 99.7245 83.976 99.5078 83.976 99.2806V98.5135C83.9405 98.5561 83.8623 98.5952 83.7416 98.6307C83.6232 98.6639 83.4859 98.6935 83.3297 98.7195C83.1758 98.7432 83.0255 98.7645 82.8787 98.7834C82.7343 98.8 82.6171 98.8142 82.5271 98.826C82.3093 98.8544 82.1057 98.9006 81.9163 98.9645C81.7293 99.0261 81.5778 99.1196 81.4618 99.2451C81.3481 99.3682 81.2913 99.5363 81.2913 99.7493C81.2913 100.041 81.399 100.261 81.6145 100.41C81.8323 100.557 82.1081 100.63 82.4419 100.63ZM88.5596 101.369C88.0483 101.369 87.6079 101.248 87.2386 101.006C86.8693 100.765 86.5852 100.432 86.3863 100.009C86.1875 99.5848 86.088 99.1006 86.088 98.5561C86.088 98.0022 86.1898 97.5133 86.3934 97.0895C86.5994 96.6634 86.8858 96.3308 87.2528 96.0917C87.6221 95.8502 88.053 95.7294 88.5454 95.7294C88.9289 95.7294 89.2746 95.8005 89.5823 95.9425C89.8901 96.0846 90.1422 96.2834 90.3387 96.5391C90.5352 96.7948 90.6572 97.0931 90.7045 97.434H89.8664C89.8025 97.1854 89.6605 96.9652 89.4403 96.7735C89.2225 96.5793 88.9289 96.4823 88.5596 96.4823C88.2329 96.4823 87.9465 96.5675 87.7002 96.738C87.4564 96.906 87.2658 97.144 87.1285 97.4517C86.9936 97.7571 86.9261 98.1158 86.9261 98.5277C86.9261 98.9491 86.9924 99.3161 87.125 99.6286C87.2599 99.9411 87.4493 100.184 87.6931 100.357C87.9393 100.529 88.2282 100.616 88.5596 100.616C88.7774 100.616 88.9751 100.578 89.1527 100.502C89.3302 100.426 89.4805 100.318 89.6036 100.175C89.7268 100.033 89.8143 99.863 89.8664 99.6641H90.7045C90.6572 99.9861 90.54 100.276 90.3529 100.534C90.1683 100.79 89.9233 100.993 89.6179 101.145C89.3148 101.294 88.9621 101.369 88.5596 101.369ZM94.3018 95.8005V96.5107H91.4751V95.8005H94.3018ZM92.299 94.4936H93.137V99.6925C93.137 99.9292 93.1714 100.107 93.24 100.225C93.311 100.341 93.401 100.419 93.5099 100.46C93.6212 100.497 93.7384 100.516 93.8615 100.516C93.9538 100.516 94.0295 100.512 94.0887 100.502C94.1479 100.49 94.1953 100.481 94.2308 100.474L94.4012 101.227C94.3444 101.248 94.2651 101.269 94.1633 101.291C94.0615 101.314 93.9325 101.326 93.7762 101.326C93.5395 101.326 93.3075 101.275 93.0802 101.173C92.8553 101.072 92.6683 100.916 92.5191 100.708C92.3724 100.5 92.299 100.237 92.299 99.9198V94.4936ZM99.3284 97.0221L98.5756 97.2351C98.5282 97.1096 98.4584 96.9877 98.3661 96.8694C98.2761 96.7486 98.153 96.6492 97.9968 96.5711C97.8405 96.4929 97.6405 96.4539 97.3966 96.4539C97.0628 96.4539 96.7846 96.5308 96.5621 96.6847C96.3419 96.8362 96.2318 97.0292 96.2318 97.2635C96.2318 97.4719 96.3076 97.6364 96.4591 97.7571C96.6106 97.8779 96.8474 97.9785 97.1693 98.059L97.979 98.2578C98.4667 98.3762 98.8301 98.5573 99.0692 98.8012C99.3083 99.0426 99.4279 99.354 99.4279 99.7351C99.4279 100.048 99.3379 100.327 99.158 100.573C98.9804 100.819 98.7318 101.014 98.4122 101.156C98.0926 101.298 97.721 101.369 97.2972 101.369C96.7408 101.369 96.2804 101.248 95.9158 101.006C95.5512 100.765 95.3204 100.412 95.2233 99.9482L96.0188 99.7493C96.0945 100.043 96.2378 100.263 96.4485 100.41C96.6615 100.557 96.9397 100.63 97.283 100.63C97.6736 100.63 97.9837 100.547 98.2134 100.381C98.4454 100.213 98.5614 100.012 98.5614 99.7777C98.5614 99.5883 98.4951 99.4297 98.3625 99.3019C98.23 99.1717 98.0264 99.0746 97.7517 99.0107L96.8426 98.7976C96.3431 98.6792 95.9762 98.4958 95.7418 98.2472C95.5098 97.9962 95.3938 97.6826 95.3938 97.3061C95.3938 96.9984 95.4802 96.7261 95.653 96.4894C95.8282 96.2526 96.0661 96.0668 96.3668 95.9319C96.6698 95.7969 97.0131 95.7294 97.3966 95.7294C97.9364 95.7294 98.3602 95.8478 98.6679 96.0845C98.9781 96.3213 99.1982 96.6338 99.3284 97.0221Z" fill="#5C5F63"/>
<defs>
<clipPath id="clip0_861_5814">
<rect width="38" height="35" fill="white" transform="translate(56.7095 32.7554)"/>
</clipPath>
</defs>
</svg>
