<svg width="136" height="121" viewBox="0 0 136 121" fill="none" xmlns="http://www.w3.org/2000/svg">
<path d="M33.7911 51.5346V52.7346H34.9911V51.5346H33.7911ZM33.7911 21.6546H34.9911V17.5457L32.7798 21.0088L33.7911 21.6546ZM14.7111 51.5346L13.6998 50.8888L12.5211 52.7346H14.7111V51.5346ZM52.6011 60.5346V61.7346H53.8011V60.5346H52.6011ZM43.4211 60.5346V59.3346H42.2211V60.5346H43.4211ZM43.4211 75.4746V76.6746H44.6211V75.4746H43.4211ZM33.7911 75.4746H32.5911V76.6746H33.7911V75.4746ZM33.7911 60.5346H34.9911V59.3346H33.7911V60.5346ZM4.09114 60.5346H2.89114V61.7346H4.09114V60.5346ZM4.09114 52.0746L3.08699 51.4176L2.89114 51.7169V52.0746H4.09114ZM32.7111 8.33462V7.13462H32.0623L31.707 7.67759L32.7111 8.33462ZM43.4211 8.33462H44.6211V7.13462H43.4211V8.33462ZM43.4211 51.5346H42.2211V52.7346H43.4211V51.5346ZM52.6011 51.5346H53.8011V50.3346H52.6011V51.5346ZM34.9911 51.5346V21.6546H32.5911V51.5346H34.9911ZM32.7798 21.0088L13.6998 50.8888L15.7225 52.1805L34.8025 22.3005L32.7798 21.0088ZM14.7111 52.7346H33.7911V50.3346H14.7111V52.7346ZM52.6011 59.3346H43.4211V61.7346H52.6011V59.3346ZM42.2211 60.5346V75.4746H44.6211V60.5346H42.2211ZM43.4211 74.2746H33.7911V76.6746H43.4211V74.2746ZM34.9911 75.4746V60.5346H32.5911V75.4746H34.9911ZM33.7911 59.3346H4.09114V61.7346H33.7911V59.3346ZM5.29114 60.5346V52.0746H2.89114V60.5346H5.29114ZM5.09528 52.7317L33.7153 8.99166L31.707 7.67759L3.08699 51.4176L5.09528 52.7317ZM32.7111 9.53462H43.4211V7.13462H32.7111V9.53462ZM42.2211 8.33462V51.5346H44.6211V8.33462H42.2211ZM43.4211 52.7346H52.6011V50.3346H43.4211V52.7346ZM51.4011 51.5346V60.5346H53.8011V51.5346H51.4011Z" fill="#565555"/>
<circle cx="79.8495" cy="66.6812" r="53.2269" fill="white" stroke="black"/>
<g clip-path="url(#clip0_861_5800)">
<path d="M81.1983 69.2981H78.7766C78.552 69.2981 78.3772 69.1208 78.3772 68.8929V63.7517C78.3772 63.5237 78.552 63.3464 78.7766 63.3464H81.1983C81.423 63.3464 81.5977 63.5237 81.5977 63.7517V68.9182C81.5977 69.1208 81.423 69.2981 81.1983 69.2981Z" fill="#5C5F63"/>
<path d="M95.0292 69.5007H64.9709C64.871 69.5007 64.7961 69.4247 64.7961 69.3234V68.2851C64.7961 68.1838 64.871 68.1078 64.9709 68.1078H95.0292C95.129 68.1078 95.2039 68.1838 95.2039 68.2851V69.3234C95.1789 69.4247 95.1041 69.5007 95.0292 69.5007Z" fill="#5C5F63"/>
<path d="M80.1497 49.2901L76.28 60.7882L88.0137 58.4328L80.1497 49.2901Z" fill="#5C5F63"/>
<path d="M75.4107 45.2857L67.6863 42.6058L65.0445 50.4419L72.769 53.1218L75.4107 45.2857Z" fill="#5C5F63"/>
<path d="M90.7599 50.2021C92.6075 50.2021 94.1053 48.6827 94.1053 46.8084C94.1053 44.9341 92.6075 43.4147 90.7599 43.4147C88.9123 43.4147 87.4146 44.9341 87.4146 46.8084C87.4146 48.6827 88.9123 50.2021 90.7599 50.2021Z" fill="#5C5F63"/>
<path d="M97.5007 36.5004H62.4743C62.2247 36.5004 62 36.7536 62 37.0575V63.7007C62 64.0046 62.2247 64.2578 62.4743 64.2578H97.5007C97.7753 64.2578 97.975 64.0046 97.975 63.7007V37.0575C98 36.7536 97.7753 36.5004 97.5007 36.5004ZM96.6768 62.4344C96.6768 62.713 96.4771 62.9409 96.2275 62.9409H63.7476C63.4979 62.9409 63.2982 62.713 63.2982 62.4344V38.3239C63.2982 38.0453 63.4979 37.8173 63.7476 37.8173H96.2275C96.4771 37.8173 96.6768 38.0453 96.6768 38.3239V62.4344Z" fill="#5C5F63"/>
</g>
<path d="M66.3506 103H64.1063V95.7273H66.45C67.1555 95.7273 67.7592 95.8729 68.2611 96.1641C68.763 96.4529 69.1477 96.8684 69.4152 97.4105C69.6827 97.9503 69.8165 98.5966 69.8165 99.3494C69.8165 100.107 69.6816 100.759 69.4117 101.306C69.1418 101.851 68.7488 102.27 68.2327 102.563C67.7166 102.854 67.0892 103 66.3506 103ZM64.9869 102.219H66.2938C66.8951 102.219 67.3934 102.103 67.7888 101.871C68.1842 101.639 68.4789 101.308 68.673 100.88C68.8672 100.451 68.9642 99.9413 68.9642 99.3494C68.9642 98.7623 68.8683 98.2569 68.6766 97.8331C68.4848 97.407 68.1984 97.0803 67.8172 96.853C67.4361 96.6233 66.9614 96.5085 66.3932 96.5085H64.9869V102.219ZM73.4671 103.114C72.9415 103.114 72.4881 102.998 72.107 102.766C71.7282 102.531 71.4358 102.205 71.2298 101.786C71.0262 101.364 70.9244 100.874 70.9244 100.315C70.9244 99.7566 71.0262 99.2642 71.2298 98.8381C71.4358 98.4096 71.7223 98.0758 72.0892 97.8366C72.4585 97.5952 72.8894 97.4744 73.3818 97.4744C73.6659 97.4744 73.9465 97.5218 74.2235 97.6165C74.5004 97.7112 74.7526 97.8651 74.9798 98.0781C75.2071 98.2888 75.3882 98.5682 75.5232 98.9162C75.6581 99.2642 75.7256 99.6927 75.7256 100.202V100.557H71.521V99.8324H74.8733C74.8733 99.5246 74.8118 99.25 74.6887 99.0085C74.5679 98.767 74.3951 98.5765 74.1702 98.4368C73.9477 98.2971 73.6849 98.2273 73.3818 98.2273C73.048 98.2273 72.7592 98.3101 72.5154 98.4759C72.2739 98.6392 72.088 98.8523 71.9578 99.1151C71.8276 99.3778 71.7625 99.6596 71.7625 99.9602V100.443C71.7625 100.855 71.8335 101.204 71.9756 101.491C72.12 101.775 72.32 101.991 72.5757 102.141C72.8314 102.287 73.1285 102.361 73.4671 102.361C73.6872 102.361 73.8861 102.33 74.0637 102.268C74.2436 102.205 74.3986 102.11 74.5289 101.984C74.6591 101.857 74.7597 101.698 74.8307 101.509L75.6404 101.736C75.5551 102.01 75.4119 102.252 75.2107 102.46C75.0094 102.666 74.7609 102.827 74.4649 102.943C74.169 103.057 73.8364 103.114 73.4671 103.114ZM80.8641 98.767L80.1112 98.9801C80.0639 98.8546 79.9941 98.7327 79.9017 98.6143C79.8118 98.4936 79.6887 98.3942 79.5324 98.3161C79.3762 98.2379 79.1761 98.1989 78.9323 98.1989C78.5985 98.1989 78.3203 98.2758 78.0977 98.4297C77.8776 98.5812 77.7675 98.7741 77.7675 99.0085C77.7675 99.2169 77.8432 99.3814 77.9948 99.5021C78.1463 99.6229 78.383 99.7235 78.705 99.804L79.5146 100.003C80.0023 100.121 80.3657 100.302 80.6048 100.546C80.844 100.788 80.9635 101.099 80.9635 101.48C80.9635 101.793 80.8736 102.072 80.6936 102.318C80.5161 102.564 80.2675 102.759 79.9479 102.901C79.6283 103.043 79.2566 103.114 78.8328 103.114C78.2765 103.114 77.816 102.993 77.4514 102.751C77.0869 102.51 76.856 102.157 76.759 101.693L77.5544 101.494C77.6302 101.788 77.7734 102.008 77.9841 102.155C78.1972 102.302 78.4753 102.375 78.8186 102.375C79.2093 102.375 79.5194 102.292 79.749 102.126C79.981 101.958 80.097 101.757 80.097 101.523C80.097 101.333 80.0307 101.175 79.8982 101.047C79.7656 100.917 79.562 100.82 79.2874 100.756L78.3783 100.543C77.8788 100.424 77.5118 100.241 77.2774 99.9922C77.0454 99.7412 76.9294 99.4276 76.9294 99.0511C76.9294 98.7434 77.0158 98.4711 77.1887 98.2344C77.3638 97.9976 77.6018 97.8118 77.9024 97.6768C78.2055 97.5419 78.5487 97.4744 78.9323 97.4744C79.472 97.4744 79.8958 97.5928 80.2036 97.8295C80.5137 98.0663 80.7339 98.3788 80.8641 98.767ZM82.2251 103V97.5455H83.0631V103H82.2251ZM82.6512 96.6364C82.4878 96.6364 82.347 96.5807 82.2286 96.4695C82.1126 96.3582 82.0546 96.2244 82.0546 96.0682C82.0546 95.9119 82.1126 95.7782 82.2286 95.6669C82.347 95.5556 82.4878 95.5 82.6512 95.5C82.8145 95.5 82.9542 95.5556 83.0702 95.6669C83.1886 95.7782 83.2478 95.9119 83.2478 96.0682C83.2478 96.2244 83.1886 96.3582 83.0702 96.4695C82.9542 96.5807 82.8145 96.6364 82.6512 96.6364ZM86.7998 105.159C86.395 105.159 86.047 105.107 85.7558 105.003C85.4646 104.901 85.2219 104.766 85.0278 104.598C84.836 104.432 84.6833 104.255 84.5697 104.065L85.2373 103.597C85.3131 103.696 85.4089 103.81 85.5249 103.938C85.641 104.068 85.7996 104.18 86.0008 104.275C86.2044 104.372 86.4707 104.42 86.7998 104.42C87.2401 104.42 87.6035 104.314 87.89 104.101C88.1765 103.888 88.3197 103.554 88.3197 103.099V101.991H88.2487C88.1871 102.091 88.0995 102.214 87.9859 102.361C87.8746 102.505 87.7136 102.634 87.5029 102.748C87.2946 102.859 87.0129 102.915 86.6578 102.915C86.2174 102.915 85.8221 102.811 85.4717 102.602C85.1237 102.394 84.8479 102.091 84.6443 101.693C84.443 101.295 84.3424 100.812 84.3424 100.244C84.3424 99.6856 84.4407 99.1991 84.6372 98.7848C84.8337 98.3681 85.1071 98.0462 85.4575 97.8189C85.8079 97.5893 86.2127 97.4744 86.672 97.4744C87.0271 97.4744 87.3088 97.5336 87.5171 97.652C87.7278 97.768 87.8888 97.9006 88.0001 98.0497C88.1137 98.1965 88.2013 98.3172 88.2629 98.4119H88.3481V97.5455H89.1578V103.156C89.1578 103.625 89.0512 104.006 88.8382 104.3C88.6275 104.596 88.3434 104.812 87.9859 104.95C87.6308 105.089 87.2354 105.159 86.7998 105.159ZM86.7714 102.162C87.1076 102.162 87.3917 102.085 87.6237 101.931C87.8557 101.777 88.032 101.556 88.1528 101.267C88.2735 100.978 88.3339 100.633 88.3339 100.23C88.3339 99.8371 88.2747 99.4903 88.1563 99.1896C88.038 98.889 87.8628 98.6534 87.6308 98.483C87.3988 98.3125 87.1123 98.2273 86.7714 98.2273C86.4163 98.2273 86.1204 98.3172 85.8836 98.4972C85.6492 98.6771 85.4729 98.9186 85.3545 99.2216C85.2385 99.5246 85.1805 99.8608 85.1805 100.23C85.1805 100.609 85.2397 100.944 85.358 101.235C85.4788 101.524 85.6563 101.751 85.8907 101.917C86.1275 102.08 86.421 102.162 86.7714 102.162ZM91.5299 99.7188V103H90.6919V97.5455H91.5015V98.3977H91.5725C91.7004 98.1207 91.8945 97.8982 92.1549 97.7301C92.4153 97.5597 92.7515 97.4744 93.1634 97.4744C93.5328 97.4744 93.8559 97.5502 94.1329 97.7017C94.4099 97.8509 94.6253 98.0781 94.7792 98.3835C94.9331 98.6866 95.01 99.0701 95.01 99.5341V103H94.172V99.5909C94.172 99.1624 94.0607 98.8286 93.8382 98.5895C93.6156 98.348 93.3102 98.2273 92.922 98.2273C92.6544 98.2273 92.4153 98.2853 92.2046 98.4013C91.9963 98.5173 91.8318 98.6866 91.711 98.9091C91.5903 99.1316 91.5299 99.4015 91.5299 99.7188Z" fill="#5C5F63"/>
<path d="M58.444 77.688V79.382C58.444 80.362 58.234 81.524 56.89 82.392C57.1 82.532 57.506 82.896 57.646 83.092C59.144 82.098 59.452 80.614 59.452 79.396V77.688H58.444ZM61.86 77.688V81.146C61.86 82.14 62.112 82.42 62.966 82.42C63.148 82.42 63.764 82.42 63.946 82.42C64.702 82.42 64.954 81.986 65.038 80.348C64.772 80.278 64.352 80.124 64.156 79.97C64.128 81.314 64.072 81.496 63.834 81.496C63.694 81.496 63.232 81.496 63.12 81.496C62.896 81.496 62.854 81.44 62.854 81.132V77.688H61.86ZM59.2 84.296L58.262 84.59C59.382 87.334 61.468 89.266 64.38 90.12C64.52 89.854 64.828 89.434 65.066 89.21C62.252 88.496 60.166 86.704 59.2 84.296ZM63.12 83.316V83.484C62.28 86.592 59.746 88.482 56.918 89.196C57.114 89.42 57.38 89.868 57.492 90.12C60.558 89.224 63.19 87.208 64.184 83.54L63.512 83.274L63.33 83.316H63.12ZM57.534 83.316V84.268H63.526V83.316H57.534ZM58.864 77.688V78.626H62.364V77.688H58.864ZM52.69 81.482V82.322H56.862V81.482H52.69ZM52.76 77.744V78.584H56.834V77.744H52.76ZM52.69 83.358V84.198H56.862V83.358H52.69ZM52.032 79.578V80.446H57.352V79.578H52.032ZM53.194 85.248V86.116H55.938V88.454H53.194V89.336H56.862V85.248H53.194ZM52.676 85.248V89.98H53.586V85.248H52.676ZM71.576 82.042V83.078H79.094V82.042H71.576ZM74.866 77.282V90.12H75.93V77.282H74.866ZM66.69 81.482V82.322H71.058V81.482H66.69ZM66.774 77.744V78.584H71.072V77.744H66.774ZM66.69 83.358V84.198H71.058V83.358H66.69ZM66.032 79.578V80.446H71.604V79.578H66.032ZM67.18 85.248V86.116H70.078V88.454H67.18V89.336H71.016V85.248H67.18ZM66.676 85.248V89.98H67.614V85.248H66.676ZM80.606 78.682V79.592H85.772V78.682H80.606ZM80.424 86.382V87.292H85.912V86.382H80.424ZM86.108 79.998V80.978H91.148V79.998H86.108ZM80.074 80.922V81.846H86.332V80.922H80.074ZM80.27 84.002V84.912H86.136V84.002H80.27ZM82.734 77.24V81.286H83.714V77.24H82.734ZM82.734 84.282V90.092H83.714V84.282H82.734ZM85.982 83.68C87.41 84.604 89.09 85.99 89.846 86.956L90.476 86.13C89.692 85.164 87.984 83.834 86.556 82.952L85.982 83.68ZM84.638 81.804C84.484 82.406 84.162 83.302 83.91 83.862L84.694 84.1C84.974 83.554 85.268 82.77 85.548 82.042L84.638 81.804ZM81.04 82.042C81.334 82.7 81.614 83.568 81.684 84.114L82.524 83.848C82.454 83.316 82.16 82.462 81.838 81.832L81.04 82.042ZM90.644 79.998C90.63 85.458 90.462 89.602 91.96 90.092C92.674 90.358 93.108 89.826 93.192 87.334C93.024 87.222 92.716 86.9 92.52 86.676C92.506 87.964 92.408 89.098 92.31 89.07C91.498 88.86 91.582 85.01 91.666 79.998H90.644ZM88.026 77.254V81.468C88.026 84.072 87.732 87.278 84.778 89.504C85.016 89.658 85.408 89.952 85.576 90.148C88.656 87.782 89.02 84.352 89.02 81.482V77.254H88.026ZM99.59 78.094V79.102H106.464V78.094H99.59ZM103.678 82.266V88.762C103.678 89 103.594 89.056 103.314 89.07C103.062 89.084 102.124 89.084 101.13 89.056C101.284 89.364 101.424 89.798 101.466 90.092C102.838 90.092 103.636 90.078 104.112 89.924C104.588 89.756 104.742 89.434 104.742 88.776V82.266H103.678ZM98.974 81.958V82.952H106.87V81.958H98.974ZM96.174 83.036V90.162H97.224V82.182L97.098 82.126L96.174 83.036ZM97.798 80.236C96.832 81.846 95.292 83.47 93.836 84.506C94.06 84.702 94.424 85.164 94.578 85.374C96.048 84.198 97.7 82.392 98.792 80.614L97.798 80.236ZM97.224 77.24C96.51 78.248 95.152 79.508 93.99 80.292C94.172 80.502 94.452 80.908 94.606 81.132C95.852 80.236 97.294 78.878 98.232 77.646L97.224 77.24Z" fill="#5C5F63"/>
<defs>
<clipPath id="clip0_861_5800">
<rect width="36" height="33" fill="white" transform="translate(62 36.5004)"/>
</clipPath>
</defs>
</svg>
