<svg width="135" height="120" viewBox="0 0 135 120" fill="none" xmlns="http://www.w3.org/2000/svg">
<path d="M30.9745 75.7304V76.9304H32.1745V75.7304H30.9745ZM21.2545 75.7304H20.0545V76.9304H21.2545V75.7304ZM21.2545 21.1004H22.4545V18.5243L20.4824 20.1817L21.2545 21.1004ZM12.7945 28.2104L11.9083 29.0195L12.6849 29.87L13.5666 29.129L12.7945 28.2104ZM7.12449 22.0004L6.34656 21.0867L5.40065 21.8921L6.23831 22.8095L7.12449 22.0004ZM22.8745 8.59036V7.39036H22.4328L22.0966 7.67668L22.8745 8.59036ZM30.9745 8.59036H32.1745V7.39036H30.9745V8.59036ZM30.9745 74.5304H21.2545V76.9304H30.9745V74.5304ZM22.4545 75.7304V21.1004H20.0545V75.7304H22.4545ZM20.4824 20.1817L12.0224 27.2917L13.5666 29.129L22.0266 22.019L20.4824 20.1817ZM13.6807 27.4012L8.01067 21.1912L6.23831 22.8095L11.9083 29.0195L13.6807 27.4012ZM7.90243 22.914L23.6524 9.50404L22.0966 7.67668L6.34656 21.0867L7.90243 22.914ZM22.8745 9.79036H30.9745V7.39036H22.8745V9.79036ZM29.7745 8.59036V75.7304H32.1745V8.59036H29.7745Z" fill="#565555"/>
<path d="M134.5 66.5004C134.5 95.4865 110.556 119 81 119C51.4439 119 27.5 95.4865 27.5 66.5004C27.5 37.5142 51.4439 14.0004 81 14.0004C110.556 14.0004 134.5 37.5142 134.5 66.5004Z" fill="white" stroke="black"/>
<path d="M57.2504 84.436V90.12H58.2724V85.402H62.9624V90.064H64.0264V84.436H57.2504ZM57.7404 88.524V89.49H63.5504V88.524H57.7404ZM57.9784 81.804V82.756H63.2844V81.804H57.9784ZM60.5684 78.402C61.4924 79.97 63.1864 81.776 64.7544 82.868C64.9224 82.546 65.1744 82.182 65.3984 81.93C63.8164 80.95 62.0804 79.102 61.0164 77.31H59.9944C59.2244 78.976 57.5444 80.978 55.8084 82.14C56.0184 82.35 56.2984 82.742 56.4244 83.008C58.1604 81.804 59.7284 79.956 60.5684 78.402ZM53.1064 78.122C54.0024 78.542 55.0944 79.228 55.6404 79.746L56.2424 78.892C55.7104 78.388 54.5904 77.744 53.6804 77.366L53.1064 78.122ZM52.3504 81.916C53.2604 82.308 54.3804 82.952 54.9264 83.442L55.5284 82.574C54.9544 82.098 53.8204 81.482 52.9104 81.132L52.3504 81.916ZM52.7984 89.238L53.6944 89.924C54.4784 88.636 55.4024 86.872 56.1024 85.402L55.3184 84.73C54.5344 86.326 53.5124 88.16 52.7984 89.238ZM74.7084 80.81C76.0104 81.608 77.7044 82.756 78.5164 83.512L79.2164 82.714C78.3484 81.972 76.6544 80.866 75.3664 80.124L74.7084 80.81ZM75.4504 83.064H74.9184V85.08C74.9184 85.892 74.4144 88.16 71.1524 89.294C71.3484 89.504 71.6424 89.91 71.7544 90.134C74.2324 89.238 75.2264 87.474 75.4364 86.62C75.6464 87.46 76.5844 89.294 78.7404 90.134C78.8804 89.896 79.1744 89.49 79.3704 89.238C76.4444 88.16 75.9684 85.878 75.9684 85.08V83.064H75.4504ZM75.0024 77.254C74.8764 80.236 74.4704 81.916 71.5864 82.784C71.8104 82.994 72.0764 83.372 72.1744 83.624C75.3384 82.56 75.8704 80.614 76.0384 77.254H75.0024ZM72.9304 78.178C72.8044 79.088 72.3984 80.012 71.8244 80.502L72.6364 80.894C73.2944 80.32 73.6724 79.298 73.8124 78.374L72.9304 78.178ZM72.7904 84.212C72.6084 85.206 72.1604 86.172 71.4744 86.662L72.3144 87.166C73.0844 86.55 73.5324 85.458 73.7144 84.394L72.7904 84.212ZM77.9284 78.108C77.6764 78.794 77.1584 79.788 76.7524 80.39L77.5364 80.712C77.9564 80.138 78.4884 79.256 78.9364 78.472L77.9284 78.108ZM78.0824 84.114C77.7744 84.856 77.2144 85.92 76.7804 86.564L77.5784 86.9C78.0544 86.284 78.6284 85.304 79.1044 84.478L78.0824 84.114ZM67.0084 81.482V82.322H71.1104V81.482H67.0084ZM67.0504 77.744V78.584H71.0544V77.744H67.0504ZM67.0084 83.358V84.198H71.1104V83.358H67.0084ZM66.3504 79.578V80.446H71.5724V79.578H66.3504ZM67.4704 85.248V86.116H70.1864V88.454H67.4704V89.336H71.1104V85.248H67.4704ZM66.9944 85.248V89.98H67.9044V85.248H66.9944ZM81.6944 77.814V78.654H91.9284V77.814H81.6944ZM80.7144 84.016V84.87H92.9504V84.016H80.7144ZM82.5204 81.006V81.72H85.5444V81.006H82.5204ZM82.2264 82.476V83.19H85.5444V82.476H82.2264ZM88.0084 82.476V83.19H91.4384V82.476H88.0084ZM88.0084 81.006V81.72H91.1024V81.006H88.0084ZM86.2584 78.136V83.554H87.2804V78.136H86.2584ZM84.8724 86.424V90.022H85.8524V86.424H84.8724ZM87.9804 86.424V90.022H88.9464V86.424H87.9804ZM80.8824 79.466V82.154H81.8344V80.236H91.7744V82.154H92.7684V79.466H80.8824ZM81.8064 85.878V90.106H82.8004V86.746H91.4104V85.878H81.8064ZM91.1444 85.878V89.07C91.1444 89.196 91.1024 89.238 90.9484 89.252C90.7944 89.266 90.3184 89.266 89.7584 89.252C89.8844 89.504 90.0384 89.868 90.0804 90.12C90.8504 90.12 91.3684 90.134 91.7184 89.966C92.0824 89.812 92.1524 89.56 92.1524 89.084V85.878H91.1444ZM86.2724 84.338C86.1744 84.912 85.9224 85.752 85.7124 86.326L86.6364 86.424C86.8744 85.906 87.1684 85.136 87.4204 84.38L86.2724 84.338ZM94.7144 79.592V80.614H106.964V79.592H94.7144ZM101.238 80.502L100.412 80.754C101.56 84.436 103.618 87.642 106.6 89.098C106.768 88.79 107.118 88.384 107.37 88.174C104.444 86.9 102.288 83.862 101.238 80.502ZM105.438 81.188C104.682 82.224 103.38 83.582 102.428 84.38L103.17 84.954C104.15 84.156 105.424 82.91 106.348 81.846L105.438 81.188ZM102.638 77.954C103.534 78.43 104.654 79.13 105.2 79.62L105.872 78.864C105.284 78.402 104.136 77.744 103.282 77.296L102.638 77.954ZM95.4704 81.986C96.3384 82.756 97.3044 83.876 97.7244 84.604L98.5784 84.002C98.1444 83.26 97.1364 82.196 96.2824 81.454L95.4704 81.986ZM100.244 77.282V88.706C100.244 88.972 100.146 89.042 99.8944 89.056C99.6144 89.07 98.7044 89.07 97.7244 89.042C97.8924 89.364 98.0604 89.854 98.1164 90.148C99.3484 90.148 100.188 90.134 100.664 89.938C101.126 89.77 101.322 89.448 101.322 88.706V77.282H100.244ZM94.3364 87.824L94.9804 88.762C96.2264 88.062 97.8784 87.082 99.3904 86.144L99.0544 85.206C97.3464 86.2 95.5124 87.222 94.3364 87.824Z" fill="#5C5F63"/>
<path d="M58.818 95.7273V103H57.9373V95.7273H58.818ZM61.3082 99.7188V103H60.4702V97.5455H61.2798V98.3977H61.3509C61.4787 98.1207 61.6728 97.8982 61.9332 97.7301C62.1937 97.5597 62.5298 97.4744 62.9418 97.4744C63.3111 97.4744 63.6342 97.5502 63.9112 97.7017C64.1882 97.8509 64.4036 98.0781 64.5575 98.3835C64.7114 98.6866 64.7884 99.0701 64.7884 99.5341V103H63.9503V99.5909C63.9503 99.1624 63.839 98.8286 63.6165 98.5895C63.3939 98.348 63.0885 98.2273 62.7003 98.2273C62.4328 98.2273 62.1937 98.2853 61.983 98.4013C61.7746 98.5173 61.6101 98.6866 61.4893 98.9091C61.3686 99.1316 61.3082 99.4015 61.3082 99.7188ZM68.6919 97.5455V98.2557H65.8652V97.5455H68.6919ZM66.6891 96.2386H67.5272V101.438C67.5272 101.674 67.5615 101.852 67.6301 101.97C67.7012 102.086 67.7911 102.164 67.9 102.205C68.0113 102.242 68.1285 102.261 68.2516 102.261C68.3439 102.261 68.4197 102.257 68.4789 102.247C68.5381 102.235 68.5854 102.226 68.6209 102.219L68.7914 102.972C68.7346 102.993 68.6552 103.014 68.5534 103.036C68.4516 103.059 68.3226 103.071 68.1664 103.071C67.9296 103.071 67.6976 103.02 67.4703 102.918C67.2454 102.817 67.0584 102.661 66.9093 102.453C66.7625 102.245 66.6891 101.982 66.6891 101.665V96.2386ZM72.1809 103.114C71.6554 103.114 71.202 102.998 70.8208 102.766C70.4421 102.531 70.1497 102.205 69.9437 101.786C69.7401 101.364 69.6383 100.874 69.6383 100.315C69.6383 99.7566 69.7401 99.2642 69.9437 98.8381C70.1497 98.4096 70.4361 98.0758 70.8031 97.8366C71.1724 97.5952 71.6033 97.4744 72.0957 97.4744C72.3798 97.4744 72.6603 97.5218 72.9373 97.6165C73.2143 97.7112 73.4664 97.8651 73.6937 98.0781C73.921 98.2888 74.1021 98.5682 74.237 98.9162C74.372 99.2642 74.4395 99.6927 74.4395 100.202V100.557H70.2349V99.8324H73.5872C73.5872 99.5246 73.5256 99.25 73.4025 99.0085C73.2818 98.767 73.109 98.5765 72.8841 98.4368C72.6615 98.2971 72.3987 98.2273 72.0957 98.2273C71.7619 98.2273 71.4731 98.3101 71.2292 98.4759C70.9877 98.6392 70.8019 98.8523 70.6717 99.1151C70.5415 99.3778 70.4764 99.6596 70.4764 99.9602V100.443C70.4764 100.855 70.5474 101.204 70.6895 101.491C70.8339 101.775 71.0339 101.991 71.2896 102.141C71.5453 102.287 71.8424 102.361 72.1809 102.361C72.4011 102.361 72.6 102.33 72.7775 102.268C72.9574 102.205 73.1125 102.11 73.2427 101.984C73.3729 101.857 73.4735 101.698 73.5446 101.509L74.3542 101.736C74.269 102.01 74.1258 102.252 73.9245 102.46C73.7233 102.666 73.4747 102.827 73.1788 102.943C72.8829 103.057 72.5502 103.114 72.1809 103.114ZM75.7143 103V97.5455H76.524V98.3693H76.5808C76.6802 98.0994 76.8601 97.8804 77.1206 97.7124C77.381 97.5443 77.6745 97.4602 78.0012 97.4602C78.0628 97.4602 78.1397 97.4614 78.2321 97.4638C78.3244 97.4661 78.3942 97.4697 78.4416 97.4744V98.3267C78.4132 98.3196 78.3481 98.3089 78.2463 98.2947C78.1468 98.2782 78.0415 98.2699 77.9302 98.2699C77.6651 98.2699 77.4283 98.3255 77.22 98.4368C77.014 98.5457 76.8507 98.6972 76.7299 98.8913C76.6116 99.0831 76.5524 99.3021 76.5524 99.5483V103H75.7143ZM84.0613 97.5455L82.0442 103H81.1919L79.1749 97.5455H80.084L81.5897 101.892H81.6465L83.1522 97.5455H84.0613ZM85.1674 103V97.5455H86.0055V103H85.1674ZM85.5936 96.6364C85.4302 96.6364 85.2894 96.5807 85.171 96.4695C85.055 96.3582 84.997 96.2244 84.997 96.0682C84.997 95.9119 85.055 95.7782 85.171 95.6669C85.2894 95.5556 85.4302 95.5 85.5936 95.5C85.7569 95.5 85.8966 95.5556 86.0126 95.6669C86.131 95.7782 86.1902 95.9119 86.1902 96.0682C86.1902 96.2244 86.131 96.3582 86.0126 96.4695C85.8966 96.5807 85.7569 96.6364 85.5936 96.6364ZM89.8274 103.114C89.3018 103.114 88.8485 102.998 88.4673 102.766C88.0885 102.531 87.7962 102.205 87.5902 101.786C87.3866 101.364 87.2848 100.874 87.2848 100.315C87.2848 99.7566 87.3866 99.2642 87.5902 98.8381C87.7962 98.4096 88.0826 98.0758 88.4496 97.8366C88.8189 97.5952 89.2498 97.4744 89.7422 97.4744C90.0263 97.4744 90.3068 97.5218 90.5838 97.6165C90.8608 97.7112 91.1129 97.8651 91.3402 98.0781C91.5675 98.2888 91.7486 98.5682 91.8835 98.9162C92.0185 99.2642 92.0859 99.6927 92.0859 100.202V100.557H87.8814V99.8324H91.2337C91.2337 99.5246 91.1721 99.25 91.049 99.0085C90.9283 98.767 90.7554 98.5765 90.5305 98.4368C90.308 98.2971 90.0452 98.2273 89.7422 98.2273C89.4084 98.2273 89.1196 98.3101 88.8757 98.4759C88.6342 98.6392 88.4484 98.8523 88.3182 99.1151C88.188 99.3778 88.1229 99.6596 88.1229 99.9602V100.443C88.1229 100.855 88.1939 101.204 88.3359 101.491C88.4804 101.775 88.6804 101.991 88.9361 102.141C89.1918 102.287 89.4889 102.361 89.8274 102.361C90.0476 102.361 90.2464 102.33 90.424 102.268C90.6039 102.205 90.759 102.11 90.8892 101.984C91.0194 101.857 91.12 101.698 91.1911 101.509L92.0007 101.736C91.9155 102.01 91.7723 102.252 91.571 102.46C91.3698 102.666 91.1212 102.827 90.8253 102.943C90.5294 103.057 90.1967 103.114 89.8274 103.114ZM94.5966 103L92.9347 97.5455H93.8153L94.9943 101.722H95.0511L96.2159 97.5455H97.1108L98.2614 101.707H98.3182L99.4972 97.5455H100.378L98.7159 103H97.892L96.6989 98.8097H96.6136L95.4205 103H94.5966ZM105.349 98.767L104.597 98.9801C104.549 98.8546 104.479 98.7327 104.387 98.6143C104.297 98.4936 104.174 98.3942 104.018 98.3161C103.862 98.2379 103.661 98.1989 103.418 98.1989C103.084 98.1989 102.806 98.2758 102.583 98.4297C102.363 98.5812 102.253 98.7741 102.253 99.0085C102.253 99.2169 102.329 99.3814 102.48 99.5021C102.632 99.6229 102.868 99.7235 103.19 99.804L104 100.003C104.488 100.121 104.851 100.302 105.09 100.546C105.329 100.788 105.449 101.099 105.449 101.48C105.449 101.793 105.359 102.072 105.179 102.318C105.001 102.564 104.753 102.759 104.433 102.901C104.114 103.043 103.742 103.114 103.318 103.114C102.762 103.114 102.301 102.993 101.937 102.751C101.572 102.51 101.341 102.157 101.244 101.693L102.04 101.494C102.116 101.788 102.259 102.008 102.469 102.155C102.683 102.302 102.961 102.375 103.304 102.375C103.695 102.375 104.005 102.292 104.234 102.126C104.466 101.958 104.582 101.757 104.582 101.523C104.582 101.333 104.516 101.175 104.384 101.047C104.251 100.917 104.047 100.82 103.773 100.756L102.864 100.543C102.364 100.424 101.997 100.241 101.763 99.9922C101.531 99.7412 101.415 99.4276 101.415 99.0511C101.415 98.7434 101.501 98.4711 101.674 98.2344C101.849 97.9976 102.087 97.8118 102.388 97.6768C102.691 97.5419 103.034 97.4744 103.418 97.4744C103.957 97.4744 104.381 97.5928 104.689 97.8295C104.999 98.0663 105.219 98.3788 105.349 98.767Z" fill="#5C5F63"/>
<path d="M95.8615 41.2927C95.2451 40.0001 94.3461 38.9809 93.2673 38.2351C92.4454 37.6882 91.5207 37.2656 90.519 36.9673C89.0036 36.5199 87.334 36.2962 85.459 36.1967C83.6097 36.0973 81.5549 36.0973 79.3459 36.0973C76.5976 36.0973 74.1575 36.0973 72 36.2713C70.3818 36.3956 68.9177 36.6442 67.6335 37.0668C66.6574 37.3899 65.7841 37.8374 65.0136 38.434C64.4228 38.8814 63.9091 39.4035 63.4725 40.0249C62.8304 40.9695 62.3423 42.0882 62.0341 43.4057C61.7259 44.748 61.5718 46.2893 61.5718 48.0791C61.5718 50.9378 62.0341 53.1502 62.9331 54.8654C63.6009 56.1581 64.4999 57.1524 65.553 57.8982C66.3492 58.445 67.2225 58.8676 68.1472 59.1659C69.5599 59.6383 71.0753 59.8371 72.6164 59.9614C74.0805 60.0608 75.5959 60.0608 77.0856 60.0608L87.9505 67.4189L84.0977 59.9614C85.5361 59.9614 86.8974 59.9117 88.2073 59.7874C89.4659 59.6383 90.6474 59.4145 91.7262 58.9671C92.5481 58.6439 93.3187 58.1965 93.9865 57.5999C94.9882 56.705 95.7845 55.5117 96.3238 53.9457C96.8376 52.3796 97.1201 50.4903 97.1201 48.1039C97.1201 45.2452 96.7091 43.0328 95.8615 41.2927ZM94.2947 54.07C93.8324 55.114 93.2673 55.8598 92.5738 56.4066C92.0601 56.8292 91.4693 57.1524 90.8015 57.401C89.7998 57.7739 88.6183 57.9727 87.2827 58.0722C85.947 58.1716 84.483 58.1716 82.9419 58.1716C82.8391 58.1716 82.7364 58.1716 82.608 58.1716H81.1182L83.0446 61.9004L77.6764 58.271H77.3939C75.4932 58.271 73.6438 58.271 71.9486 58.097C70.69 57.9727 69.5085 57.749 68.4811 57.401C67.7105 57.1275 67.017 56.7795 66.4263 56.3321C65.5273 55.636 64.7824 54.7411 64.2687 53.3988C63.7293 52.0813 63.4211 50.3412 63.4211 48.0791C63.4211 45.3695 63.7807 43.4057 64.4228 42.0385C64.9109 40.9944 65.5273 40.2487 66.3492 39.6769C66.9657 39.2543 67.6592 38.9312 68.5068 38.6577C69.791 38.2848 71.3322 38.086 73.1558 37.9865C74.9794 37.8871 77.0343 37.8871 79.3459 37.8871C81.9658 37.8871 84.3289 37.8871 86.3323 38.0611C87.8477 38.1854 89.1577 38.4091 90.2621 38.782C91.0841 39.0554 91.8033 39.4035 92.394 39.8509C92.8563 40.1989 93.2416 40.5967 93.6012 41.069C94.1149 41.7899 94.5259 42.6848 94.8341 43.8283C95.1166 44.9718 95.2708 46.3887 95.2708 48.1039C95.2708 50.7389 94.9112 52.6779 94.2947 54.07Z" fill="#5C5F63"/>
<path d="M87.8157 50.205C89.1277 49.9066 89.9412 48.6354 89.6329 47.3657C89.3245 46.096 88.0111 45.3087 86.6992 45.6071C85.3872 45.9055 84.5737 47.1767 84.882 48.4464C85.1904 49.7161 86.5038 50.5034 87.8157 50.205Z" fill="#5C5F63"/>
<path d="M81.0712 49.5716C82.0241 48.6494 82.0241 47.1542 81.0712 46.2319C80.1183 45.3097 78.5733 45.3097 77.6204 46.2319C76.6675 47.1542 76.6675 48.6494 77.6204 49.5716C78.5733 50.4939 80.1183 50.4939 81.0712 49.5716Z" fill="#5C5F63"/>
<path d="M73.6838 48.8055C74.2025 47.6017 73.6147 46.2188 72.3708 45.7168C71.127 45.2148 69.6981 45.7838 69.1794 46.9876C68.6607 48.1914 69.2486 49.5743 70.4924 50.0763C71.7363 50.5783 73.1651 50.0093 73.6838 48.8055Z" fill="#5C5F63"/>
</svg>
