<svg width="136" height="121" viewBox="0 0 136 121" fill="none" xmlns="http://www.w3.org/2000/svg">
<path d="M41.2726 75.23V76.43H42.4726V75.23H41.2726ZM0.862604 75.23L-0.33732 75.2165L-0.350954 76.43H0.862604V75.23ZM0.952604 67.22L0.0546427 66.424L-0.242291 66.7589L-0.24732 67.2065L0.952604 67.22ZM15.7126 50.57L16.6106 51.366L16.6142 51.362L15.7126 50.57ZM27.3226 18.8L26.4891 19.6633L26.4964 19.6703L26.5038 19.6773L27.3226 18.8ZM4.6426 21.41L3.46251 21.6277L3.76901 23.2892L5.23685 22.4525L4.6426 21.41ZM2.9326 12.14L2.38774 11.0708L1.59012 11.4773L1.75251 12.3577L2.9326 12.14ZM34.0726 11.69L33.2996 12.6079L33.3077 12.6147L33.3159 12.6213L34.0726 11.69ZM23.1826 55.43L24.0964 56.2078L24.0976 56.2064L23.1826 55.43ZM13.9126 66.32L12.9988 65.5422L11.3152 67.52H13.9126V66.32ZM41.2726 66.32H42.4726V65.12H41.2726V66.32ZM41.2726 74.03H0.862604V76.43H41.2726V74.03ZM2.06253 75.2435L2.15253 67.2335L-0.24732 67.2065L-0.33732 75.2165L2.06253 75.2435ZM1.85057 68.016L16.6106 51.366L14.8146 49.774L0.0546427 66.424L1.85057 68.016ZM16.6142 51.362C21.414 45.898 25.0479 41.0228 27.4877 36.7417C29.9171 32.4787 31.2226 28.7015 31.2226 25.46H28.8226C28.8226 28.0985 27.7431 31.4462 25.4025 35.5533C23.0723 39.6422 19.5512 44.382 14.8111 49.778L16.6142 51.362ZM31.2226 25.46C31.2226 22.4118 30.2152 19.8583 28.1414 17.9227L26.5038 19.6773C28.03 21.1017 28.8226 22.9882 28.8226 25.46H31.2226ZM28.1561 17.9367C26.1656 16.0148 23.6342 15.08 20.6626 15.08V17.48C23.091 17.48 24.9996 18.2252 26.4891 19.6633L28.1561 17.9367ZM20.6626 15.08C15.6981 15.08 10.1493 16.89 4.04836 20.3675L5.23685 22.4525C11.1359 19.09 16.2671 17.48 20.6626 17.48V15.08ZM5.82269 21.1923L4.11269 11.9223L1.75251 12.3577L3.46251 21.6277L5.82269 21.1923ZM3.47747 13.2092C9.60155 10.0882 15.1735 8.57 20.2126 8.57V6.17C14.6917 6.17 8.74366 7.83175 2.38774 11.0708L3.47747 13.2092ZM20.2126 8.57C25.8365 8.57 30.1542 9.95907 33.2996 12.6079L34.8456 10.7721C31.151 7.66092 26.2287 6.17 20.2126 6.17V8.57ZM33.3159 12.6213C36.8099 15.4602 38.6326 19.6974 38.6326 25.55H41.0326C41.0326 19.1626 39.0154 14.1598 34.8293 10.7587L33.3159 12.6213ZM38.6326 25.55C38.6326 28.6718 37.356 32.6592 34.6219 37.5659C31.8988 42.4527 27.7897 48.1465 22.2677 54.6536L24.0976 56.2064C29.6756 49.6335 33.8914 43.8073 36.7183 38.7341C39.5342 33.6808 41.0326 29.2682 41.0326 25.55H38.6326ZM22.2688 54.6522L12.9988 65.5422L14.8264 67.0978L24.0964 56.2078L22.2688 54.6522ZM13.9126 67.52H41.2726V65.12H13.9126V67.52ZM40.0726 66.32V75.23H42.4726V66.32H40.0726Z" fill="#565555"/>
<circle cx="74.2731" cy="66.4365" r="53.2269" fill="white" stroke="black"/>
<g clip-path="url(#clip0_861_5824)">
<path d="M62.0065 66.4941H61.4068V46.3209H63.3441L70.6089 39.1146V36.9923H81.2177V37.692H82.6015V36.9923V35.593H81.2177H70.2399L60 45.8545V67.8467H62.0065V66.4941Z" fill="#5C5F63"/>
<path d="M73.0074 48.7464L72.9843 39.4177H83.5932V67.1704H63.7823V48.723L73.0074 48.7464ZM62.3755 48.2566V67.1704V68.593H63.7823H83.5932H85V67.1704V39.4177V37.9951H83.5932H72.6153L62.3755 48.2566Z" fill="#5C5F63"/>
<path d="M65.796 55.4553H81.1096V54.2193H65.796V55.4553Z" fill="#5C5F63"/>
<path d="M65.796 59.7443H81.1096V58.5082H65.796V59.7443Z" fill="#5C5F63"/>
<path d="M65.796 64.034H81.1096V62.798H65.796V64.034Z" fill="#5C5F63"/>
<path d="M79.9723 48.2563C79.5571 48.5595 79.0497 48.746 78.427 48.7694V49.2591C78.427 49.399 78.3348 49.469 78.1272 49.469C77.9197 49.469 77.8274 49.399 77.8274 49.2591V48.7694C76.9972 48.6994 76.3514 48.3496 75.8901 47.6499C75.6826 47.3467 75.5903 47.0436 75.5903 46.7171C75.5903 46.6004 75.6365 46.4838 75.7287 46.4139C75.821 46.3206 75.9363 46.2973 76.0516 46.2973C76.2361 46.2973 76.3745 46.4605 76.4667 46.7637C76.6743 47.44 77.1355 47.8365 77.8274 47.9065V45.4577C77.5737 45.3644 77.3662 45.2711 77.2508 45.2012C76.3283 44.7814 75.844 44.245 75.844 43.5686C75.844 42.5658 76.4898 42.0061 77.8274 41.9128V41.3065C77.8274 41.1665 77.9197 41.0966 78.1272 41.0966C78.3348 41.0966 78.427 41.1665 78.427 41.3065V41.8895C79.3496 41.9361 80.0184 42.2393 80.4104 42.8224C80.5949 43.1022 80.6872 43.3354 80.6872 43.5453C80.6872 43.8718 80.5258 44.0584 80.1798 44.0584C80.0414 44.0584 79.9261 43.9651 79.8339 43.7785C79.5341 43.1489 79.0728 42.8224 78.427 42.7524V44.8047C79.142 45.0845 79.6494 45.3178 79.9492 45.5277C80.4335 45.8775 80.6641 46.3206 80.6641 46.8337C80.6872 47.44 80.4335 47.9065 79.9723 48.2563ZM77.8274 42.7757C77.1125 42.869 76.7665 43.1255 76.7665 43.5453C76.7665 43.9418 77.1125 44.2683 77.8274 44.5715V42.7757ZM79.2804 46.134C79.0728 46.0174 78.773 45.8542 78.4501 45.7142V47.9065C79.3496 47.8132 79.8108 47.4633 79.8108 46.8337C79.7877 46.6004 79.6032 46.3672 79.2804 46.134Z" fill="#5C5F63"/>
</g>
<path d="M60.5159 101.727H61.4818L62.2915 102.793L62.5045 103.077L63.7119 104.682H62.746L61.9506 103.616L61.7517 103.347L60.5159 101.727ZM64.0102 100.364C64.0102 101.131 63.8717 101.794 63.5947 102.352C63.3177 102.911 62.9378 103.342 62.4548 103.645C61.9719 103.948 61.4202 104.099 60.8 104.099C60.1797 104.099 59.6281 103.948 59.1452 103.645C58.6622 103.342 58.2822 102.911 58.0052 102.352C57.7282 101.794 57.5898 101.131 57.5898 100.364C57.5898 99.5966 57.7282 98.9337 58.0052 98.375C58.2822 97.8163 58.6622 97.3854 59.1452 97.0824C59.6281 96.7794 60.1797 96.6278 60.8 96.6278C61.4202 96.6278 61.9719 96.7794 62.4548 97.0824C62.9378 97.3854 63.3177 97.8163 63.5947 98.375C63.8717 98.9337 64.0102 99.5966 64.0102 100.364ZM63.1579 100.364C63.1579 99.7339 63.0526 99.2024 62.8419 98.7692C62.6336 98.3359 62.3506 98.008 61.9932 97.7855C61.6381 97.563 61.2403 97.4517 60.8 97.4517C60.3596 97.4517 59.9607 97.563 59.6032 97.7855C59.2481 98.008 58.9652 98.3359 58.7545 98.7692C58.5462 99.2024 58.442 99.7339 58.442 100.364C58.442 100.993 58.5462 101.525 58.7545 101.958C58.9652 102.391 59.2481 102.719 59.6032 102.942C59.9607 103.164 60.3596 103.276 60.8 103.276C61.2403 103.276 61.6381 103.164 61.9932 102.942C62.3506 102.719 62.6336 102.391 62.8419 101.958C63.0526 101.525 63.1579 100.993 63.1579 100.364ZM68.8149 101.77V98.5455H69.653V104H68.8149V103.077H68.7581C68.6302 103.354 68.4314 103.589 68.1615 103.783C67.8916 103.975 67.5507 104.071 67.1388 104.071C66.7979 104.071 66.4948 103.996 66.2297 103.847C65.9645 103.696 65.7562 103.469 65.6047 103.165C65.4532 102.86 65.3774 102.475 65.3774 102.011V98.5455H66.2155V101.955C66.2155 102.352 66.3267 102.67 66.5493 102.906C66.7742 103.143 67.0606 103.261 67.4086 103.261C67.617 103.261 67.8289 103.208 68.0443 103.102C68.2621 102.995 68.4444 102.832 68.5912 102.612C68.7403 102.391 68.8149 102.111 68.8149 101.77ZM73.4039 104.114C72.9114 104.114 72.4794 103.996 72.1077 103.762C71.7384 103.528 71.4495 103.2 71.2412 102.778C71.0352 102.357 70.9323 101.865 70.9323 101.301C70.9323 100.733 71.0352 100.237 71.2412 99.8132C71.4495 99.3894 71.7384 99.0604 72.1077 98.826C72.4794 98.5916 72.9114 98.4744 73.4039 98.4744C73.8963 98.4744 74.3271 98.5916 74.6965 98.826C75.0682 99.0604 75.357 99.3894 75.5629 99.8132C75.7713 100.237 75.8754 100.733 75.8754 101.301C75.8754 101.865 75.7713 102.357 75.5629 102.778C75.357 103.2 75.0682 103.528 74.6965 103.762C74.3271 103.996 73.8963 104.114 73.4039 104.114ZM73.4039 103.361C73.7779 103.361 74.0857 103.265 74.3271 103.073C74.5686 102.881 74.7474 102.629 74.8634 102.317C74.9794 102.004 75.0374 101.666 75.0374 101.301C75.0374 100.937 74.9794 100.597 74.8634 100.282C74.7474 99.9671 74.5686 99.7126 74.3271 99.5185C74.0857 99.3243 73.7779 99.2273 73.4039 99.2273C73.0298 99.2273 72.722 99.3243 72.4806 99.5185C72.2391 99.7126 72.0603 99.9671 71.9443 100.282C71.8283 100.597 71.7703 100.937 71.7703 101.301C71.7703 101.666 71.8283 102.004 71.9443 102.317C72.0603 102.629 72.2391 102.881 72.4806 103.073C72.722 103.265 73.0298 103.361 73.4039 103.361ZM79.5269 98.5455V99.2557H76.7002V98.5455H79.5269ZM77.5241 97.2386H78.3621V102.438C78.3621 102.674 78.3965 102.852 78.4651 102.97C78.5361 103.086 78.6261 103.164 78.735 103.205C78.8463 103.242 78.9635 103.261 79.0866 103.261C79.1789 103.261 79.2546 103.257 79.3138 103.247C79.373 103.235 79.4204 103.226 79.4559 103.219L79.6263 103.972C79.5695 103.993 79.4902 104.014 79.3884 104.036C79.2866 104.059 79.1576 104.071 79.0013 104.071C78.7646 104.071 78.5326 104.02 78.3053 103.918C78.0804 103.817 77.8934 103.661 77.7442 103.453C77.5974 103.245 77.5241 102.982 77.5241 102.665V97.2386ZM83.0159 104.114C82.4903 104.114 82.037 103.998 81.6558 103.766C81.277 103.531 80.9846 103.205 80.7787 102.786C80.5751 102.364 80.4733 101.874 80.4733 101.315C80.4733 100.757 80.5751 100.264 80.7787 99.8381C80.9846 99.4096 81.2711 99.0758 81.6381 98.8366C82.0074 98.5952 82.4382 98.4744 82.9307 98.4744C83.2148 98.4744 83.4953 98.5218 83.7723 98.6165C84.0493 98.7112 84.3014 98.8651 84.5287 99.0781C84.7559 99.2888 84.9371 99.5682 85.072 99.9162C85.2069 100.264 85.2744 100.693 85.2744 101.202V101.557H81.0699V100.832H84.4221C84.4221 100.525 84.3606 100.25 84.2375 100.009C84.1167 99.767 83.9439 99.5765 83.719 99.4368C83.4965 99.2971 83.2337 99.2273 82.9307 99.2273C82.5969 99.2273 82.308 99.3101 82.0642 99.4759C81.8227 99.6392 81.6369 99.8523 81.5067 100.115C81.3765 100.378 81.3113 100.66 81.3113 100.96V101.443C81.3113 101.855 81.3824 102.204 81.5244 102.491C81.6688 102.775 81.8689 102.991 82.1246 103.141C82.3802 103.287 82.6773 103.361 83.0159 103.361C83.2361 103.361 83.4349 103.33 83.6125 103.268C83.7924 103.205 83.9475 103.11 84.0777 102.984C84.2079 102.857 84.3085 102.698 84.3795 102.509L85.1892 102.736C85.104 103.01 84.9607 103.252 84.7595 103.46C84.5583 103.666 84.3097 103.827 84.0138 103.943C83.7178 104.057 83.3852 104.114 83.0159 104.114ZM90.4129 99.767L89.6601 99.9801C89.6127 99.8546 89.5429 99.7327 89.4506 99.6143C89.3606 99.4936 89.2375 99.3942 89.0812 99.3161C88.925 99.2379 88.7249 99.1989 88.4811 99.1989C88.1473 99.1989 87.8691 99.2758 87.6466 99.4297C87.4264 99.5812 87.3163 99.7741 87.3163 100.009C87.3163 100.217 87.3921 100.381 87.5436 100.502C87.6951 100.623 87.9318 100.723 88.2538 100.804L89.0635 101.003C89.5512 101.121 89.9146 101.302 90.1537 101.546C90.3928 101.788 90.5123 102.099 90.5123 102.48C90.5123 102.793 90.4224 103.072 90.2425 103.318C90.0649 103.564 89.8163 103.759 89.4967 103.901C89.1771 104.043 88.8054 104.114 88.3817 104.114C87.8253 104.114 87.3648 103.993 87.0003 103.751C86.6357 103.51 86.4049 103.157 86.3078 102.693L87.1032 102.494C87.179 102.788 87.3222 103.008 87.5329 103.155C87.746 103.302 88.0242 103.375 88.3675 103.375C88.7581 103.375 89.0682 103.292 89.2979 103.126C89.5299 102.958 89.6459 102.757 89.6459 102.523C89.6459 102.333 89.5796 102.175 89.447 102.047C89.3144 101.917 89.1108 101.82 88.8362 101.756L87.9271 101.543C87.4276 101.424 87.0606 101.241 86.8263 100.992C86.5943 100.741 86.4782 100.428 86.4782 100.051C86.4782 99.7434 86.5647 99.4711 86.7375 99.2344C86.9127 98.9976 87.1506 98.8118 87.4513 98.6768C87.7543 98.5419 88.0976 98.4744 88.4811 98.4744C89.0209 98.4744 89.4446 98.5928 89.7524 98.8295C90.0625 99.0663 90.2827 99.3788 90.4129 99.767Z" fill="#5C5F63"/>
<path d="M52.192 83.362H56.868V84.482H52.192V83.362ZM52.192 81.5H56.868V82.62H52.192V81.5ZM51.226 80.702V85.294H57.876V80.702H51.226ZM50.582 86.302V87.184H58.646V86.302H50.582ZM54.026 86.736V92.056L55.006 92.462V86.736H54.026ZM52.15 89.312L51.506 89.55C52.36 92.406 53.97 92.91 56.308 92.91H58.772C58.8 92.644 58.94 92.196 59.08 91.972C58.59 91.986 56.7 91.986 56.35 91.986C54.404 91.986 52.864 91.636 52.15 89.312ZM54.698 88.822V89.69H57.946V88.822H54.698ZM51.506 87.842C51.282 89.914 50.652 91.496 49.406 92.49C49.616 92.644 50.022 92.952 50.19 93.12C51.45 92 52.178 90.264 52.458 87.954L51.506 87.842ZM45.892 87.688L46.158 88.71C47.348 88.332 48.874 87.828 50.33 87.352L50.176 86.386C48.608 86.89 46.984 87.394 45.892 87.688ZM46.046 83.068V84.048H50.316V83.068H46.046ZM47.782 80.254V91.804C47.782 92.014 47.726 92.07 47.544 92.07C47.376 92.07 46.844 92.07 46.228 92.056C46.368 92.35 46.494 92.784 46.536 93.036C47.418 93.036 47.964 93.008 48.286 92.84C48.636 92.672 48.762 92.392 48.762 91.818V80.254H47.782ZM63.252 80.282C62.468 82.41 61.152 84.51 59.78 85.868C59.976 86.106 60.27 86.666 60.382 86.904C61.894 85.336 63.336 82.956 64.246 80.59L63.252 80.282ZM61.768 83.908V93.106H62.804V82.9L62.79 82.886L61.768 83.908ZM64.176 83.236V84.244H72.772V83.236H64.176ZM63.826 87.702V88.738H72.94V87.702H63.826ZM65.982 80.394V88.262H67.018V80.394H65.982ZM69.748 80.38V88.276H70.77V80.38H69.748ZM66.276 89.522C65.674 90.6 64.708 91.706 63.742 92.434C63.98 92.574 64.386 92.91 64.582 93.092C65.52 92.294 66.584 91.048 67.27 89.83L66.276 89.522ZM69.454 90.026C70.392 90.964 71.428 92.266 71.904 93.134L72.786 92.574C72.282 91.72 71.246 90.474 70.28 89.55L69.454 90.026ZM81.284 85.658V86.526H85.862V85.658H81.284ZM80.752 80.898V93.134H81.718V81.836H85.764V80.898H80.752ZM85.26 80.898V83.586C85.26 83.74 85.204 83.796 84.98 83.81C84.756 83.824 84.028 83.824 83.16 83.796C83.3 84.062 83.44 84.44 83.482 84.72C84.56 84.72 85.26 84.706 85.694 84.552C86.128 84.398 86.24 84.118 86.24 83.6V80.898H85.26ZM82.656 86.232L81.83 86.442C82.656 89.354 84.21 91.902 86.366 93.12C86.534 92.854 86.856 92.476 87.094 92.266C84.994 91.244 83.412 88.85 82.656 86.232ZM85.54 85.658V85.882C85.106 88.444 83.79 91.062 81.69 92.434C81.928 92.616 82.236 92.91 82.39 93.148C84.63 91.636 86.016 88.878 86.562 85.84L85.918 85.602L85.736 85.658H85.54ZM74.578 81.682V82.592H79.772V81.682H74.578ZM74.41 89.34V90.25H79.954V89.34H74.41ZM74.074 83.992V84.902H80.304V83.992H74.074ZM74.27 86.904V87.814H80.136V86.904H74.27ZM76.734 80.268V84.314H77.714V80.268H76.734ZM76.734 87.282V93.092H77.714V87.282H76.734ZM78.624 84.846C78.47 85.392 78.162 86.218 77.924 86.736L78.708 86.974C78.974 86.484 79.24 85.756 79.52 85.084L78.624 84.846ZM75.054 85.07C75.334 85.686 75.6 86.484 75.67 86.988L76.51 86.75C76.44 86.26 76.16 85.462 75.852 84.874L75.054 85.07ZM91.812 80.954V81.766H100.8V80.954H91.812ZM93.086 83.292H99.4V84.636H93.086V83.292ZM92.148 82.592V85.322H100.38V82.592H92.148ZM94.57 81.22V84.902H95.438V81.22H94.57ZM96.992 81.22V84.902H97.86V81.22H96.992ZM93.422 88.122H99.19V88.92H93.422V88.122ZM93.422 89.578H99.19V90.404H93.422V89.578ZM93.422 86.666H99.19V87.464H93.422V86.666ZM92.442 85.994V91.076H100.212V85.994H92.442ZM96.992 91.776C98.196 92.196 99.442 92.742 100.156 93.162L101.066 92.546C100.254 92.126 98.896 91.58 97.678 91.174L96.992 91.776ZM94.696 91.16C93.954 91.636 92.596 92.154 91.378 92.434C91.574 92.616 91.826 92.938 91.966 93.148C93.212 92.84 94.598 92.308 95.452 91.692L94.696 91.16ZM90.748 80.324C90.076 82.48 88.97 84.636 87.738 86.036C87.92 86.302 88.2 86.862 88.298 87.114C89.684 85.476 90.93 83.012 91.728 80.59L90.748 80.324ZM89.628 83.754V93.12H90.622V82.816L90.594 82.788L89.628 83.754Z" fill="#5C5F63"/>
<defs>
<clipPath id="clip0_861_5824">
<rect width="25" height="33" fill="white" transform="translate(60 35.5004)"/>
</clipPath>
</defs>
</svg>
