<svg width="136" height="122" viewBox="0 0 136 122" fill="none" xmlns="http://www.w3.org/2000/svg">
<path d="M15.456 17.9717V16.7717H14.2937L14.2566 17.9334L15.456 17.9717ZM14.916 34.8917L13.7166 34.8534L13.6617 36.5747L15.2955 36.0301L14.916 34.8917ZM38.226 39.1217L39.0476 38.2471L39.0399 38.2399L38.226 39.1217ZM37.146 71.0717L36.3708 70.1557L36.3633 70.1621L36.3558 70.1686L37.146 71.0717ZM4.56598 74.1317H3.36598V74.9199L4.08931 75.233L4.56598 74.1317ZM4.56598 64.5917L5.09154 63.5129L3.36598 62.6723V64.5917H4.56598ZM30.486 64.8617L31.233 65.8009L31.2404 65.7949L30.486 64.8617ZM5.28598 44.5217L4.08617 44.5004L4.05745 46.1207L5.61564 45.6755L5.28598 44.5217ZM5.91598 8.97171V7.77171H4.73706L4.71617 8.95045L5.91598 8.97171ZM40.836 8.97171H42.036V7.77171H40.836V8.97171ZM40.836 17.9717V19.1717H42.036V17.9717H40.836ZM14.2566 17.9334L13.7166 34.8534L16.1154 34.93L16.6554 18.01L14.2566 17.9334ZM15.2955 36.0301C17.4877 35.2994 20.0552 34.9217 23.016 34.9217V32.5217C19.8568 32.5217 17.0242 32.9241 14.5365 33.7533L15.2955 36.0301ZM23.016 34.9217C29.0107 34.9217 33.7719 36.6434 37.412 40.0035L39.0399 38.2399C34.88 34.4 29.5012 32.5217 23.016 32.5217V34.9217ZM37.4044 39.9963C41.0863 43.4551 42.966 48.0991 42.966 54.0617H45.366C45.366 47.5443 43.2857 42.2283 39.0476 38.2471L37.4044 39.9963ZM42.966 54.0617C42.966 61.1678 40.7264 66.4702 36.3708 70.1557L37.9211 71.9878C42.9256 67.7532 45.366 61.7156 45.366 54.0617H42.966ZM36.3558 70.1686C32.3094 73.7092 26.7976 75.5417 19.686 75.5417V77.9417C27.2144 77.9417 33.3426 75.9942 37.9362 71.9748L36.3558 70.1686ZM19.686 75.5417C13.7312 75.5417 8.86625 74.6854 5.04265 73.0304L4.08931 75.233C8.30571 77.058 13.5208 77.9417 19.686 77.9417V75.5417ZM5.76598 74.1317V64.5917H3.36598V74.1317H5.76598ZM4.04041 65.6705C8.89749 68.0368 14.2393 69.2117 20.046 69.2117V66.8117C14.5726 66.8117 9.59447 65.7067 5.09154 63.5129L4.04041 65.6705ZM20.046 69.2117C24.5601 69.2117 28.3272 68.1123 31.233 65.8008L29.739 63.9226C27.3647 65.8112 24.1719 66.8117 20.046 66.8117V69.2117ZM31.2404 65.7949C34.3843 63.253 35.916 59.6763 35.916 55.2317H33.516C33.516 59.0671 32.2277 61.9104 29.7315 63.9286L31.2404 65.7949ZM35.916 55.2317C35.916 50.7197 34.6477 47.1262 31.9156 44.6845C29.2093 42.2657 25.2698 41.1617 20.316 41.1617V43.5617C24.9622 43.5617 28.2227 44.6028 30.3163 46.4739C32.3843 48.3222 33.516 51.1637 33.516 55.2317H35.916ZM20.316 41.1617C15.2188 41.1617 10.0979 41.8989 4.95631 43.3679L5.61564 45.6755C10.5541 44.2646 15.4532 43.5617 20.316 43.5617V41.1617ZM6.48579 44.543L7.11579 8.99297L4.71617 8.95045L4.08617 44.5004L6.48579 44.543ZM5.91598 10.1717H40.836V7.77171H5.91598V10.1717ZM39.636 8.97171V17.9717H42.036V8.97171H39.636ZM40.836 16.7717H15.456V19.1717H40.836V16.7717Z" fill="#565555"/>
<path d="M128.787 67.8374C128.787 97.293 105.104 121.165 75.8978 121.165C46.6916 121.165 23.0083 97.293 23.0083 67.8374C23.0083 38.3818 46.6916 14.5103 75.8978 14.5103C105.104 14.5103 128.787 38.3818 128.787 67.8374Z" fill="white" stroke="black"/>
<g clip-path="url(#clip0_861_5777)">
<path d="M90.3927 55.2632H61.6066V39.2407H60.4456V56.3595H91.5319V39.2407H90.3927V55.2632Z" fill="#5C5F63"/>
<path d="M63.5564 61.988L65.0023 63L68.9894 56.9283H66.8863L63.5564 61.988Z" fill="#5C5F63"/>
<path d="M88.6187 61.988L87.1509 63L83.2295 56.9283H85.3326L88.6187 61.988Z" fill="#5C5F63"/>
<path d="M93 36.6476H59V38.2709H93V36.6476Z" fill="#5C5F63"/>
<path d="M76 33.9276C78.3002 33.9276 80.25 35.0028 80.7976 36.9002H81.9806C81.3891 34.5179 78.9355 33 76 33C73.0644 33 70.6108 34.5179 70.0193 36.8791H71.2023C71.75 35.0028 73.6997 33.9276 76 33.9276Z" fill="#5C5F63"/>
<path d="M63.8416 45.0168H62.6147V54.293H63.8416V45.0168Z" fill="#5C5F63"/>
<path d="M66.6892 46.2815H65.4624V54.2927H66.6892V46.2815Z" fill="#5C5F63"/>
<path d="M69.5159 43.1619H68.2891V54.3144H69.5159V43.1619Z" fill="#5C5F63"/>
<path d="M72.3635 47.61H71.1367V54.293H72.3635V47.61Z" fill="#5C5F63"/>
<path d="M75.1892 42.6767H73.9624V54.3141H75.1892V42.6767Z" fill="#5C5F63"/>
<path d="M78.0151 44.6793H76.7883V54.3139H78.0151V44.6793Z" fill="#5C5F63"/>
<path d="M80.8635 49.3384H79.6367V54.3138H80.8635V49.3384Z" fill="#5C5F63"/>
<path d="M83.6895 43.5622H82.4626V54.3141H83.6895V43.5622Z" fill="#5C5F63"/>
<path d="M86.5378 46.3869H85.311V54.2928H86.5378V46.3869Z" fill="#5C5F63"/>
<path d="M89.3638 51.4472H88.137V54.2933H89.3638V51.4472Z" fill="#5C5F63"/>
</g>
<path d="M55.192 75.362H59.868V76.482H55.192V75.362ZM55.192 73.5H59.868V74.62H55.192V73.5ZM54.226 72.702V77.294H60.876V72.702H54.226ZM53.582 78.302V79.184H61.646V78.302H53.582ZM57.026 78.736V84.056L58.006 84.462V78.736H57.026ZM55.15 81.312L54.506 81.55C55.36 84.406 56.97 84.91 59.308 84.91H61.772C61.8 84.644 61.94 84.196 62.08 83.972C61.59 83.986 59.7 83.986 59.35 83.986C57.404 83.986 55.864 83.636 55.15 81.312ZM57.698 80.822V81.69H60.946V80.822H57.698ZM54.506 79.842C54.282 81.914 53.652 83.496 52.406 84.49C52.616 84.644 53.022 84.952 53.19 85.12C54.45 84 55.178 82.264 55.458 79.954L54.506 79.842ZM48.892 79.688L49.158 80.71C50.348 80.332 51.874 79.828 53.33 79.352L53.176 78.386C51.608 78.89 49.984 79.394 48.892 79.688ZM49.046 75.068V76.048H53.316V75.068H49.046ZM50.782 72.254V83.804C50.782 84.014 50.726 84.07 50.544 84.07C50.376 84.07 49.844 84.07 49.228 84.056C49.368 84.35 49.494 84.784 49.536 85.036C50.418 85.036 50.964 85.008 51.286 84.84C51.636 84.672 51.762 84.392 51.762 83.818V72.254H50.782ZM68.954 72.254V73.864H70.004V72.254H68.954ZM68.926 79.618V85.12H69.99V79.618H68.926ZM63.62 73.29V75.32H64.6V74.186H74.428V75.32H75.436V73.29H63.62ZM63.452 75.656V76.524H75.59V75.656H63.452ZM63.228 80.78V81.69H75.786V80.78H63.228ZM68.226 74.354C67.386 75.544 66.168 77.112 65.286 78.092L66.266 78.414C67.106 77.42 68.31 75.894 69.22 74.648L68.226 74.354ZM66.098 77.994C68.842 78.526 72.44 79.52 74.274 80.262L74.904 79.492C72.93 78.736 69.36 77.826 66.7 77.336L66.098 77.994ZM68.548 81.256C67.4 82.502 65.076 83.622 62.962 84.084C63.186 84.28 63.48 84.686 63.634 84.938C65.762 84.364 68.072 83.09 69.332 81.606L68.548 81.256ZM70.41 81.228L69.64 81.592C70.928 83.104 73.294 84.378 75.422 84.952C75.576 84.686 75.87 84.294 76.108 84.07C73.966 83.608 71.6 82.502 70.41 81.228ZM71.922 76.146C71.124 78.036 69.304 78.988 63.83 79.324C63.97 79.534 64.138 79.926 64.166 80.164C69.906 79.758 72.076 78.624 73.042 76.146H71.922ZM86.258 78.61C85.516 79.338 84.102 79.996 82.842 80.374C83.052 80.528 83.304 80.794 83.444 80.99C84.774 80.556 86.216 79.828 87.07 78.932L86.258 78.61ZM87.602 79.954C86.65 80.948 84.816 81.746 83.038 82.152C83.234 82.334 83.444 82.642 83.584 82.838C85.46 82.334 87.336 81.452 88.4 80.29L87.602 79.954ZM88.918 81.48C87.658 82.922 85.082 83.818 82.268 84.224C82.478 84.448 82.716 84.812 82.814 85.064C85.782 84.546 88.428 83.538 89.814 81.872L88.918 81.48ZM84.396 72.24C83.822 73.738 82.8 75.194 81.68 76.132C81.918 76.272 82.31 76.594 82.478 76.762C83.612 75.726 84.69 74.144 85.376 72.478L84.396 72.24ZM84.088 73.766L83.556 74.648H89.786V73.766H84.088ZM87.868 73.962C86.916 76.342 84.62 77.714 81.792 78.442C81.988 78.638 82.296 79.058 82.422 79.268C85.32 78.372 87.728 76.86 88.862 74.2L87.868 73.962ZM83.99 74.312L83.346 74.83C84.27 76.566 86.37 78.4 89.66 79.142C89.786 78.89 90.038 78.498 90.234 78.302C86.958 77.686 84.844 75.992 83.99 74.312ZM80.84 73.906V82.796H81.764V73.906H80.84ZM79.748 72.324C79.076 74.494 77.956 76.65 76.738 78.05C76.92 78.316 77.2 78.876 77.284 79.114C78.684 77.49 79.93 75.026 80.728 72.604L79.748 72.324ZM78.628 75.754V85.12H79.636V74.816L79.608 74.788L78.628 75.754ZM91.746 73.276V74.298H103.338V73.276H91.746ZM97.808 78.036V79.072H102.778V78.036H97.808ZM91.214 83.482V84.504H103.8V83.482H91.214ZM97.304 73.654V83.986H98.396V73.654H97.304ZM93.132 76.874V84.028H94.21V76.874H93.132Z" fill="#5C5F63"/>
<path d="M48.2498 99V91.7273H50.7072C51.2778 91.7273 51.7441 91.8303 52.1064 92.0362C52.4709 92.2398 52.7408 92.5156 52.916 92.8636C53.0912 93.2116 53.1788 93.5999 53.1788 94.0284C53.1788 94.4569 53.0912 94.8464 52.916 95.1967C52.7432 95.5471 52.4757 95.8265 52.1135 96.0348C51.7512 96.2408 51.2872 96.3438 50.7214 96.3438H48.96V95.5625H50.693C51.0836 95.5625 51.3973 95.495 51.6341 95.3601C51.8708 95.2251 52.0424 95.0429 52.149 94.8132C52.2579 94.5812 52.3123 94.3196 52.3123 94.0284C52.3123 93.7372 52.2579 93.4768 52.149 93.2472C52.0424 93.0175 51.8696 92.8376 51.6305 92.7074C51.3914 92.5748 51.0742 92.5085 50.6788 92.5085H49.1305V99H48.2498ZM54.4838 99V93.5455H55.2935V94.3693H55.3503C55.4498 94.0994 55.6297 93.8804 55.8901 93.7124C56.1505 93.5443 56.4441 93.4602 56.7708 93.4602C56.8323 93.4602 56.9093 93.4614 57.0016 93.4638C57.0939 93.4661 57.1638 93.4697 57.2111 93.4744V94.3267C57.1827 94.3196 57.1176 94.3089 57.0158 94.2947C56.9164 94.2782 56.811 94.2699 56.6998 94.2699C56.4346 94.2699 56.1979 94.3255 55.9895 94.4368C55.7836 94.5457 55.6202 94.6972 55.4995 94.8913C55.3811 95.0831 55.3219 95.3021 55.3219 95.5483V99H54.4838ZM60.3255 99.1136C59.7999 99.1136 59.3465 98.9976 58.9654 98.7656C58.5866 98.5312 58.2942 98.2045 58.0882 97.7855C57.8846 97.3641 57.7828 96.8741 57.7828 96.3153C57.7828 95.7566 57.8846 95.2642 58.0882 94.8381C58.2942 94.4096 58.5807 94.0758 58.9476 93.8366C59.3169 93.5952 59.7478 93.4744 60.2402 93.4744C60.5243 93.4744 60.8049 93.5218 61.0819 93.6165C61.3588 93.7112 61.611 93.8651 61.8382 94.0781C62.0655 94.2888 62.2466 94.5682 62.3816 94.9162C62.5165 95.2642 62.584 95.6927 62.584 96.2017V96.5568H58.3794V95.8324H61.7317C61.7317 95.5246 61.6702 95.25 61.5471 95.0085C61.4263 94.767 61.2535 94.5765 61.0286 94.4368C60.806 94.2971 60.5433 94.2273 60.2402 94.2273C59.9064 94.2273 59.6176 94.3101 59.3738 94.4759C59.1323 94.6392 58.9464 94.8523 58.8162 95.1151C58.686 95.3778 58.6209 95.6596 58.6209 95.9602V96.4432C58.6209 96.8551 58.6919 97.2043 58.834 97.4908C58.9784 97.7749 59.1784 97.9915 59.4341 98.1406C59.6898 98.2874 59.9869 98.3608 60.3255 98.3608C60.5456 98.3608 60.7445 98.33 60.9221 98.2685C61.102 98.2045 61.257 98.1098 61.3873 97.9844C61.5175 97.8565 61.6181 97.6979 61.6891 97.5085L62.4988 97.7358C62.4135 98.0104 62.2703 98.2519 62.0691 98.4602C61.8678 98.6662 61.6193 98.8272 61.3233 98.9432C61.0274 99.0568 60.6948 99.1136 60.3255 99.1136ZM67.7225 94.767L66.9696 94.9801C66.9223 94.8546 66.8525 94.7327 66.7601 94.6143C66.6702 94.4936 66.5471 94.3942 66.3908 94.3161C66.2346 94.2379 66.0345 94.1989 65.7907 94.1989C65.4569 94.1989 65.1787 94.2758 64.9561 94.4297C64.736 94.5812 64.6259 94.7741 64.6259 95.0085C64.6259 95.2169 64.7016 95.3814 64.8532 95.5021C65.0047 95.6229 65.2414 95.7235 65.5634 95.804L66.373 96.0028C66.8607 96.1212 67.2241 96.3023 67.4632 96.5462C67.7024 96.7876 67.8219 97.099 67.8219 97.4801C67.8219 97.7926 67.7319 98.072 67.552 98.3182C67.3745 98.5644 67.1259 98.7585 66.8063 98.9006C66.4867 99.0426 66.115 99.1136 65.6912 99.1136C65.1349 99.1136 64.6744 98.9929 64.3098 98.7514C63.9453 98.5099 63.7144 98.1572 63.6174 97.6932L64.4128 97.4943C64.4886 97.7879 64.6318 98.008 64.8425 98.1548C65.0556 98.3016 65.3337 98.375 65.677 98.375C66.0676 98.375 66.3778 98.2921 66.6074 98.1264C66.8394 97.9583 66.9554 97.7571 66.9554 97.5227C66.9554 97.3333 66.8891 97.1747 66.7566 97.0469C66.624 96.9167 66.4204 96.8196 66.1458 96.7557L65.2367 96.5426C64.7372 96.4242 64.3702 96.2408 64.1358 95.9922C63.9038 95.7412 63.7878 95.4276 63.7878 95.0511C63.7878 94.7434 63.8742 94.4711 64.0471 94.2344C64.2222 93.9976 64.4602 93.8118 64.7608 93.6768C65.0639 93.5419 65.4071 93.4744 65.7907 93.4744C66.3304 93.4744 66.7542 93.5928 67.062 93.8295C67.3721 94.0663 67.5923 94.3788 67.7225 94.767ZM71.3704 99.1136C70.8448 99.1136 70.3915 98.9976 70.0103 98.7656C69.6315 98.5312 69.3391 98.2045 69.1332 97.7855C68.9296 97.3641 68.8278 96.8741 68.8278 96.3153C68.8278 95.7566 68.9296 95.2642 69.1332 94.8381C69.3391 94.4096 69.6256 94.0758 69.9925 93.8366C70.3619 93.5952 70.7927 93.4744 71.2852 93.4744C71.5692 93.4744 71.8498 93.5218 72.1268 93.6165C72.4038 93.7112 72.6559 93.8651 72.8832 94.0781C73.1104 94.2888 73.2915 94.5682 73.4265 94.9162C73.5614 95.2642 73.6289 95.6927 73.6289 96.2017V96.5568H69.4244V95.8324H72.7766C72.7766 95.5246 72.7151 95.25 72.592 95.0085C72.4712 94.767 72.2984 94.5765 72.0735 94.4368C71.851 94.2971 71.5882 94.2273 71.2852 94.2273C70.9513 94.2273 70.6625 94.3101 70.4187 94.4759C70.1772 94.6392 69.9914 94.8523 69.8612 95.1151C69.7309 95.3778 69.6658 95.6596 69.6658 95.9602V96.4432C69.6658 96.8551 69.7369 97.2043 69.8789 97.4908C70.0233 97.7749 70.2234 97.9915 70.479 98.1406C70.7347 98.2874 71.0318 98.3608 71.3704 98.3608C71.5906 98.3608 71.7894 98.33 71.967 98.2685C72.1469 98.2045 72.302 98.1098 72.4322 97.9844C72.5624 97.8565 72.663 97.6979 72.734 97.5085L73.5437 97.7358C73.4585 98.0104 73.3152 98.2519 73.114 98.4602C72.9128 98.6662 72.6642 98.8272 72.3683 98.9432C72.0723 99.0568 71.7397 99.1136 71.3704 99.1136ZM75.7418 95.7188V99H74.9038V93.5455H75.7134V94.3977H75.7844C75.9123 94.1207 76.1064 93.8982 76.3668 93.7301C76.6272 93.5597 76.9634 93.4744 77.3754 93.4744C77.7447 93.4744 78.0678 93.5502 78.3448 93.7017C78.6218 93.8509 78.8372 94.0781 78.9911 94.3835C79.145 94.6866 79.2219 95.0701 79.2219 95.5341V99H78.3839V95.5909C78.3839 95.1624 78.2726 94.8286 78.0501 94.5895C77.8275 94.348 77.5221 94.2273 77.1339 94.2273C76.8664 94.2273 76.6272 94.2853 76.4165 94.4013C76.2082 94.5173 76.0437 94.6866 75.9229 94.9091C75.8022 95.1316 75.7418 95.4015 75.7418 95.7188ZM83.1255 93.5455V94.2557H80.2988V93.5455H83.1255ZM81.1227 92.2386H81.9608V97.4375C81.9608 97.6742 81.9951 97.8518 82.0637 97.9702C82.1348 98.0862 82.2247 98.1643 82.3336 98.2045C82.4449 98.2424 82.5621 98.2614 82.6852 98.2614C82.7775 98.2614 82.8533 98.2566 82.9125 98.2472C82.9717 98.2353 83.019 98.2259 83.0545 98.2188L83.225 98.9716C83.1681 98.9929 83.0888 99.0142 82.987 99.0355C82.8852 99.0592 82.7562 99.071 82.6 99.071C82.3632 99.071 82.1312 99.0201 81.9039 98.9183C81.679 98.8165 81.492 98.6615 81.3429 98.4531C81.1961 98.2448 81.1227 97.982 81.1227 97.6648V92.2386ZM84.3862 99V93.5455H85.2243V99H84.3862ZM84.8123 92.6364C84.649 92.6364 84.5081 92.5807 84.3897 92.4695C84.2737 92.3582 84.2157 92.2244 84.2157 92.0682C84.2157 91.9119 84.2737 91.7782 84.3897 91.6669C84.5081 91.5556 84.649 91.5 84.8123 91.5C84.9757 91.5 85.1154 91.5556 85.2314 91.6669C85.3497 91.7782 85.4089 91.9119 85.4089 92.0682C85.4089 92.2244 85.3497 92.3582 85.2314 92.4695C85.1154 92.5807 84.9757 92.6364 84.8123 92.6364ZM88.9751 99.1136C88.4827 99.1136 88.0507 98.9964 87.679 98.7621C87.3097 98.5277 87.0208 98.1998 86.8125 97.7784C86.6065 97.357 86.5036 96.8646 86.5036 96.3011C86.5036 95.733 86.6065 95.237 86.8125 94.8132C87.0208 94.3894 87.3097 94.0604 87.679 93.826C88.0507 93.5916 88.4827 93.4744 88.9751 93.4744C89.4676 93.4744 89.8984 93.5916 90.2678 93.826C90.6394 94.0604 90.9283 94.3894 91.1342 94.8132C91.3426 95.237 91.4467 95.733 91.4467 96.3011C91.4467 96.8646 91.3426 97.357 91.1342 97.7784C90.9283 98.1998 90.6394 98.5277 90.2678 98.7621C89.8984 98.9964 89.4676 99.1136 88.9751 99.1136ZM88.9751 98.3608C89.3492 98.3608 89.657 98.2649 89.8984 98.0732C90.1399 97.8814 90.3187 97.6293 90.4347 97.3168C90.5507 97.0043 90.6087 96.6657 90.6087 96.3011C90.6087 95.9366 90.5507 95.5968 90.4347 95.282C90.3187 94.9671 90.1399 94.7126 89.8984 94.5185C89.657 94.3243 89.3492 94.2273 88.9751 94.2273C88.6011 94.2273 88.2933 94.3243 88.0518 94.5185C87.8104 94.7126 87.6316 94.9671 87.5156 95.282C87.3996 95.5968 87.3416 95.9366 87.3416 96.3011C87.3416 96.6657 87.3996 97.0043 87.5156 97.3168C87.6316 97.6293 87.8104 97.8814 88.0518 98.0732C88.2933 98.2649 88.6011 98.3608 88.9751 98.3608ZM93.5641 95.7188V99H92.726V93.5455H93.5357V94.3977H93.6067C93.7346 94.1207 93.9287 93.8982 94.1891 93.7301C94.4495 93.5597 94.7857 93.4744 95.1976 93.4744C95.5669 93.4744 95.8901 93.5502 96.1671 93.7017C96.4441 93.8509 96.6595 94.0781 96.8134 94.3835C96.9673 94.6866 97.0442 95.0701 97.0442 95.5341V99H96.2061V95.5909C96.2061 95.1624 96.0949 94.8286 95.8723 94.5895C95.6498 94.348 95.3444 94.2273 94.9561 94.2273C94.6886 94.2273 94.4495 94.2853 94.2388 94.4013C94.0305 94.5173 93.8659 94.6866 93.7452 94.9091C93.6245 95.1316 93.5641 95.4015 93.5641 95.7188ZM102.439 94.767L101.686 94.9801C101.639 94.8546 101.569 94.7327 101.477 94.6143C101.387 94.4936 101.264 94.3942 101.108 94.3161C100.951 94.2379 100.751 94.1989 100.507 94.1989C100.174 94.1989 99.8955 94.2758 99.6729 94.4297C99.4528 94.5812 99.3427 94.7741 99.3427 95.0085C99.3427 95.2169 99.4184 95.3814 99.57 95.5021C99.7215 95.6229 99.9582 95.7235 100.28 95.804L101.09 96.0028C101.578 96.1212 101.941 96.3023 102.18 96.5462C102.419 96.7876 102.539 97.099 102.539 97.4801C102.539 97.7926 102.449 98.072 102.269 98.3182C102.091 98.5644 101.843 98.7585 101.523 98.9006C101.203 99.0426 100.832 99.1136 100.408 99.1136C99.8517 99.1136 99.3912 98.9929 99.0266 98.7514C98.6621 98.5099 98.4312 98.1572 98.3342 97.6932L99.1296 97.4943C99.2054 97.7879 99.3486 98.008 99.5593 98.1548C99.7724 98.3016 100.051 98.375 100.394 98.375C100.784 98.375 101.095 98.2921 101.324 98.1264C101.556 97.9583 101.672 97.7571 101.672 97.5227C101.672 97.3333 101.606 97.1747 101.473 97.0469C101.341 96.9167 101.137 96.8196 100.863 96.7557L99.9535 96.5426C99.454 96.4242 99.087 96.2408 98.8526 95.9922C98.6206 95.7412 98.5046 95.4276 98.5046 95.0511C98.5046 94.7434 98.591 94.4711 98.7638 94.2344C98.939 93.9976 99.177 93.8118 99.4776 93.6768C99.7807 93.5419 100.124 93.4744 100.507 93.4744C101.047 93.4744 101.471 93.5928 101.779 93.8295C102.089 94.0663 102.309 94.3788 102.439 94.767ZM55.0955 111V103.727H57.5529C58.1211 103.727 58.5875 103.824 58.9521 104.018C59.3166 104.21 59.5865 104.474 59.7617 104.81C59.9369 105.147 60.0245 105.529 60.0245 105.957C60.0245 106.386 59.9369 106.766 59.7617 107.097C59.5865 107.429 59.3178 107.689 58.9556 107.879C58.5934 108.066 58.1306 108.159 57.5671 108.159H55.5785V107.364H57.5387C57.927 107.364 58.2395 107.307 58.4762 107.193C58.7153 107.08 58.8881 106.919 58.9947 106.71C59.1036 106.5 59.158 106.249 59.158 105.957C59.158 105.666 59.1036 105.412 58.9947 105.194C58.8858 104.976 58.7118 104.808 58.4727 104.69C58.2335 104.569 57.9175 104.509 57.5245 104.509H55.9762V111H55.0955ZM58.5188 107.733L60.3086 111H59.2859L57.5245 107.733H58.5188ZM63.6067 111.114C63.0811 111.114 62.6278 110.998 62.2466 110.766C61.8678 110.531 61.5755 110.205 61.3695 109.786C61.1659 109.364 61.0641 108.874 61.0641 108.315C61.0641 107.757 61.1659 107.264 61.3695 106.838C61.5755 106.41 61.8619 106.076 62.2289 105.837C62.5982 105.595 63.0291 105.474 63.5215 105.474C63.8056 105.474 64.0861 105.522 64.3631 105.616C64.6401 105.711 64.8922 105.865 65.1195 106.078C65.3468 106.289 65.5279 106.568 65.6628 106.916C65.7978 107.264 65.8652 107.693 65.8652 108.202V108.557H61.6607V107.832H65.013C65.013 107.525 64.9514 107.25 64.8283 107.009C64.7076 106.767 64.5347 106.576 64.3098 106.437C64.0873 106.297 63.8245 106.227 63.5215 106.227C63.1877 106.227 62.8989 106.31 62.655 106.476C62.4135 106.639 62.2277 106.852 62.0975 107.115C61.9673 107.378 61.9022 107.66 61.9022 107.96V108.443C61.9022 108.855 61.9732 109.204 62.1152 109.491C62.2596 109.775 62.4597 109.991 62.7154 110.141C62.9711 110.287 63.2682 110.361 63.6067 110.361C63.8269 110.361 64.0257 110.33 64.2033 110.268C64.3832 110.205 64.5383 110.11 64.6685 109.984C64.7987 109.857 64.8993 109.698 64.9703 109.509L65.78 109.736C65.6948 110.01 65.5516 110.252 65.3503 110.46C65.1491 110.666 64.9005 110.827 64.6046 110.943C64.3087 111.057 63.976 111.114 63.6067 111.114ZM71.4343 105.545L69.4173 111H68.565L66.5479 105.545H67.457L68.9627 109.892H69.0195L70.5252 105.545H71.4343ZM72.5405 111V105.545H73.3786V111H72.5405ZM72.9666 104.636C72.8033 104.636 72.6624 104.581 72.544 104.469C72.428 104.358 72.37 104.224 72.37 104.068C72.37 103.912 72.428 103.778 72.544 103.667C72.6624 103.556 72.8033 103.5 72.9666 103.5C73.13 103.5 73.2696 103.556 73.3857 103.667C73.504 103.778 73.5632 103.912 73.5632 104.068C73.5632 104.224 73.504 104.358 73.3857 104.469C73.2696 104.581 73.13 104.636 72.9666 104.636ZM78.7772 106.767L78.0243 106.98C77.977 106.855 77.9071 106.733 77.8148 106.614C77.7248 106.494 77.6017 106.394 77.4455 106.316C77.2892 106.238 77.0892 106.199 76.8453 106.199C76.5115 106.199 76.2334 106.276 76.0108 106.43C75.7907 106.581 75.6806 106.774 75.6806 107.009C75.6806 107.217 75.7563 107.381 75.9078 107.502C76.0594 107.623 76.2961 107.723 76.6181 107.804L77.4277 108.003C77.9154 108.121 78.2788 108.302 78.5179 108.546C78.757 108.788 78.8766 109.099 78.8766 109.48C78.8766 109.793 78.7866 110.072 78.6067 110.318C78.4292 110.564 78.1806 110.759 77.861 110.901C77.5414 111.043 77.1697 111.114 76.7459 111.114C76.1896 111.114 75.7291 110.993 75.3645 110.751C74.9999 110.51 74.7691 110.157 74.6721 109.693L75.4675 109.494C75.5433 109.788 75.6865 110.008 75.8972 110.155C76.1103 110.302 76.3884 110.375 76.7317 110.375C77.1223 110.375 77.4325 110.292 77.6621 110.126C77.8941 109.958 78.0101 109.757 78.0101 109.523C78.0101 109.333 77.9438 109.175 77.8113 109.047C77.6787 108.917 77.4751 108.82 77.2005 108.756L76.2914 108.543C75.7918 108.424 75.4249 108.241 75.1905 107.992C74.9585 107.741 74.8425 107.428 74.8425 107.051C74.8425 106.743 74.9289 106.471 75.1017 106.234C75.2769 105.998 75.5149 105.812 75.8155 105.677C76.1185 105.542 76.4618 105.474 76.8453 105.474C77.3851 105.474 77.8089 105.593 78.1167 105.83C78.4268 106.066 78.647 106.379 78.7772 106.767ZM80.1381 111V105.545H80.9762V111H80.1381ZM80.5643 104.636C80.4009 104.636 80.2601 104.581 80.1417 104.469C80.0257 104.358 79.9677 104.224 79.9677 104.068C79.9677 103.912 80.0257 103.778 80.1417 103.667C80.2601 103.556 80.4009 103.5 80.5643 103.5C80.7276 103.5 80.8673 103.556 80.9833 103.667C81.1017 103.778 81.1609 103.912 81.1609 104.068C81.1609 104.224 81.1017 104.358 80.9833 104.469C80.8673 104.581 80.7276 104.636 80.5643 104.636ZM84.7271 111.114C84.2347 111.114 83.8026 110.996 83.4309 110.762C83.0616 110.528 82.7728 110.2 82.5645 109.778C82.3585 109.357 82.2555 108.865 82.2555 108.301C82.2555 107.733 82.3585 107.237 82.5645 106.813C82.7728 106.389 83.0616 106.06 83.4309 105.826C83.8026 105.592 84.2347 105.474 84.7271 105.474C85.2195 105.474 85.6504 105.592 86.0197 105.826C86.3914 106.06 86.6802 106.389 86.8862 106.813C87.0945 107.237 87.1987 107.733 87.1987 108.301C87.1987 108.865 87.0945 109.357 86.8862 109.778C86.6802 110.2 86.3914 110.528 86.0197 110.762C85.6504 110.996 85.2195 111.114 84.7271 111.114ZM84.7271 110.361C85.1011 110.361 85.4089 110.265 85.6504 110.073C85.8919 109.881 86.0706 109.629 86.1866 109.317C86.3026 109.004 86.3606 108.666 86.3606 108.301C86.3606 107.937 86.3026 107.597 86.1866 107.282C86.0706 106.967 85.8919 106.713 85.6504 106.518C85.4089 106.324 85.1011 106.227 84.7271 106.227C84.353 106.227 84.0453 106.324 83.8038 106.518C83.5623 106.713 83.3836 106.967 83.2676 107.282C83.1516 107.597 83.0936 107.937 83.0936 108.301C83.0936 108.666 83.1516 109.004 83.2676 109.317C83.3836 109.629 83.5623 109.881 83.8038 110.073C84.0453 110.265 84.353 110.361 84.7271 110.361ZM89.3161 107.719V111H88.478V105.545H89.2876V106.398H89.3587C89.4865 106.121 89.6806 105.898 89.9411 105.73C90.2015 105.56 90.5376 105.474 90.9496 105.474C91.3189 105.474 91.642 105.55 91.919 105.702C92.196 105.851 92.4115 106.078 92.5653 106.384C92.7192 106.687 92.7962 107.07 92.7962 107.534V111H91.9581V107.591C91.9581 107.162 91.8468 106.829 91.6243 106.589C91.4018 106.348 91.0964 106.227 90.7081 106.227C90.4406 106.227 90.2015 106.285 89.9908 106.401C89.7824 106.517 89.6179 106.687 89.4972 106.909C89.3764 107.132 89.3161 107.402 89.3161 107.719ZM98.1912 106.767L97.4384 106.98C97.391 106.855 97.3212 106.733 97.2289 106.614C97.1389 106.494 97.0158 106.394 96.8596 106.316C96.7033 106.238 96.5033 106.199 96.2594 106.199C95.9256 106.199 95.6474 106.276 95.4249 106.43C95.2047 106.581 95.0946 106.774 95.0946 107.009C95.0946 107.217 95.1704 107.381 95.3219 107.502C95.4734 107.623 95.7102 107.723 96.0321 107.804L96.8418 108.003C97.3295 108.121 97.6929 108.302 97.932 108.546C98.1711 108.788 98.2907 109.099 98.2907 109.48C98.2907 109.793 98.2007 110.072 98.0208 110.318C97.8432 110.564 97.5946 110.759 97.275 110.901C96.9554 111.043 96.5837 111.114 96.16 111.114C95.6036 111.114 95.1432 110.993 94.7786 110.751C94.414 110.51 94.1832 110.157 94.0861 109.693L94.8816 109.494C94.9573 109.788 95.1006 110.008 95.3113 110.155C95.5243 110.302 95.8025 110.375 96.1458 110.375C96.5364 110.375 96.8465 110.292 97.0762 110.126C97.3082 109.958 97.4242 109.757 97.4242 109.523C97.4242 109.333 97.3579 109.175 97.2253 109.047C97.0927 108.917 96.8891 108.82 96.6145 108.756L95.7054 108.543C95.2059 108.424 94.839 108.241 94.6046 107.992C94.3726 107.741 94.2566 107.428 94.2566 107.051C94.2566 106.743 94.343 106.471 94.5158 106.234C94.691 105.998 94.9289 105.812 95.2296 105.677C95.5326 105.542 95.8759 105.474 96.2594 105.474C96.7992 105.474 97.223 105.593 97.5307 105.83C97.8408 106.066 98.061 106.379 98.1912 106.767Z" fill="#5C5F63"/>
<defs>
<clipPath id="clip0_861_5777">
<rect width="34" height="30" fill="white" transform="translate(59 33)"/>
</clipPath>
</defs>
</svg>
