<svg width="136" height="122" viewBox="0 0 136 122" fill="none" xmlns="http://www.w3.org/2000/svg">
<path d="M43.4891 16.5698L44.5978 17.0287L44.6891 16.8083V16.5698H43.4891ZM18.8291 76.1498V77.3498H19.6311L19.9378 76.6087L18.8291 76.1498ZM8.47906 76.1498L7.37468 75.6804L6.66512 77.3498H8.47906V76.1498ZM33.2291 17.9198L34.3334 18.3892L35.043 16.7198H33.2291V17.9198ZM2.53906 17.9198H1.33906V19.1198H2.53906V17.9198ZM2.53906 9.00979V7.80979H1.33906V9.00979H2.53906ZM43.4891 9.00979H44.6891V7.80979H43.4891V9.00979ZM42.3803 16.1109L17.7203 75.6909L19.9378 76.6087L44.5978 17.0287L42.3803 16.1109ZM18.8291 74.9498H8.47906V77.3498H18.8291V74.9498ZM9.58344 76.6192L34.3334 18.3892L32.1247 17.4504L7.37468 75.6804L9.58344 76.6192ZM33.2291 16.7198H2.53906V19.1198H33.2291V16.7198ZM3.73906 17.9198V9.00979H1.33906V17.9198H3.73906ZM2.53906 10.2098H43.4891V7.80979H2.53906V10.2098ZM42.2891 9.00979V16.5698H44.6891V9.00979H42.2891Z" fill="#565555"/>
<circle cx="69.5682" cy="67.3563" r="53.2269" fill="white" stroke="black"/>
<g clip-path="url(#clip0_861_5748)">
<path d="M57.5385 45.5878C57.5385 40.5725 61.3255 36.4046 66.2722 35.6031C66.8402 35.5115 67.4083 35.4656 68 35.4656C68.5917 35.4656 69.1834 35.5115 69.7278 35.6031C74.6746 36.4046 78.4616 40.5725 78.4616 45.5878C78.4616 47.9924 77.6095 50.1908 76.1657 51.9313L79.1479 49.8015C79.574 48.7252 79.858 47.5573 79.929 46.3435C79.9527 46.0916 79.9527 45.8626 79.9527 45.6107C79.9763 39.1756 74.6036 34 68 34C61.3965 34 56.0237 39.1756 56.0237 45.5878C56.0237 45.8397 56.0237 46.0916 56.0474 46.3206C56.1184 47.5114 56.4024 48.6794 56.8284 49.7557L59.787 51.8626C58.3905 50.145 57.5385 47.9695 57.5385 45.5878Z" fill="#5C5F63"/>
<path d="M84 46.7786H80.5444V47.9008H82.5562L77.7278 51.4046L75.1243 53.2824L71.3373 56.0076L69.5148 57.313C69.5148 57.313 68.7574 57.8626 68.7337 57.8626C68.3077 58.1374 67.6923 58.1374 67.2663 57.8626C67.2426 57.8626 66.1065 57.0153 66.0828 57.0153L64.6864 56.0076L60.8521 53.2595L58.2722 51.4046L53.5148 47.9237H55.6213L55.645 46.8015H52V64.916C52 65.9695 52.7337 66.9771 53.8225 66.9771H81.9172C82.9822 66.9771 84 65.9695 84 64.9389V46.7786V46.7786ZM53.4201 64.9847C53.2544 64.7328 53.1598 64.4351 53.1598 64.1145V49.1832L59.2426 53.4885L63.1006 56.2595L62.7219 56.5802L53.4201 64.9847ZM80.8047 65.8779H55.1953C54.8876 65.8779 54.6036 65.8321 54.3432 65.7176L63.8343 57.1298L64.0473 56.9466L65.2071 57.7939L67.0769 59.1221C67.6213 59.5114 68.3787 59.5114 68.9231 59.1221L70.7929 57.7939L72 56.9008L72.2604 57.1298L81.7515 65.6947C81.4438 65.8092 81.1361 65.8779 80.8047 65.8779ZM82.8402 64.1145C82.8402 64.4122 82.7219 64.6641 82.6036 64.916L73.3491 56.5344L72.9704 56.2137L76.8047 53.4427L82.8166 49.2061V64.1145H82.8402Z" fill="#5C5F63"/>
<path d="M71.6215 50.6033C70.8168 51.1758 69.8464 51.4964 68.6393 51.5651V52.4812C68.6393 52.7331 68.4499 52.8705 68.0476 52.8705C67.6452 52.8705 67.4559 52.7331 67.4559 52.4812V51.5651C65.8464 51.4506 64.592 50.7636 63.6925 49.5041C63.2902 48.9545 63.1008 48.4048 63.1008 47.7865C63.1008 47.5575 63.1718 47.3514 63.3612 47.214C63.5269 47.0537 63.7399 46.985 63.9766 46.985C64.3316 46.985 64.592 47.2827 64.805 47.8323C65.231 49.0919 66.1067 49.8018 67.4559 49.9621V45.4277C66.9588 45.2445 66.5801 45.0842 66.3434 44.9697C64.5446 44.1911 63.6452 43.1835 63.6452 41.9697C63.6452 40.1148 64.8996 39.0842 67.4795 38.8781V37.756C67.4795 37.5041 67.6689 37.3667 68.0712 37.3667C68.4499 37.3667 68.663 37.5041 68.663 37.756V38.8552C70.4381 38.9239 71.7399 39.4964 72.4973 40.5728C72.8286 41.0766 73.018 41.5346 73.018 41.901C73.018 42.5193 72.6866 42.84 72.0476 42.84C71.7636 42.84 71.5505 42.6796 71.3849 42.3361C70.7931 41.1682 69.8937 40.5499 68.663 40.4583V44.2369C70.0594 44.7636 71.0535 45.1987 71.6215 45.5651C72.5446 46.2293 73.018 47.0308 73.018 47.9926C72.9707 49.0919 72.5209 49.9621 71.6215 50.6033ZM67.4559 40.4583C66.0831 40.6415 65.4204 41.1224 65.4204 41.8781C65.4204 42.588 66.1067 43.2293 67.4559 43.7789V40.4583ZM70.2488 46.7102C69.8227 46.4812 69.2783 46.2064 68.6156 45.9087V49.9621C70.3671 49.7789 71.2428 49.1377 71.2428 47.9697C71.2428 47.5346 70.9115 47.1224 70.2488 46.7102Z" fill="#5C5F63"/>
</g>
<path d="M45.06 79.568L44.094 79.918C45.844 83.432 49.106 85.448 53.782 86.162C53.936 85.868 54.216 85.406 54.454 85.168C49.862 84.552 46.586 82.676 45.06 79.568ZM42.708 78.588V79.61H51.836V78.588H42.708ZM42.064 75.382V76.432H53.88V75.382H42.064ZM47.426 73.254V79.064H48.504V73.254H47.426ZM51.5 78.588V78.798C50.044 82.634 46.096 84.412 41.546 85.126C41.742 85.364 42.022 85.854 42.12 86.12C46.768 85.28 50.926 83.292 52.662 78.98L51.948 78.546L51.738 78.588H51.5ZM59.816 76.362V77.426H68.356V76.362H59.816ZM65.514 73.408V84.692C65.514 85.014 65.388 85.098 65.052 85.126C64.73 85.14 63.568 85.14 62.378 85.098C62.546 85.392 62.742 85.868 62.798 86.148C64.324 86.162 65.276 86.148 65.822 85.966C66.354 85.812 66.578 85.49 66.578 84.692V73.408H65.514ZM60.698 79.33C61.412 80.45 62.322 81.962 62.742 82.83L63.722 82.298C63.274 81.444 62.336 79.988 61.608 78.896L60.698 79.33ZM57.59 77.062V86.092H58.654V76.026L58.64 75.998L57.59 77.062ZM59.116 73.338C58.304 75.522 56.96 77.664 55.518 79.036C55.714 79.288 56.05 79.82 56.176 80.072C57.73 78.49 59.2 76.082 60.138 73.646L59.116 73.338ZM70.848 73.912V78.014C70.848 80.24 70.736 83.362 69.42 85.574C69.686 85.672 70.162 85.938 70.358 86.092C71.73 83.81 71.912 80.38 71.912 78.014V73.912H70.848ZM71.59 73.912V74.836H80.326V76.39H71.59V77.3H81.376V73.912H71.59ZM75.804 78.434V84.328C75.804 85.588 76.21 85.91 77.666 85.91C77.988 85.91 80.186 85.91 80.536 85.91C81.768 85.91 82.076 85.448 82.216 83.81C81.922 83.74 81.516 83.586 81.278 83.404C81.194 84.706 81.082 84.944 80.466 84.944C79.99 84.944 78.1 84.944 77.75 84.944C76.966 84.944 76.84 84.846 76.84 84.314V78.434H75.804ZM79.136 77.342C77.68 77.902 74.95 78.406 72.584 78.714C72.696 78.924 72.822 79.26 72.864 79.47C75.328 79.176 78.17 78.686 80.018 78.028L79.136 77.342ZM72.5 80.758L72.668 81.626L80.97 80.352L80.816 79.498L72.5 80.758ZM72.038 83.012L72.206 83.894L81.964 82.368L81.81 81.5L72.038 83.012ZM83.714 74.584V75.466H90.182V74.584H83.714ZM83.546 80.576V81.458H90.308V80.576H83.546ZM84.036 76.67V77.566H89.888V76.67H84.036ZM84.19 78.616V79.498H89.72V78.616H84.19ZM86.458 80.954V85.042C86.458 85.182 86.416 85.224 86.262 85.224C86.108 85.238 85.618 85.238 85.058 85.224C85.184 85.49 85.324 85.868 85.366 86.134C86.164 86.134 86.668 86.12 87.004 85.966C87.354 85.826 87.438 85.546 87.438 85.056V80.954H86.458ZM86.444 73.296V77.244H87.438V73.296H86.444ZM84.624 81.948C84.372 82.998 83.924 84.048 83.336 84.776C83.56 84.86 83.966 85.084 84.148 85.21C84.722 84.44 85.226 83.292 85.52 82.116L84.624 81.948ZM88.25 82.256C88.656 82.942 89.076 83.88 89.258 84.44L90.084 84.034C89.916 83.488 89.468 82.606 89.048 81.934L88.25 82.256ZM91.33 75.788V76.754H95.572V75.788H91.33ZM93.038 76.18H92.52V78.672C92.52 79.82 92.1 83.418 89.16 85.294C89.356 85.49 89.65 85.91 89.762 86.134C92.058 84.636 92.884 82.032 93.024 80.828C93.164 81.976 93.892 84.706 95.88 86.134C96.02 85.882 96.342 85.476 96.524 85.238C93.948 83.418 93.528 79.792 93.528 78.672V76.18H93.038ZM91.372 73.226C91.106 75.466 90.588 77.622 89.692 79.008C89.944 79.162 90.406 79.47 90.588 79.638C91.498 78.126 92.1 75.816 92.422 73.394L91.372 73.226ZM95.278 75.788V75.984C95.152 77.062 94.942 78.476 94.718 79.33L95.558 79.568C95.838 78.644 96.104 77.174 96.286 75.942L95.614 75.746L95.432 75.788H95.278Z" fill="#5C5F63"/>
<path d="M50.7254 98V90.7273H53.1828C53.7533 90.7273 54.2197 90.8303 54.5819 91.0362C54.9465 91.2398 55.2164 91.5156 55.3916 91.8636C55.5668 92.2116 55.6544 92.5999 55.6544 93.0284C55.6544 93.4569 55.5668 93.8464 55.3916 94.1967C55.2188 94.5471 54.9513 94.8265 54.589 95.0348C54.2268 95.2408 53.7628 95.3438 53.197 95.3438H51.4356V94.5625H53.1686C53.5592 94.5625 53.8729 94.495 54.1096 94.3601C54.3464 94.2251 54.518 94.0429 54.6246 93.8132C54.7335 93.5812 54.7879 93.3196 54.7879 93.0284C54.7879 92.7372 54.7335 92.4768 54.6246 92.2472C54.518 92.0175 54.3452 91.8376 54.1061 91.7074C53.867 91.5748 53.5497 91.5085 53.1544 91.5085H51.6061V98H50.7254ZM58.5645 98.1278C58.2189 98.1278 57.9052 98.0627 57.6235 97.9325C57.3418 97.8 57.118 97.6094 56.9523 97.3608C56.7866 97.1098 56.7037 96.8068 56.7037 96.4517C56.7037 96.1392 56.7653 95.8859 56.8884 95.6918C57.0115 95.4953 57.176 95.3414 57.382 95.2301C57.588 95.1188 57.8153 95.036 58.0638 94.9815C58.3148 94.9247 58.5669 94.8797 58.8202 94.8466C59.1517 94.804 59.4204 94.772 59.6263 94.7507C59.8347 94.727 59.9862 94.688 60.0809 94.6335C60.1779 94.5791 60.2265 94.4844 60.2265 94.3494V94.321C60.2265 93.9706 60.1306 93.6984 59.9388 93.5043C59.7494 93.3101 59.4618 93.2131 59.0759 93.2131C58.6758 93.2131 58.3621 93.3007 58.1349 93.4759C57.9076 93.651 57.7478 93.8381 57.6555 94.0369L56.86 93.7528C57.002 93.4214 57.1914 93.1634 57.4282 92.9787C57.6673 92.7917 57.9277 92.6615 58.2094 92.5881C58.4935 92.5123 58.7729 92.4744 59.0475 92.4744C59.2227 92.4744 59.4239 92.4957 59.6512 92.5384C59.8808 92.5786 60.1022 92.6626 60.3153 92.7905C60.5307 92.9183 60.7094 93.1113 60.8515 93.3693C60.9935 93.6274 61.0645 93.973 61.0645 94.4062V98H60.2265V97.2614H60.1839C60.127 97.3797 60.0323 97.5064 59.8998 97.6413C59.7672 97.7763 59.5908 97.8911 59.3706 97.9858C59.1505 98.0805 58.8818 98.1278 58.5645 98.1278ZM58.6924 97.375C59.0238 97.375 59.3032 97.3099 59.5305 97.1797C59.7601 97.0495 59.9329 96.8814 60.0489 96.6754C60.1673 96.4695 60.2265 96.2528 60.2265 96.0256V95.2585C60.191 95.3011 60.1128 95.3402 59.9921 95.3757C59.8737 95.4089 59.7364 95.4384 59.5802 95.4645C59.4263 95.4882 59.276 95.5095 59.1292 95.5284C58.9848 95.545 58.8676 95.5592 58.7776 95.571C58.5598 95.5994 58.3562 95.6456 58.1668 95.7095C57.9798 95.7711 57.8283 95.8646 57.7123 95.9901C57.5986 96.1132 57.5418 96.2812 57.5418 96.4943C57.5418 96.7855 57.6495 97.0057 57.865 97.1548C58.0828 97.3016 58.3586 97.375 58.6924 97.375ZM62.9387 100.045C62.7966 100.045 62.67 100.034 62.5587 100.01C62.4474 99.9886 62.3705 99.9673 62.3279 99.946L62.5409 99.2074C62.7445 99.2595 62.9244 99.2784 63.0807 99.2642C63.2369 99.25 63.3754 99.1802 63.4962 99.0547C63.6193 98.9316 63.7317 98.7315 63.8335 98.4545L63.9898 98.0284L61.9727 92.5455H62.8818L64.3875 96.892H64.4443L65.95 92.5455H66.8591L64.5438 98.7955C64.4396 99.0772 64.3106 99.3104 64.1567 99.495C64.0028 99.6821 63.8241 99.8205 63.6205 99.9105C63.4192 100 63.192 100.045 62.9387 100.045ZM70.4937 91.5085V90.7273H75.9482V91.5085H73.6613V98H72.7806V91.5085H70.4937ZM78.0319 94.7188V98H77.1938V90.7273H78.0319V93.3977H78.1029C78.2307 93.116 78.4225 92.8923 78.6782 92.7266C78.9362 92.5585 79.2795 92.4744 79.708 92.4744C80.0797 92.4744 80.4052 92.549 80.6846 92.6982C80.9639 92.8449 81.1805 93.071 81.3344 93.3764C81.4907 93.6795 81.5688 94.0653 81.5688 94.5341V98H80.7307V94.5909C80.7307 94.1577 80.6183 93.8227 80.3934 93.5859C80.1708 93.3468 79.8619 93.2273 79.4665 93.2273C79.1919 93.2273 78.9457 93.2853 78.7279 93.4013C78.5125 93.5173 78.342 93.6866 78.2165 93.9091C78.0934 94.1316 78.0319 94.4015 78.0319 94.7188ZM85.3889 98.1136C84.8634 98.1136 84.41 97.9976 84.0289 97.7656C83.6501 97.5312 83.3577 97.2045 83.1517 96.7855C82.9481 96.3641 82.8463 95.8741 82.8463 95.3153C82.8463 94.7566 82.9481 94.2642 83.1517 93.8381C83.3577 93.4096 83.6441 93.0758 84.0111 92.8366C84.3804 92.5952 84.8113 92.4744 85.3037 92.4744C85.5878 92.4744 85.8683 92.5218 86.1453 92.6165C86.4223 92.7112 86.6744 92.8651 86.9017 93.0781C87.129 93.2888 87.3101 93.5682 87.445 93.9162C87.58 94.2642 87.6475 94.6927 87.6475 95.2017V95.5568H83.4429V94.8324H86.7952C86.7952 94.5246 86.7336 94.25 86.6105 94.0085C86.4898 93.767 86.317 93.5765 86.0921 93.4368C85.8695 93.2971 85.6067 93.2273 85.3037 93.2273C84.9699 93.2273 84.6811 93.3101 84.4372 93.4759C84.1958 93.6392 84.0099 93.8523 83.8797 94.1151C83.7495 94.3778 83.6844 94.6596 83.6844 94.9602V95.4432C83.6844 95.8551 83.7554 96.2043 83.8975 96.4908C84.0419 96.7749 84.2419 96.9915 84.4976 97.1406C84.7533 97.2874 85.0504 97.3608 85.3889 97.3608C85.6091 97.3608 85.808 97.33 85.9855 97.2685C86.1655 97.2045 86.3205 97.1098 86.4507 96.9844C86.5809 96.8565 86.6816 96.6979 86.7526 96.5085L87.5622 96.7358C87.477 97.0104 87.3338 97.2519 87.1325 97.4602C86.9313 97.6662 86.6827 97.8272 86.3868 97.9432C86.0909 98.0568 85.7583 98.1136 85.3889 98.1136ZM51.1795 110V102.727H53.7221C54.2288 102.727 54.6466 102.815 54.9757 102.99C55.3047 103.163 55.5498 103.396 55.7108 103.69C55.8717 103.981 55.9522 104.304 55.9522 104.659C55.9522 104.972 55.8966 105.23 55.7853 105.433C55.6764 105.637 55.532 105.798 55.3521 105.916C55.1745 106.035 54.9816 106.122 54.7733 106.179V106.25C54.9958 106.264 55.2195 106.342 55.4444 106.484C55.6693 106.626 55.8575 106.83 56.0091 107.095C56.1606 107.36 56.2363 107.685 56.2363 108.068C56.2363 108.433 56.1535 108.761 55.9877 109.052C55.822 109.343 55.5604 109.574 55.2029 109.744C54.8455 109.915 54.3803 110 53.8074 110H51.1795ZM52.0602 109.219H53.8074C54.3826 109.219 54.791 109.107 55.0325 108.885C55.2763 108.66 55.3983 108.388 55.3983 108.068C55.3983 107.822 55.3355 107.595 55.21 107.386C55.0846 107.176 54.9058 107.008 54.6738 106.882C54.4418 106.754 54.1672 106.69 53.85 106.69H52.0602V109.219ZM52.0602 105.923H53.6937C53.9589 105.923 54.198 105.871 54.411 105.767C54.6265 105.663 54.7969 105.516 54.9224 105.327C55.0502 105.137 55.1142 104.915 55.1142 104.659C55.1142 104.339 55.0029 104.068 54.7804 103.846C54.5578 103.621 54.2051 103.509 53.7221 103.509H52.0602V105.923ZM59.1749 110.128C58.8292 110.128 58.5156 110.063 58.2338 109.933C57.9521 109.8 57.7284 109.609 57.5627 109.361C57.397 109.11 57.3141 108.807 57.3141 108.452C57.3141 108.139 57.3757 107.886 57.4988 107.692C57.6219 107.495 57.7864 107.341 57.9924 107.23C58.1983 107.119 58.4256 107.036 58.6742 106.982C58.9251 106.925 59.1773 106.88 59.4306 106.847C59.762 106.804 60.0307 106.772 60.2367 106.751C60.445 106.727 60.5965 106.688 60.6912 106.634C60.7883 106.579 60.8368 106.484 60.8368 106.349V106.321C60.8368 105.971 60.7409 105.698 60.5492 105.504C60.3598 105.31 60.0721 105.213 59.6863 105.213C59.2862 105.213 58.9725 105.301 58.7452 105.476C58.5179 105.651 58.3581 105.838 58.2658 106.037L57.4703 105.753C57.6124 105.421 57.8018 105.163 58.0385 104.979C58.2776 104.792 58.5381 104.661 58.8198 104.588C59.1039 104.512 59.3832 104.474 59.6578 104.474C59.833 104.474 60.0343 104.496 60.2615 104.538C60.4912 104.579 60.7125 104.663 60.9256 104.79C61.141 104.918 61.3198 105.111 61.4618 105.369C61.6039 105.627 61.6749 105.973 61.6749 106.406V110H60.8368V109.261H60.7942C60.7374 109.38 60.6427 109.506 60.5101 109.641C60.3775 109.776 60.2012 109.891 59.981 109.986C59.7608 110.08 59.4921 110.128 59.1749 110.128ZM59.3027 109.375C59.6342 109.375 59.9135 109.31 60.1408 109.18C60.3704 109.049 60.5433 108.881 60.6593 108.675C60.7776 108.469 60.8368 108.253 60.8368 108.026V107.259C60.8013 107.301 60.7232 107.34 60.6025 107.376C60.4841 107.409 60.3468 107.438 60.1905 107.464C60.0366 107.488 59.8863 107.509 59.7395 107.528C59.5951 107.545 59.4779 107.559 59.388 107.571C59.1702 107.599 58.9666 107.646 58.7772 107.71C58.5901 107.771 58.4386 107.865 58.3226 107.99C58.209 108.113 58.1522 108.281 58.1522 108.494C58.1522 108.786 58.2599 109.006 58.4753 109.155C58.6931 109.302 58.9689 109.375 59.3027 109.375ZM64.0426 102.727V110H63.2045V102.727H64.0426ZM67.1827 110.128C66.8371 110.128 66.5234 110.063 66.2417 109.933C65.9599 109.8 65.7362 109.609 65.5705 109.361C65.4048 109.11 65.3219 108.807 65.3219 108.452C65.3219 108.139 65.3835 107.886 65.5066 107.692C65.6297 107.495 65.7942 107.341 66.0002 107.23C66.2061 107.119 66.4334 107.036 66.682 106.982C66.9329 106.925 67.1851 106.88 67.4384 106.847C67.7698 106.804 68.0385 106.772 68.2445 106.751C68.4528 106.727 68.6043 106.688 68.699 106.634C68.7961 106.579 68.8446 106.484 68.8446 106.349V106.321C68.8446 105.971 68.7488 105.698 68.557 105.504C68.3676 105.31 68.08 105.213 67.6941 105.213C67.294 105.213 66.9803 105.301 66.753 105.476C66.5257 105.651 66.3659 105.838 66.2736 106.037L65.4782 105.753C65.6202 105.421 65.8096 105.163 66.0463 104.979C66.2855 104.792 66.5459 104.661 66.8276 104.588C67.1117 104.512 67.391 104.474 67.6657 104.474C67.8408 104.474 68.0421 104.496 68.2694 104.538C68.499 104.579 68.7203 104.663 68.9334 104.79C69.1489 104.918 69.3276 105.111 69.4696 105.369C69.6117 105.627 69.6827 105.973 69.6827 106.406V110H68.8446V109.261H68.802C68.7452 109.38 68.6505 109.506 68.5179 109.641C68.3854 109.776 68.209 109.891 67.9888 109.986C67.7686 110.08 67.4999 110.128 67.1827 110.128ZM67.3105 109.375C67.642 109.375 67.9213 109.31 68.1486 109.18C68.3783 109.049 68.5511 108.881 68.6671 108.675C68.7855 108.469 68.8446 108.253 68.8446 108.026V107.259C68.8091 107.301 68.731 107.34 68.6103 107.376C68.4919 107.409 68.3546 107.438 68.1983 107.464C68.0444 107.488 67.8941 107.509 67.7473 107.528C67.6029 107.545 67.4857 107.559 67.3958 107.571C67.178 107.599 66.9744 107.646 66.785 107.71C66.598 107.771 66.4464 107.865 66.3304 107.99C66.2168 108.113 66.16 108.281 66.16 108.494C66.16 108.786 66.2677 109.006 66.4831 109.155C66.7009 109.302 66.9767 109.375 67.3105 109.375ZM72.0504 106.719V110H71.2124V104.545H72.022V105.398H72.093C72.2209 105.121 72.415 104.898 72.6754 104.73C72.9358 104.56 73.272 104.474 73.6839 104.474C74.0533 104.474 74.3764 104.55 74.6534 104.702C74.9304 104.851 75.1458 105.078 75.2997 105.384C75.4536 105.687 75.5305 106.07 75.5305 106.534V110H74.6925V106.591C74.6925 106.162 74.5812 105.829 74.3587 105.589C74.1361 105.348 73.8307 105.227 73.4425 105.227C73.175 105.227 72.9358 105.285 72.7251 105.401C72.5168 105.517 72.3523 105.687 72.2315 105.909C72.1108 106.132 72.0504 106.402 72.0504 106.719ZM79.2779 110.114C78.7665 110.114 78.3262 109.993 77.9569 109.751C77.5875 109.51 77.3034 109.177 77.1046 108.754C76.9057 108.33 76.8063 107.846 76.8063 107.301C76.8063 106.747 76.9081 106.258 77.1117 105.835C77.3176 105.408 77.6041 105.076 77.9711 104.837C78.3404 104.595 78.7712 104.474 79.2637 104.474C79.6472 104.474 79.9928 104.545 80.3006 104.688C80.6084 104.83 80.8605 105.028 81.057 105.284C81.2535 105.54 81.3754 105.838 81.4228 106.179H80.5847C80.5208 105.93 80.3787 105.71 80.1586 105.518C79.9408 105.324 79.6472 105.227 79.2779 105.227C78.9512 105.227 78.6647 105.312 78.4185 105.483C78.1747 105.651 77.9841 105.889 77.8468 106.197C77.7118 106.502 77.6444 106.861 77.6444 107.273C77.6444 107.694 77.7106 108.061 77.8432 108.374C77.9782 108.686 78.1676 108.929 78.4114 109.102C78.6576 109.274 78.9464 109.361 79.2779 109.361C79.4957 109.361 79.6934 109.323 79.8709 109.247C80.0485 109.171 80.1988 109.062 80.3219 108.92C80.445 108.778 80.5326 108.608 80.5847 108.409H81.4228C81.3754 108.731 81.2582 109.021 81.0712 109.279C80.8865 109.535 80.6415 109.738 80.3361 109.89C80.0331 110.039 79.6803 110.114 79.2779 110.114ZM84.9348 110.114C84.4093 110.114 83.9559 109.998 83.5748 109.766C83.196 109.531 82.9036 109.205 82.6976 108.786C82.494 108.364 82.3922 107.874 82.3922 107.315C82.3922 106.757 82.494 106.264 82.6976 105.838C82.9036 105.41 83.19 105.076 83.557 104.837C83.9263 104.595 84.3572 104.474 84.8496 104.474C85.1337 104.474 85.4142 104.522 85.6912 104.616C85.9682 104.711 86.2203 104.865 86.4476 105.078C86.6749 105.289 86.856 105.568 86.9909 105.916C87.1259 106.264 87.1934 106.693 87.1934 107.202V107.557H82.9888V106.832H86.3411C86.3411 106.525 86.2795 106.25 86.1564 106.009C86.0357 105.767 85.8629 105.576 85.638 105.437C85.4154 105.297 85.1526 105.227 84.8496 105.227C84.5158 105.227 84.227 105.31 83.9831 105.476C83.7417 105.639 83.5558 105.852 83.4256 106.115C83.2954 106.378 83.2303 106.66 83.2303 106.96V107.443C83.2303 107.855 83.3013 108.204 83.4434 108.491C83.5878 108.775 83.7878 108.991 84.0435 109.141C84.2992 109.287 84.5963 109.361 84.9348 109.361C85.155 109.361 85.3539 109.33 85.5314 109.268C85.7114 109.205 85.8664 109.11 85.9966 108.984C86.1268 108.857 86.2275 108.698 86.2985 108.509L87.1081 108.736C87.0229 109.01 86.8797 109.252 86.6784 109.46C86.4772 109.666 86.2286 109.827 85.9327 109.943C85.6368 110.057 85.3042 110.114 84.9348 110.114Z" fill="#5C5F63"/>
<defs>
<clipPath id="clip0_861_5748">
<rect width="32" height="33" fill="white" transform="translate(52 34)"/>
</clipPath>
</defs>
</svg>
