<svg width="136" height="121" viewBox="0 0 136 121" fill="none" xmlns="http://www.w3.org/2000/svg">
<path d="M42.7981 18.7536L42.3747 19.8765L43.8879 20.447L43.9954 18.8335L42.7981 18.7536ZM12.0181 37.1136L10.8242 36.9927L10.4552 40.6342L12.9086 37.918L12.0181 37.1136ZM38.2981 35.9436L39.0463 35.0054L39.0422 35.0022L38.2981 35.9436ZM39.6481 69.9636L38.7742 69.1412L38.7678 69.1481L39.6481 69.9636ZM8.68809 18.3036L7.71545 17.6007L7.70905 17.6097L8.68809 18.3036ZM43.4281 9.30363L44.6254 9.38345L44.6906 8.4066L43.7467 8.14669L43.4281 9.30363ZM15.3481 44.0436L14.4996 43.1951L14.4996 43.1951L15.3481 44.0436ZM15.0781 62.6736L16.0358 61.9505L16.0276 61.9399L15.0781 62.6736ZM32.8081 63.2136L31.9161 62.4109L31.9018 62.4268L31.888 62.4433L32.8081 63.2136ZM43.2215 17.6308C39.4184 16.1968 35.3742 15.4836 31.0981 15.4836V17.8836C35.102 17.8836 38.8578 18.5504 42.3747 19.8765L43.2215 17.6308ZM31.0981 15.4836C25.1733 15.4836 20.4011 17.2726 16.9461 20.9721C13.5203 24.6403 11.5287 30.0391 10.8242 36.9927L13.212 37.2346C13.8874 30.5681 15.7659 25.752 18.7001 22.6102C21.6051 19.4997 25.6829 17.8836 31.0981 17.8836V15.4836ZM12.9086 37.918C16.0428 34.448 19.8901 32.7336 24.5281 32.7336V30.3336C19.2061 30.3336 14.7134 32.3393 11.1276 36.3093L12.9086 37.918ZM24.5281 32.7336C29.7609 32.7336 34.0773 34.1373 37.554 36.8851L39.0422 35.0022C35.0789 31.8699 30.2152 30.3336 24.5281 30.3336V32.7336ZM37.5499 36.8818C41.9327 40.377 44.2081 45.6861 44.2081 53.0436H46.6081C46.6081 45.1612 44.1435 39.0703 39.0463 35.0054L37.5499 36.8818ZM44.2081 53.0436C44.2081 60.0283 42.3501 65.3419 38.7743 69.1412L40.5219 70.7861C44.6261 66.4254 46.6081 60.459 46.6081 53.0436H44.2081ZM38.7678 69.1481C35.2675 72.9262 30.2801 74.8836 23.6281 74.8836V77.2836C30.7761 77.2836 36.4687 75.1611 40.5284 70.7792L38.7678 69.1481ZM23.6281 74.8836C16.8012 74.8836 11.8226 72.3831 8.49015 67.4472C5.101 62.4273 3.31809 54.7463 3.31809 44.2236H0.918093C0.918093 54.941 2.72019 63.19 6.50104 68.7901C10.3386 74.4741 16.115 77.2836 23.6281 77.2836V74.8836ZM3.31809 44.2236C3.31809 33.262 5.48365 24.9002 9.66714 18.9975L7.70905 17.6097C3.13254 24.067 0.918093 32.9853 0.918093 44.2236H3.31809ZM9.66069 19.0065C14.5543 12.2351 21.898 8.79363 31.9081 8.79363V6.39363C21.2782 6.39363 13.1419 10.0921 7.71549 17.6007L9.66069 19.0065ZM31.9081 8.79363C35.3205 8.79363 39.0521 9.3433 43.1095 10.4606L43.7467 8.14669C39.5241 6.98396 35.5757 6.39363 31.9081 6.39363V8.79363ZM42.2307 9.22381L41.6008 18.6738L43.9954 18.8335L44.6254 9.38345L42.2307 9.22381ZM24.5281 39.4236C20.435 39.4236 17.0469 40.6478 14.4996 43.1951L16.1966 44.8922C18.2093 42.8795 20.9412 41.8236 24.5281 41.8236V39.4236ZM14.4996 43.1951C12.0172 45.6775 10.8181 48.9424 10.8181 52.8636H13.2181C13.2181 49.4649 14.239 46.8498 16.1966 44.8922L14.4996 43.1951ZM10.8181 52.8636C10.8181 56.9825 11.8998 60.5231 14.1286 63.4074L16.0276 61.9399C14.1764 59.5442 13.2181 56.5448 13.2181 52.8636H10.8181ZM14.1204 63.3968C16.561 66.6288 19.8216 68.2836 23.8081 68.2836V65.8836C20.5946 65.8836 18.0352 64.5984 16.0357 61.9505L14.1204 63.3968ZM23.8081 68.2836C27.9471 68.2836 31.3065 66.8766 33.7282 63.984L31.888 62.4433C29.9897 64.7107 27.3491 65.8836 23.8081 65.8836V68.2836ZM33.7 64.0164C36.1008 61.3489 37.2481 57.8599 37.2481 53.6736H34.8481C34.8481 57.4074 33.8354 60.2784 31.9161 62.4109L33.7 64.0164ZM37.2481 53.6736C37.2481 49.1729 36.2581 45.5732 34.0677 43.092C31.8522 40.5822 28.5946 39.4236 24.5281 39.4236V41.8236C28.1416 41.8236 30.644 42.8401 32.2685 44.6803C33.9181 46.549 34.8481 49.4743 34.8481 53.6736H37.2481Z" fill="#565555"/>
<circle cx="72.0104" cy="66.6602" r="53.2269" fill="white" stroke="black"/>
<path d="M83.3333 30.702H70.222H58V41.6642V61.8721V63.3825H59.677H83.3333H85.0103V61.8721V32.2125V30.702H83.3333ZM83.6382 62.1467H59.3721V42.0761V31.9378H70.6285H83.6382V62.1467Z" fill="#5C5F63"/>
<path d="M69.2569 46.4704C68.7995 46.4704 68.52 46.2186 68.52 45.738V38.3689C68.52 38.0943 68.6471 37.6366 69.4094 37.6366H74.4404C74.9486 37.6366 75.2535 37.8654 75.2535 38.2774C75.2535 38.6893 74.9486 38.941 74.4404 38.941H70.0192C69.9938 38.941 69.9938 38.941 69.9938 38.941V41.2067H73.8814C74.5929 41.2067 74.6945 41.6415 74.6945 41.8246C74.6945 42.2366 74.415 42.4654 73.8814 42.4654H69.9684V45.738C69.9684 46.2186 69.7143 46.4704 69.2569 46.4704Z" fill="#5C5F63"/>
<path d="M74.4662 38.7806H70.0195C69.8671 38.7806 69.7908 38.8492 69.7908 38.9637V41.3666H73.8564C74.2629 41.3666 74.4662 41.5268 74.4662 41.8244C74.4662 42.1448 74.2629 42.305 73.8564 42.305H69.7908V45.7378C69.7908 46.1039 69.613 46.287 69.2572 46.287C68.9015 46.287 68.7236 46.1039 68.7236 45.7378V38.3686C68.7236 38.0025 68.9523 37.8194 69.4351 37.8194H74.4662C74.8727 37.8194 75.1014 37.9796 75.1014 38.3C75.1014 38.6204 74.8982 38.7806 74.4662 38.7806Z" fill="#5C5F63"/>
<path d="M77.3373 59.1028H65.6743V60.3387H77.3373" fill="#5C5F63"/>
<path d="M80.132 57.1119H62.8535V58.3248H80.132" fill="#5C5F63"/>
<path d="M75.8378 55.098H67.1477V56.3338H75.8378" fill="#5C5F63"/>
<path d="M75.8378 51.1617H67.1477V52.3975H75.8378" fill="#5C5F63"/>
<path d="M78.5566 53.1069H64.4543V54.3428H78.5566" fill="#5C5F63"/>
<path d="M71.4928 33.7458C66.7158 33.7458 62.8535 37.2244 62.8535 41.5269C62.8535 45.8294 66.7158 49.308 71.4928 49.308C76.2697 49.308 80.132 45.8294 80.132 41.5269C80.132 37.2244 76.2697 33.7458 71.4928 33.7458ZM71.4928 47.9577C67.5543 47.9577 64.3527 45.0741 64.3527 41.5269C64.3527 37.9796 67.5543 35.0961 71.4928 35.0961C75.4312 35.0961 78.6328 37.9796 78.6328 41.5269C78.6328 45.0741 75.4566 47.9577 71.4928 47.9577Z" fill="#5C5F63"/>
<path d="M62.8309 98V90.7273H67.1917V91.5085H63.7116V93.9659H66.865V94.7472H63.7116V98H62.8309ZM68.5864 98V92.5455H69.4244V98H68.5864ZM69.0125 91.6364C68.8492 91.6364 68.7083 91.5807 68.5899 91.4695C68.4739 91.3582 68.4159 91.2244 68.4159 91.0682C68.4159 90.9119 68.4739 90.7782 68.5899 90.6669C68.7083 90.5556 68.8492 90.5 69.0125 90.5C69.1759 90.5 69.3155 90.5556 69.4316 90.6669C69.5499 90.7782 69.6091 90.9119 69.6091 91.0682C69.6091 91.2244 69.5499 91.3582 69.4316 91.4695C69.3155 91.5807 69.1759 91.6364 69.0125 91.6364ZM71.7975 94.7188V98H70.9594V92.5455H71.7691V93.3977H71.8401C71.968 93.1207 72.1621 92.8982 72.4225 92.7301C72.6829 92.5597 73.0191 92.4744 73.431 92.4744C73.8003 92.4744 74.1235 92.5502 74.4005 92.7017C74.6775 92.8509 74.8929 93.0781 75.0468 93.3835C75.2007 93.6866 75.2776 94.0701 75.2776 94.5341V98H74.4395V94.5909C74.4395 94.1624 74.3283 93.8286 74.1057 93.5895C73.8832 93.348 73.5778 93.2273 73.1895 93.2273C72.922 93.2273 72.6829 93.2853 72.4722 93.4013C72.2639 93.5173 72.0993 93.6866 71.9786 93.9091C71.8579 94.1316 71.7975 94.4015 71.7975 94.7188ZM78.4142 98.1278C78.0685 98.1278 77.7548 98.0627 77.4731 97.9325C77.1914 97.8 76.9677 97.6094 76.8019 97.3608C76.6362 97.1098 76.5534 96.8068 76.5534 96.4517C76.5534 96.1392 76.6149 95.8859 76.738 95.6918C76.8611 95.4953 77.0257 95.3414 77.2316 95.2301C77.4376 95.1188 77.6649 95.036 77.9134 94.9815C78.1644 94.9247 78.4165 94.8797 78.6698 94.8466C79.0013 94.804 79.27 94.772 79.4759 94.7507C79.6843 94.727 79.8358 94.688 79.9305 94.6335C80.0276 94.5791 80.0761 94.4844 80.0761 94.3494V94.321C80.0761 93.9706 79.9802 93.6984 79.7884 93.5043C79.599 93.3101 79.3114 93.2131 78.9255 93.2131C78.5254 93.2131 78.2117 93.3007 77.9845 93.4759C77.7572 93.651 77.5974 93.8381 77.5051 94.0369L76.7096 93.7528C76.8517 93.4214 77.041 93.1634 77.2778 92.9787C77.5169 92.7917 77.7773 92.6615 78.059 92.5881C78.3431 92.5123 78.6225 92.4744 78.8971 92.4744C79.0723 92.4744 79.2735 92.4957 79.5008 92.5384C79.7304 92.5786 79.9518 92.6626 80.1649 92.7905C80.3803 92.9183 80.559 93.1113 80.7011 93.3693C80.8431 93.6274 80.9142 93.973 80.9142 94.4062V98H80.0761V97.2614H80.0335C79.9767 97.3797 79.882 97.5064 79.7494 97.6413C79.6168 97.7763 79.4404 97.8911 79.2203 97.9858C79.0001 98.0805 78.7314 98.1278 78.4142 98.1278ZM78.542 97.375C78.8734 97.375 79.1528 97.3099 79.3801 97.1797C79.6097 97.0495 79.7825 96.8814 79.8985 96.6754C80.0169 96.4695 80.0761 96.2528 80.0761 96.0256V95.2585C80.0406 95.3011 79.9624 95.3402 79.8417 95.3757C79.7233 95.4089 79.586 95.4384 79.4298 95.4645C79.2759 95.4882 79.1256 95.5095 78.9788 95.5284C78.8344 95.545 78.7172 95.5592 78.6272 95.571C78.4094 95.5994 78.2058 95.6456 78.0164 95.7095C77.8294 95.7711 77.6779 95.8646 77.5619 95.9901C77.4482 96.1132 77.3914 96.2812 77.3914 96.4943C77.3914 96.7855 77.4991 97.0057 77.7146 97.1548C77.9324 97.3016 78.2082 97.375 78.542 97.375ZM83.2819 90.7273V98H82.4438V90.7273H83.2819ZM60.5337 110L58.5451 102.727H59.44L60.9599 108.651H61.0309L62.5792 102.727H63.5735L65.1218 108.651H65.1928L66.7127 102.727H67.6076L65.619 110H64.7099L63.1048 104.205H63.0479L61.4428 110H60.5337ZM70.2994 110.114C69.8069 110.114 69.3749 109.996 69.0032 109.762C68.6339 109.528 68.3451 109.2 68.1367 108.778C67.9308 108.357 67.8278 107.865 67.8278 107.301C67.8278 106.733 67.9308 106.237 68.1367 105.813C68.3451 105.389 68.6339 105.06 69.0032 104.826C69.3749 104.592 69.8069 104.474 70.2994 104.474C70.7918 104.474 71.2227 104.592 71.592 104.826C71.9637 105.06 72.2525 105.389 72.4585 105.813C72.6668 106.237 72.771 106.733 72.771 107.301C72.771 107.865 72.6668 108.357 72.4585 108.778C72.2525 109.2 71.9637 109.528 71.592 109.762C71.2227 109.996 70.7918 110.114 70.2994 110.114ZM70.2994 109.361C70.6734 109.361 70.9812 109.265 71.2227 109.073C71.4641 108.881 71.6429 108.629 71.7589 108.317C71.8749 108.004 71.9329 107.666 71.9329 107.301C71.9329 106.937 71.8749 106.597 71.7589 106.282C71.6429 105.967 71.4641 105.713 71.2227 105.518C70.9812 105.324 70.6734 105.227 70.2994 105.227C69.9253 105.227 69.6175 105.324 69.3761 105.518C69.1346 105.713 68.9558 105.967 68.8398 106.282C68.7238 106.597 68.6658 106.937 68.6658 107.301C68.6658 107.666 68.7238 108.004 68.8398 108.317C68.9558 108.629 69.1346 108.881 69.3761 109.073C69.6175 109.265 69.9253 109.361 70.2994 109.361ZM74.0502 110V104.545H74.8599V105.369H74.9167C75.0162 105.099 75.1961 104.88 75.4565 104.712C75.7169 104.544 76.0105 104.46 76.3372 104.46C76.3987 104.46 76.4757 104.461 76.568 104.464C76.6603 104.466 76.7302 104.47 76.7775 104.474V105.327C76.7491 105.32 76.684 105.309 76.5822 105.295C76.4828 105.278 76.3774 105.27 76.2662 105.27C76.001 105.27 75.7643 105.326 75.5559 105.437C75.35 105.546 75.1866 105.697 75.0659 105.891C74.9475 106.083 74.8883 106.302 74.8883 106.548V110H74.0502ZM78.5522 108.011L78.538 106.974H78.7085L81.0948 104.545H82.1317L79.5891 107.116H79.5181L78.5522 108.011ZM77.771 110V102.727H78.609V110H77.771ZM81.2369 110L79.1062 107.301L79.7028 106.719L82.3022 110H81.2369ZM87.074 105.767L86.3212 105.98C86.2739 105.855 86.204 105.733 86.1117 105.614C86.0217 105.494 85.8986 105.394 85.7424 105.316C85.5861 105.238 85.3861 105.199 85.1422 105.199C84.8084 105.199 84.5302 105.276 84.3077 105.43C84.0875 105.581 83.9775 105.774 83.9775 106.009C83.9775 106.217 84.0532 106.381 84.2047 106.502C84.3562 106.623 84.593 106.723 84.915 106.804L85.7246 107.003C86.2123 107.121 86.5757 107.302 86.8148 107.546C87.0539 107.788 87.1735 108.099 87.1735 108.48C87.1735 108.793 87.0835 109.072 86.9036 109.318C86.726 109.564 86.4775 109.759 86.1578 109.901C85.8382 110.043 85.4666 110.114 85.0428 110.114C84.4864 110.114 84.026 109.993 83.6614 109.751C83.2968 109.51 83.066 109.157 82.9689 108.693L83.7644 108.494C83.8401 108.788 83.9834 109.008 84.1941 109.155C84.4071 109.302 84.6853 109.375 85.0286 109.375C85.4192 109.375 85.7293 109.292 85.959 109.126C86.191 108.958 86.307 108.757 86.307 108.523C86.307 108.333 86.2407 108.175 86.1081 108.047C85.9756 107.917 85.772 107.82 85.4973 107.756L84.5882 107.543C84.0887 107.424 83.7218 107.241 83.4874 106.992C83.2554 106.741 83.1394 106.428 83.1394 106.051C83.1394 105.743 83.2258 105.471 83.3986 105.234C83.5738 104.998 83.8117 104.812 84.1124 104.677C84.4154 104.542 84.7587 104.474 85.1422 104.474C85.682 104.474 86.1058 104.593 86.4135 104.83C86.7237 105.066 86.9438 105.379 87.074 105.767Z" fill="#5C5F63"/>
<path d="M48.678 77.314V78.266H56.294V77.314H48.678ZM46.284 79.89V80.884H58.702V79.89H46.284ZM49.966 80.576C49.728 82.858 49.126 84.468 45.976 85.252C46.2 85.462 46.48 85.882 46.592 86.148C50.008 85.196 50.792 83.306 51.086 80.576H49.966ZM53.508 80.492V84.44C53.508 85.56 53.844 85.882 55.132 85.882C55.412 85.882 57.022 85.882 57.302 85.882C58.422 85.882 58.73 85.392 58.842 83.474C58.562 83.39 58.114 83.222 57.89 83.054C57.848 84.664 57.75 84.916 57.218 84.916C56.854 84.916 55.524 84.916 55.244 84.916C54.656 84.916 54.558 84.846 54.558 84.426V80.492H53.508ZM51.912 73.254V75.48H53.018V73.254H51.912ZM46.606 74.752V77.72H47.67V75.746H57.274V77.72H58.38V74.752H46.606ZM68.348 73.254V75.116H69.37V73.254H68.348ZM65.002 74.682V75.536H72.688V74.682H65.002ZM67.046 77.09H70.742V78.434H67.046V77.09ZM66.136 76.306V79.218H71.694V76.306H66.136ZM65.114 79.988V86.106H66.066V80.842H72.072V79.988H65.114ZM71.694 79.988V85.084C71.694 85.238 71.638 85.266 71.498 85.28C71.344 85.294 70.868 85.294 70.308 85.28C70.434 85.518 70.56 85.868 70.602 86.12C71.4 86.12 71.918 86.106 72.24 85.966C72.562 85.812 72.66 85.56 72.66 85.098V79.988H71.694ZM67.074 81.682V85.21H67.858V81.682H67.074ZM67.62 81.682V82.396H69.888V83.824H67.62V84.538H70.672V81.682H67.62ZM62.188 74.36V86.134H63.196V74.36H62.188ZM60.13 77.132V78.112H64.974V77.132H60.13ZM62.244 77.51C61.81 79.218 60.816 81.402 59.92 82.536C60.102 82.788 60.354 83.222 60.452 83.502C61.432 82.214 62.412 79.722 62.902 77.776L62.244 77.51ZM64.176 73.478C63.252 73.898 61.558 74.248 60.102 74.472C60.228 74.71 60.368 75.06 60.424 75.284C61.936 75.088 63.742 74.738 64.96 74.262L64.176 73.478ZM63.14 78.56L62.664 78.966C63.028 79.47 63.98 80.828 64.26 81.43L64.904 80.618C64.652 80.268 63.476 78.868 63.14 78.56ZM80.794 80.016V80.828H86.268V80.016H80.794ZM80.794 82.312V83.138H86.268V82.312H80.794ZM80.808 84.622V85.518H86.926V84.622H80.808ZM79.212 74.682V77.076H80.122V75.592H85.918V77.076H86.856V74.682H79.212ZM83.076 78.35V85.098H84.056V78.35H83.076ZM81.172 77.678H81.088L80.178 78.63V86.12H81.172V78.588H86.506V77.678H81.172ZM82.488 73.24C81.802 75.816 80.514 77.986 78.666 79.33C78.89 79.512 79.268 79.904 79.422 80.1C81.312 78.602 82.698 76.278 83.496 73.436L82.488 73.24ZM83.944 76.012C83.776 76.628 83.412 77.51 83.118 78.07L83.93 78.308C84.224 77.776 84.602 76.992 84.938 76.264L83.944 76.012ZM74.228 74.192V75.158H79.17V74.192H74.228ZM75.642 78.28V79.218H77.882V83.488H75.642V84.412H78.806V78.28H75.642ZM75.88 74.654C75.544 77.286 74.942 79.764 73.822 81.346C74.018 81.584 74.312 82.102 74.424 82.34C75.726 80.506 76.454 77.748 76.888 74.808L75.88 74.654ZM75.208 78.28V85.504H76.09V78.28H75.208ZM90.454 77.524V78.532H98.616V77.524H90.454ZM94.486 80.87V81.864H99.204V80.87H94.486ZM93.926 78.042V84.986L95.018 85.126V78.042H93.926ZM90.608 79.736C90.3 82.27 89.544 84.272 87.976 85.49C88.228 85.644 88.676 86.008 88.844 86.19C90.426 84.818 91.308 82.676 91.7 79.848L90.608 79.736ZM91.266 81.542L90.412 81.864C91.616 85.28 93.898 85.938 97.23 85.938H100.52C100.562 85.63 100.744 85.126 100.912 84.874C100.226 84.888 97.804 84.888 97.286 84.888C94.444 84.888 92.26 84.398 91.266 81.542ZM93.912 73.254V75.522H95.018V73.254H93.912ZM88.648 74.85V77.902H89.684V75.858H99.274V77.902H100.352V74.85H88.648Z" fill="#5C5F63"/>
</svg>
