<svg width="92" height="73" viewBox="0 0 92 73" fill="none" xmlns="http://www.w3.org/2000/svg">
<g opacity="0.7">
<path d="M87.2936 36.8908L81.1418 43.0426L82.9096 44.8104L89.0614 38.6586L87.2936 36.8908Z" fill="#9FA0A0"/>
<path d="M83.6001 47.9L85.3001 49.6L91.5001 43.5L89.7001 41.8L83.6001 47.9Z" fill="#9FA0A0"/>
<path d="M71.2 41.3H55.2V38.8C55.2 38.1 55.8 37.6 56.4 37.6H70C70.7 37.6 71.2 38.2 71.2 38.8V41.3ZM71.2 62.1H55.2V43.7H71.2V62.1ZM71.2 67.1C71.2 67.8 70.6 68.3 70 68.3H56.5C55.8 68.3 55.3 67.7 55.3 67.1V64.6H71.3V67.1H71.2ZM52.8 38.8V41.3H34.4V30.3C34.4 28.3 32.7 26.6 30.7 26.6H6.1V8.1C6.1 6.1 7.8 4.4 9.8 4.4H63.8C65.8 4.4 67.5 6.1 67.5 8.1V35.1H56.5C54.4 35.1 52.8 36.8 52.8 38.8ZM52.8 51.1H34.4V43.7H52.8V51.1ZM34.4 59.7V53.6H43.3L45 59.7H34.4ZM45.8 63C45.9 63.4 45.8 63.8 45.6 64.1C45.4 64.4 45 64.6 44.6 64.6H34.4V62.1H45.6L45.8 63ZM31.9 32.7H2.5V30.2C2.5 29.6 3 29 3.7 29H30.7C31.4 29 31.9 29.6 31.9 30.2V32.7ZM31.9 62.1H2.5V35.1H32V62.1H31.9ZM31.9 67.1C31.9 67.8 31.3 68.3 30.7 68.3H3.7C3 68.3 2.5 67.7 2.5 67.1V64.6H32V67.1H31.9ZM70 35.1V8.1C70 4.8 67.2 2 63.8 2H9.8C6.4 2 3.7 4.8 3.7 8.1V26.5C1.7 26.5 0 28.2 0 30.2V67C0 69 1.7 70.7 3.7 70.7H30.7C32.7 70.7 34.4 69 34.4 67H44.7C45.9 67 46.9 66.5 47.6 65.6C48.3 64.7 48.5 63.5 48.2 62.4L45.8 53.5H52.8V67C52.8 69 54.5 70.7 56.5 70.7H70C72 70.7 73.7 69 73.7 67V38.8C73.6 36.8 72 35.1 70 35.1Z" fill="#9FA0A0"/>
<path d="M11.3629 47.86L6.48389 52.739L8.25164 54.5067L13.1306 49.6277L11.3629 47.86Z" fill="#9FA0A0"/>
<path d="M26.0668 41.6452L11.3591 56.3528L13.1269 58.1206L27.8346 43.4129L26.0668 41.6452Z" fill="#9FA0A0"/>
<path d="M21.2264 37.9839L13.8726 45.3378L15.6403 47.1055L22.9941 39.7517L21.2264 37.9839Z" fill="#9FA0A0"/>
<path d="M39.629 15.893L32.2742 23.2469L34.0419 25.0149L41.3968 17.661L39.629 15.893Z" fill="#9FA0A0"/>
<path d="M50.6825 13.3688L43.3276 20.7227L45.0954 22.4907L52.4503 15.1368L50.6825 13.3688Z" fill="#9FA0A0"/>
<path d="M40.8126 23.2461L35.9336 28.1251L37.7013 29.8928L42.5803 25.0138L40.8126 23.2461Z" fill="#9FA0A0"/>
<path d="M47.009 8.495L42.0593 13.4447L43.8271 15.2125L48.7768 10.2628L47.009 8.495Z" fill="#9FA0A0"/>
<path d="M11.1001 6.90002H8.6001V9.40002H11.1001V6.90002Z" fill="#9FA0A0"/>
<path d="M16 6.90002H13.5V9.40002H16V6.90002Z" fill="#9FA0A0"/>
<path d="M20.8999 6.90002H18.3999V9.40002H20.8999V6.90002Z" fill="#9FA0A0"/>
</g>
</svg>
