<svg width="92" height="73" viewBox="0 0 92 73" fill="none" xmlns="http://www.w3.org/2000/svg">
<g opacity="0.7">
<path d="M24.307 34.1192L23.6057 31.3899C23.5723 31.2402 23.4554 31.1237 23.3051 31.0571C22.9544 30.924 22.6204 30.7908 22.2864 30.6244C22.2196 30.5911 22.1528 30.5745 22.0861 30.5745C22.0026 30.5745 21.9191 30.5911 21.8523 30.641L19.4142 32.0889L14.0372 26.7302L15.49 24.3004C15.5735 24.1673 15.5735 24.0008 15.5067 23.8677C15.3398 23.5182 15.2062 23.1854 15.0726 22.8525C15.0225 22.7028 14.8889 22.6029 14.7386 22.553L12 21.854V14.2652L14.7386 13.5663C14.8889 13.533 15.0058 13.4165 15.0726 13.2667C15.1895 12.9339 15.3398 12.601 15.5067 12.2515C15.5735 12.1184 15.5568 11.952 15.49 11.8188L14.0372 9.38909L19.4142 4.03034L21.8523 5.4782C21.9191 5.52812 22.0026 5.54477 22.0861 5.54477C22.1528 5.54477 22.2196 5.52812 22.2864 5.49484C22.6037 5.34506 22.9544 5.19528 23.3051 5.06215C23.4554 5.01222 23.5556 4.87908 23.6057 4.7293L24.307 2H31.9217L32.623 4.7293C32.6564 4.87908 32.7733 4.99558 32.9236 5.06215C33.2743 5.19528 33.6083 5.32842 33.9422 5.49484C34.009 5.52812 34.0758 5.54477 34.1426 5.54477C34.2261 5.54477 34.3095 5.52812 34.3763 5.4782L36.8144 4.03034L42.1914 9.38909L40.7386 11.8188C40.6551 11.952 40.6551 12.1184 40.7219 12.2515C40.8889 12.601 41.0225 12.9339 41.1561 13.2667C41.2062 13.4165 41.3397 13.5163 41.49 13.5663L44.2286 14.2652V21.854L41.49 22.553C41.3397 22.5863 41.2229 22.7028 41.1561 22.8525C41.0225 23.1854 40.8889 23.5349 40.7219 23.8677C40.6551 24.0008 40.6718 24.1673 40.7386 24.3004L42.1914 26.7302L36.8144 32.0889L34.3763 30.641C34.3095 30.5911 34.2261 30.5745 34.1426 30.5745C34.0758 30.5745 34.009 30.5911 33.9422 30.6244C33.625 30.7742 33.2743 30.924 32.9236 31.0571C32.7733 31.107 32.6731 31.2402 32.623 31.3899L31.9217 34.1192H24.307ZM25.192 32.505C25.2421 32.7213 25.4425 32.8544 25.6429 32.8544H30.5523C30.7694 32.8544 30.9531 32.7047 31.0032 32.505L31.6044 30.1584L31.9384 30.0586C32.5896 29.8589 33.2408 29.5759 33.8754 29.2597L34.1927 29.0933L36.2801 30.3248C36.3636 30.3748 36.447 30.3914 36.5138 30.3914C36.6307 30.3914 36.7643 30.3415 36.8478 30.2583L40.3211 26.7967C40.4714 26.6469 40.5048 26.414 40.3879 26.2142L39.1522 24.134L39.3192 23.8178C39.6532 23.1854 39.9204 22.5363 40.1208 21.8873L40.2209 21.5545L42.5755 20.9553C42.7925 20.9054 42.9261 20.7057 42.9261 20.506V15.6132C42.9261 15.3969 42.7758 15.2138 42.5755 15.1639L40.2209 14.5648L40.1208 14.2319C39.9204 13.5829 39.6365 12.9505 39.3025 12.3015L39.1355 11.9853L40.3713 9.905C40.4882 9.72193 40.4547 9.48894 40.3044 9.32252L36.8311 5.86097C36.7476 5.77776 36.614 5.72783 36.4971 5.72783C36.4136 5.72783 36.3301 5.74447 36.2633 5.7944L34.176 7.02591L33.8587 6.85949C33.2242 6.52665 32.5729 6.26038 31.9217 6.06067L31.5877 5.96082L30.9865 3.61428C30.9364 3.39794 30.736 3.2648 30.5357 3.2648H25.6262C25.4091 3.2648 25.2254 3.41458 25.1753 3.61428L24.5742 5.96082L24.2402 6.06067C23.589 6.26038 22.9377 6.54329 22.3031 6.85949L21.9859 7.02591L19.8985 5.7944C19.815 5.74447 19.7315 5.72783 19.6647 5.72783C19.5478 5.72783 19.4142 5.77776 19.3308 5.86097L15.8741 9.33916C15.7238 9.48894 15.6904 9.72193 15.8073 9.92164L17.043 12.0019L16.876 12.3181C16.5421 12.9505 16.2749 13.5995 16.0745 14.2486L15.9743 14.5814L13.6198 15.1805C13.4027 15.2305 13.2691 15.4302 13.2691 15.6299V20.5227C13.2691 20.739 13.4194 20.9221 13.6198 20.972L15.9743 21.5711L16.0745 21.9039C16.2749 22.5363 16.5588 23.1854 16.876 23.8344L17.043 24.1506L15.8073 26.2309C15.6904 26.414 15.7238 26.6469 15.8741 26.8134L19.3475 30.2749C19.431 30.3581 19.5646 30.4081 19.6814 30.4081C19.7649 30.4081 19.8484 30.3914 19.9152 30.3415L22.0026 29.11L22.3199 29.2764C22.9544 29.6092 23.6056 29.8755 24.2569 30.0752L24.5909 30.1751L25.192 32.505Z" fill="white"/>
<path d="M28.1144 27.5122C22.8877 27.5122 18.6462 23.2685 18.6462 18.0761C18.6462 12.8838 22.9044 8.64008 28.1144 8.64008C33.3245 8.64008 37.5826 12.8838 37.5826 18.0761C37.5826 23.2685 33.3412 27.5122 28.1144 27.5122ZM28.1144 9.87159C23.5891 9.87159 19.8986 13.5495 19.8986 18.0595C19.8986 22.5695 23.5891 26.2474 28.1144 26.2474C32.6398 26.2474 36.3302 22.5695 36.3302 18.0595C36.3302 13.5495 32.6398 9.87159 28.1144 9.87159Z" fill="white"/>
<path d="M43.4438 69.3672L37.666 66.4881C36.8477 66.072 36.3301 65.2566 36.3301 64.3246C36.3301 63.4093 36.8477 62.5772 37.666 62.1611L43.4438 59.282H74.5369C77.3256 59.282 79.5967 61.5454 79.5967 64.3246C79.5967 67.1038 77.3256 69.3672 74.5369 69.3672H43.4438ZM73.4348 60.5468C73.1676 60.5468 72.9672 60.7632 72.9672 61.0128V67.6197C72.9672 67.886 73.1843 68.0857 73.4348 68.0857H74.5369C76.6242 68.0857 78.3275 66.3882 78.3275 64.308C78.3275 62.2277 76.6242 60.5302 74.5369 60.5302H73.4348V60.5468ZM44.6962 64.957C44.429 64.957 44.2286 65.1733 44.2286 65.423V67.6197C44.2286 67.886 44.4457 68.0857 44.6962 68.0857H71.2305C71.4977 68.0857 71.6981 67.8694 71.6981 67.6197V65.423C71.6981 65.1567 71.481 64.957 71.2305 64.957H44.6962ZM42.4752 61.2292C42.4084 61.2292 42.3249 61.2458 42.2581 61.2791L38.217 63.2928C37.8162 63.4925 37.5825 63.8919 37.5825 64.3246C37.5825 64.7573 37.8329 65.1567 38.217 65.3564L42.2581 67.3701C42.3249 67.4034 42.3917 67.42 42.4752 67.42C42.5587 67.42 42.6422 67.4034 42.7257 67.3535C42.8593 67.2702 42.9428 67.1205 42.9428 66.9541V61.7118C42.9428 61.5454 42.8593 61.3956 42.7257 61.3124C42.6589 61.2625 42.5754 61.2292 42.4752 61.2292ZM44.6962 60.5468C44.429 60.5468 44.2286 60.7632 44.2286 61.0128V63.2262C44.2286 63.4925 44.4457 63.6922 44.6962 63.6922H71.2305C71.4977 63.6922 71.6981 63.4759 71.6981 63.2262V61.0295C71.6981 60.7632 71.481 60.5635 71.2305 60.5635H44.6962V60.5468Z" fill="white"/>
<path d="M22.587 64.957C16.7591 64.957 12 60.2307 12 54.4059C12 48.5812 16.7424 43.8548 22.587 43.8548H26.0604C26.2775 43.8548 26.4611 43.7051 26.5112 43.5054C26.9621 41.7746 28.5318 40.5597 30.3186 40.5597C32.1053 40.5597 33.675 41.7746 34.1259 43.5054C34.1759 43.7051 34.3764 43.8548 34.5768 43.8548H41.5235C41.7405 43.8548 41.9242 43.7051 41.9743 43.5054C42.4252 41.7746 43.9949 40.5597 45.7817 40.5597C47.5684 40.5597 49.1381 41.7746 49.5889 43.5054C49.639 43.7051 49.8395 43.8548 50.0398 43.8548H56.9866C57.2036 43.8548 57.3873 43.7051 57.4374 43.5054C57.8882 41.7746 59.458 40.5597 61.2448 40.5597C63.0315 40.5597 64.6012 41.7746 65.052 43.5054C65.1021 43.7051 65.3026 43.8548 65.5029 43.8548H68.9763C74.1195 43.8548 78.2941 39.6943 78.2941 34.5686V27.9616C78.2941 22.8359 74.1195 18.6754 68.9763 18.6754H68.826C68.6089 18.6754 68.4252 18.8251 68.3751 19.0248C67.9242 20.7556 66.3546 21.9705 64.5678 21.9705C62.781 21.9705 61.2113 20.7556 60.7604 19.0248C60.7103 18.8251 60.51 18.6754 60.3096 18.6754H47.368V17.4106H60.3096C60.5267 17.4106 60.7103 17.2608 60.7604 17.0611C61.2113 15.3303 62.781 14.1154 64.5678 14.1154C66.3546 14.1154 67.9242 15.3303 68.3751 17.0611C68.4252 17.2608 68.6256 17.4106 68.826 17.4106H68.9763C74.8041 17.4106 79.5633 22.1369 79.5633 27.9616V34.5686C79.5633 40.3766 74.8208 45.1196 68.9763 45.1196H65.5029C65.2859 45.1196 65.1021 45.2694 65.052 45.4691C64.6012 47.1999 63.0315 48.4148 61.2448 48.4148C59.458 48.4148 57.8882 47.1999 57.4374 45.4691C57.3873 45.2694 57.1869 45.1196 56.9866 45.1196H50.0398C49.8228 45.1196 49.639 45.2694 49.5889 45.4691C49.1381 47.1999 47.5684 48.4148 45.7817 48.4148C43.9949 48.4148 42.4252 47.1999 41.9743 45.4691C41.9242 45.2694 41.7239 45.1196 41.5235 45.1196H34.5768C34.3597 45.1196 34.1759 45.2694 34.1259 45.4691C33.675 47.1999 32.1053 48.4148 30.3186 48.4148C28.5318 48.4148 26.9621 47.1999 26.5112 45.4691C26.4611 45.2694 26.2608 45.1196 26.0604 45.1196H22.587C17.4438 45.1196 13.2691 49.2802 13.2691 54.4059C13.2691 59.5317 17.4438 63.6922 22.587 63.6922H33.1741V64.957H22.587V64.957ZM61.2781 41.8245C59.7919 41.8245 58.5896 43.0227 58.5896 44.5039C58.5896 45.985 59.7919 47.1833 61.2781 47.1833C62.7643 47.1833 63.9666 45.985 63.9666 44.5039C63.9499 43.0227 62.7476 41.8245 61.2781 41.8245ZM45.7984 41.8245C44.3122 41.8245 43.1099 43.0227 43.1099 44.5039C43.1099 45.985 44.3122 47.1833 45.7984 47.1833C47.2846 47.1833 48.4868 45.985 48.4868 44.5039C48.4868 43.0227 47.2846 41.8245 45.7984 41.8245ZM30.3186 41.8245C28.8324 41.8245 27.63 43.0227 27.63 44.5039C27.63 45.985 28.8324 47.1833 30.3186 47.1833C31.8048 47.1833 33.0071 45.985 33.0071 44.5039C33.0071 43.0227 31.8048 41.8245 30.3186 41.8245ZM64.5845 15.3802C63.0983 15.3802 61.896 16.5784 61.896 18.0596C61.896 19.5407 63.0983 20.739 64.5845 20.739C66.0707 20.739 67.2729 19.5407 67.2729 18.0596C67.2729 16.5784 66.0707 15.3802 64.5845 15.3802Z" fill="white"/>
<path d="M61.8959 25.1491H47.3679V26.4144H61.8959V25.1491Z" fill="white"/>
<path d="M61.8959 29.5426H47.3679V30.8079H61.8959V29.5426Z" fill="white"/>
<path d="M57.4874 33.9528H56.2183V35.2181H57.4874V33.9528Z" fill="white"/>
<path d="M53.0623 33.9528H51.7932V35.2181H53.0623V33.9528Z" fill="white"/>
<path d="M61.9127 33.9528H60.6436V35.2181H61.9127V33.9528Z" fill="white"/>
<path d="M48.637 33.9528H47.3679V35.2181H48.637V33.9528Z" fill="white"/>
<path d="M30.9532 53.7902H29.6841V55.0555H30.9532V53.7902Z" fill="white"/>
<path d="M26.5447 53.7902H25.2756V55.0555H26.5447V53.7902Z" fill="white"/>
<path d="M17.6941 53.7902H16.425V55.0555H17.6941V53.7902Z" fill="white"/>
<path d="M22.1194 53.7902H20.8503V55.0555H22.1194V53.7902Z" fill="white"/>
</g>
</svg>
