<svg width="92" height="73" viewBox="0 0 92 73" fill="none" xmlns="http://www.w3.org/2000/svg">
<g opacity="0.7" clip-path="url(#clip0_344_821)">
<path d="M56.9 35.6H50.8V27.6L55.1 24C57 22.4 58.2 20 58.2 17.5C58.2 14 55.4 11.1 52.1 11.1C51 11.1 50 11.4 49 12C47.1 10.9 44.8 10.9 42.9 12C42 11.4 40.9 11.1 39.8 11.1C36.5 11.1 33.7 14 33.7 17.5C33.7 20 34.8 22.4 36.8 24L41.1 27.6V35.6H35C30.4 32.1 27.6 26.7 27.6 20.9C27.6 10.7 35.9 2.5 46 2.5C56.2 2.5 64.4 10.8 64.4 20.9C64.3 26.6 61.6 32.1 56.9 35.6ZM48.4 17.2C48.4 17 48.4 16.7 48.5 16.5C48.5 16.4 48.5 16.4 48.5 16.3C48.6 16.1 48.6 15.8 48.7 15.6C48.8 15.5 48.9 15.4 48.9 15.2C49 15.3 49.1 15.4 49.1 15.6C49.2 15.8 49.3 16 49.3 16.3C49.3 16.4 49.3 16.4 49.3 16.5C49.3 16.7 49.4 17 49.4 17.2C49.4 17.4 49.4 17.7 49.3 17.9C49.3 18 49.3 18 49.3 18.1C49.2 18.3 49.2 18.6 49.1 18.8C49 18.9 49 19 48.9 19.2C48.8 19.1 48.7 19 48.7 18.8C48.6 18.6 48.5 18.4 48.5 18.1C48.5 18 48.5 18 48.5 17.9C48.4 17.7 48.4 17.4 48.4 17.2ZM42.2 17.2C42.2 17 42.2 16.7 42.3 16.5C42.3 16.4 42.3 16.4 42.3 16.3C42.4 16.1 42.4 15.8 42.5 15.6C42.6 15.5 42.6 15.4 42.7 15.2C42.8 15.3 42.9 15.4 42.9 15.6C43 15.8 43.1 16 43.1 16.3C43.1 16.4 43.1 16.4 43.1 16.5C43.1 16.7 43.2 17 43.2 17.2C43.2 17.4 43.2 17.7 43.1 17.9C43.1 18 43.1 18 43.1 18.1C43 18.3 43 18.6 42.9 18.8C42.8 18.9 42.8 19 42.7 19.2C42.6 19.1 42.5 19 42.5 18.8C42.4 18.6 42.3 18.4 42.3 18.1C42.3 18 42.3 18 42.3 17.9C42.3 17.7 42.2 17.4 42.2 17.2ZM42.1 21.9C42.3 22.1 42.6 22.2 42.9 22.2C43.2 22.2 43.4 22.1 43.7 21.9C45.2 20.7 46 19 46 17.1C46 16.8 46 16.5 45.9 16.3C45.9 16.2 45.9 16.1 45.9 16.1C45.9 15.9 45.8 15.7 45.8 15.5C45.8 15.4 45.8 15.4 45.7 15.3C45.6 15 45.5 14.8 45.4 14.5C45.4 14.5 45.4 14.4 45.3 14.4C45.2 14.2 45.1 14 44.9 13.8C44.9 13.8 44.9 13.7 44.8 13.7C45.5 13.5 46.3 13.5 47 13.7C47 13.7 47 13.8 46.9 13.8C46.8 14 46.7 14.2 46.5 14.4L46.4 14.5C46.3 14.7 46.2 15 46.1 15.3C46.1 15.4 46.1 15.4 46 15.5C45.9 15.7 45.9 15.9 45.9 16.1C45.9 16.2 45.9 16.3 45.9 16.3C45.9 16.6 45.8 16.9 45.8 17.1C45.8 18.9 46.6 20.7 48.1 21.9C48.3 22.1 48.6 22.2 48.9 22.2C49.2 22.2 49.4 22.1 49.7 21.9C51.2 20.7 52 19 52 17.1C52 16.8 52 16.5 51.9 16.3C51.9 16.2 51.9 16.1 51.9 16.1C51.9 15.9 51.8 15.7 51.8 15.5C51.8 15.4 51.8 15.4 51.7 15.3C51.6 15 51.5 14.8 51.4 14.5L51.3 14.4C51.2 14.2 51.1 14 50.9 13.8C50.9 13.8 50.9 13.7 50.8 13.7C51.2 13.6 51.5 13.5 51.9 13.5C53.9 13.5 55.6 15.3 55.6 17.5C55.6 19.3 54.8 21 53.4 22.2L48.7 26.2C48.4 26.4 48.3 26.8 48.3 27.1V35.7H43.4V27C43.4 26.6 43.2 26.3 43 26.1L38.3 22.1C36.9 20.9 36.1 19.2 36.1 17.4C36.1 15.3 37.8 13.4 39.8 13.4C40.2 13.4 40.6 13.5 40.9 13.6C40.9 13.6 40.9 13.7 40.8 13.7C40.7 13.9 40.6 14.1 40.4 14.3L40.3 14.4C40.2 14.6 40.1 14.9 40 15.2C40 15.3 40 15.3 39.9 15.4C39.8 15.6 39.8 15.8 39.8 16C39.8 16.1 39.8 16.2 39.8 16.2C39.8 16.5 39.7 16.8 39.7 17C39.8 19 40.6 20.8 42.1 21.9ZM57 40.5H34.9C34.2 40.5 33.7 39.9 33.7 39.3C33.7 38.6 34.3 38.1 34.9 38.1H57C57.7 38.1 58.2 38.7 58.2 39.3C58.2 40 57.6 40.5 57 40.5ZM57 45.4H34.9C34.2 45.4 33.7 44.8 33.7 44.2C33.7 43.5 34.3 43 34.9 43H57C57.7 43 58.2 43.6 58.2 44.2C58.2 44.9 57.6 45.4 57 45.4ZM57 50.3H34.9C34.2 50.3 33.7 49.7 33.7 49.1C33.7 48.4 34.3 47.9 34.9 47.9H57C57.7 47.9 58.2 48.5 58.2 49.1C58.2 49.8 57.6 50.3 57 50.3ZM55.7 59.1L54 57.9C53.6 57.6 53.1 57.6 52.6 57.9L49.6 59.9L46.6 57.9C46.2 57.6 45.7 57.6 45.2 57.9L42.2 59.9L39.2 57.9C38.8 57.6 38.3 57.6 37.8 57.9L36 59.1V52.8H55.6V59.1H55.7ZM50.3 66.3H41.5L36.8 61.6L38.6 60.4L41.6 62.4C42 62.7 42.5 62.7 43 62.4L46 60.4L49 62.4C49.4 62.7 49.9 62.7 50.4 62.4L53.4 60.4L55.2 61.6L50.3 66.3ZM45.9 70.7L44 68.7H47.9L45.9 70.7ZM66.8 20.9C66.8 9.4 57.4 0 45.9 0C34.4 0 25 9.4 25 20.9C25 27 27.7 32.7 32.3 36.7C31.6 37.4 31.2 38.3 31.2 39.3C31.2 40.2 31.6 41.1 32.2 41.8C31.6 42.5 31.2 43.3 31.2 44.3C31.2 45.2 31.6 46.1 32.2 46.8C31.6 47.5 31.2 48.3 31.2 49.3C31.2 50.9 32.2 52.2 33.7 52.8V61.6C33.7 61.9 33.8 62.2 34.1 62.5L45.1 73.5C45.3 73.7 45.7 73.9 46 73.9C46.3 73.9 46.6 73.8 46.9 73.5L57.9 62.5C58.1 62.3 58.3 62 58.3 61.6V52.8C59.7 52.3 60.8 50.9 60.8 49.3C60.8 48.4 60.4 47.5 59.8 46.8C60.4 46.1 60.8 45.3 60.8 44.3C60.8 43.4 60.4 42.5 59.8 41.8C60.4 41.1 60.8 40.3 60.8 39.3C60.8 38.3 60.4 37.3 59.7 36.7C64.1 32.7 66.8 26.9 66.8 20.9Z" fill="#9FA0A0"/>
<path d="M69.568 0.448097L64.689 5.32709L66.4567 7.09484L71.3357 2.21585L69.568 0.448097Z" fill="#9FA0A0"/>
<path d="M66.4814 34.6947L64.7136 36.4624L69.5926 41.3414L71.3604 39.5736L66.4814 34.6947Z" fill="#9FA0A0"/>
<path d="M77.9 19.6H70.5V22.1H77.9V19.6Z" fill="#9FA0A0"/>
<path d="M22.2621 0.315197L20.4944 2.08295L25.3734 6.96194L27.1411 5.19419L22.2621 0.315197Z" fill="#9FA0A0"/>
<path d="M25.3253 34.7756L20.4463 39.6545L22.214 41.4223L27.093 36.5433L25.3253 34.7756Z" fill="#9FA0A0"/>
<path d="M21.4 19.6H14V22.1H21.4V19.6Z" fill="#9FA0A0"/>
<path d="M63.1001 58.9H60.6001V61.4H63.1001V58.9Z" fill="#9FA0A0"/>
<path d="M68.1001 58.9H65.6001V61.4H68.1001V58.9Z" fill="#9FA0A0"/>
<path d="M73 58.9H70.5V61.4H73V58.9Z" fill="#9FA0A0"/>
<path d="M21.3999 58.9H18.8999V61.4H21.3999V58.9Z" fill="#9FA0A0"/>
<path d="M26.3 58.9H23.8V61.4H26.3V58.9Z" fill="#9FA0A0"/>
<path d="M31.2 58.9H28.7V61.4H31.2V58.9Z" fill="#9FA0A0"/>
</g>
<defs>
<clipPath id="clip0_344_821">
<rect width="92" height="73" fill="white"/>
</clipPath>
</defs>
</svg>
