<svg width="92" height="73" viewBox="0 0 92 73" fill="none" xmlns="http://www.w3.org/2000/svg">
<g opacity="0.7">
<path d="M44.8318 70.2145C44.598 70.2145 44.3976 70.0813 44.3141 69.865C44.2306 69.6486 44.2807 69.4157 44.431 69.2492L51.0604 62.6423C51.0771 62.6257 51.0938 62.5924 51.0771 62.5591C51.0604 62.5258 51.0437 62.5092 51.0103 62.5092H18.3809C16.4438 62.5092 14.6069 61.7603 13.2209 60.4123C11.9351 59.1641 11.1503 57.4833 11.0167 55.7026V55.6693V55.636C11 55.6027 11 55.5528 11 55.5195V11.6343C11 7.40721 14.44 3.97894 18.6814 3.97894C18.9987 3.97894 19.2492 4.22857 19.2492 4.54477V15.1624C19.2492 15.2124 19.2826 15.2456 19.3327 15.2456H52.0623C52.079 15.2456 52.0957 15.229 52.1124 15.229L65.605 1.78218C66.106 1.28292 66.7907 1 67.5087 1C68.2268 1 68.9114 1.28292 69.4124 1.78218L72.6352 4.9941C73.1362 5.49337 73.4201 6.17569 73.4201 6.8913C73.4201 7.60691 73.1362 8.28924 72.6352 8.7885L66.2897 15.1125C66.273 15.1291 66.2563 15.1624 66.273 15.1957C66.2897 15.229 66.3064 15.2456 66.3398 15.2456H75.2569C75.5742 15.2456 75.8247 15.4953 75.8247 15.8115V37.7957C75.8247 37.829 75.8414 37.8622 75.8748 37.8622C75.8915 37.8622 75.8915 37.8622 75.9082 37.8622C75.9249 37.8622 75.9416 37.8622 75.9583 37.8456L79.7322 34.0845C79.8324 33.9846 79.9827 33.9181 80.133 33.9181C80.1998 33.9181 80.2833 33.9347 80.3501 33.968C80.5672 34.0512 80.7008 34.2675 80.7008 34.4839V69.6653C80.7008 69.9815 80.4503 70.2311 80.133 70.2311H44.8318V70.2145ZM57.072 56.8842C57.1889 56.8842 57.3057 56.9174 57.3892 56.984C57.4226 57.0007 57.456 57.0339 57.4727 57.0506C57.5729 57.1504 57.6397 57.3002 57.6397 57.45C57.6397 57.5998 57.5729 57.7495 57.4727 57.8494L46.3347 68.9497C46.318 68.9663 46.3012 68.9996 46.3179 69.0329C46.3346 69.0662 46.3514 69.0828 46.3848 69.0828H79.4817C79.5318 69.0828 79.5652 69.0495 79.5652 68.9996V63.2914C79.5652 63.2414 79.5318 63.2082 79.4817 63.2082H77.1773C76.86 63.2082 76.6096 62.9585 76.6096 62.6423C76.6096 62.3261 76.86 62.0765 77.1773 62.0765H79.4817C79.5318 62.0765 79.5652 62.0432 79.5652 61.9933V58.1157C79.5652 58.0657 79.5318 58.0325 79.4817 58.0325H77.1773C76.86 58.0325 76.6096 57.7828 76.6096 57.4666C76.6096 57.1504 76.86 56.9008 77.1773 56.9008H79.4817C79.5318 56.9008 79.5652 56.8675 79.5652 56.8176V52.9233C79.5652 52.8734 79.5318 52.8401 79.4817 52.8401H77.1773C76.86 52.8401 76.6096 52.5905 76.6096 52.2743C76.6096 51.9581 76.86 51.7085 77.1773 51.7085H79.4817C79.5318 51.7085 79.5652 51.6752 79.5652 51.6253V47.731C79.5652 47.6811 79.5318 47.6478 79.4817 47.6478H77.1773C76.86 47.6478 76.6096 47.3982 76.6096 47.082C76.6096 46.7658 76.86 46.5161 77.1773 46.5161H79.4817C79.5318 46.5161 79.5652 46.4828 79.5652 46.4329V35.9817C79.5652 35.9484 79.5485 35.9151 79.5151 35.9151C79.4984 35.9151 79.4984 35.9151 79.4817 35.9151C79.465 35.9151 79.4483 35.9151 79.4316 35.9318L60.5286 54.7706C60.5119 54.7873 60.4952 54.8039 60.4785 54.8039C60.3783 54.8871 60.2447 54.937 60.1278 54.937C59.9942 54.937 59.8774 54.8871 59.7772 54.8039C59.7605 54.7873 59.7438 54.7706 59.7271 54.7706C59.51 54.5543 59.51 54.1881 59.7271 53.9718L74.6725 39.0771C74.6892 39.0605 74.6892 39.0438 74.6892 39.0272V16.3939C74.6892 16.344 74.6558 16.3107 74.6057 16.3107H65.054C65.0373 16.3107 65.0206 16.3274 65.0039 16.3274L43.546 37.7125C43.5293 37.7291 43.5126 37.7457 43.4959 37.7457C43.4792 37.7624 43.4625 37.7624 43.4458 37.779H43.429C43.4123 37.7957 43.3957 37.7957 43.379 37.7957H43.3623C43.3456 37.7957 43.3289 37.8123 43.3289 37.8123L43.3122 37.829L37 40.0424C36.9666 40.059 36.9499 40.0923 36.9499 40.1256L37.0835 40.8911C37.0835 40.9244 37.1169 40.9577 37.167 40.9577H57.7733C58.0906 40.9577 58.3411 41.2073 58.3411 41.5235C58.3411 41.8397 58.0906 42.0893 57.7733 42.0893H29.0681C28.7508 42.0893 28.5003 41.8397 28.5003 41.5235C28.5003 41.2073 28.7508 40.9577 29.0681 40.9577H32.842C32.8754 40.9577 32.9088 40.9244 32.9255 40.8911L32.9923 40.5749C32.9923 40.5416 33.009 40.5083 33.009 40.4917L36.3989 30.9058L36.4155 30.8559L36.4323 30.8226L36.4657 30.7727C36.4657 30.7727 36.4824 30.7561 36.4824 30.7394L36.499 30.7228C36.5157 30.7061 36.5158 30.6895 36.5325 30.6729L41.3918 25.83C41.492 25.7302 41.6423 25.6636 41.7926 25.6636C41.9429 25.6636 42.0932 25.7302 42.1933 25.83C42.4104 26.0464 42.4104 26.4125 42.1933 26.6288L37.8016 31.0057C37.7682 31.039 37.7682 31.0889 37.8016 31.1222L43.1118 36.4144C43.1285 36.431 43.1452 36.431 43.1619 36.431C43.1786 36.431 43.1953 36.4144 43.212 36.4144L65.2377 14.4635C65.2711 14.4302 65.2711 14.3802 65.2377 14.347L59.9274 9.05477C59.9108 9.03813 59.894 9.03813 59.8773 9.03813C59.8606 9.03813 59.844 9.05477 59.8273 9.05477L52.8138 16.0445C52.7971 16.0445 52.7971 16.0611 52.7971 16.0611L52.747 16.111L45.2659 23.5667C45.1657 23.6665 45.0154 23.7331 44.8652 23.7331C44.7149 23.7331 44.5646 23.6665 44.4644 23.5667C44.2473 23.3503 44.2473 22.9842 44.4644 22.7679L50.86 16.3939C50.8767 16.3773 50.8934 16.344 50.8767 16.3107C50.86 16.2774 50.8433 16.2608 50.8099 16.2608H19.3661C19.316 16.2608 19.2826 16.2941 19.2826 16.344V36.7139C19.2826 37.0301 19.0321 37.2798 18.7148 37.2798C18.3976 37.2798 18.1471 37.0301 18.1471 36.7139V5.19381C18.1471 5.17717 18.1304 5.14388 18.1137 5.12724C18.097 5.1106 18.0803 5.1106 18.0636 5.1106H18.0469L17.5626 5.19381C14.4066 5.743 12.1355 8.43902 12.1355 11.6343V51.126C12.1355 51.1593 12.1522 51.1926 12.1856 51.1926C12.2023 51.1926 12.2023 51.1926 12.219 51.1926C12.2357 51.1926 12.2691 51.1759 12.2691 51.1593L12.9538 50.3937C13.0873 50.244 13.2043 50.1275 13.3212 50.011C14.5235 48.8294 16.043 48.0971 17.7129 47.8974L18.0469 47.8475C18.0803 47.8475 18.1137 47.8142 18.1137 47.7643V40.8911C18.1137 40.5749 18.3642 40.3253 18.6814 40.3253C18.9987 40.3253 19.2492 40.5749 19.2492 40.8911V48.38C19.2492 48.6962 18.9987 48.9459 18.6814 48.9459C18.5646 48.9459 18.4644 48.9459 18.3475 48.9625H18.264C18.1805 48.9625 18.097 48.9792 18.0135 48.9792C17.9968 48.9792 17.9467 48.9958 17.9467 48.9958C17.8632 49.0124 17.7797 49.0124 17.6962 49.0291H17.6461C17.5459 49.0457 17.4624 49.0624 17.3623 49.079H17.3455C15.3751 49.4951 13.6551 50.8264 12.7701 52.6404V52.6571C12.7367 52.7403 12.6866 52.8235 12.6532 52.9233L12.6365 52.9733C12.6031 53.0565 12.5697 53.123 12.553 53.1896C12.5363 53.2229 12.5196 53.2562 12.5196 53.2895C12.5029 53.356 12.4695 53.406 12.4528 53.4725C12.4361 53.5225 12.4194 53.589 12.4027 53.639C12.386 53.6722 12.386 53.7222 12.3693 53.7554C12.3526 53.822 12.3359 53.9052 12.3192 53.9718L12.3025 54.0384C12.2858 54.1216 12.2691 54.2048 12.2524 54.3046V54.3379C12.2357 54.4378 12.219 54.5376 12.2023 54.6375C12.1689 54.8538 12.1522 55.0535 12.1522 55.2699V55.3032C12.2524 58.6815 15.0077 61.3276 18.3976 61.3276H52.2961C52.3128 61.3276 52.3295 61.311 52.3462 61.311L56.6712 57.0007C56.7881 56.9507 56.9217 56.8842 57.072 56.8842ZM37.1837 32.2539H37.167C37.1336 32.2539 37.1169 32.2705 37.1169 32.3038L35.781 36.0815C35.7643 36.1148 35.781 36.1481 35.7977 36.1647L38.1189 38.478C38.1356 38.4946 38.1522 38.4946 38.1689 38.4946C38.1856 38.4946 38.1857 38.4946 38.2024 38.4946L41.993 37.1633C42.0264 37.1466 42.0431 37.13 42.0431 37.1133C42.0431 37.0801 42.0431 37.0634 42.0264 37.0468L37.2505 32.2871C37.2338 32.2539 37.2171 32.2539 37.1837 32.2539ZM63.2171 5.77628C63.2004 5.77628 63.1837 5.79292 63.167 5.79292L60.7123 8.23931C60.6789 8.2726 60.6789 8.32252 60.7123 8.35581L66.0225 13.648C66.0392 13.6646 66.0559 13.6646 66.0726 13.6646C66.0893 13.6646 66.106 13.648 66.1227 13.648L68.5774 11.2016C68.5941 11.185 68.5941 11.1683 68.5941 11.1517C68.5941 11.135 68.5774 11.1184 68.5774 11.1018L63.2672 5.80957C63.2672 5.77628 63.2505 5.77628 63.2171 5.77628ZM67.5087 2.11502C67.0913 2.11502 66.7072 2.28144 66.4066 2.56436L64.0688 4.89425C64.0521 4.91089 64.052 4.92753 64.052 4.94418C64.052 4.96082 64.0688 4.97746 64.0688 4.9941L69.379 10.2863C69.3957 10.3029 69.4124 10.3029 69.4291 10.3029C69.4458 10.3029 69.4624 10.2863 69.4791 10.2863L71.817 7.9564C72.1176 7.65684 72.2679 7.27407 72.2679 6.85802C72.2679 6.44197 72.1009 6.0592 71.817 5.75964L68.5941 2.54771C68.327 2.2648 67.9262 2.11502 67.5087 2.11502Z" fill="white"/>
</g>
</svg>
