<svg width="92" height="73" viewBox="0 0 92 73" fill="none" xmlns="http://www.w3.org/2000/svg">
<g opacity="0.7">
<path d="M21.8508 31.1161C21.6994 31.1161 21.5648 31.0638 21.447 30.9417L18.1834 27.5596C18.0824 27.4549 18.0151 27.298 18.0151 27.1411C18.0151 26.9842 18.0824 26.8448 18.1834 26.7227L21.447 23.3405C21.5479 23.2359 21.6994 23.1662 21.8508 23.1662C22.0022 23.1662 22.1368 23.2185 22.2545 23.3405C22.4732 23.5672 22.4732 23.9333 22.2545 24.1599L19.7311 26.775C19.647 26.8622 19.5965 27.0017 19.5965 27.1237C19.5965 27.2457 19.647 27.3852 19.7311 27.4724L22.2545 30.0875C22.4732 30.3141 22.4732 30.6802 22.2545 30.9069C22.1536 31.0638 22.0022 31.1161 21.8508 31.1161Z" fill="white"/>
<path d="M29.6399 31.1161C29.4884 31.1161 29.3539 31.0638 29.2361 30.9417C29.1352 30.8371 29.0679 30.6802 29.0679 30.5233C29.0679 30.3664 29.1183 30.2269 29.2361 30.1049L31.7595 27.4898C31.9446 27.298 31.9446 26.9842 31.7595 26.7925L29.2361 24.1774C29.1352 24.0728 29.0679 23.9159 29.0679 23.759C29.0679 23.602 29.1183 23.4626 29.2361 23.3405C29.337 23.2359 29.4884 23.1662 29.6399 23.1662C29.7913 23.1662 29.9258 23.2185 30.0436 23.3405L33.3072 26.7227C33.4082 26.8273 33.4755 26.9842 33.4755 27.1411C33.4755 27.298 33.425 27.4375 33.3072 27.5596L30.0436 30.9417C29.9258 31.0638 29.7913 31.1161 29.6399 31.1161Z" fill="white"/>
<path d="M24.5759 31.1161C24.5086 31.1161 24.4413 31.0986 24.374 31.0812C24.2395 31.0289 24.1217 30.9069 24.0712 30.7674C24.0039 30.6279 24.0039 30.471 24.0712 30.3141L26.6283 23.5672C26.7124 23.3405 26.9143 23.201 27.1498 23.201C27.2171 23.201 27.2844 23.2185 27.3517 23.2359C27.4863 23.2882 27.604 23.4103 27.6545 23.5497C27.7218 23.6892 27.7218 23.8461 27.6545 24.003L25.0974 30.7499C25.0133 30.9766 24.8114 31.1161 24.5759 31.1161Z" fill="white"/>
<path d="M19.1928 37.4262C18.89 37.4262 18.6377 37.1649 18.6377 36.8513C18.6377 36.5378 18.89 36.2765 19.1928 36.2765H26.1912C26.494 36.2765 26.7463 36.5378 26.7463 36.8513C26.7463 37.1649 26.494 37.4262 26.1912 37.4262H19.1928Z" fill="white"/>
<path d="M29.9929 37.4262C29.6901 37.4262 29.4377 37.1649 29.4377 36.8513C29.4377 36.5378 29.6901 36.2765 29.9929 36.2765H42.2904C42.5932 36.2765 42.8456 36.5378 42.8456 36.8513C42.8456 37.1649 42.5932 37.4262 42.2904 37.4262H29.9929Z" fill="white"/>
<path d="M19.1928 41.9765C18.89 41.9765 18.6377 41.7152 18.6377 41.4016C18.6377 41.0881 18.89 40.8268 19.1928 40.8268H22.1705C22.4733 40.8268 22.7256 41.0881 22.7256 41.4016C22.7256 41.7152 22.4733 41.9765 22.1705 41.9765H19.1928Z" fill="white"/>
<path d="M38.5054 41.9765C38.2025 41.9765 37.9502 41.7152 37.9502 41.4016C37.9502 41.0881 38.2025 40.8268 38.5054 40.8268H40.3222C40.625 40.8268 40.8774 41.0881 40.8774 41.4016C40.8774 41.7152 40.625 41.9765 40.3222 41.9765H38.5054Z" fill="white"/>
<path d="M25.821 41.9765C25.5182 41.9765 25.2659 41.7152 25.2659 41.4016C25.2659 41.0881 25.5182 40.8268 25.821 40.8268H34.7371C35.0399 40.8268 35.2923 41.0881 35.2923 41.4016C35.2923 41.7152 35.0399 41.9765 34.7371 41.9765H25.821Z" fill="white"/>
<path d="M43.6028 41.9765C43.3 41.9765 43.0476 41.7152 43.0476 41.4016C43.0476 41.0881 43.3 40.8268 43.6028 40.8268H47.001C47.3038 40.8268 47.5561 41.0881 47.5561 41.4016C47.5561 41.7152 47.3038 41.9765 47.001 41.9765H43.6028Z" fill="white"/>
<path d="M36.9072 27.5237C36.6044 27.5237 36.3521 27.2624 36.3521 26.9488C36.3521 26.6353 36.6044 26.374 36.9072 26.374H40.4905C40.7933 26.374 41.0456 26.6353 41.0456 26.9488C41.0456 27.2624 40.7933 27.5237 40.4905 27.5237H36.9072Z" fill="white"/>
<path d="M44.5112 27.5237C44.2084 27.5237 43.9561 27.2624 43.9561 26.9488C43.9561 26.6353 44.2084 26.374 44.5112 26.374H66.3978C66.7006 26.374 66.9529 26.6353 66.9529 26.9488C66.9529 27.2624 66.7006 27.5237 66.3978 27.5237H44.5112Z" fill="white"/>
<path d="M54.2012 32.2658C53.8983 32.2658 53.646 32.0045 53.646 31.6909C53.646 31.3774 53.8983 31.1161 54.2012 31.1161H63.0668C63.3696 31.1161 63.622 31.3774 63.622 31.6909C63.622 32.0045 63.3696 32.2658 63.0668 32.2658H54.2012Z" fill="white"/>
<path d="M47.842 32.2658C47.5392 32.2658 47.2869 32.0045 47.2869 31.6909C47.2869 31.3774 47.5392 31.1161 47.842 31.1161H50.887C51.1898 31.1161 51.4421 31.3774 51.4421 31.6909C51.4421 32.0045 51.1898 32.2658 50.887 32.2658H47.842Z" fill="white"/>
<path d="M36.9072 32.2658C36.6044 32.2658 36.3521 32.0045 36.3521 31.6909C36.3521 31.3774 36.6044 31.1161 36.9072 31.1161H44.3766C44.6794 31.1161 44.9317 31.3774 44.9317 31.6909C44.9317 32.0045 44.6794 32.2658 44.3766 32.2658H36.9072Z" fill="white"/>
<path d="M46.3449 37.4262C46.0421 37.4262 45.7898 37.1649 45.7898 36.8513C45.7898 36.5378 46.0421 36.2765 46.3449 36.2765H53.3433C53.6461 36.2765 53.8984 36.5378 53.8984 36.8513C53.8984 37.1649 53.6461 37.4262 53.3433 37.4262H46.3449Z" fill="white"/>
<path d="M57.1621 37.4262C56.8593 37.4262 56.6069 37.1649 56.6069 36.8513C56.6069 36.5378 56.8593 36.2765 57.1621 36.2765H69.4596C69.7624 36.2765 70.0148 36.5378 70.0148 36.8513C70.0148 37.1649 69.7624 37.4262 69.4596 37.4262H57.1621Z" fill="white"/>
<path d="M46.3449 41.9765C46.0421 41.9765 45.7898 41.7152 45.7898 41.4016C45.7898 41.0881 46.0421 40.8268 46.3449 40.8268H49.3226C49.6254 40.8268 49.8777 41.0881 49.8777 41.4016C49.8777 41.7152 49.6254 41.9765 49.3226 41.9765H46.3449Z" fill="white"/>
<path d="M65.6577 41.9765C65.3549 41.9765 65.1025 41.7152 65.1025 41.4016C65.1025 41.0881 65.3549 40.8268 65.6577 40.8268H67.4746C67.7774 40.8268 68.0297 41.0881 68.0297 41.4016C68.0297 41.7152 67.7774 41.9765 67.4746 41.9765H65.6577Z" fill="white"/>
<path d="M52.9729 41.9765C52.6701 41.9765 52.4177 41.7152 52.4177 41.4016C52.4177 41.0881 52.6701 40.8268 52.9729 40.8268H61.889C62.1918 40.8268 62.4442 41.0881 62.4442 41.4016C62.4442 41.7152 62.1918 41.9765 61.889 41.9765H52.9729Z" fill="white"/>
<path d="M70.7717 41.9765C70.4689 41.9765 70.2166 41.7152 70.2166 41.4016C70.2166 41.0881 70.4689 40.8268 70.7717 40.8268H74.1699C74.4727 40.8268 74.7251 41.0881 74.7251 41.4016C74.7251 41.7152 74.4727 41.9765 74.1699 41.9765H70.7717Z" fill="white"/>
<path d="M30.094 69C29.4042 69 28.8323 68.4247 28.8323 67.6925V65.3737C28.8323 63.4734 30.3127 61.9393 32.1464 61.9393H35.2754C35.5446 61.9393 35.7465 61.7126 35.7465 61.4511V57.5982C35.7465 57.3193 35.5278 57.1101 35.2754 57.1101H25.2994C24.9966 57.1101 24.7443 56.8485 24.7443 56.5347C24.7443 56.2209 24.9966 55.9594 25.2994 55.9594H47.5561L77.8541 55.7153C77.9214 55.7153 77.9887 55.6979 78.056 55.663C79.1158 55.1574 79.7888 54.0591 79.7888 52.8562V51.0605C79.7888 50.7815 79.5701 50.5723 79.3177 50.5723H12.5814C12.3122 50.5723 12.1103 50.799 12.1103 51.0605V52.8562C12.1103 54.5473 13.4393 55.942 15.088 55.942H18.9909C19.2937 55.942 19.546 56.2035 19.546 56.5173C19.546 56.8311 19.2937 57.0926 18.9909 57.0926H15.088C12.8337 57.0926 11 55.1923 11 52.8562V9.23645C11 6.9003 12.8337 5 15.088 5H76.9121C78.0055 5 79.0317 5.43585 79.8056 6.23781C80.5794 7.03977 81 8.10324 81 9.23645L80.9159 52.8387C80.9159 54.8088 79.6373 56.4999 77.8037 56.9531L56.6236 57.0752C56.3545 57.0752 56.1526 57.3018 56.1526 57.5633V61.4162C56.1526 61.6952 56.3713 61.9044 56.6236 61.9044H59.7527C61.5864 61.9044 63.0668 63.4386 63.0668 65.3389V67.6576C63.0668 68.3724 62.5117 68.9651 61.8051 68.9651H30.094V69ZM32.1464 63.1073C30.9351 63.1073 29.9594 64.1185 29.9594 65.3737V67.3438C29.9594 67.6227 30.1781 67.8319 30.4304 67.8319H61.4686C61.7378 67.8319 61.9397 67.6053 61.9397 67.3438V65.3737C61.9397 64.1185 60.964 63.1073 59.7527 63.1073H32.1464ZM37.3614 57.0926C37.0923 57.0926 36.8904 57.3193 36.8904 57.5808V61.4337C36.8904 61.7126 37.1091 61.9218 37.3614 61.9218H54.5376C54.8068 61.9218 55.0087 61.6952 55.0087 61.4337V57.5808C55.0087 57.3018 54.79 57.0926 54.5376 57.0926H37.3614ZM12.5814 18.6508C12.3122 18.6508 12.1103 18.8774 12.1103 19.1389V48.8987C12.1103 49.1776 12.329 49.3868 12.5814 49.3868H79.3177C79.5869 49.3868 79.7888 49.1602 79.7888 48.8987V19.1389C79.7888 18.86 79.5701 18.6508 79.3177 18.6508H12.5814ZM15.1552 6.15064C13.5234 6.15064 12.1776 7.52792 12.1776 9.23645V16.9946C12.1776 17.2735 12.3963 17.4827 12.6487 17.4827H79.3009C79.5701 17.4827 79.7719 17.2561 79.7719 16.9946V9.23645C79.7719 7.54535 78.4429 6.15064 76.7943 6.15064H15.1552V6.15064Z" fill="white"/>
<path d="M18.1667 14.4492C16.7535 14.4492 15.5928 13.2463 15.5928 11.7818C15.5928 10.3174 16.7535 9.11444 18.1667 9.11444C19.5798 9.11444 20.7406 10.3174 20.7406 11.7818C20.7406 13.2637 19.5798 14.4492 18.1667 14.4492ZM18.1667 10.2825C17.376 10.2825 16.7199 10.9624 16.7199 11.7818C16.7199 12.6012 17.376 13.2812 18.1667 13.2812C18.9573 13.2812 19.6134 12.6012 19.6134 11.7818C19.6134 10.9624 18.9573 10.2825 18.1667 10.2825Z" fill="white"/>
<path d="M25.9218 14.4492C24.5087 14.4492 23.3479 13.2463 23.3479 11.7818C23.3479 10.3174 24.5087 9.11444 25.9218 9.11444C27.3349 9.11444 28.4957 10.3174 28.4957 11.7818C28.4957 13.2637 27.3517 14.4492 25.9218 14.4492ZM25.9218 10.2825C25.1311 10.2825 24.475 10.9624 24.475 11.7818C24.475 12.6012 25.1311 13.2812 25.9218 13.2812C26.7125 13.2812 27.3686 12.6012 27.3686 11.7818C27.3686 10.9624 26.7293 10.2825 25.9218 10.2825Z" fill="white"/>
<path d="M33.694 14.4492C32.2809 14.4492 31.1201 13.2463 31.1201 11.7818C31.1201 10.3174 32.2809 9.11444 33.694 9.11444C35.1071 9.11444 36.2679 10.3174 36.2679 11.7818C36.2511 13.2637 35.1071 14.4492 33.694 14.4492ZM33.694 10.2825C32.9034 10.2825 32.2473 10.9624 32.2473 11.7818C32.2473 12.6012 32.9034 13.2812 33.694 13.2812C34.4847 13.2812 35.1408 12.6012 35.1408 11.7818C35.1408 10.9624 34.4847 10.2825 33.694 10.2825Z" fill="white"/>
</g>
</svg>
