<svg width="40" height="40" viewBox="0 0 40 40" fill="none" xmlns="http://www.w3.org/2000/svg">
<rect x="4.5" y="4.5" width="30" height="30" rx="15" stroke="black"/>
<path d="M14.8395 26.9093C10.6334 26.9093 7.23077 23.4594 7.23077 19.3006C7.23077 15.1418 10.6334 11.6919 14.8395 11.6919C16.8244 11.6919 18.762 12.448 20.1798 13.8658C20.227 13.9131 20.2743 13.9603 20.227 14.0549C20.227 14.1021 20.1798 14.1966 20.1325 14.2439L18.6202 15.5671C18.573 15.6144 18.5257 15.6144 18.4785 15.6144C18.4312 15.6144 18.3839 15.6144 18.3367 15.5671C17.3915 14.6692 16.1628 14.1966 14.8395 14.1966C12.0039 14.1966 9.68825 16.5123 9.68825 19.3479C9.68825 22.1834 12.0039 24.4991 14.8395 24.4991C16.8716 24.4991 18.4312 23.2231 19.0456 21.0965H14.745C14.6032 21.0965 14.5087 21.0019 14.5087 20.8602V18.8753C14.5087 18.828 14.5559 18.7335 14.5559 18.6862C14.6032 18.639 14.6505 18.639 14.745 18.639H21.5976C21.7393 18.639 21.8339 18.7335 21.8339 18.8753V19.6314C21.7866 23.8375 18.8565 26.9093 14.8395 26.9093Z" fill="#231815"/>
<path d="M21.5503 18.8285H14.6977V20.8134H19.3291C18.762 23.2236 17.1079 24.6887 14.8395 24.6887C11.8621 24.6887 9.45193 22.2785 9.45193 19.3011C9.45193 16.3238 11.8621 13.9136 14.8395 13.9136C16.2572 13.9136 17.5332 14.4807 18.4784 15.3314L19.9907 14.0554C18.6675 12.7321 16.8244 11.9287 14.8395 11.9287C10.7752 11.9287 7.46704 15.2369 7.46704 19.3011C7.46704 23.3654 10.7752 26.6736 14.8395 26.6736C18.762 26.6736 21.5503 23.6962 21.5503 19.632V18.8285Z" fill="#231815"/>
<path d="M26.7487 23.7906C26.6069 23.7906 26.5124 23.6961 26.5124 23.5543V20.9551H23.9131C23.7713 20.9551 23.6768 20.8605 23.6768 20.7188V18.9229C23.6768 18.7811 23.7713 18.6866 23.9131 18.6866H26.5124V16.0874C26.5124 15.9456 26.6069 15.8511 26.7487 15.8511H28.5445C28.6863 15.8511 28.7808 15.9456 28.7808 16.0874V18.6866H31.3801C31.5218 18.6866 31.6164 18.7811 31.6164 18.9229V20.7188C31.6164 20.8605 31.5218 20.9551 31.3801 20.9551H28.7808V23.5543C28.7808 23.6961 28.6863 23.7906 28.5445 23.7906H26.7487Z" fill="#231815"/>
<path d="M31.3801 18.923H28.5445V16.0874H26.7487V18.923H23.9131V20.7188H26.7487V23.5543H28.5445V20.7188H31.3801V18.923Z" fill="#231815"/>
</svg>
