<svg width="40" height="40" viewBox="0 0 40 40" fill="none" xmlns="http://www.w3.org/2000/svg">
<rect x="4.5" y="4.5" width="30" height="30" rx="15" stroke="black"/>
<path d="M15.8544 16H14.6908C14.509 16 14.3635 16.1455 14.3635 16.3273V23.6C14.3635 23.7818 14.509 23.9273 14.6908 23.9273H15.8544C16.0363 23.9273 16.1817 23.7818 16.1817 23.6V16.3273C16.1453 16.1455 15.9999 16 15.8544 16Z" fill="black"/>
<path d="M23.9272 16H22.7636C22.5818 16 22.4363 16.1455 22.4363 16.3273V20.6545L19.0909 16.1455C19.0909 16.1455 19.0909 16.1091 19.0545 16.1091C19.0545 16.1091 19.0545 16.1091 19.0182 16.0727C19.0182 16.0727 19.0182 16.0727 18.9818 16.0727C18.9818 16.0727 18.9818 16.0727 18.9454 16.0727C18.9454 16.0727 18.9454 16.0727 18.9091 16.0727H17.7454C17.5636 16.0727 17.4182 16.2182 17.4182 16.4V23.6727C17.4182 23.8545 17.5636 24 17.7454 24H18.9091C19.0909 24 19.2363 23.8545 19.2363 23.6727V19.2727L22.5818 23.7818C22.6182 23.8182 22.6182 23.8545 22.6545 23.8545C22.6545 23.8545 22.6545 23.8545 22.6909 23.8545C22.6909 23.8545 22.6909 23.8545 22.7272 23.8545C22.7636 23.8545 22.7636 23.8545 22.8 23.8545H23.9636C24.1454 23.8545 24.2909 23.7091 24.2909 23.5273V16.2545C24.2545 16.1455 24.1091 16 23.9272 16Z" fill="black"/>
<path d="M13.0182 22.1091H9.81818V16.3273C9.81818 16.1455 9.67273 16 9.49091 16H8.32727C8.14545 16 8 16.1455 8 16.3273V23.6C8 23.6727 8.03636 23.7818 8.10909 23.8182C8.18182 23.8909 8.25455 23.8909 8.32727 23.8909H13.0182C13.2 23.8909 13.3455 23.7455 13.3455 23.5636V22.4C13.3455 22.2545 13.2 22.1091 13.0182 22.1091Z" fill="black"/>
<path d="M30.4 17.8182C30.5818 17.8182 30.7273 17.6727 30.7273 17.4909V16.3273C30.7273 16.1455 30.5818 16 30.4 16H25.7091C25.6364 16 25.5273 16.0364 25.4909 16.1091C25.4182 16.1818 25.4182 16.2545 25.4182 16.3273V23.6C25.4182 23.6727 25.4546 23.7818 25.5273 23.8182C25.6 23.8909 25.6728 23.9273 25.7455 23.9273H30.4364C30.6182 23.9273 30.7637 23.7818 30.7637 23.6V22.4364C30.7637 22.2545 30.6182 22.1091 30.4364 22.1091H27.2364V20.8727H30.4364C30.6182 20.8727 30.7637 20.7273 30.7637 20.5455V19.3818C30.7637 19.2 30.6182 19.0545 30.4364 19.0545H27.2364V17.8182H30.4Z" fill="black"/>
</svg>
