<svg width="25" height="26" viewBox="0 0 25 26" fill="none" xmlns="http://www.w3.org/2000/svg">
<path d="M12.3928 24.2856C18.6849 24.2856 23.7856 19.1849 23.7856 12.8928C23.7856 6.60073 18.6849 1.5 12.3928 1.5C6.10073 1.5 1 6.60073 1 12.8928C1 19.1849 6.10073 24.2856 12.3928 24.2856Z" fill="black"/>
<path d="M12.3928 7.04301C14.3173 7.04301 14.5482 7.04301 15.318 7.11999C16.0108 7.11999 16.3957 7.27394 16.6266 7.35092C16.9345 7.50488 17.1655 7.65884 17.4734 7.88977C17.7043 8.12071 17.8583 8.35164 18.0122 8.73653C18.0892 8.96747 18.2432 9.35236 18.2432 10.0452C18.2432 10.815 18.3202 11.0459 18.3202 12.9703C18.3202 14.8948 18.3202 15.1257 18.2432 15.8955C18.2432 16.5883 18.0892 16.9732 18.0122 17.2042C17.8583 17.5121 17.7043 17.743 17.4734 18.0509C17.2425 18.2819 17.0115 18.4358 16.6266 18.5898C16.3957 18.6668 16.0108 18.8207 15.318 18.8207C14.5482 18.8207 14.3173 18.8977 12.3928 18.8977C10.4684 18.8977 10.2374 18.8977 9.46764 18.8207C8.77483 18.8207 8.38994 18.6668 8.15901 18.5898C7.85109 18.4358 7.62016 18.2819 7.31224 18.0509C7.08131 17.82 6.92735 17.5891 6.77339 17.2042C6.69642 16.9732 6.54246 16.5883 6.54246 15.8955C6.54246 15.1257 6.46548 14.8948 6.46548 12.9703C6.46548 11.0459 6.46548 10.815 6.54246 10.0452C6.54246 9.35236 6.69642 8.96747 6.77339 8.73653C6.92735 8.42862 7.08131 8.19768 7.31224 7.88977C7.54318 7.65884 7.77411 7.50488 8.15901 7.35092C8.38994 7.27394 8.77483 7.11999 9.46764 7.11999C10.2374 7.04301 10.4684 7.04301 12.3928 7.04301ZM12.3928 5.73438C10.4684 5.73438 10.2374 5.73437 9.46764 5.81135C8.69785 5.81135 8.15901 5.96531 7.69714 6.11927C7.23527 6.27322 6.85037 6.58114 6.46548 6.96603C6.08059 7.35092 5.84965 7.73581 5.61872 8.19768C5.46476 8.65955 5.3108 9.1984 5.3108 9.96819C5.3108 10.738 5.23383 10.9689 5.23383 12.8934C5.23383 14.8178 5.23382 15.0488 5.3108 15.8185C5.3108 16.5883 5.46476 17.1272 5.61872 17.5891C5.77267 18.0509 6.08059 18.4358 6.46548 18.8207C6.85037 19.2056 7.23527 19.4365 7.69714 19.6675C8.15901 19.8214 8.69785 19.9754 9.46764 19.9754C10.2374 19.9754 10.4684 20.0524 12.3928 20.0524C14.3173 20.0524 14.5482 20.0524 15.318 19.9754C16.0878 19.9754 16.6266 19.8214 17.0885 19.6675C17.5504 19.5135 17.9353 19.2056 18.3202 18.8207C18.705 18.4358 18.936 18.0509 19.1669 17.5891C19.3209 17.1272 19.4748 16.5883 19.4748 15.8185C19.4748 15.0488 19.5518 14.8178 19.5518 12.8934C19.5518 10.9689 19.5518 10.738 19.4748 9.96819C19.4748 9.1984 19.3209 8.65955 19.1669 8.19768C19.013 7.73581 18.705 7.35092 18.3202 6.96603C17.9353 6.58114 17.5504 6.3502 17.0885 6.11927C16.6266 5.96531 16.0878 5.81135 15.318 5.81135C14.6252 5.73437 14.3173 5.73438 12.3928 5.73438Z" fill="white"/>
<path d="M12.3928 9.19824C10.3914 9.19824 8.69785 10.8148 8.69785 12.8932C8.69785 14.9716 10.3144 16.5882 12.3928 16.5882C14.3943 16.5882 16.0878 14.9716 16.0878 12.8932C16.0878 10.8148 14.4712 9.19824 12.3928 9.19824ZM12.3928 15.2795C11.0842 15.2795 10.0065 14.2018 10.0065 12.8932C10.0065 11.5846 11.0842 10.5069 12.3928 10.5069C13.7014 10.5069 14.7791 11.5846 14.7791 12.8932C14.7791 14.2018 13.7014 15.2795 12.3928 15.2795Z" fill="white"/>
<path d="M16.2418 9.89079C16.7094 9.89079 17.0885 9.51168 17.0885 9.04403C17.0885 8.57637 16.7094 8.19727 16.2418 8.19727C15.7741 8.19727 15.395 8.57637 15.395 9.04403C15.395 9.51168 15.7741 9.89079 16.2418 9.89079Z" fill="white"/>
</svg>
