<svg width="25" height="25" viewBox="0 0 25 25" fill="none" xmlns="http://www.w3.org/2000/svg">
<path d="M23.7856 12.3928C23.7856 6.08058 18.705 1 12.3928 1C6.08057 1 1 6.08058 1 12.3928C1 18.0892 5.15683 22.7849 10.6223 23.6317V15.7029H7.69712V12.3928H10.6223V9.85252C10.6223 7.00432 12.3158 5.38777 14.9331 5.38777C16.1647 5.38777 17.4734 5.61871 17.4734 5.61871V8.46691H16.0878C14.7022 8.46691 14.2403 9.31367 14.2403 10.2374V12.3928H17.3964L16.8576 15.7029H14.2403V23.6317C19.6288 22.7849 23.7856 18.0892 23.7856 12.3928Z" fill="black"/>
<path d="M16.8575 15.703L17.3964 12.3929H14.2403V10.2375C14.2403 9.31376 14.7021 8.467 16.0878 8.467H17.5503V5.69578C17.5503 5.69578 16.2417 5.46484 15.0101 5.46484C12.3928 5.46484 10.6993 7.00441 10.6993 9.92959V12.4699H7.77408V15.78H10.6993V23.7087C11.3151 23.7857 11.8539 23.8627 12.4698 23.8627C13.0856 23.8627 13.7014 23.7857 14.2403 23.7087V15.703H16.8575Z" fill="white"/>
</svg>
