<svg width="25" height="26" viewBox="0 0 25 26" fill="none" xmlns="http://www.w3.org/2000/svg">
<path d="M12.3928 24.2856C18.6849 24.2856 23.7856 19.1849 23.7856 12.8928C23.7856 6.60073 18.6849 1.5 12.3928 1.5C6.10073 1.5 1 6.60073 1 12.8928C1 19.1849 6.10073 24.2856 12.3928 24.2856Z" fill="black"/>
<path d="M9.31369 8.04297C9.77556 8.04297 10.1604 8.11995 10.5453 8.19693C10.9302 8.2739 11.2381 8.42786 11.5461 8.58182C11.777 8.73577 12.0079 8.96671 12.1619 9.27462C12.3158 9.58254 12.3928 9.96743 12.3928 10.4293C12.3928 10.8912 12.3158 11.2761 12.0849 11.661C11.854 11.9689 11.5461 12.2768 11.0842 12.4307C11.7 12.5847 12.0849 12.8926 12.3928 13.3545C12.7007 13.8164 12.8547 14.2782 12.8547 14.894C12.8547 15.3559 12.7777 15.8178 12.5468 16.1257C12.3928 16.5106 12.0849 16.7415 11.777 16.9725C11.4691 17.2034 11.0842 17.3574 10.6993 17.4343C10.3144 17.5113 9.85254 17.5883 9.46764 17.5883H4.84894V8.04297H9.31369ZM9.00577 11.8919C9.39066 11.8919 9.69858 11.8149 9.92951 11.661C10.1604 11.507 10.3144 11.1991 10.3144 10.8142C10.3144 10.5833 10.2374 10.4293 10.1604 10.2753C10.0835 10.1214 10.0065 10.0444 9.85254 9.96743C9.69858 9.89045 9.54462 9.81347 9.39066 9.81347C9.23671 9.81347 9.00577 9.73649 8.85182 9.73649H6.92736V11.9689H9.00577V11.8919ZM9.15973 15.9717C9.39067 15.9717 9.54462 15.9717 9.77556 15.8948C9.92951 15.8178 10.1604 15.8178 10.2374 15.6638C10.3914 15.5869 10.4684 15.4329 10.5453 15.2789C10.6223 15.125 10.6993 14.894 10.6993 14.6631C10.6993 14.2012 10.5453 13.8164 10.3144 13.5854C10.0065 13.3545 9.69858 13.2775 9.23671 13.2775H6.92736V15.8948H9.15973V15.9717Z" fill="white"/>
<path d="M15.7799 15.895C16.0878 16.2029 16.4727 16.2799 17.0115 16.2799C17.3964 16.2799 17.7043 16.2029 18.0122 15.972C18.3201 15.741 18.4741 15.5871 18.5511 15.3561H20.2446C20.0137 16.2029 19.5518 16.8187 19.013 17.1266C18.4741 17.5115 17.7813 17.6655 17.0115 17.6655C16.4727 17.6655 16.0108 17.5885 15.5489 17.4346C15.0871 17.2806 14.7791 17.0497 14.4712 16.6648C14.1633 16.3569 13.9324 15.972 13.7784 15.5101C13.6245 15.0482 13.5475 14.5864 13.5475 14.0475C13.5475 13.5087 13.6245 13.0468 13.7784 12.5849C13.9324 12.123 14.1633 11.7382 14.4712 11.4302C14.7791 11.1223 15.164 10.8144 15.6259 10.6605C16.0878 10.5065 16.5496 10.3525 17.0885 10.3525C17.7043 10.3525 18.1662 10.4295 18.6281 10.6605C19.0899 10.8914 19.3978 11.1993 19.7058 11.5842C20.0137 11.9691 20.1676 12.431 20.3216 12.8928C20.4755 13.3547 20.4755 13.8935 20.4755 14.4324H15.4719C15.318 15.1252 15.4719 15.664 15.7799 15.895ZM17.9353 12.277C17.7043 12.0461 17.3194 11.8921 16.8576 11.8921C16.5496 11.8921 16.3187 11.9691 16.0878 12.0461C15.8568 12.123 15.7029 12.277 15.6259 12.431C15.4719 12.5849 15.395 12.7389 15.395 12.8928C15.318 13.0468 15.318 13.2007 15.318 13.3547H18.3971C18.3201 12.8928 18.1662 12.5849 17.9353 12.277Z" fill="white"/>
<path d="M18.782 8.65918H14.9331V9.58292H18.782V8.65918Z" fill="white"/>
</svg>
